<svg width="224" height="48" viewBox="0 0 224 48" fill="none" xmlns="http://www.w3.org/2000/svg">
<rect width="224" height="48" rx="10" fill="url(#paint0_linear_473_10143)"/>
<path d="M44.0073 39C40.0002 39 36.2341 37.44 33.4013 34.6061C28.7706 29.9764 27.6713 22.9554 30.6648 17.1375C30.9359 16.6114 31.5809 16.4046 32.1081 16.6746C32.6341 16.9446 32.842 17.5907 32.5709 18.1179C30.0048 23.1054 30.9466 29.1225 34.9163 33.0911C37.3441 35.52 40.5723 36.8571 44.0073 36.8571C47.4413 36.8571 50.6706 35.52 53.0984 33.0911C55.5263 30.6621 56.8645 27.4339 56.8645 24C56.8645 20.565 55.5273 17.3368 53.0984 14.9089C50.6695 12.4811 47.4423 11.1429 44.0073 11.1429C40.5723 11.1429 37.3441 12.4811 34.9163 14.9089C34.4973 15.3279 33.8202 15.3279 33.4013 14.9089C32.9823 14.49 32.9823 13.8129 33.4013 13.3939C36.2341 10.5611 40.0002 9 44.0073 9C48.0145 9 51.7816 10.5611 54.6134 13.3939C57.4473 16.2268 59.0073 19.9929 59.0073 24C59.0073 28.0061 57.4473 31.7732 54.6134 34.6061C51.7816 37.44 48.0145 39 44.0073 39Z" fill="white"/>
<path d="M44.007 30.4284C43.4155 30.4284 42.9355 29.9495 42.9355 29.357V18.6427C42.9355 18.0513 43.4155 17.5713 44.007 17.5713C44.5984 17.5713 45.0784 18.0513 45.0784 18.6427V29.357C45.0784 29.9495 44.5984 30.4284 44.007 30.4284Z" fill="white"/>
<path d="M49.3638 25.0716H38.6496C38.0581 25.0716 37.5781 24.5916 37.5781 24.0001C37.5781 23.4087 38.0581 22.9287 38.6496 22.9287H49.3638C49.9563 22.9287 50.4353 23.4087 50.4353 24.0001C50.4353 24.5916 49.9563 25.0716 49.3638 25.0716Z" fill="white"/>
<path d="M92.6562 30.5L91.3994 26.9316H86.4863L85.2295 30.5H83.0059L87.7871 17.5977H90.125L94.8975 30.5H92.6562ZM90.8545 25.1211L89.6328 21.6055C89.5859 21.4531 89.5186 21.2393 89.4307 20.9639C89.3428 20.6826 89.2549 20.3984 89.167 20.1113C89.0791 19.8184 89.0059 19.5723 88.9473 19.373C88.8887 19.6133 88.8154 19.8828 88.7275 20.1816C88.6455 20.4746 88.5635 20.75 88.4814 21.0078C88.4053 21.2656 88.3467 21.4648 88.3057 21.6055L87.0752 25.1211H90.8545ZM99.6523 30.6758C98.4922 30.6758 97.5605 30.2539 96.8574 29.4102C96.1602 28.5605 95.8115 27.3096 95.8115 25.6572C95.8115 23.9873 96.166 22.7246 96.875 21.8691C97.5898 21.0137 98.5303 20.5859 99.6963 20.5859C100.188 20.5859 100.619 20.6533 100.988 20.7881C101.357 20.917 101.674 21.0928 101.938 21.3154C102.207 21.5381 102.436 21.7871 102.623 22.0625H102.72C102.69 21.8809 102.655 21.6201 102.614 21.2803C102.579 20.9346 102.562 20.6152 102.562 20.3223V16.8242H104.636V30.5H103.019L102.649 29.1729H102.562C102.386 29.4541 102.163 29.709 101.894 29.9375C101.63 30.1602 101.313 30.3389 100.944 30.4736C100.581 30.6084 100.15 30.6758 99.6523 30.6758ZM100.232 28.9971C101.117 28.9971 101.741 28.7422 102.104 28.2324C102.468 27.7227 102.655 26.958 102.667 25.9385V25.666C102.667 24.5762 102.491 23.7412 102.14 23.1611C101.788 22.5752 101.146 22.2822 100.215 22.2822C99.4707 22.2822 98.9023 22.584 98.5098 23.1875C98.123 23.7852 97.9297 24.6201 97.9297 25.6924C97.9297 26.7646 98.123 27.585 98.5098 28.1533C98.9023 28.7158 99.4766 28.9971 100.232 28.9971ZM110.867 30.6758C109.707 30.6758 108.775 30.2539 108.072 29.4102C107.375 28.5605 107.026 27.3096 107.026 25.6572C107.026 23.9873 107.381 22.7246 108.09 21.8691C108.805 21.0137 109.745 20.5859 110.911 20.5859C111.403 20.5859 111.834 20.6533 112.203 20.7881C112.572 20.917 112.889 21.0928 113.152 21.3154C113.422 21.5381 113.65 21.7871 113.838 22.0625H113.935C113.905 21.8809 113.87 21.6201 113.829 21.2803C113.794 20.9346 113.776 20.6152 113.776 20.3223V16.8242H115.851V30.5H114.233L113.864 29.1729H113.776C113.601 29.4541 113.378 29.709 113.108 29.9375C112.845 30.1602 112.528 30.3389 112.159 30.4736C111.796 30.6084 111.365 30.6758 110.867 30.6758ZM111.447 28.9971C112.332 28.9971 112.956 28.7422 113.319 28.2324C113.683 27.7227 113.87 26.958 113.882 25.9385V25.666C113.882 24.5762 113.706 23.7412 113.354 23.1611C113.003 22.5752 112.361 22.2822 111.43 22.2822C110.686 22.2822 110.117 22.584 109.725 23.1875C109.338 23.7852 109.145 24.6201 109.145 25.6924C109.145 26.7646 109.338 27.585 109.725 28.1533C110.117 28.7158 110.691 28.9971 111.447 28.9971ZM130.977 30.5H123.699V17.6504H130.977V19.4258H125.809V22.915H130.651V24.6816H125.809V28.7158H130.977V30.5ZM135.696 25.5254L132.444 20.7705H134.8L137.023 24.1895L139.256 20.7705H141.603L138.333 25.5254L141.77 30.5H139.405L137.023 26.8525L134.633 30.5H132.286L135.696 25.5254ZM148.449 20.5859C149.604 20.5859 150.529 21.0078 151.227 21.8516C151.93 22.6953 152.281 23.9492 152.281 25.6133C152.281 26.7148 152.117 27.6436 151.789 28.3994C151.467 29.1494 151.013 29.7178 150.427 30.1045C149.847 30.4854 149.17 30.6758 148.396 30.6758C147.904 30.6758 147.477 30.6113 147.113 30.4824C146.75 30.3535 146.439 30.1865 146.182 29.9814C145.924 29.7705 145.707 29.542 145.531 29.2959H145.408C145.438 29.5303 145.464 29.791 145.487 30.0781C145.517 30.3594 145.531 30.6172 145.531 30.8516V34.8154H143.457V20.7705H145.145L145.435 22.1152H145.531C145.713 21.8398 145.933 21.585 146.19 21.3506C146.454 21.1162 146.771 20.9316 147.14 20.7969C147.515 20.6562 147.951 20.5859 148.449 20.5859ZM147.896 22.2734C147.327 22.2734 146.87 22.3877 146.524 22.6162C146.185 22.8389 145.936 23.1758 145.777 23.627C145.625 24.0781 145.543 24.6436 145.531 25.3232V25.6133C145.531 26.334 145.604 26.9463 145.751 27.4502C145.903 27.9482 146.152 28.3291 146.498 28.5928C146.85 28.8506 147.324 28.9795 147.922 28.9795C148.426 28.9795 148.842 28.8418 149.17 28.5664C149.504 28.291 149.753 27.8984 149.917 27.3887C150.081 26.8789 150.163 26.2783 150.163 25.5869C150.163 24.5381 149.976 23.7236 149.601 23.1436C149.231 22.5635 148.663 22.2734 147.896 22.2734ZM158.548 20.5859C159.415 20.5859 160.159 20.7646 160.78 21.1221C161.401 21.4795 161.879 21.9863 162.213 22.6426C162.547 23.2988 162.714 24.084 162.714 24.998V26.1055H156.219C156.242 27.0488 156.494 27.7754 156.975 28.2852C157.461 28.7949 158.141 29.0498 159.014 29.0498C159.635 29.0498 160.191 28.9912 160.684 28.874C161.182 28.751 161.694 28.5723 162.222 28.3379V30.0166C161.735 30.2451 161.24 30.4121 160.736 30.5176C160.232 30.623 159.629 30.6758 158.926 30.6758C157.971 30.6758 157.13 30.4912 156.403 30.1221C155.683 29.7471 155.117 29.1904 154.707 28.4521C154.303 27.7139 154.101 26.7969 154.101 25.7012C154.101 24.6113 154.285 23.6855 154.654 22.9238C155.023 22.1621 155.542 21.582 156.21 21.1836C156.878 20.7852 157.657 20.5859 158.548 20.5859ZM158.548 22.1416C157.897 22.1416 157.37 22.3525 156.966 22.7744C156.567 23.1963 156.333 23.8145 156.263 24.6289H160.692C160.687 24.1426 160.604 23.7119 160.446 23.3369C160.294 22.9619 160.06 22.6689 159.743 22.458C159.433 22.2471 159.034 22.1416 158.548 22.1416ZM170.114 20.5859C171.21 20.5859 172.062 20.8701 172.672 21.4385C173.287 22.001 173.595 22.9062 173.595 24.1543V30.5H171.529V24.541C171.529 23.7852 171.374 23.2197 171.063 22.8447C170.753 22.4639 170.272 22.2734 169.622 22.2734C168.679 22.2734 168.022 22.5635 167.653 23.1436C167.29 23.7236 167.108 24.5645 167.108 25.666V30.5H165.043V20.7705H166.651L166.941 22.0889H167.056C167.267 21.749 167.527 21.4707 167.838 21.2539C168.154 21.0312 168.506 20.8643 168.893 20.7529C169.285 20.6416 169.692 20.5859 170.114 20.5859ZM183.025 27.7227C183.025 28.3613 182.87 28.9004 182.56 29.3398C182.249 29.7793 181.795 30.1133 181.197 30.3418C180.605 30.5645 179.879 30.6758 179.018 30.6758C178.338 30.6758 177.752 30.626 177.26 30.5264C176.773 30.4326 176.313 30.2861 175.88 30.0869V28.3027C176.343 28.5195 176.861 28.707 177.436 28.8652C178.016 29.0234 178.563 29.1025 179.079 29.1025C179.759 29.1025 180.248 28.9971 180.547 28.7861C180.846 28.5693 180.995 28.2822 180.995 27.9248C180.995 27.7139 180.934 27.5264 180.811 27.3623C180.693 27.1924 180.471 27.0195 180.143 26.8438C179.82 26.6621 179.346 26.4453 178.719 26.1934C178.104 25.9473 177.585 25.7012 177.163 25.4551C176.741 25.209 176.422 24.9131 176.205 24.5674C175.988 24.2158 175.88 23.7676 175.88 23.2227C175.88 22.3613 176.22 21.708 176.899 21.2627C177.585 20.8115 178.49 20.5859 179.615 20.5859C180.213 20.5859 180.775 20.6475 181.303 20.7705C181.836 20.8877 182.357 21.0605 182.867 21.2891L182.217 22.8447C181.777 22.6514 181.335 22.4932 180.89 22.3701C180.45 22.2412 180.002 22.1768 179.545 22.1768C179.012 22.1768 178.604 22.2588 178.323 22.4229C178.048 22.5869 177.91 22.8213 177.91 23.126C177.91 23.3545 177.978 23.5479 178.112 23.7061C178.247 23.8643 178.479 24.0225 178.807 24.1807C179.141 24.3389 179.604 24.5352 180.195 24.7695C180.775 24.9922 181.276 25.2266 181.698 25.4727C182.126 25.7129 182.454 26.0088 182.683 26.3604C182.911 26.7119 183.025 27.166 183.025 27.7227ZM189.134 20.5859C190.001 20.5859 190.745 20.7646 191.366 21.1221C191.987 21.4795 192.465 21.9863 192.799 22.6426C193.133 23.2988 193.3 24.084 193.3 24.998V26.1055H186.805C186.828 27.0488 187.08 27.7754 187.561 28.2852C188.047 28.7949 188.727 29.0498 189.6 29.0498C190.221 29.0498 190.777 28.9912 191.27 28.874C191.768 28.751 192.28 28.5723 192.808 28.3379V30.0166C192.321 30.2451 191.826 30.4121 191.322 30.5176C190.818 30.623 190.215 30.6758 189.512 30.6758C188.557 30.6758 187.716 30.4912 186.989 30.1221C186.269 29.7471 185.703 29.1904 185.293 28.4521C184.889 27.7139 184.687 26.7969 184.687 25.7012C184.687 24.6113 184.871 23.6855 185.24 22.9238C185.609 22.1621 186.128 21.582 186.796 21.1836C187.464 20.7852 188.243 20.5859 189.134 20.5859ZM189.134 22.1416C188.483 22.1416 187.956 22.3525 187.552 22.7744C187.153 23.1963 186.919 23.8145 186.849 24.6289H191.278C191.272 24.1426 191.19 23.7119 191.032 23.3369C190.88 22.9619 190.646 22.6689 190.329 22.458C190.019 22.2471 189.62 22.1416 189.134 22.1416Z" fill="white"/>
<defs>
<linearGradient id="paint0_linear_473_10143" x1="206.716" y1="-3.5" x2="15.2723" y2="48.2279" gradientUnits="userSpaceOnUse">
<stop stop-color="#027DC2"/>
<stop offset="1" stop-color="#1F3B90"/>
</linearGradient>
</defs>
</svg>
