<svg width="32" height="32" viewBox="0 0 32 32" fill="none" xmlns="http://www.w3.org/2000/svg">
<path d="M29.1786 13.578C29.2545 13.578 29.3182 13.578 29.382 13.578C30.1378 13.578 30.8937 13.5776 31.6498 13.578C31.9209 13.578 31.9996 13.6552 31.9996 13.9231C31.9999 15.2753 31.9996 16.6278 31.9996 17.98C31.9996 18.2355 31.9181 18.3163 31.659 18.317C30.9089 18.318 30.1591 18.3173 29.409 18.3173C29.3445 18.3173 29.2803 18.3173 29.1988 18.3173C28.8519 20.2357 28.1319 21.9954 27.0108 23.6353C27.0784 23.6874 27.1504 23.731 27.2081 23.7884C27.7361 24.3128 28.2619 24.8394 28.7874 25.3659C28.9692 25.548 28.9728 25.6554 28.7974 25.8305C27.8335 26.7957 26.869 27.7602 25.9034 28.7244C25.7334 28.8945 25.6228 28.8941 25.4513 28.7233C24.9116 28.1854 24.373 27.6468 23.8362 27.1064C23.7908 27.0607 23.7621 26.9984 23.7274 26.9463C22.095 28.0823 20.3463 28.8154 18.4226 29.1804C18.4226 29.2474 18.4226 29.3105 18.4226 29.3739C18.4226 30.1297 18.4226 30.8855 18.4226 31.6417C18.4226 31.9259 18.3489 32.0006 18.0693 32.0006C16.7228 32.0006 15.3763 32.001 14.0301 32.0006C13.7629 32.0006 13.6846 31.922 13.6846 31.6509C13.6839 30.8423 13.6846 30.0337 13.6846 29.1999C11.7726 28.8541 10.0122 28.1365 8.39961 27.0338C8.35036 27.0795 8.30287 27.121 8.25823 27.1656C7.71927 27.7039 7.18103 28.2428 6.64172 28.7811C6.44931 28.9731 6.34548 28.9728 6.15095 28.7782C5.19458 27.8222 4.23821 26.8658 3.28254 25.9091C3.10502 25.7316 3.10537 25.6242 3.28432 25.4449C3.81831 24.9099 4.35266 24.3752 4.88843 23.8422C4.93414 23.7969 4.99189 23.7632 5.04894 23.7207C3.92284 22.0999 3.18545 20.3537 2.82084 18.4229C2.75422 18.4229 2.68548 18.4229 2.61709 18.4229C1.86127 18.4229 1.10546 18.4233 0.349294 18.4229C0.0775125 18.4229 0.000265757 18.346 0.000265757 18.0774C-8.85857e-05 16.7309 -8.85857e-05 15.3844 0.000265757 14.0383C0.000265757 13.7573 0.0732604 13.6864 0.359569 13.6861C1.10369 13.685 1.84781 13.6846 2.59193 13.6839C2.65642 13.6839 2.72056 13.6839 2.80064 13.6839C3.14719 11.7701 3.86331 10.0147 4.9678 8.3989C4.92599 8.35425 4.88453 8.30784 4.84024 8.26354C4.30199 7.72459 3.76339 7.18599 3.22479 6.64668C3.0221 6.44399 3.02316 6.34974 3.22798 6.14493C4.17159 5.20096 5.11485 4.25699 6.05882 3.31337C6.27887 3.09333 6.36533 3.09403 6.58644 3.31514C7.11264 3.84134 7.63954 4.36683 8.16362 4.8948C8.20897 4.94052 8.23838 5.00217 8.27346 5.05391C9.90521 3.92107 11.6525 3.18475 13.5766 2.82154C13.5766 2.75457 13.5766 2.69115 13.5766 2.62772C13.5766 1.8719 13.5766 1.11609 13.5766 0.359924C13.5766 0.0746778 13.6499 0.000265757 13.9291 0.000265757C15.2756 -8.85857e-05 16.6221 -8.85857e-05 17.9683 0.000265757C18.2369 0.000265757 18.3141 0.0775125 18.3145 0.348939C18.3152 1.09908 18.3145 1.84887 18.3145 2.59902C18.3145 2.66315 18.3145 2.72693 18.3145 2.80099C20.234 3.14825 21.9894 3.86579 23.6006 4.96674C23.6484 4.92209 23.6959 4.88063 23.7405 4.83598C24.2795 4.29774 24.8177 3.75843 25.357 3.22018C25.5505 3.02706 25.654 3.02742 25.8475 3.22089C26.796 4.1684 27.7443 5.11591 28.6918 6.06378C28.9033 6.27532 28.903 6.36781 28.6911 6.57935C28.1191 7.15126 27.5469 7.72246 26.9665 8.30217C28.0766 9.89884 28.8126 11.6461 29.1779 13.5766L29.1786 13.578ZM28.3105 25.5824C27.7535 25.0264 27.1897 24.4634 26.6259 23.9007C26.4201 23.6955 26.4119 23.6321 26.5731 23.4004C27.6883 21.7963 28.4076 20.0306 28.735 18.1047C28.7733 17.8797 28.8381 17.8237 29.0631 17.8234C29.8072 17.8227 30.5514 17.8234 31.2951 17.8234C31.3585 17.8234 31.422 17.8234 31.4932 17.8234V14.0716C31.4163 14.0716 31.3522 14.0716 31.288 14.0716C30.556 14.0716 29.8235 14.0716 29.0915 14.0716C28.8122 14.0716 28.7534 14.0216 28.7059 13.7481C28.5132 12.6379 28.173 11.5738 27.6978 10.553C27.3662 9.83966 26.9721 9.16216 26.5154 8.52186C26.3481 8.28728 26.3549 8.22102 26.554 8.02117C26.6164 7.95845 26.6791 7.89573 26.7418 7.83337C27.2425 7.33304 27.7435 6.83271 28.2255 6.35115C27.3385 5.46388 26.4601 4.58511 25.5604 3.68508C25.5317 3.72158 25.4963 3.77756 25.4506 3.82327C24.9258 4.35053 24.3996 4.87673 23.8727 5.40222C23.7019 5.57266 23.6165 5.58152 23.4255 5.44758C21.8207 4.32183 20.0497 3.60004 18.1189 3.26872C17.8708 3.2262 17.8227 3.16809 17.8223 2.91793C17.8216 2.17983 17.8223 1.44173 17.8223 0.703637V0.510874H14.0705C14.0705 1.33366 14.0709 2.14227 14.0705 2.95088C14.0705 3.1766 14.0138 3.24428 13.7948 3.28821C13.5638 3.33463 13.331 3.37432 13.1014 3.42747C11.4377 3.813 9.90982 4.50078 8.51725 5.48975C8.28551 5.65452 8.21889 5.64672 8.01657 5.44439C7.71148 5.13966 7.40674 4.83492 7.10236 4.52983C6.84475 4.27187 6.58785 4.01355 6.33804 3.76339C5.45041 4.65102 4.57412 5.52731 3.65886 6.44257C3.70386 6.47128 3.76729 6.4975 3.81229 6.5425C4.34061 7.06657 4.8661 7.59313 5.39195 8.11968C5.57656 8.30465 5.58329 8.37906 5.43341 8.59414C4.3151 10.1965 3.59507 11.9618 3.2666 13.8873C3.22514 14.1308 3.16561 14.1789 2.91155 14.1793C2.17345 14.18 1.43535 14.1793 0.697258 14.1793C0.63454 14.1793 0.571821 14.1793 0.504141 14.1793V17.9311H0.703636C1.44776 17.9311 2.19188 17.9311 2.93564 17.9311C3.1812 17.9311 3.24711 17.9846 3.28963 18.228C3.62661 20.1471 4.36435 21.8987 5.4901 23.4875C5.65097 23.7147 5.64318 23.7848 5.43978 23.9882C4.92209 24.5059 4.40404 25.0236 3.88634 25.5413C3.84205 25.5856 3.80059 25.6324 3.76977 25.6653C4.65527 26.5508 5.5312 27.4268 6.42982 28.325C6.47482 28.2719 6.52372 28.2045 6.58183 28.1464C7.09031 27.6358 7.59986 27.1266 8.10976 26.6178C8.30606 26.4218 8.37232 26.4144 8.59698 26.5707C10.2004 27.6869 11.9661 28.4062 13.8916 28.7346C14.1269 28.7747 14.1775 28.8363 14.1779 29.0766C14.1786 29.8207 14.1779 30.5648 14.1779 31.3086C14.1779 31.371 14.1779 31.4333 14.1779 31.4939H17.9297C17.9297 31.4188 17.9297 31.355 17.9297 31.2912C17.9297 30.5592 17.9297 29.8267 17.9297 29.0947C17.9297 28.8122 17.9782 28.7552 18.2503 28.707C20.1443 28.3711 21.8756 27.6443 23.4482 26.5384C23.7278 26.3418 23.771 26.3439 24.0162 26.5898C24.5669 27.1412 25.1168 27.6932 25.6572 28.2347C26.5409 27.3516 27.4172 26.4761 28.3112 25.5824H28.3105Z" fill="#3A3A3A"/>
<path d="M27.3566 15.9846C27.3615 22.244 22.2756 27.353 16.0343 27.3579C9.73545 27.3629 4.64673 22.2812 4.64319 15.9824C4.63965 9.75699 9.74502 4.64489 15.9655 4.64453C22.254 4.64453 27.3516 9.71908 27.3566 15.9846ZM16.0031 5.13813C10.0207 5.13388 5.14636 9.99546 5.13714 15.975C5.12758 21.9793 9.98278 26.8519 15.9871 26.8643C21.9727 26.8767 26.8531 22.0091 26.8626 16.0175C26.8718 10.0185 22.0046 5.14203 16.0034 5.13778L16.0031 5.13813Z" fill="#3A3A3A"/>
<path d="M16.0027 22.8602C13.9184 22.8602 11.8339 22.8602 9.74961 22.8602C9.42999 22.8602 9.36302 22.7961 9.36514 22.479C9.37046 21.6821 9.34459 20.883 9.39207 20.0886C9.50688 18.1762 10.9618 16.5377 12.8398 16.1632C13.0358 16.1242 13.237 16.1114 13.4355 16.0827C13.5793 16.0618 13.6793 16.1171 13.771 16.2284C14.3855 16.9757 15.1792 17.3392 16.1466 17.2949C16.9817 17.2567 17.6674 16.9016 18.2003 16.2595C18.3084 16.1291 18.4186 16.0717 18.5926 16.0813C20.478 16.1869 22.1612 17.6535 22.5329 19.5397C22.5963 19.8618 22.6225 20.1952 22.63 20.5241C22.6445 21.1732 22.6342 21.8231 22.6342 22.4726C22.6342 22.7965 22.5722 22.8595 22.2554 22.8595C20.1712 22.8595 18.0866 22.8595 16.0023 22.8595L16.0027 22.8602ZM22.142 22.3581C22.142 21.7058 22.1481 21.0751 22.141 20.4443C22.1194 18.4717 20.7335 16.8864 18.7843 16.5937C18.6503 16.5735 18.5596 16.6029 18.4622 16.7085C17.16 18.1223 14.9613 18.1702 13.6325 16.8017C13.4489 16.6125 13.2898 16.5781 13.0496 16.6185C11.3842 16.8981 10.009 18.3597 9.89063 20.0468C9.83784 20.7987 9.86831 21.5566 9.86193 22.3117C9.86193 22.327 9.87575 22.3422 9.8839 22.3585H22.1424L22.142 22.3581Z" fill="#027DC2"/>
<path d="M15.9949 9.14234C17.841 9.14021 19.3473 10.6409 19.347 12.4817C19.3466 14.3264 17.8485 15.8295 16.0048 15.8352C14.1672 15.8408 12.6552 14.332 12.6531 12.4916C12.651 10.6469 14.1502 9.14446 15.9949 9.14269V9.14234ZM16.0073 9.63594C14.4315 9.6331 13.1495 10.9052 13.147 12.4742C13.1446 14.056 14.4244 15.3423 16.0009 15.3419C17.5614 15.3419 18.847 14.0638 18.8527 12.5068C18.8583 10.9197 17.5884 9.63842 16.0076 9.63558L16.0073 9.63594Z" fill="#027DC2"/>
</svg>
