<svg width="32" height="33" viewBox="0 0 32 33" fill="none" xmlns="http://www.w3.org/2000/svg">
<path d="M4.98503 20.6427C5.73956 20.4058 6.40477 20.0351 7.00996 19.5525C7.75413 18.9596 8.37361 18.2484 8.84948 17.4318C9.72333 15.9327 10.809 14.5942 11.9044 13.2605C12.0894 13.0351 12.2666 12.8022 12.4617 12.5857C12.9118 12.0864 13.2094 11.5049 13.4338 10.8765C13.6492 10.2725 13.8739 9.671 14.1137 9.07627C14.5049 8.10541 15.1886 7.9786 16.1861 8.50047C16.747 8.79373 17.0149 9.34059 17.1732 9.92997C17.529 11.2566 17.4519 12.5618 16.9846 13.8556C16.5041 15.1847 15.8924 16.451 15.2283 17.6947C15.1947 17.7576 15.1586 17.8197 15.1322 17.8858C15.0504 18.0873 15.174 18.2937 15.3898 18.3166C15.4548 18.3234 15.5205 18.3202 15.5863 18.3202C17.1818 18.3216 18.7776 18.3145 20.3732 18.3287C21.0687 18.3348 21.765 18.3709 22.4417 18.5631C23.4284 18.8431 23.8928 19.401 23.9654 20.4237C23.9872 20.7305 23.99 21.0417 23.9664 21.3485C23.9354 21.7539 23.7464 22.0986 23.4649 22.3879C23.3873 22.4676 23.377 22.5344 23.4063 22.639C23.6874 23.6385 23.5802 24.5793 22.9772 25.447C22.9397 25.5013 22.9415 25.6038 22.9611 25.6738C23.2023 26.5336 23.1926 27.3701 22.7143 28.1531C22.5856 28.3635 22.4213 28.5592 22.2423 28.7289C22.1323 28.8332 22.1187 28.9168 22.1484 29.0486C22.3281 29.8433 22.2391 30.5977 21.7868 31.2903C21.3963 31.8887 20.8737 32.2133 20.1249 32.2083C17.4515 32.1905 14.7782 32.1905 12.1048 32.2083C11.321 32.2137 10.589 32.0669 9.86766 31.7676C9.29355 31.5293 8.698 31.3371 8.10102 31.1621C7.82594 31.0814 7.52513 31.07 7.23503 31.0642C6.55053 31.0507 5.86567 31.061 5.18081 31.0564C5.07863 31.0557 5.02683 31.0853 4.98074 31.1825C4.66421 31.8494 4.12654 32.1858 3.39345 32.1994C2.84006 32.2098 2.28595 32.2055 1.73221 32.2001C0.74975 32.1908 0.00415457 31.4472 0.0030828 30.4634C-0.00084703 27.4333 -0.00120429 24.4032 0.0030828 21.3731C0.00451182 20.3905 0.752965 19.6497 1.73685 19.6411C2.22522 19.6368 2.71359 19.6525 3.2016 19.6375C3.99507 19.6129 4.59955 19.9111 4.98503 20.643V20.6427ZM5.14258 29.9273C5.75885 29.9273 6.3544 29.9166 6.94887 29.9309C7.3465 29.9405 7.74555 29.9662 8.13961 30.0184C8.8777 30.1166 9.56113 30.4024 10.2356 30.6985C10.8458 30.9664 11.4685 31.0828 12.1391 31.0782C14.8239 31.0589 17.509 31.0671 20.1942 31.0753C20.4371 31.076 20.6047 30.9874 20.7454 30.811C21.1252 30.3345 21.1838 29.7969 21.0334 29.2261C21.0219 29.1822 20.934 29.1318 20.8805 29.13C20.5711 29.1207 20.2613 29.1325 19.9519 29.1229C19.6104 29.1125 19.3725 28.8611 19.3828 28.5399C19.3932 28.2238 19.6336 27.9991 19.9702 27.997C20.351 27.9945 20.7326 27.9891 21.113 27.9988C21.3506 28.0049 21.5214 27.9123 21.6575 27.7234C22.0076 27.2376 22.0501 26.705 21.9186 26.1406C21.8954 26.041 21.8368 26.0331 21.749 26.0346C21.2967 26.0417 20.844 26.046 20.3917 26.0424C20.033 26.0396 19.789 25.802 19.7923 25.473C19.7951 25.1462 20.042 24.9226 20.4057 24.9208C20.8104 24.919 21.2152 24.9169 21.62 24.9215C21.8922 24.9247 22.0805 24.8154 22.2023 24.565C22.4274 24.1025 22.4849 23.627 22.3731 23.1252C22.3445 22.997 22.3027 22.9512 22.1634 22.9552C21.7232 22.9673 21.2824 22.963 20.8419 22.9602C20.7661 22.9598 20.6861 22.9484 20.6154 22.9223C20.3728 22.833 20.2238 22.5747 20.2617 22.3251C20.3021 22.0597 20.5139 21.855 20.7836 21.8489C21.212 21.8393 21.6411 21.8489 22.0694 21.8428C22.5113 21.8364 22.8532 21.5364 22.8611 21.1335C22.8665 20.8606 22.8497 20.5862 22.8239 20.3144C22.7971 20.0304 22.646 19.8275 22.3709 19.7286C22.2705 19.6925 22.1702 19.6536 22.0669 19.6282C21.4496 19.4768 20.819 19.4536 20.1881 19.4518C18.6222 19.4471 17.0567 19.4507 15.4909 19.4493C14.87 19.4486 14.397 19.1857 14.1197 18.6241C13.8889 18.1566 13.9608 17.6994 14.1873 17.2382C14.7006 16.1934 15.2162 15.1483 15.6863 14.0838C16.1332 13.0722 16.4147 12.0149 16.214 10.8926C16.1497 10.5333 16.0478 10.1771 15.9257 9.83281C15.8421 9.59706 15.652 9.43811 15.3944 9.36953C15.2697 9.33631 15.2061 9.36738 15.1622 9.48276C15.0018 9.90461 14.8157 10.3179 14.6792 10.7472C14.3337 11.8335 13.795 12.7961 13.0451 13.6638C12.2599 14.5721 11.5243 15.5262 10.8072 16.4902C10.3575 17.0946 9.99341 17.7619 9.57042 18.387C8.69086 19.6879 7.58729 20.7416 6.14218 21.3999C5.81851 21.5474 5.48055 21.6632 5.14187 21.7964V29.9266L5.14258 29.9273ZM4.00293 25.9388C4.00293 24.4211 4.00365 22.903 4.00257 21.3853C4.00257 21.0088 3.76571 20.7727 3.38988 20.7713C2.8422 20.7691 2.29453 20.7691 1.74685 20.7713C1.36995 20.7723 1.13309 21.0077 1.13309 21.3838C1.13237 24.4075 1.13237 27.4316 1.13309 30.4552C1.13309 30.8321 1.36923 31.0682 1.74542 31.0696C2.27524 31.0717 2.80505 31.0703 3.33486 31.0703C3.78358 31.0703 4.00293 30.851 4.00293 30.4034C4.00293 28.9153 4.00293 27.4273 4.00293 25.9392V25.9388Z" fill="#3A3A3A"/>
<path d="M30.8522 1.34617H14.8595V7.0431H13.7292C13.7263 6.98131 13.721 6.9238 13.721 6.86593C13.7206 4.8717 13.7206 2.87783 13.721 0.883599C13.721 0.420314 13.9339 0.208496 14.3994 0.208496C20.0312 0.208496 25.6634 0.208496 31.2951 0.208496C31.7971 0.208496 31.9997 0.411384 31.9997 0.911103C31.9997 6.73877 31.9997 12.5661 31.9997 18.3938C31.9997 18.7206 31.8739 18.9324 31.6256 19.0192C31.3691 19.1089 31.1648 19.0199 30.9815 18.8363C29.7915 17.6436 28.5975 16.4552 27.4111 15.2593C27.2674 15.1147 27.1263 15.0504 26.9173 15.0511C23.9285 15.0586 20.9401 15.0561 17.9512 15.0561C17.8812 15.0561 17.8112 15.0561 17.7315 15.0561V13.9256C17.7983 13.9256 17.8566 13.9256 17.9145 13.9256C21.058 13.9256 24.2015 13.9263 27.345 13.9234C27.569 13.9234 27.7437 14.0002 27.9001 14.1578C28.8236 15.0865 29.7511 16.0109 30.6764 16.9378C30.7264 16.9878 30.7664 17.0482 30.8111 17.1039C30.8246 17.0957 30.8382 17.0878 30.8522 17.0796V1.34617Z" fill="#3A3A3A"/>
<path d="M22.2845 7.46431C22.3702 7.35215 22.4081 7.28964 22.4581 7.23928C23.766 5.92979 25.075 4.62138 26.384 3.31297C26.7134 2.98363 27.0096 2.98292 27.3379 3.31083C27.8641 3.83662 28.3907 4.36206 28.9155 4.88928C29.2188 5.19397 29.2188 5.50009 28.9137 5.80513C26.8563 7.8633 24.7981 9.92076 22.74 11.9779C22.4438 12.2736 22.1334 12.2733 21.8372 11.9779C20.5404 10.6823 19.2442 9.38675 17.9485 8.08976C17.6441 7.78507 17.6451 7.48003 17.9495 7.17463C18.4833 6.63919 19.0177 6.10482 19.5529 5.57153C19.8476 5.27791 20.1581 5.27934 20.4557 5.57581C21.0119 6.13018 21.5678 6.68562 22.1216 7.24285C22.1712 7.29286 22.2062 7.35751 22.2845 7.46538V7.46431ZM22.2748 10.772C24.0868 8.96061 25.911 7.13712 27.708 5.34042C27.4304 5.06216 27.1342 4.76497 26.8113 4.441C26.7802 4.48243 26.743 4.5453 26.693 4.59531C25.3765 5.91372 24.059 7.23142 22.7407 8.54805C22.4445 8.84381 22.1334 8.84274 21.8376 8.54805C21.2727 7.98475 20.709 7.42038 20.1445 6.85672C20.0999 6.81207 20.0527 6.76956 20.0288 6.74706C19.7176 7.05746 19.4204 7.35394 19.1378 7.63612C20.1831 8.68128 21.242 9.74001 22.2748 10.7723V10.772Z" fill="#009618"/>
</svg>
