<svg width="32" height="32" viewBox="0 0 32 32" fill="none" xmlns="http://www.w3.org/2000/svg">
<path d="M4.98503 20.4342C5.73956 20.1973 6.40477 19.8266 7.00996 19.344C7.75413 18.7511 8.37361 18.0399 8.84948 17.2233C9.72333 15.7242 10.809 14.3858 11.9044 13.052C12.0894 12.8266 12.2666 12.5937 12.4617 12.3772C12.9118 11.8779 13.2094 11.2964 13.4338 10.668C13.6492 10.064 13.8739 9.46251 14.1137 8.86777C14.5049 7.89691 15.1886 7.77011 16.1861 8.29197C16.747 8.58523 17.0149 9.1321 17.1732 9.72147C17.529 11.0481 17.4519 12.3533 16.9846 13.6471C16.5041 14.9762 15.8924 16.2425 15.2283 17.4862C15.1947 17.5491 15.1586 17.6112 15.1322 17.6773C15.0504 17.8788 15.174 18.0852 15.3898 18.1081C15.4548 18.1149 15.5205 18.1117 15.5863 18.1117C17.1818 18.1131 18.7776 18.106 20.3732 18.1202C21.0687 18.1263 21.765 18.1624 22.4417 18.3546C23.4284 18.6346 23.8928 19.1926 23.9654 20.2152C23.9872 20.522 23.99 20.8332 23.9664 21.14C23.9354 21.5454 23.7464 21.8901 23.4649 22.1794C23.3873 22.2591 23.377 22.3259 23.4063 22.4305C23.6874 23.43 23.5802 24.3708 22.9772 25.2385C22.9397 25.2928 22.9415 25.3953 22.9611 25.4653C23.2023 26.3251 23.1926 27.1616 22.7143 27.9446C22.5856 28.155 22.4213 28.3507 22.2423 28.5204C22.1323 28.6247 22.1187 28.7083 22.1484 28.8401C22.3281 29.6348 22.2391 30.3892 21.7868 31.0819C21.3963 31.6802 20.8737 32.0049 20.1249 31.9998C17.4515 31.982 14.7782 31.982 12.1048 31.9998C11.321 32.0052 10.589 31.8584 9.86766 31.5591C9.29355 31.3208 8.698 31.1286 8.10102 30.9536C7.82594 30.8729 7.52513 30.8615 7.23503 30.8557C6.55053 30.8422 5.86567 30.8525 5.18081 30.8479C5.07863 30.8472 5.02683 30.8768 4.98074 30.974C4.66421 31.6409 4.12654 31.9773 3.39345 31.9909C2.84006 32.0013 2.28595 31.997 1.73221 31.9916C0.74975 31.9823 0.00415457 31.2387 0.0030828 30.2549C-0.00084703 27.2248 -0.00120429 24.1947 0.0030828 21.1646C0.00451182 20.182 0.752965 19.4412 1.73685 19.4326C2.22522 19.4283 2.71359 19.444 3.2016 19.429C3.99507 19.4044 4.59955 19.7026 4.98503 20.4345V20.4342ZM5.14258 29.7188C5.75885 29.7188 6.3544 29.7081 6.94887 29.7224C7.3465 29.732 7.74555 29.7577 8.13961 29.8099C8.8777 29.9081 9.56113 30.1939 10.2356 30.49C10.8458 30.7579 11.4685 30.8743 12.1391 30.8697C14.8239 30.8504 17.509 30.8586 20.1942 30.8668C20.4371 30.8675 20.6047 30.7789 20.7454 30.6025C21.1252 30.126 21.1838 29.5884 21.0334 29.0176C21.0219 28.9737 20.934 28.9233 20.8805 28.9215C20.5711 28.9122 20.2613 28.924 19.9519 28.9144C19.6104 28.904 19.3725 28.6526 19.3828 28.3314C19.3932 28.0153 19.6336 27.7906 19.9702 27.7885C20.351 27.786 20.7326 27.7806 21.113 27.7903C21.3506 27.7964 21.5214 27.7038 21.6575 27.5149C22.0076 27.0291 22.0501 26.4965 21.9186 25.9321C21.8954 25.8325 21.8368 25.8246 21.749 25.8261C21.2967 25.8332 20.844 25.8375 20.3917 25.8339C20.033 25.8311 19.789 25.5935 19.7923 25.2645C19.7951 24.9377 20.042 24.7141 20.4057 24.7123C20.8104 24.7105 21.2152 24.7084 21.62 24.713C21.8922 24.7162 22.0805 24.6069 22.2023 24.3565C22.4274 23.894 22.4849 23.4186 22.3731 22.9167C22.3445 22.7885 22.3027 22.7427 22.1634 22.7467C21.7232 22.7588 21.2824 22.7545 20.8419 22.7517C20.7661 22.7513 20.6861 22.7399 20.6154 22.7138C20.3728 22.6245 20.2238 22.3662 20.2617 22.1166C20.3021 21.8512 20.5139 21.6465 20.7836 21.6404C21.212 21.6308 21.6411 21.6404 22.0694 21.6343C22.5113 21.6279 22.8532 21.3279 22.8611 20.925C22.8665 20.6521 22.8497 20.3777 22.8239 20.1059C22.7971 19.8219 22.646 19.619 22.3709 19.5201C22.2705 19.484 22.1702 19.4451 22.0669 19.4197C21.4496 19.2683 20.819 19.2451 20.1881 19.2433C18.6222 19.2386 17.0567 19.2422 15.4909 19.2408C14.87 19.2401 14.397 18.9772 14.1197 18.4156C13.8889 17.9481 13.9608 17.4909 14.1873 17.0297C14.7006 15.9849 15.2162 14.9398 15.6863 13.8753C16.1332 12.8637 16.4147 11.8064 16.214 10.6841C16.1497 10.3248 16.0478 9.96865 15.9257 9.62432C15.8421 9.38857 15.652 9.22961 15.3944 9.16103C15.2697 9.12781 15.2061 9.15889 15.1622 9.27426C15.0018 9.69611 14.8157 10.1094 14.6792 10.5387C14.3337 11.625 13.795 12.5876 13.0451 13.4553C12.2599 14.3636 11.5243 15.3177 10.8072 16.2818C10.3575 16.8861 9.99341 17.5534 9.57042 18.1785C8.69086 19.4794 7.58729 20.5331 6.14218 21.1914C5.81851 21.3389 5.48055 21.4547 5.14187 21.5879V29.7181L5.14258 29.7188ZM4.00293 25.7303C4.00293 24.2126 4.00365 22.6945 4.00257 21.1768C4.00257 20.8003 3.76571 20.5642 3.38988 20.5628C2.8422 20.5606 2.29453 20.5606 1.74685 20.5628C1.36995 20.5638 1.13309 20.7992 1.13309 21.1754C1.13237 24.199 1.13237 27.2231 1.13309 30.2467C1.13309 30.6236 1.36923 30.8597 1.74542 30.8611C2.27524 30.8632 2.80505 30.8618 3.33486 30.8618C3.78358 30.8618 4.00293 30.6425 4.00293 30.1949C4.00293 28.7069 4.00293 27.2188 4.00293 25.7307V25.7303Z" fill="white"/>
<path d="M30.8522 1.13767H14.8595V6.83461H13.7292C13.7263 6.77281 13.721 6.7153 13.721 6.65744C13.7206 4.66321 13.7206 2.66933 13.721 0.675102C13.721 0.211818 13.9339 0 14.3994 0C20.0312 0 25.6634 0 31.2951 0C31.7971 0 31.9997 0.202888 31.9997 0.702607C31.9997 6.53028 31.9997 12.3576 31.9997 18.1853C31.9997 18.5121 31.8739 18.7239 31.6256 18.8107C31.3691 18.9004 31.1648 18.8114 30.9815 18.6278C29.7915 17.4351 28.5975 16.2467 27.4111 15.0509C27.2674 14.9062 27.1263 14.8419 26.9173 14.8426C23.9285 14.8501 20.9401 14.8476 17.9512 14.8476C17.8812 14.8476 17.8112 14.8476 17.7315 14.8476V13.7171C17.7983 13.7171 17.8566 13.7171 17.9145 13.7171C21.058 13.7171 24.2015 13.7178 27.345 13.7149C27.569 13.7149 27.7437 13.7917 27.9001 13.9493C28.8236 14.878 29.7511 15.8024 30.6764 16.7293C30.7264 16.7793 30.7664 16.8397 30.8111 16.8954C30.8246 16.8872 30.8382 16.8793 30.8522 16.8711V1.13767Z" fill="white"/>
<path d="M22.2845 7.25582C22.3702 7.14366 22.4081 7.08115 22.4581 7.03078C23.766 5.7213 25.075 4.41289 26.384 3.10447C26.7134 2.77514 27.0096 2.77442 27.3379 3.10233C27.8641 3.62812 28.3907 4.15356 28.9155 4.68078C29.2188 4.98547 29.2188 5.29159 28.9137 5.59664C26.8563 7.6548 24.7981 9.71226 22.74 11.7694C22.4438 12.0651 22.1334 12.0648 21.8372 11.7694C20.5404 10.4738 19.2442 9.17825 17.9485 7.88127C17.6441 7.57658 17.6451 7.27153 17.9495 6.96613C18.4833 6.43069 19.0177 5.89632 19.5529 5.36303C19.8476 5.06941 20.1581 5.07084 20.4557 5.36732C21.0119 5.92168 21.5678 6.47713 22.1216 7.03435C22.1712 7.08436 22.2062 7.14901 22.2845 7.25689V7.25582ZM22.2748 10.5635C24.0868 8.75211 25.911 6.92862 27.708 5.13192C27.4304 4.85367 27.1342 4.55648 26.8113 4.2325C26.7802 4.27394 26.743 4.3368 26.693 4.38681C25.3765 5.70522 24.059 7.02292 22.7407 8.33955C22.4445 8.63531 22.1334 8.63424 21.8376 8.33955C21.2727 7.77625 20.709 7.21188 20.1445 6.64822C20.0999 6.60357 20.0527 6.56107 20.0288 6.53856C19.7176 6.84897 19.4204 7.14544 19.1378 7.42763C20.1831 8.47279 21.242 9.53152 22.2748 10.5638V10.5635Z" fill="white"/>
</svg>
