<svg width="40" height="40" viewBox="0 0 40 40" fill="none" xmlns="http://www.w3.org/2000/svg">
<circle cx="20" cy="20" r="20" fill="#F4F4F4"/>
<path d="M20.0149 26.3975C18.2674 26.3975 16.5199 26.12 14.8624 25.565C14.2324 25.3475 13.7524 24.905 13.5424 24.3275C13.3249 23.75 13.3999 23.1125 13.7449 22.5425L14.6074 21.11C14.7874 20.81 14.9524 20.21 14.9524 19.8575V17.69C14.9524 14.9 17.2249 12.6275 20.0149 12.6275C22.8049 12.6275 25.0774 14.9 25.0774 17.69V19.8575C25.0774 20.2025 25.2424 20.81 25.4224 21.1175L26.2774 22.5425C26.5999 23.0825 26.6599 23.735 26.4424 24.3275C26.2249 24.92 25.7524 25.37 25.1599 25.565C23.5099 26.12 21.7624 26.3975 20.0149 26.3975ZM20.0149 13.7525C17.8474 13.7525 16.0774 15.515 16.0774 17.69V19.8575C16.0774 20.405 15.8524 21.215 15.5749 21.6875L14.7124 23.12C14.5474 23.3975 14.5024 23.69 14.5999 23.9375C14.6899 24.1925 14.9149 24.3875 15.2224 24.4925C18.3574 25.5425 21.6799 25.5425 24.8149 24.4925C25.0849 24.4025 25.2949 24.2 25.3924 23.93C25.4899 23.66 25.4674 23.3675 25.3174 23.12L24.4549 21.6875C24.1699 21.2 23.9524 20.3975 23.9524 19.85V17.69C23.9524 15.515 22.1899 13.7525 20.0149 13.7525Z" fill="#435872"/>
<path d="M21.41 13.955C21.3575 13.955 21.305 13.9475 21.2525 13.9325C21.035 13.8725 20.825 13.8275 20.6225 13.7975C19.985 13.715 19.37 13.76 18.7925 13.9325C18.5825 14 18.3575 13.9325 18.215 13.775C18.0725 13.6175 18.0275 13.3925 18.11 13.19C18.4175 12.4025 19.1675 11.885 20.0225 11.885C20.8775 11.885 21.6275 12.395 21.935 13.19C22.01 13.3925 21.9725 13.6175 21.83 13.775C21.7175 13.895 21.56 13.955 21.41 13.955Z" fill="#435872"/>
<path d="M20.0151 28.1075C19.2726 28.1075 18.5526 27.8075 18.0276 27.2825C17.5026 26.7575 17.2026 26.0375 17.2026 25.295H18.3276C18.3276 25.7375 18.5076 26.1725 18.8226 26.4875C19.1376 26.8025 19.5726 26.9825 20.0151 26.9825C20.9451 26.9825 21.7026 26.225 21.7026 25.295H22.8276C22.8276 26.8475 21.5676 28.1075 20.0151 28.1075Z" fill="#435872"/>
</svg>
