<svg width="18" height="25" viewBox="0 0 18 25" fill="none" xmlns="http://www.w3.org/2000/svg">
<path d="M11.8498 0C11.8695 0.0112828 11.8883 0.0300875 11.9095 0.0333783C12.9057 0.168772 13.3965 0.863135 13.4924 1.77187C13.546 2.27631 13.5342 2.7878 13.5403 3.29646C13.5478 3.89962 13.537 4.50278 13.545 5.10594C13.5507 5.51636 13.6649 5.89527 13.9456 6.20696C14.4345 6.74995 15.1096 6.69823 15.5087 6.08896C15.7024 5.79279 15.795 5.46323 15.7964 5.11112C15.8002 4.28089 15.8021 3.45019 15.7917 2.61996C15.7908 2.53252 15.7203 2.42063 15.6474 2.36516C15.4622 2.22271 15.2586 2.00881 15.0597 2.00599C14.8632 2.00317 14.6634 2.22366 14.4655 2.34636C14.4204 2.37409 14.3752 2.40183 14.3137 2.43991C14.292 2.17335 14.2704 1.92795 14.253 1.68208C14.2507 1.64588 14.2558 1.589 14.2784 1.57442C14.5149 1.42352 14.7481 1.26415 14.9996 1.1438C15.071 1.10948 15.213 1.17341 15.3 1.22842C15.6507 1.44984 16.0028 1.67221 16.3314 1.92372C16.4381 2.00552 16.535 2.17523 16.5373 2.30687C16.5552 3.25462 16.5599 4.20285 16.5448 5.15014C16.5336 5.84309 16.2952 6.4533 15.7663 6.92483C15.4758 7.18339 15.1335 7.33101 14.7419 7.33242C13.5196 7.33618 12.2978 7.3343 11.0755 7.3343C11.0294 7.3343 10.9838 7.33007 10.9241 7.32725V6.58869H13.223C13.2291 6.55767 13.239 6.53792 13.2333 6.52946C12.8887 6.01515 12.775 5.44537 12.7863 4.83328C12.8008 4.02656 12.7928 3.21936 12.7881 2.41264C12.7867 2.21002 12.7731 2.00552 12.7439 1.80478C12.6833 1.38309 12.5338 1.00464 12.0928 0.850442C11.6175 0.684491 11.1493 0.693893 10.7384 1.03238C10.3308 1.36851 10.1555 1.81136 10.1559 2.33554C10.1583 4.8502 10.1569 7.36533 10.1569 9.87999V10.8733C9.89973 10.9429 9.66749 11.0054 9.41504 11.0736C9.41175 10.9956 9.4047 10.9147 9.4047 10.8334C9.40423 8.07568 9.41034 5.31797 9.39953 2.56026C9.39718 1.91432 9.50342 1.31539 9.93029 0.773343C9.84755 0.764881 9.79066 0.754068 9.73425 0.754068C7.16459 0.753128 4.59493 0.752188 2.02527 0.754068C1.23218 0.754538 0.754538 1.23688 0.754538 2.0295C0.754538 5.83698 0.755949 9.64446 0.750307 13.4519C0.750307 13.6315 0.792618 13.7387 0.96092 13.8153C1.22231 13.9347 1.4757 14.1858 1.72768 14.1797C1.96979 14.1736 2.22318 13.9333 2.43991 13.7575C2.76241 13.4957 3.04401 13.5079 3.36228 13.7632C3.57383 13.9329 3.82158 14.1679 4.05476 14.1693C4.28653 14.1707 4.51971 13.9174 4.75195 13.7749C4.8187 13.734 4.88687 13.6945 4.94893 13.6475C5.13838 13.5041 5.31985 13.5196 5.51072 13.6508C5.74295 13.8102 5.99071 13.9479 6.2173 14.1143C6.34987 14.2116 6.4439 14.198 6.57036 14.1096C6.81341 13.939 7.06633 13.781 7.31926 13.6249C7.55385 13.4801 8.0155 13.6184 8.09354 13.8769C8.18286 14.1731 8.22893 14.482 8.30603 14.844C8.09072 14.7067 7.9196 14.6127 7.76587 14.4961C7.62154 14.3865 7.50589 14.3743 7.35263 14.4895C7.12745 14.6578 6.88017 14.7965 6.64605 14.9535C6.4674 15.0734 6.30051 15.0687 6.12375 14.9479C5.89104 14.789 5.6447 14.6493 5.41763 14.4834C5.27237 14.3771 5.16377 14.3879 5.02414 14.4909C4.81635 14.6437 4.58694 14.7669 4.37726 14.9173C4.16524 15.0691 3.97155 15.0814 3.75436 14.9234C3.53951 14.7669 3.30116 14.6427 3.0882 14.4843C2.94246 14.3762 2.83528 14.3898 2.69565 14.4909C2.47423 14.6512 2.23494 14.7871 2.00834 14.9413C1.8344 15.0593 1.66939 15.0715 1.48322 14.9643C1.08315 14.7339 0.678849 14.5106 0.272198 14.292C0.0785096 14.1853 0 14.0354 0 13.8144C0.00329082 9.85836 0.000940235 5.90185 0.00376094 1.94582C0.00470117 1.00088 0.615854 0.253863 1.54151 0.0418404C1.57818 0.0333783 1.6125 0.0141035 1.64823 0C5.04859 0 8.44942 0 11.8498 0Z" fill="#667085"/>
<path d="M11.568 24.0698C11.254 23.9311 11.0843 23.6819 10.9757 23.3618C10.8125 22.8809 10.6189 22.4103 10.4407 21.934C10.2376 21.392 10.3786 21.062 10.9122 20.8203C10.9399 20.8076 10.9658 20.7902 11.0222 20.7573C10.8478 20.5749 10.6908 20.3944 10.5168 20.2317C10.1835 19.9205 9.99548 19.5458 9.90804 19.0964C9.56156 17.3151 9.20004 15.5367 8.84134 13.7582C8.76848 13.3967 8.78446 13.0413 8.89447 12.6911C9.09145 12.0625 9.60528 11.6498 10.2324 11.6093C10.9174 11.5651 11.5205 11.8825 11.7674 12.4682C11.8872 12.7527 11.9324 13.0695 12.0024 13.3737C12.1858 14.1663 12.3644 14.9599 12.5445 15.7529C12.5548 15.7985 12.5623 15.8451 12.5684 15.8916C12.5966 16.1206 12.4885 16.2875 12.2831 16.3349C12.0847 16.3805 11.898 16.2715 11.844 16.0468C11.6978 15.4384 11.5638 14.8273 11.426 14.2171C11.3297 13.7897 11.2357 13.3619 11.1383 12.9351C11.0664 12.6196 10.8219 12.4019 10.5018 12.3634C10.1389 12.3197 9.81026 12.4475 9.69743 12.7536C9.60623 13.0009 9.53336 13.2961 9.58037 13.5457C9.92685 15.3905 10.3011 17.2305 10.6809 19.0691C10.7185 19.2506 10.8243 19.434 10.9432 19.5797C11.1651 19.8524 11.4162 20.102 11.6653 20.3507C11.7105 20.3958 11.82 20.4278 11.8745 20.4052C12.8566 19.9976 13.8349 19.5806 14.8137 19.1651C14.8259 19.1599 14.8335 19.1425 14.8541 19.1171C14.4893 18.7636 14.4771 18.3019 14.4879 17.837C14.5312 15.9889 14.5735 14.1409 14.6266 12.2929C14.6337 12.0494 14.549 11.905 14.3455 11.779C13.2539 11.1035 12.1712 10.4143 11.081 9.73685C10.9512 9.65599 10.8972 9.57184 10.9075 9.41952C10.9211 9.20985 10.9108 8.99829 10.9108 8.75195C11.0067 8.80602 11.08 8.84316 11.1491 8.88688C12.3489 9.64 13.5444 10.4002 14.7502 11.1434C15.1964 11.418 15.3952 11.7851 15.3788 12.3103C15.3261 13.9698 15.2923 15.6302 15.2528 17.2902C15.2458 17.5953 15.2514 17.9009 15.2439 18.2065C15.2368 18.482 15.4296 18.6258 15.6124 18.7706C15.6482 18.7988 15.7492 18.7763 15.8024 18.7457C16.2965 18.4613 16.8357 18.6484 17.0327 19.2755C17.1944 19.7894 17.4102 20.2863 17.5982 20.7917C17.7811 21.2829 17.6269 21.6491 17.1403 21.8555C15.4272 22.5819 13.7118 23.3035 11.9977 24.0279C11.978 24.0364 11.9625 24.0557 11.9451 24.0698H11.569H11.568ZM11.7721 23.3256C13.5049 22.587 15.2072 21.8616 16.9231 21.1301C16.697 20.5326 16.4789 19.9563 16.2542 19.3634C14.5302 20.0973 12.8214 20.825 11.0988 21.5584C11.325 22.1526 11.5445 22.7281 11.7721 23.3256Z" fill="#667085"/>
<path d="M4.12177 3.01128C4.26986 3.01128 4.41842 3.00282 4.56603 3.01316C4.77195 3.02821 4.92003 3.18617 4.92426 3.3775C4.92896 3.57636 4.77336 3.74984 4.55851 3.75736C4.27033 3.7677 3.98168 3.7677 3.6935 3.75736C3.46972 3.74984 3.32822 3.59235 3.3301 3.38127C3.33198 3.17206 3.47536 3.02445 3.70149 3.01128C3.84111 3.00329 3.98215 3.00987 4.12224 3.00987C4.12224 3.00987 4.12224 3.01034 4.12224 3.01081L4.12177 3.01128Z" fill="#667085"/>
<path d="M6.03746 3.76067C5.89737 3.76067 5.7568 3.76585 5.61671 3.75926C5.39528 3.74798 5.24014 3.59566 5.2345 3.39445C5.22933 3.19559 5.38353 3.02165 5.59931 3.01366C5.88749 3.00238 6.17615 3.00285 6.46433 3.01366C6.68904 3.02165 6.83008 3.17914 6.82867 3.38928C6.82726 3.59942 6.68387 3.74328 6.45821 3.76114C6.4427 3.76255 6.42719 3.76208 6.41167 3.76208C6.28709 3.76208 6.16204 3.76208 6.03746 3.76208V3.76067Z" fill="#667085"/>
<path d="M4.12702 5.64063C3.98692 5.64063 3.84636 5.64627 3.70627 5.63969C3.47967 5.62841 3.3344 5.48361 3.33017 5.27488C3.32594 5.06427 3.46604 4.90255 3.68887 4.89409C3.97658 4.8828 4.2657 4.88327 4.55389 4.89362C4.77108 4.90114 4.92669 5.06991 4.92434 5.26924C4.92246 5.46904 4.76591 5.62794 4.54777 5.63969C4.40768 5.64721 4.26711 5.6411 4.12702 5.6411V5.64063Z" fill="#667085"/>
<path d="M6.03844 5.64058C5.89835 5.64058 5.75778 5.64622 5.61769 5.63916C5.39579 5.62835 5.24065 5.4765 5.23454 5.27529C5.22843 5.0675 5.38968 4.89873 5.62192 4.89215C5.90211 4.88416 6.18324 4.88275 6.46343 4.89309C6.68814 4.90155 6.82965 5.05763 6.82871 5.26777C6.82777 5.47791 6.68438 5.62647 6.4592 5.63916C6.31957 5.64716 6.17854 5.64058 6.03844 5.64058Z" fill="#667085"/>
<path d="M4.11988 7.52048C3.97179 7.52048 3.82324 7.52941 3.67562 7.51813C3.46689 7.50215 3.33102 7.34842 3.33008 7.14815C3.32914 6.94741 3.4636 6.78475 3.67233 6.77582C3.97555 6.76265 4.28066 6.76265 4.58389 6.77723C4.78651 6.7871 4.93036 6.96574 4.92425 7.15661C4.91814 7.34842 4.76911 7.50497 4.56367 7.5186C4.41605 7.52847 4.2675 7.52048 4.11941 7.52048H4.11988Z" fill="#667085"/>
<path d="M6.0341 7.51975C5.88601 7.51975 5.73745 7.52822 5.58984 7.5174C5.38487 7.50283 5.23772 7.34346 5.23443 7.15118C5.23114 6.96125 5.37734 6.78496 5.57949 6.77603C5.88272 6.76239 6.18783 6.76192 6.49105 6.77603C6.69837 6.78543 6.83189 6.95138 6.82859 7.15212C6.82577 7.35192 6.68756 7.50283 6.47789 7.51787C6.33074 7.52821 6.18171 7.51975 6.03363 7.51975H6.0341Z" fill="#667085"/>
<path d="M2.43305 3.7597C2.37053 3.7597 2.30753 3.7644 2.24501 3.75876C2.0358 3.73948 1.89007 3.58999 1.8849 3.39442C1.87972 3.19039 2.02922 3.02867 2.25018 3.01174C2.36677 3.00281 2.48524 3.00563 2.60229 3.00986C2.84487 3.01926 3.00424 3.16453 3.00942 3.37608C3.01506 3.59704 2.85052 3.75077 2.59712 3.76017C2.54259 3.76205 2.48759 3.76017 2.43258 3.76017C2.43258 3.76017 2.43258 3.75923 2.43258 3.75876L2.43305 3.7597Z" fill="#667085"/>
<path d="M7.70384 3.76079C7.65683 3.76079 7.60981 3.7622 7.5628 3.76079C7.30894 3.75091 7.14534 3.59813 7.15051 3.3767C7.15568 3.16468 7.31411 3.01988 7.55716 3.01001C7.65871 3.00578 7.76072 3.00578 7.86274 3.01001C8.11519 3.01894 8.28067 3.17502 8.27503 3.39504C8.26986 3.60706 8.11049 3.75091 7.86791 3.76079C7.81337 3.76314 7.75837 3.76079 7.70337 3.76079H7.70384Z" fill="#667085"/>
<path d="M2.44468 5.64131C2.41319 5.64131 2.38216 5.64178 2.35066 5.64131C2.05543 5.63755 1.88336 5.49792 1.88477 5.26333C1.88618 5.02968 2.05872 4.89194 2.35536 4.88912C2.44139 4.88818 2.52789 4.88583 2.61393 4.89053C2.85322 4.90322 3.01117 5.05507 3.00976 5.26803C3.00835 5.481 2.84992 5.62908 2.60969 5.64084C2.55516 5.64366 2.50016 5.64084 2.44515 5.64178L2.44468 5.64131Z" fill="#667085"/>
<path d="M7.72556 4.8912C7.78809 4.8912 7.85155 4.88603 7.91361 4.89214C8.13221 4.91283 8.28265 5.07502 8.2756 5.27858C8.26902 5.47368 8.12234 5.62412 7.9122 5.63916C7.79514 5.64762 7.67714 5.6448 7.55961 5.64104C7.31562 5.63305 7.15766 5.49013 7.15061 5.27764C7.14356 5.05715 7.3081 4.90155 7.56055 4.89073C7.61508 4.88838 7.67009 4.89073 7.72509 4.89073C7.72509 4.8912 7.72509 4.89167 7.72509 4.89214L7.72556 4.8912Z" fill="#667085"/>
<path d="M2.44468 7.52166C2.41319 7.52166 2.38216 7.52213 2.35066 7.52166C2.05543 7.5179 1.88336 7.37828 1.88477 7.14369C1.88618 6.91004 2.05872 6.77229 2.35489 6.769C2.44092 6.76806 2.52742 6.76571 2.61346 6.77041C2.85275 6.78311 3.0107 6.93495 3.00929 7.14792C3.00788 7.36088 2.84945 7.50897 2.60922 7.52072C2.55469 7.52354 2.49969 7.52072 2.44468 7.52166Z" fill="#667085"/>
<path d="M7.72172 6.77011C7.76874 6.77011 7.81575 6.76823 7.86276 6.77011C8.11521 6.78045 8.28069 6.93559 8.27505 7.1556C8.26988 7.36763 8.11051 7.51242 7.86793 7.52088C7.76639 7.52464 7.66437 7.52417 7.56235 7.52088C7.30849 7.51242 7.14489 7.35869 7.15053 7.1368C7.1557 6.92477 7.3146 6.78092 7.55718 6.77011C7.61172 6.76776 7.66672 6.77011 7.72172 6.76964V6.77011Z" fill="#667085"/>
</svg>
