<svg width="19" height="18" viewBox="0 0 19 18" fill="none" xmlns="http://www.w3.org/2000/svg">
<path d="M4.74642 1.88621C4.74642 1.43643 4.74598 1.02261 4.74687 0.608789C4.74687 0.535083 4.74687 0.4596 4.76067 0.388114C4.80742 0.148347 4.99488 -0.00306113 5.23175 4.69568e-05C5.46774 0.00315505 5.6494 0.159004 5.69215 0.400991C5.70372 0.465817 5.70328 0.533751 5.70372 0.599909C5.70417 1.77699 5.70417 2.95407 5.70372 4.1307C5.70372 4.1529 5.70372 4.1751 5.70372 4.1973C5.69348 4.52188 5.51048 4.72568 5.22864 4.72701C4.94501 4.72879 4.75355 4.52676 4.7482 4.20396C4.74197 3.8341 4.74642 3.46379 4.74642 3.09349C4.74642 3.02067 4.74642 2.94785 4.74642 2.85727C4.66806 2.85105 4.60439 2.84173 4.54027 2.84173C3.79803 2.84084 3.05579 2.83862 2.31399 2.84173C1.50496 2.84528 0.95062 3.40607 0.950175 4.21728C0.950175 8.04423 0.94973 11.8716 0.950175 15.6986C0.950175 16.4698 1.51966 17.0524 2.29663 17.0528C7.09826 17.0564 11.9003 17.0564 16.702 17.0537C17.4687 17.0537 18.0498 16.476 18.0507 15.7239C18.0529 13.074 18.0515 10.4237 18.0511 7.77383C18.0511 7.7161 18.0449 7.65794 18.04 7.5718H17.706C12.6595 7.5718 7.61253 7.5718 2.56601 7.5718C2.49165 7.5718 2.41729 7.57446 2.34338 7.56825C2.08914 7.54782 1.89857 7.34535 1.89946 7.10026C1.89991 6.86538 2.08157 6.66113 2.3229 6.63227C2.40349 6.6225 2.48586 6.62783 2.56734 6.62783C7.62901 6.62783 12.6902 6.62783 17.7519 6.62783C17.8405 6.62783 17.9291 6.62783 18.0515 6.62783C18.0515 6.54791 18.0515 6.47775 18.0515 6.40715C18.0515 5.67453 18.0529 4.94147 18.0515 4.20885C18.0498 3.40252 17.4883 2.84439 16.6788 2.84129C16.3671 2.83995 16.0555 2.84439 15.7438 2.83995C15.4188 2.83551 15.2086 2.6508 15.2028 2.3733C15.197 2.08735 15.4125 1.88133 15.7465 1.88888C16.2492 1.89998 16.7639 1.87023 17.2519 1.96614C18.276 2.16639 18.9937 3.07883 18.9955 4.12049C19.0013 7.99894 19.0017 11.8774 18.9955 15.7558C18.9933 17.0111 17.9799 17.9986 16.7167 17.999C11.8999 18.0003 7.08357 18.0003 2.2668 17.999C1.03344 17.999 0.0102409 17.0097 0.00712409 15.7812C-0.00267153 11.8952 -0.00178102 8.00871 0.00623358 4.12271C0.00890511 2.88125 1.01874 1.8982 2.27303 1.88755C3.0077 1.88133 3.74237 1.88666 4.47704 1.88666C4.55719 1.88666 4.63734 1.88666 4.74642 1.88666V1.88621Z" fill="#667085"/>
<path d="M13.2973 1.87632C13.2973 1.41144 13.2933 0.969645 13.2987 0.528296C13.3022 0.221483 13.4701 0.0238975 13.7292 0.00258487C14.0342 -0.0227239 14.2475 0.182854 14.2529 0.5243C14.2595 0.923468 14.2542 1.32308 14.2546 1.72269C14.2546 2.53657 14.256 3.35 14.2546 4.16387C14.2542 4.46269 14.126 4.65762 13.9024 4.71534C13.5836 4.79748 13.3071 4.57547 13.2996 4.2176C13.2916 3.84063 13.2978 3.46322 13.2978 3.08581C13.2978 3.00633 13.2978 2.9273 13.2978 2.8234C13.1838 2.8234 13.097 2.8234 13.0097 2.8234C11.1111 2.82962 9.21257 2.83539 7.314 2.8416C7.24721 2.8416 7.17997 2.84516 7.11408 2.8385C6.83802 2.81185 6.65146 2.61738 6.65235 2.36207C6.65324 2.10721 6.84113 1.90474 7.11808 1.89142C7.42887 1.87676 7.741 1.88387 8.05223 1.88342C9.72105 1.88076 11.3894 1.87898 13.0582 1.87632C13.1304 1.87632 13.2025 1.87632 13.2978 1.87632H13.2973Z" fill="#667085"/>
</svg>
