<svg width="23" height="24" viewBox="0 0 23 24" fill="none" xmlns="http://www.w3.org/2000/svg">
<g clip-path="url(#clip0_1021_1513)">
<path d="M14.633 22.5949C15.9842 22.5972 17.336 22.5931 18.6873 22.6071C18.933 22.6094 18.9161 22.4813 18.9161 22.3182C18.9143 19.3198 18.9149 16.3208 18.9155 13.3224C18.9155 11.5951 18.9097 9.86786 18.9219 8.14059C18.9237 7.88135 18.8536 7.81611 18.5974 7.81902C17.353 7.833 16.108 7.82718 14.8636 7.82485C14.469 7.82368 14.1952 7.62445 14.1194 7.29997C14.03 6.91723 14.2589 6.54556 14.6476 6.46284C14.7789 6.43488 14.9172 6.42847 15.0527 6.42788C16.5014 6.42614 17.9501 6.42672 19.3994 6.42788C20.077 6.42847 20.3157 6.66498 20.3157 7.33434C20.3157 12.3122 20.3187 17.2907 20.3111 22.2687C20.3111 22.5256 20.3601 22.6258 20.6403 22.6094C21.0763 22.5838 21.5152 22.5995 21.9524 22.6036C22.4176 22.6083 22.748 22.9147 22.7363 23.3225C22.7246 23.7215 22.4048 24.0006 21.9471 24.0006C14.9073 24.0012 7.86693 24.0012 0.827109 24.0006C0.323973 24.0006 -0.00347429 23.7204 2.78175e-05 23.3033C0.00352992 22.8844 0.332728 22.6071 0.832945 22.6036C1.21234 22.6013 1.59232 22.5873 1.97055 22.6089C2.21278 22.6228 2.25538 22.532 2.2548 22.3129C2.2478 19.7899 2.24955 17.2669 2.24955 14.7438C2.24955 10.1055 2.24955 5.46667 2.25013 0.82839C2.2513 0.242924 2.49761 0.000582553 3.08713 0C6.0721 0 9.05764 0 12.0426 0C12.6169 0 12.879 0.259818 12.8796 0.834215C12.8819 2.91102 12.8831 4.98781 12.8843 7.06403C12.8843 7.56794 12.5522 7.84931 12.049 7.84465C10.3091 7.82718 8.56851 7.83358 6.82855 7.82135C6.56297 7.8196 6.62193 7.99204 6.62193 8.13535C6.62018 10.6974 6.62076 13.2589 6.62076 15.821C6.62076 17.49 6.62309 19.159 6.61959 20.828C6.61842 21.3267 6.38495 21.6273 5.99155 21.6657C5.58297 21.7053 5.24502 21.428 5.22634 21.0098C5.20883 20.6031 5.21875 20.1948 5.21875 19.7876C5.21875 15.6538 5.21875 11.52 5.21992 7.3856C5.21992 6.64459 5.43588 6.4273 6.17074 6.42672C7.84299 6.42672 9.51583 6.42322 11.1881 6.4308C11.4064 6.43196 11.4869 6.38711 11.4852 6.14709C11.4735 4.65285 11.4741 3.15802 11.4846 1.66377C11.4864 1.44182 11.4239 1.39172 11.2085 1.3923C8.7874 1.39987 6.36627 1.40162 3.94515 1.39114C3.69358 1.38997 3.6463 1.46803 3.6463 1.70164C3.65272 8.56236 3.65272 15.4231 3.6463 22.2838C3.6463 22.5308 3.69475 22.61 3.96149 22.6083C6.27522 22.5937 8.58953 22.596 10.9038 22.5937C11.0153 22.4958 11.1537 22.5063 11.2867 22.5063C11.6224 22.5063 11.958 22.4964 12.293 22.5116C12.6088 22.5028 12.9246 22.5023 13.2403 22.5116C13.5958 22.497 13.9518 22.5058 14.3073 22.5069C14.4229 22.5069 14.5396 22.5092 14.6336 22.5943L14.633 22.5949Z" fill="#667085"/>
<path d="M12.3102 22.5891C11.8409 22.5909 11.3716 22.5926 10.9023 22.5944C10.9047 21.8673 10.9064 21.1409 10.9088 20.4139C10.9111 19.8074 11.1516 19.5598 11.7475 19.5581C12.3983 19.5558 13.0486 19.5552 13.6994 19.5569C14.405 19.5587 14.6239 19.7765 14.6263 20.4727C14.6286 21.1799 14.6303 21.8877 14.6321 22.5949C14.1628 22.5932 13.6935 22.5914 13.2242 22.5897C13.1268 22.4749 13.1478 22.3351 13.1454 22.2023C13.1402 21.9034 13.1449 21.604 13.1425 21.3052C13.1414 21.138 13.0672 21.0547 12.8974 21.0582C12.8203 21.0599 12.7427 21.0611 12.6657 21.057C12.4672 21.0459 12.3872 21.1403 12.3896 21.3343C12.3925 21.6331 12.3931 21.9326 12.3884 22.2314C12.3867 22.3555 12.4012 22.4848 12.3102 22.5897V22.5891Z" fill="#667085"/>
<path d="M6.63558 4.06679C6.63324 4.45826 6.47565 4.71808 6.17097 4.83168C5.89021 4.93654 5.59195 4.85324 5.38591 4.61148C5.17286 4.36156 5.17345 3.71784 5.38766 3.46152C5.60596 3.19937 5.98594 3.1382 6.28595 3.31646C6.52818 3.46035 6.63791 3.6957 6.63558 4.06679Z" fill="#667085"/>
<path d="M8.50391 4.01956C8.50567 3.52322 8.76015 3.22029 9.18391 3.20923C9.58898 3.19874 9.8925 3.53079 9.90359 3.99625C9.91643 4.52638 9.62517 4.89106 9.195 4.88348C8.76891 4.87591 8.50216 4.54211 8.50391 4.01956Z" fill="#667085"/>
<path d="M8.79851 17.0438C8.79851 16.4286 9.09969 16.128 9.62442 16.1892C9.92969 16.2247 10.1713 16.4939 10.1982 16.8265C10.2408 17.3543 10.0739 17.6852 9.70614 17.8011C9.38511 17.9025 9.0384 17.7493 8.86972 17.4376C8.79676 17.3024 8.79325 17.1597 8.79851 17.0438Z" fill="#667085"/>
<path d="M13.4667 16.9966C13.4906 17.3496 13.3751 17.6216 13.0505 17.7673C12.7768 17.8908 12.52 17.8372 12.2929 17.642C12.011 17.3997 11.9707 16.7461 12.2182 16.4321C12.4394 16.1513 12.8929 16.093 13.1877 16.3127C13.4206 16.4863 13.4883 16.7303 13.4667 16.996V16.9966Z" fill="#667085"/>
<path d="M16.7361 16.9761C16.7361 17.6583 16.205 18.0294 15.6832 17.7346C15.309 17.5231 15.194 16.8514 15.4654 16.4623C15.6872 16.143 16.1559 16.0778 16.4717 16.3254C16.6906 16.4972 16.756 16.732 16.7361 16.9761Z" fill="#667085"/>
<path d="M10.2016 10.5618C10.2005 11.1356 9.91503 11.4741 9.50295 11.4752C9.08037 11.4758 8.80136 11.1368 8.80078 10.6212C8.80078 10.1715 9.04418 9.85515 9.42591 9.80855C9.74869 9.76952 10.0831 9.99729 10.1748 10.3305C10.2022 10.4313 10.1993 10.5408 10.2016 10.5618Z" fill="#667085"/>
<path d="M12.0664 10.627C12.0676 10.1388 12.3466 9.81489 12.7756 9.8044C13.1742 9.7945 13.469 10.1516 13.4678 10.6409C13.4661 11.1326 13.1859 11.4699 12.7744 11.4746C12.353 11.4792 12.0652 11.135 12.0664 10.6264V10.627Z" fill="#667085"/>
<path d="M12.0664 13.8024C12.0694 13.3195 12.367 12.9816 12.7815 12.9909C13.1877 13.0002 13.4393 13.33 13.4737 13.8018C13.5239 14.4956 12.8708 14.823 12.4324 14.5679C12.1791 14.4205 12.0641 14.1939 12.0664 13.8024Z" fill="#667085"/>
<path d="M15.3359 13.8118C15.3377 13.3242 15.6272 12.9875 16.0416 12.991C16.456 12.9945 16.7344 13.3283 16.7362 13.8223C16.7379 14.2866 16.5179 14.5884 16.1327 14.6519C15.8093 14.7049 15.4807 14.4893 15.3669 14.1567C15.3278 14.0419 15.3418 13.9266 15.3359 13.8118Z" fill="#667085"/>
<path d="M15.3359 10.634C15.3377 10.1493 15.5957 9.83357 16.0083 9.81143C16.3603 9.79279 16.6872 10.0718 16.7345 10.4324C16.8062 10.9765 16.5885 11.3709 16.1648 11.4635C15.7107 11.5626 15.3342 11.1857 15.3359 10.634Z" fill="#667085"/>
<path d="M8.80082 13.803C8.80374 13.3206 9.09908 12.9839 9.51467 12.9903C9.92325 12.9967 10.2034 13.3375 10.2017 13.8286C10.1999 14.4263 9.78725 14.7758 9.27419 14.6151C8.96133 14.5172 8.7979 14.237 8.80082 13.8036V13.803Z" fill="#667085"/>
</g>
<defs>
<clipPath id="clip0_1021_1513">
<rect width="22.7368" height="24" fill="white"/>
</clipPath>
</defs>
</svg>
