<svg width="32" height="32" viewBox="0 0 32 32" fill="none" xmlns="http://www.w3.org/2000/svg">
<circle cx="16" cy="16" r="16" fill="#027DC2"/>
<path d="M16.056 18.5641C16.1208 18.4807 16.1662 18.4088 16.2238 18.3493C18.4605 16.0568 20.699 13.7661 22.9343 11.4727C23.2282 11.1713 23.5666 11.0653 23.959 11.1976C24.6134 11.4179 24.8258 12.2441 24.3721 12.7736C24.3325 12.8196 24.2884 12.8616 24.2461 12.9049C21.7754 15.4352 19.3048 17.9659 16.8336 20.4962C16.2787 21.0644 15.7729 21.0653 15.2216 20.5009C12.7297 17.9484 10.2388 15.3951 7.7438 12.8459C7.46883 12.5648 7.32077 12.2482 7.40763 11.8519C7.57234 11.1041 8.44496 10.8225 8.9985 11.3441C9.34593 11.6713 9.6704 12.0243 10.0039 12.3667C11.9593 14.3716 13.9142 16.3766 15.8696 18.3816C15.9169 18.43 15.9664 18.4761 16.056 18.5636V18.5641Z" fill="white"/>
</svg>
