<svg width="34" height="34" viewBox="0 0 34 34" fill="none" xmlns="http://www.w3.org/2000/svg">
<path d="M1 17L4.55556 13.4444M4.55556 13.4444L17 1L29.4444 13.4444M4.55556 13.4444V31.2222C4.55556 32.2041 5.35149 33 6.33333 33H11.6667M29.4444 13.4444L33 17M29.4444 13.4444V31.2222C29.4444 32.2041 28.6485 33 27.6667 33H22.3333M11.6667 33C12.6485 33 13.4444 32.2041 13.4444 31.2222V24.1111C13.4444 23.1293 14.2404 22.3333 15.2222 22.3333H18.7778C19.7596 22.3333 20.5556 23.1293 20.5556 24.1111V31.2222C20.5556 32.2041 21.3515 33 22.3333 33M11.6667 33H22.3333" stroke="#027DC2" stroke-width="1.2" stroke-linecap="round" stroke-linejoin="round"/>
</svg>
