<svg width="20" height="21" viewBox="0 0 20 21" fill="none" xmlns="http://www.w3.org/2000/svg">
<path d="M9.76313 20.1633C8.56858 20.1633 7.37261 20.131 6.17946 20.1722C4.89164 20.2162 3.67459 19.3702 3.47073 17.7802C3.15112 15.2904 2.76871 12.8081 2.41395 10.323C2.19931 8.81774 1.98608 7.31205 1.77332 5.80683C1.72693 5.47723 1.89329 5.2333 2.19181 5.18742C2.46878 5.14528 2.712 5.33443 2.75934 5.65139C2.8779 6.4459 2.98709 7.24135 3.1005 8.03633C3.37372 9.95075 3.64647 11.8652 3.92062 13.7791C4.11511 15.1378 4.311 16.496 4.50548 17.8542C4.61561 18.622 5.22156 19.1647 6.00091 19.1661C8.50812 19.1707 11.0158 19.1707 13.523 19.1661C14.2963 19.1647 14.8994 18.6183 15.01 17.8448C15.4965 14.4407 15.9824 11.0369 16.4689 7.63276C16.5603 6.99228 16.654 6.3518 16.7444 5.71085C16.7946 5.35877 17.0177 5.14762 17.3082 5.18367C17.6203 5.22206 17.7872 5.47442 17.7351 5.8382C17.3298 8.67869 16.9235 11.5192 16.5171 14.3597C16.3428 15.5793 16.1722 16.7994 15.9937 18.0181C15.8142 19.2424 14.823 20.1258 13.5835 20.1572C12.9433 20.1736 12.3027 20.1624 11.6621 20.1628C11.0294 20.1633 10.3967 20.1628 9.76407 20.1628L9.76313 20.1633Z" fill="#FD0E0E"/>
<path d="M9.73386 4.1823C6.82081 4.1823 3.90775 4.1823 0.994696 4.1823C0.924401 4.1823 0.854105 4.18418 0.783809 4.18137C0.4806 4.17107 0.265495 3.97115 0.257997 3.69398C0.250499 3.41214 0.472165 3.19022 0.785215 3.18928C1.86308 3.18507 2.94095 3.18694 4.01835 3.18694C8.85282 3.18694 13.6868 3.18694 18.5213 3.18741C18.6071 3.18741 18.6933 3.1846 18.7791 3.19022C19.0509 3.20894 19.2505 3.41214 19.2571 3.67292C19.2641 3.93978 19.0574 4.15936 18.7772 4.18043C18.7073 4.18558 18.6366 4.1823 18.5663 4.1823C15.6218 4.1823 12.6778 4.1823 9.73339 4.1823H9.73386Z" fill="#FD0E0E"/>
<path d="M10.2602 11.6833C10.2602 12.9624 10.2611 14.2414 10.2588 15.5205C10.2588 15.6207 10.2522 15.7247 10.226 15.8206C10.167 16.0332 9.97035 16.1713 9.75405 16.1699C9.53728 16.1685 9.34345 16.029 9.28586 15.815C9.26011 15.719 9.25496 15.6151 9.25496 15.5149C9.25356 12.9567 9.25356 10.3986 9.25496 7.84039C9.25496 7.7402 9.26011 7.63626 9.28492 7.53981C9.34111 7.32398 9.53072 7.18352 9.74843 7.17978C9.97503 7.17556 10.174 7.32023 10.2307 7.5459C10.255 7.64235 10.2592 7.74628 10.2592 7.84648C10.2611 9.12556 10.2606 10.4046 10.2606 11.6837L10.2602 11.6833Z" fill="#FD0E0E"/>
<path d="M12.5071 11.6524C12.5896 10.3443 12.673 9.03619 12.7545 7.72808C12.7756 7.39052 12.9766 7.17328 13.2677 7.17983C13.5718 7.18685 13.7677 7.41908 13.7466 7.77349C13.6468 9.44773 13.5418 11.122 13.4383 12.7962C13.3844 13.6684 13.3286 14.5402 13.2742 15.4124C13.271 15.4667 13.2705 15.5215 13.2672 15.5763C13.2442 15.9649 13.0352 16.1915 12.7226 16.169C12.4072 16.1461 12.2409 15.8933 12.2662 15.5065C12.3501 14.2218 12.4274 12.9371 12.5075 11.6524H12.5071Z" fill="#FD0E0E"/>
<path d="M7.00848 11.6804C7.09049 12.9806 7.17297 14.2807 7.25498 15.5814C7.2756 15.9091 7.08299 16.1512 6.78869 16.1699C6.49766 16.1881 6.27694 15.9789 6.2535 15.6422C6.20383 14.9264 6.16259 14.2096 6.11854 13.4933C6.00184 11.6008 5.88468 9.70891 5.77174 7.8165C5.76518 7.70273 5.77174 7.57866 5.81158 7.47378C5.89125 7.26216 6.12838 7.14605 6.34583 7.18678C6.57311 7.22939 6.73995 7.41432 6.75682 7.66293C6.80603 8.38675 6.85102 9.11103 6.89601 9.83532C6.93443 10.4505 6.97052 11.0657 7.00801 11.6809C7.00801 11.6809 7.00848 11.6809 7.00895 11.6809L7.00848 11.6804Z" fill="#FD0E0E"/>
<path d="M6.47508 1.85779C6.51491 1.78663 6.56178 1.66022 6.64332 1.56237C7.33034 0.734144 8.21138 0.269703 9.28784 0.193389C10.2659 0.123629 11.2154 0.220544 12.0388 0.811863C12.3462 1.03285 12.6208 1.30533 12.8828 1.58109C13.1077 1.81753 13.0805 2.11857 12.8621 2.30866C12.6372 2.50483 12.3223 2.48469 12.1231 2.21315C11.0954 0.811395 8.41618 0.813736 7.39267 2.21221C7.22912 2.436 7.00886 2.48563 6.79282 2.39433C6.5838 2.30585 6.48867 2.13777 6.47461 1.85779H6.47508Z" fill="#FD0E0E"/>
</svg>
