<svg width="19" height="21" viewBox="0 0 19 21" fill="none" xmlns="http://www.w3.org/2000/svg">
<g clip-path="url(#clip0_1849_13390)">
<path d="M9.5063 20.4895C8.31174 20.4895 7.11577 20.4572 5.92262 20.4984C4.6348 20.5424 3.41775 19.6964 3.21389 18.1064C2.89428 15.6166 2.51187 13.1343 2.15711 10.6491C1.94248 9.14391 1.72925 7.63822 1.51648 6.133C1.47009 5.8034 1.63646 5.55947 1.93498 5.51359C2.21194 5.47145 2.45517 5.6606 2.5025 5.97756C2.62107 6.77208 2.73026 7.56753 2.84367 8.36251C3.11688 10.2769 3.38963 12.1913 3.66379 14.1053C3.85827 15.464 4.05416 16.8222 4.24865 18.1804C4.35878 18.9482 4.96473 19.4908 5.74407 19.4922C8.25129 19.4969 10.759 19.4969 13.2662 19.4922C14.0394 19.4908 14.6426 18.9445 14.7532 18.171C15.2396 14.7668 15.7256 11.3631 16.212 7.95893C16.3034 7.31845 16.3972 6.67797 16.4876 6.03702C16.5377 5.68495 16.7608 5.47379 17.0514 5.50984C17.3635 5.54824 17.5303 5.80059 17.4783 6.16437C17.0729 9.00486 16.6666 11.8453 16.2603 14.6858C16.086 15.9055 15.9154 17.1256 15.7368 18.3442C15.5574 19.5686 14.5662 20.452 13.3266 20.4834C12.6865 20.4998 12.0458 20.4885 11.4052 20.489C10.7726 20.4895 10.1399 20.489 9.50724 20.489L9.5063 20.4895Z" fill="#FD0E0E"/>
<path d="M9.47605 4.50799C6.56299 4.50799 3.64994 4.50799 0.736884 4.50799C0.666588 4.50799 0.596293 4.50986 0.525997 4.50705C0.222788 4.49675 0.00768283 4.29683 0.000184613 4.01967C-0.0073136 3.73782 0.214352 3.5159 0.527403 3.51496C1.60527 3.51075 2.68314 3.51262 3.76054 3.51262C8.59501 3.51262 13.429 3.51262 18.2635 3.51309C18.3492 3.51309 18.4355 3.51028 18.5212 3.5159C18.793 3.53463 18.9927 3.73782 18.9992 3.9986C19.0063 4.26547 18.7996 4.48505 18.5194 4.50611C18.4495 4.51126 18.3788 4.50799 18.3085 4.50799C15.364 4.50799 12.42 4.50799 9.47558 4.50799H9.47605Z" fill="#FD0E0E"/>
<path d="M10.0033 12.0099C10.0033 13.289 10.0043 14.5681 10.0019 15.8472C10.0019 15.9474 9.99536 16.0513 9.96914 16.1473C9.91015 16.3598 9.71351 16.498 9.49721 16.4966C9.28044 16.4952 9.08661 16.3556 9.02902 16.1417C9.00327 16.0457 8.99812 15.9418 8.99812 15.8416C8.99672 13.2834 8.99672 10.7252 8.99812 8.16705C8.99812 8.06686 9.00327 7.96292 9.02809 7.86647C9.08427 7.65064 9.27389 7.51018 9.49159 7.50644C9.71819 7.50222 9.91717 7.64689 9.97382 7.87256C9.99817 7.96901 10.0024 8.07294 10.0024 8.17314C10.0043 9.45222 10.0038 10.7313 10.0038 12.0104L10.0033 12.0099Z" fill="#FD0E0E"/>
<path d="M12.2493 11.9786C12.3317 10.6705 12.4152 9.36236 12.4967 8.05425C12.5178 7.71669 12.7188 7.49945 13.0099 7.506C13.314 7.51303 13.5099 7.74525 13.4888 8.09966C13.389 9.7739 13.284 11.4481 13.1804 13.1224C13.1265 13.9946 13.0708 14.8664 13.0164 15.7386C13.0131 15.7929 13.0127 15.8477 13.0094 15.9025C12.9864 16.2911 12.7774 16.5177 12.4648 16.4952C12.1494 16.4722 11.9831 16.2194 12.0084 15.8327C12.0923 14.548 12.1696 13.2633 12.2497 11.9786H12.2493Z" fill="#FD0E0E"/>
<path d="M6.75067 12.0066C6.83268 13.3068 6.91516 14.6069 6.99717 15.9075C7.01779 16.2353 6.82518 16.4773 6.53088 16.4961C6.23985 16.5143 6.01912 16.305 5.99569 15.9684C5.94602 15.2526 5.90477 14.5358 5.86072 13.8194C5.74403 11.927 5.62687 10.0351 5.51393 8.14267C5.50737 8.0289 5.51393 7.90483 5.55376 7.79995C5.63343 7.58833 5.87056 7.47222 6.08801 7.51296C6.3153 7.55556 6.48214 7.7405 6.49901 7.9891C6.54821 8.71292 6.5932 9.4372 6.63819 10.1615C6.67662 10.7767 6.71271 11.3919 6.7502 12.0071C6.7502 12.0071 6.75067 12.0071 6.75114 12.0071L6.75067 12.0066Z" fill="#FD0E0E"/>
<path d="M6.21824 2.18396C6.25808 2.1128 6.30494 1.98639 6.38648 1.88854C7.07351 1.06032 7.95455 0.595875 9.03101 0.519561C10.0091 0.449801 10.9585 0.546716 11.7819 1.13804C12.0893 1.35902 12.364 1.6315 12.6259 1.90727C12.8509 2.1437 12.8237 2.44474 12.6053 2.63483C12.3804 2.831 12.0654 2.81087 11.8663 2.53932C10.8385 1.13757 8.15934 1.13991 7.13584 2.53838C6.97228 2.76218 6.75202 2.8118 6.53598 2.72051C6.32697 2.63202 6.23183 2.46394 6.21777 2.18396H6.21824Z" fill="#FD0E0E"/>
</g>
<defs>
<clipPath id="clip0_1849_13390">
<rect width="19" height="20" fill="white" transform="translate(0 0.5)"/>
</clipPath>
</defs>
</svg>
