<svg width="19" height="18" viewBox="0 0 19 18" fill="none" xmlns="http://www.w3.org/2000/svg">
<g clip-path="url(#clip0_568_4458)">
<path d="M2.59079 14.0101C1.97447 14.0101 1.38615 13.9904 0.800511 14.016C0.262047 14.0394 -0.024443 13.7832 0.00163639 13.2323C0.0296334 12.6455 0.00700568 12.056 0.00815625 11.4676C0.00892329 11.0416 0.242871 10.8124 0.679701 10.8113C1.31826 10.8098 1.95683 10.811 2.623 10.811C2.623 10.5067 2.60958 10.2115 2.62684 9.91766C2.6441 9.61865 2.57008 9.35011 2.45157 9.07636C1.73132 7.41829 1.02219 5.75575 0.309604 4.09433C0.0633832 3.5201 0.24824 3.08961 0.838863 2.8504C1.37464 2.63349 1.90735 2.40914 2.44658 2.20003C2.56586 2.1536 2.59424 2.09305 2.5927 1.98088C2.58733 1.62802 2.58849 1.27479 2.59155 0.921926C2.59654 0.367748 2.97239 0.00151526 3.54384 0.00151526C6.62504 2.95321e-05 9.70625 -0.00108477 12.7875 0.00745819C12.9182 0.00745819 13.0808 0.0724589 13.174 0.161231C13.8809 0.833525 14.5716 1.52179 15.2723 2.20003C15.6474 2.56329 16.0271 2.92283 16.4163 3.27161C16.5809 3.41907 16.6434 3.57916 16.6411 3.79422C16.6319 4.72911 16.6342 5.66438 16.6411 6.59928C16.6418 6.73113 16.6706 6.87079 16.7212 6.99299C17.4453 8.7365 18.1759 10.4774 18.9042 12.2194C19.1343 12.7699 18.9468 13.2067 18.3796 13.4392C17.8449 13.6584 17.3096 13.8771 16.7719 14.0892C16.6556 14.1349 16.6058 14.1906 16.6096 14.3195C16.6204 14.6661 16.6158 15.013 16.6123 15.3599C16.6066 15.9319 16.2418 16.2866 15.652 16.2877C14.2583 16.2903 12.8649 16.2874 11.4712 16.2918C11.3539 16.2922 11.2288 16.316 11.1199 16.359C9.82054 16.8738 8.52385 17.395 7.22564 17.9131C6.68564 18.1285 6.22235 17.9417 5.99415 17.4173C5.85301 17.0926 5.70958 16.7684 5.57841 16.44C5.53162 16.3226 5.46681 16.2851 5.33795 16.2862C4.55825 16.2922 3.77817 16.29 2.99809 16.2885C2.67286 16.2881 2.59155 16.2075 2.59117 15.8918C2.5904 15.2733 2.59117 14.6549 2.59117 14.0108L2.59079 14.0101ZM3.19215 10.8436C3.29646 10.8436 3.37202 10.8436 3.44757 10.8436C6.08773 10.8436 8.72789 10.8425 11.3677 10.8477C11.5015 10.8477 11.6469 10.883 11.7673 10.9406C12.5919 11.335 13.4099 11.7414 14.2326 12.1392C14.3791 12.2101 14.5049 12.29 14.5018 12.4635C14.4991 12.6284 14.3756 12.7053 14.2364 12.7717C13.4114 13.1644 12.5899 13.5636 11.7627 13.9522C11.6469 14.0064 11.508 14.0398 11.3799 14.0398C8.72712 14.0443 6.07431 14.0428 3.42149 14.0424C3.34786 14.0424 3.27384 14.0424 3.20787 14.0424V15.7451H3.3935C7.47186 15.7451 11.5502 15.7451 15.6286 15.7451C15.9527 15.7451 16.0466 15.6518 16.0466 15.3313C16.0466 11.5973 16.0466 7.86326 16.0466 4.12962C16.0466 4.06908 16.0466 4.0089 16.0466 3.92645C15.9599 3.92645 15.8917 3.92645 15.8234 3.92645C14.8773 3.92645 13.9311 3.92682 12.9854 3.9257C12.6824 3.9257 12.5953 3.84176 12.5949 3.5513C12.5942 2.63497 12.5949 1.71828 12.5949 0.801953C12.5949 0.735838 12.5949 0.669351 12.5949 0.584293C12.5056 0.584293 12.4369 0.584293 12.3683 0.584293C9.45351 0.584293 6.53837 0.584293 3.62361 0.584293C3.2654 0.584293 3.19291 0.65598 3.19291 1.01256C3.19291 4.21393 3.19291 7.41531 3.19291 10.6167C3.19291 10.6839 3.19291 10.7512 3.19291 10.844L3.19215 10.8436ZM11.2066 12.1329V11.4338H0.611818V12.1329H11.2066ZM0.606449 13.4511H11.21V12.758H0.606449V13.4511ZM16.6833 8.43898C16.6733 8.44158 16.6633 8.44418 16.6533 8.44678V13.574C17.168 13.366 17.6616 13.1673 18.1541 12.9671C18.4459 12.8483 18.5 12.716 18.3777 12.4278C18.0459 11.6452 17.7138 10.8622 17.3817 10.0796C17.1492 9.53248 16.9161 8.98573 16.6833 8.43898ZM2.61533 2.77575C2.09604 2.98561 1.59095 3.18841 1.08662 3.39344C0.762542 3.5253 0.724957 3.61741 0.863024 3.93573C1.41414 5.20603 1.96603 6.47633 2.51792 7.74626C2.54131 7.79975 2.57008 7.85063 2.61533 7.94015V2.77575ZM13.199 1.0523V3.30244H15.5212C14.748 2.55326 13.9737 1.80296 13.199 1.0523ZM9.68669 16.3252H6.17057C6.30327 16.6309 6.42676 16.9192 6.55294 17.2059C6.66953 17.4707 6.78535 17.5161 7.06187 17.4043C7.87302 17.0763 8.68378 16.7476 9.49416 16.4181C9.54325 16.398 9.58966 16.372 9.68631 16.3252H9.68669ZM11.7961 13.288C12.379 13.0106 12.9451 12.7413 13.5438 12.4564C12.9447 12.1711 12.3779 11.9007 11.7961 11.6236V13.288Z" fill="#667085"/>
<path d="M9.70056 6.25955C8.28882 6.25955 6.87746 6.25955 5.46572 6.25918C5.3894 6.25918 5.31193 6.25843 5.23676 6.24655C5.07913 6.22166 5.00741 6.11729 5.00588 5.97206C5.00435 5.81606 5.08872 5.71503 5.25018 5.68717C5.30618 5.67751 5.36486 5.6816 5.42238 5.6816C8.27117 5.6816 11.12 5.6816 13.9688 5.6816C14.0259 5.6816 14.0861 5.6764 14.1402 5.69051C14.2936 5.731 14.3787 5.82943 14.3715 5.98877C14.3646 6.13958 14.2829 6.23095 14.1268 6.24989C14.0512 6.25918 13.9741 6.25918 13.8974 6.25918C12.4987 6.25955 11.0996 6.25918 9.70094 6.25918L9.70056 6.25955Z" fill="#667085"/>
<path d="M9.68058 8.01904C11.1192 8.01904 12.5574 8.01904 13.996 8.01904C14.2395 8.01904 14.3645 8.11264 14.3726 8.29465C14.3795 8.45733 14.2847 8.56691 14.1175 8.58474C14.0669 8.59031 14.0155 8.58845 13.9641 8.58845C11.1257 8.58845 8.28687 8.58845 5.44843 8.58845C5.13126 8.58845 5.00584 8.50859 5.00393 8.30728C5.00201 8.10447 5.13126 8.01904 5.44191 8.01904C6.8548 8.01904 8.26769 8.01904 9.68058 8.01904Z" fill="#667085"/>
<path d="M7.89742 3.34475C8.71547 3.34475 9.5339 3.34475 10.352 3.34475C10.4156 3.34475 10.4812 3.34103 10.5429 3.35366C10.6948 3.38412 10.7734 3.48329 10.7746 3.63112C10.7757 3.77747 10.7036 3.88035 10.5498 3.91304C10.4946 3.92493 10.4356 3.92493 10.3784 3.92493C8.72927 3.9253 7.08014 3.92753 5.431 3.9201C5.31632 3.91973 5.17404 3.87181 5.09657 3.79604C5.04096 3.74144 5.04479 3.59621 5.07202 3.50521C5.11267 3.36778 5.24998 3.34475 5.38536 3.34475C6.22258 3.34549 7.06019 3.34475 7.89742 3.34475Z" fill="#667085"/>
</g>
<defs>
<clipPath id="clip0_568_4458">
<rect width="19" height="18" fill="white"/>
</clipPath>
</defs>
</svg>
