<svg width="32" height="31" viewBox="0 0 32 31" fill="none" xmlns="http://www.w3.org/2000/svg">
<path d="M15.1061 30.1998C11.2953 30.1998 7.48448 30.1772 3.67452 30.209C1.69444 30.2256 0.417776 28.8522 0.13157 27.5547C0.0573068 27.2184 0.00724157 26.8679 0.00724157 26.5242C-0.000268206 20.7099 -0.00193705 14.8957 0.00223505 9.08145C0.00390389 6.87358 1.52004 5.35493 3.72291 5.34993C6.85199 5.34408 9.98106 5.34742 13.1101 5.34993C13.786 5.34993 14.1557 5.66116 14.1557 6.21188C14.1557 6.6875 13.8411 7.02961 13.3605 7.04964C12.9858 7.06549 12.6095 7.05631 12.234 7.05631C9.41115 7.05631 6.58748 7.05631 3.76463 7.05631C2.44875 7.05631 1.70862 7.80312 1.70862 9.13068C1.70862 14.9032 1.70862 20.6765 1.70862 26.4491C1.70862 27.7683 2.45209 28.5234 3.77298 28.5234C11.3245 28.5259 18.8768 28.5268 26.4283 28.5234C27.7709 28.5234 28.5127 27.7725 28.5144 26.4224C28.5177 22.9862 28.5144 19.5509 28.5144 16.1148C28.5144 15.9204 28.5144 15.7251 28.5144 15.5307C28.5185 14.632 28.7639 14.2699 29.3621 14.2757C29.9437 14.2816 30.1865 14.6404 30.189 15.5098C30.1915 16.6505 30.1899 17.7911 30.1899 18.9318C30.1899 21.4909 30.1657 24.0509 30.1949 26.6101C30.2157 28.44 28.9174 29.8326 27.4079 30.1314C27.0842 30.1956 26.7446 30.1973 26.4125 30.1973C22.6434 30.2014 18.8743 30.1998 15.1061 30.1998Z" fill="white"/>
<path d="M18.6749 15.9807C18.1326 15.9807 17.5902 15.9849 17.0478 15.979C16.3895 15.9715 16.0315 15.6294 16.0265 14.9827C16.0182 13.8838 16.0015 12.784 16.0398 11.6868C16.0499 11.4106 16.1842 11.0718 16.377 10.8774C19.8632 7.36199 23.3661 3.86326 26.8698 0.364543C27.3579 -0.123593 27.7826 -0.12109 28.2783 0.369549C29.4047 1.48517 30.5254 2.60663 31.641 3.7331C32.1241 4.22123 32.1183 4.65096 31.6268 5.14326C28.1381 8.63698 24.6511 12.1315 21.144 15.6069C20.9329 15.8155 20.5657 15.9298 20.2578 15.964C19.7355 16.0216 19.2031 15.9799 18.6741 15.9799L18.6749 15.9807ZM27.5457 2.12433C27.4539 2.20861 27.3587 2.28788 27.2711 2.37549C24.1838 5.46118 21.0964 8.54686 18.0166 11.6401C17.8822 11.7752 17.7537 11.9822 17.7437 12.1624C17.7095 12.7582 17.7362 13.3573 17.7287 13.9547C17.7254 14.1859 17.8155 14.2785 18.0483 14.2743C18.5623 14.266 19.078 14.2543 19.5911 14.2793C19.9374 14.296 20.1852 14.19 20.4339 13.9406C23.482 10.8749 26.5419 7.82092 29.5983 4.76277C29.7018 4.6593 29.7961 4.54582 29.8787 4.45403C29.091 3.66634 28.3367 2.91286 27.5465 2.12433H27.5457Z" fill="white"/>
</svg>
