<svg width="32" height="31" viewBox="0 0 32 31" fill="none" xmlns="http://www.w3.org/2000/svg">
<g clip-path="url(#clip0_562_5641)">
<path d="M15.1061 30.1993C11.2953 30.1993 7.48448 30.1768 3.67452 30.2085C1.69444 30.2252 0.417776 28.8517 0.13157 27.5542C0.0573068 27.2179 0.00724157 26.8675 0.00724157 26.5237C-0.000268206 20.7094 -0.00193705 14.8952 0.00223505 9.08096C0.00390389 6.87309 1.52004 5.35444 3.72291 5.34944C6.85199 5.3436 9.98106 5.34693 13.1101 5.34944C13.786 5.34944 14.1557 5.66068 14.1557 6.21139C14.1557 6.68701 13.8411 7.02912 13.3605 7.04915C12.9858 7.065 12.6095 7.05583 12.234 7.05583C9.41115 7.05583 6.58748 7.05583 3.76463 7.05583C2.44875 7.05583 1.70862 7.80263 1.70862 9.13019C1.70862 14.9027 1.70862 20.6761 1.70862 26.4486C1.70862 27.7678 2.45209 28.5229 3.77298 28.5229C11.3245 28.5254 18.8768 28.5263 26.4283 28.5229C27.7709 28.5229 28.5127 27.772 28.5144 26.4219C28.5177 22.9857 28.5144 19.5504 28.5144 16.1143C28.5144 15.9199 28.5144 15.7246 28.5144 15.5302C28.5185 14.6315 28.7639 14.2694 29.3621 14.2752C29.9437 14.2811 30.1865 14.6399 30.189 15.5093C30.1915 16.65 30.1899 17.7906 30.1899 18.9313C30.1899 21.4905 30.1657 24.0505 30.1949 26.6096C30.2157 28.4395 28.9174 29.8321 27.4079 30.1309C27.0842 30.1951 26.7446 30.1968 26.4125 30.1968C22.6434 30.201 18.8743 30.1993 15.1061 30.1993Z" fill="#3A3A3A"/>
<path d="M18.6769 15.9797C18.1345 15.9797 17.5922 15.9839 17.0498 15.9781C16.3914 15.9706 16.0335 15.6284 16.0284 14.9818C16.0201 13.8828 16.0034 12.7831 16.0418 11.6858C16.0518 11.4096 16.1862 11.0708 16.3789 10.8764C19.8651 7.36101 23.368 3.86229 26.8717 0.363566C27.3599 -0.12457 27.7846 -0.122066 28.2802 0.368573C29.4067 1.48419 30.5273 2.60565 31.6429 3.73212C32.1261 4.22025 32.1202 4.64998 31.6288 5.14229C28.1401 8.636 24.653 12.1306 21.1459 15.6059C20.9348 15.8145 20.5677 15.9288 20.2598 15.963C19.7374 16.0206 19.2051 15.9789 18.6761 15.9789L18.6769 15.9797ZM27.5476 2.12336C27.4558 2.20763 27.3607 2.2869 27.2731 2.37452C24.1857 5.4602 21.0984 8.54589 18.0185 11.6391C17.8842 11.7743 17.7557 11.9812 17.7457 12.1614C17.7115 12.7572 17.7382 13.3563 17.7307 13.9538C17.7273 14.1849 17.8174 14.2775 18.0502 14.2733C18.5642 14.265 19.0799 14.2533 19.5931 14.2784C19.9394 14.295 20.1872 14.1891 20.4359 13.9396C23.484 10.8739 26.5438 7.81994 29.6003 4.76179C29.7038 4.65832 29.798 4.54484 29.8807 4.45306C29.093 3.66537 28.3386 2.91188 27.5484 2.12336H27.5476Z" fill="#027DC2"/>
</g>
<defs>
<clipPath id="clip0_562_5641">
<rect width="32" height="30.2085" fill="white"/>
</clipPath>
</defs>
</svg>
