<svg width="20" height="21" viewBox="0 0 20 21" fill="none" xmlns="http://www.w3.org/2000/svg">
<path d="M1.9802 19.9998C1.16723 19.9998 0.5 19.3325 0.5 18.5196V17.1524L3.34735 19.9998H1.9802Z" stroke="#027DC2"/>
<path d="M13.8183 1.44761L13.8183 1.44761C14.4151 0.850796 15.2867 0.850796 15.8835 1.44761L19.0518 4.61593C19.6486 5.21275 19.6486 6.08428 19.0518 6.6811L18.8538 6.87912C18.653 7.0799 18.3755 7.0799 18.1748 6.87912L13.6203 2.32466C13.4195 2.12389 13.4195 1.84641 13.6203 1.64563C13.6203 1.64563 13.6203 1.64563 13.6203 1.64563L13.8183 1.44761Z" stroke="#027DC2"/>
<path d="M15.9756 9.06386L15.9755 9.06394L15.9832 9.07163C16.184 9.2724 16.184 9.54988 15.9832 9.75066L6.97331 18.7606C6.77253 18.9613 6.49506 18.9613 6.29428 18.7606L1.73983 14.2061C1.63418 14.1004 1.59585 13.9873 1.60105 13.878C1.60644 13.7648 1.66191 13.605 1.83884 13.4281L10.8487 4.41816C11.0484 4.21848 11.324 4.21739 11.5245 4.4149L15.9756 9.06386Z" stroke="#027DC2"/>
</svg>
