<svg width="18" height="18" viewBox="0 0 18 18" fill="none" xmlns="http://www.w3.org/2000/svg">
<path d="M6.0468 18C5.72866 17.8611 5.60738 17.621 5.62003 17.2741C5.63901 16.7541 5.62495 16.2332 5.62495 15.7385C5.82041 15.6397 5.99513 15.5515 6.18109 15.4573V17.4287H17.4241V2.54305H15.4681C15.4681 2.76312 15.4699 2.97826 15.4678 3.19341C15.4643 3.56534 15.2354 3.79665 14.8628 3.79665C12.8298 3.79806 10.7968 3.79806 8.76422 3.79665C8.38596 3.79665 8.15851 3.56182 8.15641 3.17794C8.155 2.96842 8.15641 2.7589 8.15641 2.54059H6.1955V3.89122H5.63058C5.63058 3.40609 5.61546 2.92694 5.6362 2.44954C5.64851 2.16515 5.90689 1.9711 6.21273 1.96969C6.79277 1.96723 7.37282 1.96863 7.95286 1.96863C8.01122 1.96863 8.06957 1.96863 8.15641 1.96863C8.15641 1.83786 8.15535 1.71201 8.15641 1.58616C8.16062 1.21458 8.38877 0.986427 8.76282 0.98502C9.38961 0.98256 10.0164 0.983614 10.6432 0.98256C10.6545 0.98256 10.6661 0.97799 10.6629 0.978693C10.7381 0.811359 10.7954 0.644376 10.8844 0.496026C11.0457 0.226041 11.3161 0.0991348 11.6012 0H12.023C12.2934 0.0977286 12.5602 0.209167 12.718 0.466145C12.8143 0.622932 12.8797 0.798352 12.968 0.984317C13.0024 0.984317 13.0601 0.984317 13.1177 0.984317C13.7083 0.984317 14.2985 0.981857 14.8891 0.985723C15.2256 0.987833 15.46 1.22442 15.4674 1.56014C15.4702 1.69232 15.4678 1.82485 15.4678 1.96899C16.0791 1.96899 16.669 1.9827 17.2578 1.96371C17.6083 1.95246 17.8586 2.06285 17.9992 2.39084V17.5781C17.9152 17.7754 17.7746 17.916 17.5774 18H6.0468ZM14.893 3.22821V1.54784C14.1611 1.54784 13.4415 1.54854 12.7219 1.54784C12.4561 1.54784 12.3637 1.45046 12.371 1.18681C12.3816 0.828233 12.1394 0.561412 11.8061 0.564576C11.4788 0.56774 11.2422 0.830342 11.2524 1.17977C11.2602 1.45503 11.1705 1.54784 10.8918 1.54819C10.2302 1.54889 9.56855 1.54819 8.9073 1.54854C8.84613 1.54854 8.78496 1.54854 8.72907 1.54854V3.22856H14.8934L14.893 3.22821Z" fill="#667085"/>
<path d="M0 6.64527C0.139562 6.32045 0.415171 6.14819 0.723122 6.02621C1.00295 5.91547 1.16009 5.73759 1.17345 5.42683C1.18013 5.2711 1.21809 5.11325 1.2645 4.9635C1.37383 4.60985 1.61815 4.43759 1.98902 4.45235C2.15776 4.45903 2.32756 4.48399 2.49278 4.51985C2.73957 4.57364 2.93819 4.51704 3.10693 4.32474C3.2145 4.20206 3.33191 4.08464 3.45952 3.9834C3.77802 3.73064 4.10355 3.7324 4.42134 3.98691C4.54403 4.08534 4.65828 4.19749 4.76128 4.31666C4.93249 4.51493 5.13462 4.57188 5.38914 4.51915C5.57686 4.48013 5.77126 4.45587 5.96285 4.45587C6.28733 4.45587 6.50528 4.6327 6.60161 4.93678C6.6575 5.1136 6.68844 5.30133 6.70847 5.48624C6.73414 5.72423 6.84065 5.88735 7.06248 5.98473C7.22243 6.05503 7.38203 6.13272 7.52757 6.2287C7.85872 6.44735 7.95118 6.74195 7.80986 7.11212C7.75361 7.25871 7.68154 7.40109 7.60104 7.53608C7.46429 7.76529 7.46429 7.98359 7.60034 8.21315C7.6833 8.35342 7.75888 8.50106 7.81583 8.65328C7.94801 9.00763 7.85661 9.29836 7.54304 9.51034C7.39855 9.60807 7.23965 9.68752 7.0797 9.75712C6.84522 9.85872 6.7264 10.0264 6.70812 10.2806C6.69758 10.4258 6.67156 10.5716 6.63606 10.713C6.53059 11.1324 6.25709 11.3282 5.824 11.2955C5.67283 11.2839 5.52167 11.2596 5.37332 11.2283C5.13462 11.1784 4.93916 11.2339 4.77464 11.4199C4.6625 11.5465 4.54122 11.6685 4.40869 11.7729C4.10214 12.0151 3.784 12.0168 3.47534 11.7774C3.34211 11.6741 3.22012 11.5524 3.10833 11.4255C2.93924 11.2336 2.74062 11.1774 2.49419 11.2294C2.32299 11.2656 2.14757 11.2934 1.9732 11.2976C1.60233 11.3064 1.3675 11.1309 1.26063 10.7703C1.21458 10.6142 1.18118 10.4507 1.17028 10.2887C1.152 10.0169 1.01877 9.84782 0.773041 9.74482C0.633479 9.68646 0.484425 9.62775 0.372283 9.53143C0.230963 9.40945 0.12304 9.24879 0.000703084 9.10501C0.000703084 8.99955 0.000703084 8.89409 0.000703084 8.78862C0.0998379 8.58016 0.191942 8.36783 0.299865 8.16429C0.404273 7.96707 0.404625 7.78251 0.300217 7.5853C0.19159 7.3821 0.0991348 7.17012 0 6.96166C0 6.8562 0 6.75074 0 6.64527ZM2.63692 10.6518C3.07845 10.6296 3.33016 10.8399 3.56077 11.0937C3.90387 11.4723 3.97875 11.4818 4.30709 11.0958C4.64914 10.694 5.05904 10.5759 5.56456 10.6912C6.04652 10.8012 6.10277 10.765 6.14109 10.27C6.18187 9.74341 6.44517 9.41613 6.92151 9.20696C7.4105 8.99252 7.38308 8.99885 7.13806 8.53305C7.12716 8.51231 7.11415 8.49298 7.1022 8.47259C6.86737 8.07324 6.87018 7.67494 7.1022 7.27453C7.16935 7.15852 7.22208 7.03443 7.2843 6.91526C7.33598 6.81612 7.30258 6.7437 7.21399 6.69484C7.0913 6.62699 6.96756 6.5602 6.8396 6.5036C6.41459 6.31553 6.18397 5.99422 6.14671 5.52983C6.13687 5.4082 6.10523 5.28832 6.08519 5.16704C6.06515 5.04435 5.98922 4.99865 5.87286 5.01412C5.72802 5.0338 5.58319 5.05455 5.43941 5.08056C5.05693 5.15017 4.7184 5.07353 4.43962 4.78983C4.38232 4.73148 4.32748 4.67031 4.27088 4.61125C3.96364 4.29029 3.89227 4.27518 3.60998 4.61125C3.23981 5.05208 2.80214 5.18743 2.24846 5.04646C1.8463 4.94416 1.8115 4.98318 1.74541 5.3857C1.73767 5.43175 1.72888 5.47815 1.72537 5.52456C1.69232 5.99668 1.45679 6.32115 1.02228 6.50782C0.893971 6.56301 0.764604 6.62488 0.65422 6.70785C0.607464 6.74265 0.577583 6.84882 0.593754 6.90787C0.625745 7.02388 0.687265 7.13462 0.750894 7.23903C1.01068 7.6658 1.00928 8.088 0.748784 8.51372C0.691131 8.60793 0.648946 8.71199 0.596918 8.81007C0.534695 8.92748 0.569498 9.01185 0.681991 9.06986C0.801516 9.13138 0.919985 9.19536 1.04232 9.2502C1.45995 9.43687 1.6874 9.75536 1.72607 10.2117C1.73591 10.3277 1.76439 10.4423 1.78091 10.5579C1.80165 10.7042 1.88708 10.7548 2.02699 10.7348C2.25268 10.7028 2.47872 10.6729 2.63621 10.6514L2.63692 10.6518Z" fill="#667085"/>
<path d="M3.93717 12.7905C3.89568 12.8531 3.86264 12.8992 3.83311 12.9473C3.42954 13.6058 3.02527 14.2642 2.62345 14.9241C2.54225 15.0573 2.4512 15.1656 2.27543 15.1287C2.0993 15.0917 2.06134 14.9539 2.03638 14.801C1.98048 14.4551 1.91826 14.1102 1.85639 13.7513C1.5045 13.8596 1.1642 13.9612 0.826371 14.0698C0.676263 14.118 0.534943 14.1363 0.42948 13.9932C0.330697 13.8589 0.381671 13.7306 0.460416 13.603C0.804576 13.0454 1.14733 12.4865 1.48692 11.9258C1.5386 11.8403 1.58359 11.8076 1.69433 11.8322C1.84584 11.866 2.0065 11.8604 2.18016 11.8727C1.88838 12.3504 1.59941 12.8239 1.28724 13.3347C1.5059 13.2669 1.68976 13.2099 1.87361 13.153C2.20371 13.051 2.32289 13.1245 2.3823 13.4687C2.41358 13.6504 2.44382 13.8325 2.48178 14.0561C2.53697 13.9749 2.56967 13.9306 2.59885 13.8835C2.86848 13.4448 3.13917 13.0067 3.40458 12.5656C3.45942 12.4742 3.50371 12.4478 3.62324 12.4657C3.82713 12.4963 4.04157 12.4949 4.24617 12.4671C4.36042 12.4517 4.41034 12.4664 4.46729 12.561C4.73165 13.0029 5.00304 13.4406 5.27267 13.8793C5.3022 13.9274 5.3349 13.9735 5.38903 14.055C5.43368 13.8069 5.46813 13.5966 5.50961 13.3875C5.55813 13.1431 5.69136 13.0626 5.9276 13.1322C6.1343 13.1931 6.3396 13.2585 6.58463 13.3337C6.27703 12.8289 5.98841 12.3557 5.69663 11.8769C5.8935 11.8565 6.07067 11.8329 6.24855 11.8238C6.28652 11.8217 6.34206 11.8621 6.36456 11.8987C6.7256 12.4805 7.08241 13.0648 7.43993 13.6487C7.50953 13.7626 7.52535 13.881 7.44344 13.9942C7.35486 14.1166 7.22865 14.1268 7.09577 14.086C6.74388 13.9777 6.39304 13.8663 6.01759 13.7485C5.95502 14.1113 5.90158 14.4667 5.82846 14.8179C5.80772 14.9177 5.75112 15.032 5.67413 15.0939C5.54406 15.1983 5.37849 15.1297 5.26881 14.9518C4.86137 14.2888 4.45569 13.6248 4.0486 12.961C4.01626 12.908 3.98041 12.857 3.93646 12.7902L3.93717 12.7905Z" fill="#667085"/>
<path d="M14.5014 5.48533C15.0347 5.48533 15.5676 5.48463 16.1009 5.48568C16.3224 5.48603 16.4511 5.59115 16.4511 5.76657C16.4511 5.94163 16.322 6.0471 16.1006 6.04745C15.0227 6.04815 13.9446 6.0485 12.8667 6.04745C12.6456 6.04745 12.5166 5.94128 12.5166 5.76586C12.5166 5.59044 12.6456 5.48568 12.8671 5.48533C13.412 5.48428 13.9569 5.48533 14.5018 5.48533H14.5014Z" fill="#667085"/>
<path d="M14.4832 9.563C13.9384 9.563 13.3935 9.56405 12.8486 9.56265C12.6559 9.56194 12.5378 9.47125 12.5174 9.31692C12.4932 9.13588 12.6303 9.00159 12.8482 9.00088C13.4283 8.99913 14.0083 9.00053 14.5884 9.00053C15.0921 9.00053 15.5959 8.99983 16.1 9.00088C16.3218 9.00124 16.4505 9.10599 16.4505 9.28141C16.4505 9.45648 16.3215 9.5623 16.1003 9.56265C15.5614 9.5637 15.0225 9.563 14.4832 9.563Z" fill="#667085"/>
<path d="M14.4663 13.2189C13.933 13.2189 13.4 13.2196 12.8667 13.2189C12.6453 13.2185 12.517 13.1134 12.5166 12.9377C12.5166 12.7619 12.6442 12.6571 12.8664 12.6568C13.9446 12.6561 15.0224 12.6561 16.1006 12.6568C16.322 12.6568 16.4507 12.7622 16.4511 12.9377C16.4511 13.1127 16.322 13.2182 16.1009 13.2189C15.556 13.2199 15.0111 13.2189 14.4663 13.2192V13.2189Z" fill="#667085"/>
<path d="M9.70217 6.37562C10.0899 5.98751 10.445 5.63175 10.8004 5.27634C10.8457 5.23064 10.8893 5.18283 10.9385 5.14135C11.063 5.03694 11.2096 5.03905 11.3193 5.14241C11.4304 5.24752 11.4377 5.41063 11.3295 5.53684C11.2609 5.61664 11.1832 5.68835 11.1087 5.76288C10.7364 6.13551 10.3645 6.50885 9.99079 6.88043C9.78232 7.08784 9.66526 7.08749 9.4575 6.88184C9.287 6.71274 9.1158 6.54436 8.94882 6.3721C8.81347 6.23254 8.80609 6.06872 8.92245 5.95166C9.03916 5.83459 9.20474 5.83846 9.34149 5.97556C9.46453 6.09895 9.57597 6.2343 9.70217 6.37562Z" fill="#667085"/>
<path d="M9.70895 9.88396C10.0992 9.4934 10.4588 9.13342 10.8184 8.77379C10.8599 8.73231 10.8996 8.68872 10.9446 8.65216C11.0687 8.55126 11.2181 8.55724 11.3246 8.66411C11.428 8.76746 11.4385 8.92777 11.3345 9.04553C11.2262 9.16822 11.1056 9.28001 10.99 9.39602C10.6507 9.73561 10.3129 10.0766 9.9719 10.4144C9.78734 10.5972 9.65938 10.5965 9.47658 10.4169C9.30116 10.2446 9.12679 10.0713 8.95524 9.89521C8.81181 9.74827 8.80373 9.58058 8.92817 9.46246C9.0477 9.34927 9.2073 9.35805 9.34756 9.49691C9.46779 9.61609 9.57888 9.7444 9.70895 9.88466V9.88396Z" fill="#667085"/>
<path d="M9.72514 13.4234C9.86787 13.2652 9.98036 13.1309 10.1027 13.0065C10.373 12.7305 10.6462 12.457 10.9228 12.1877C11.0529 12.0612 11.2146 12.0654 11.3282 12.1825C11.434 12.2918 11.4393 12.4563 11.3201 12.5769C10.8599 13.0437 10.3966 13.5078 9.92939 13.9676C9.79088 14.104 9.65202 14.0991 9.51105 13.9637C9.317 13.7774 9.12646 13.5865 8.93944 13.3928C8.81254 13.2614 8.80832 13.0996 8.9187 12.9854C9.03401 12.8659 9.20099 12.8676 9.33774 13.0026C9.46219 13.1257 9.57538 13.2599 9.72479 13.4231L9.72514 13.4234Z" fill="#667085"/>
<path d="M5.90497 7.87622C5.90497 8.95861 5.0226 9.84204 3.94055 9.84345C2.85956 9.84485 1.97122 8.96107 1.96876 7.88254C1.96629 6.79171 2.85183 5.90512 3.94266 5.90723C5.02436 5.90899 5.90532 6.79312 5.90497 7.87622ZM2.53122 7.87094C2.53052 8.64855 3.16154 9.28168 3.93669 9.28098C4.71324 9.28028 5.34356 8.6482 5.3425 7.87094C5.3411 7.09579 4.70656 6.46689 3.9286 6.4697C3.16294 6.47251 2.53228 7.10493 2.53157 7.87094H2.53122Z" fill="#667085"/>
</svg>
