<?xml version="1.0" encoding="utf-8"?>
<!-- Generator: Adobe Illustrator 27.0.0, SVG Export Plug-In . SVG Version: 6.00 Build 0)  -->
<svg version="1.1" id="Layer_1" xmlns="http://www.w3.org/2000/svg" xmlns:xlink="http://www.w3.org/1999/xlink" x="0px" y="0px"
	 viewBox="0 0 10 10" style="enable-background:new 0 0 10 10;" xml:space="preserve">
<style type="text/css">
	.st0{fill:#EEEEEE;}
	.st1{fill:#027DC2;}
</style>
<circle class="st0" cx="5" cy="5" r="5"/>
<g>
	<path class="st1" d="M4.9,4c0.2,0,0.3,0,0.5,0C5.6,4,5.7,4,5.6,4.2C5.4,5,5.3,5.7,5.1,6.5c0,0.1,0,0.2,0,0.3C5,6.9,5,7,5.1,7
		c0.1,0,0.2,0,0.3,0c0.1-0.1,0.1-0.2,0.2-0.2c0,0,0-0.1,0.1-0.1c0.1-0.1,0.2-0.1,0.2-0.1C6,6.6,6,6.6,6,6.7C5.9,7.1,5.7,7.5,5.3,7.6
		c-0.2,0.1-0.4,0.1-0.6,0C4.3,7.5,4.1,7.2,4.1,6.8c0-0.2,0.1-0.4,0.1-0.7C4.3,5.8,4.4,5.4,4.5,5c0-0.2,0-0.3-0.2-0.3
		c-0.1,0-0.1,0-0.2,0C4,4.7,4,4.6,4,4.5c0-0.1,0.1-0.2,0.1-0.4C4.1,4,4.2,4,4.4,4C4.6,4,4.7,4,4.9,4L4.9,4z"/>
	<path class="st1" d="M5.9,2.9c0,0.3-0.3,0.6-0.6,0.6C5,3.5,4.8,3.2,4.8,2.9c0-0.3,0.2-0.5,0.5-0.5C5.6,2.4,5.9,2.6,5.9,2.9z"/>
</g>
</svg>
