<svg width="155" height="74" viewBox="0 0 155 74" fill="none" xmlns="http://www.w3.org/2000/svg">
<path d="M148.717 0H103.197L96.7794 6.81318L93.7739 0H53.0598C49.6481 0 44.9097 2.78107 42.536 6.17867L3.10352 65.3643C-1.54463 71.9164 -1.62586 73.9595 7.39966 73.9595H51.3991L59.5356 64.5092L60.8172 73.9685L100.922 74C104.979 74 107.371 72.794 109.722 69.5089C111.87 66.4983 152.823 8.18572 152.823 8.18572C156.925 3.08708 155.048 0 148.717 0Z" fill="#1F3B90"/>
<path d="M28.5194 55.932H45.0993C45.0993 55.932 57.9697 37.5805 61.8777 31.9418C67.5096 23.7876 75.1182 23.2026 80.4703 22.9506C86.3865 22.6716 91.8515 24.4941 95.3353 26.8072C98.7199 29.0573 100.936 32.9274 99.636 36.235C97.0592 42.8051 87.104 47.2198 75.6868 45.7032C71.4538 45.1452 69.8021 44.2137 67.2705 43.0886C65.5511 44.8032 63.2586 47.9488 61.4355 49.9198C68.5024 54.7485 86.1067 57.8805 102.786 50.8019C116.247 45.0867 128.134 28.3102 102.217 15.9529C84.6807 7.58718 66.9455 14.5219 63.8498 15.6469C57.7169 17.879 52.6581 21.6681 47.2654 29.1338C44.6615 32.7339 28.5149 55.9365 28.5149 55.9365L28.5194 55.932Z" fill="white"/>
<path d="M81.0298 38.6694C85.7321 38.6694 89.5364 36.7389 89.5364 34.3493C89.5364 31.9597 85.7366 30.0427 81.0298 30.0427C76.323 30.0427 72.5368 31.9777 72.5368 34.3493C72.5368 36.7344 76.3456 38.6694 81.0298 38.6694Z" fill="white"/>
</svg>
