<svg width="18" height="15" viewBox="0 0 18 15" fill="none" xmlns="http://www.w3.org/2000/svg">
<path d="M2.84211 0H15.1579C15.9117 0 16.6346 0.299435 17.1676 0.832433C17.7006 1.36543 18 2.08833 18 2.8421V11.3684C18 12.1222 17.7006 12.8451 17.1676 13.3781C16.6346 13.9111 15.9117 14.2105 15.1579 14.2105H2.84211C2.08833 14.2105 1.36543 13.9111 0.832433 13.3781C0.299435 12.8451 0 12.1222 0 11.3684V2.8421C0 2.08833 0.299435 1.36543 0.832433 0.832433C1.36543 0.299435 2.08833 0 2.84211 0ZM2.84211 0.947368C2.36842 0.947368 1.95158 1.10842 1.62947 1.39263L9 6.15789L16.3705 1.39263C16.0484 1.10842 15.6316 0.947368 15.1579 0.947368H2.84211ZM9 7.30421L1.07053 2.16C0.994737 2.36842 0.947368 2.60526 0.947368 2.8421V11.3684C0.947368 11.8709 1.14699 12.3529 1.50232 12.7082C1.85766 13.0635 2.33959 13.2632 2.84211 13.2632H15.1579C15.6604 13.2632 16.1423 13.0635 16.4977 12.7082C16.853 12.3529 17.0526 11.8709 17.0526 11.3684V2.8421C17.0526 2.60526 17.0053 2.36842 16.9295 2.16L9 7.30421Z" fill="#667085"/>
</svg>
