<svg width="447" height="330" viewBox="0 0 447 330" fill="none" xmlns="http://www.w3.org/2000/svg">
<path d="M0.116278 218.266C1.87277 175.571 21.3077 135.758 46.7995 103.92C88.357 52.0122 148.009 17.7002 210.221 14.1925C272.432 10.6848 336.234 39.2266 376.474 92.4119C403.472 128.091 419.674 176.174 412.028 222.132C404.373 268.09 369.198 309.076 327.451 311.224C282.903 313.519 242.943 274.65 198.38 276.489C173.774 277.506 151.151 290.854 128.893 302.63C93.4978 321.349 49.6538 339.864 20.9443 298.113C5.97628 276.334 -1.00424 245.441 0.116278 218.266Z" fill="#EBE6FF"/>
<path d="M196.033 1H60.1328V154.183H196.033V1Z" stroke="#CBBDFA" stroke-miterlimit="10"/>
<path d="M103.955 5.23193H63.9492V149.943H103.955V5.23193Z" stroke="#CBBDFA" stroke-miterlimit="10"/>
<path d="M147.73 5.23193H107.725V149.943H147.73V5.23193Z" stroke="#CBBDFA" stroke-miterlimit="10"/>
<path d="M191.513 5.23193H151.508V149.943H191.513V5.23193Z" stroke="#CBBDFA" stroke-miterlimit="10"/>
<path d="M379.973 1H244.072V154.183H379.973V1Z" stroke="#CBBDFA" stroke-miterlimit="10"/>
<path d="M287.894 5.23193H247.889V149.943H287.894V5.23193Z" stroke="#CBBDFA" stroke-miterlimit="10"/>
<path d="M331.67 5.23193H291.664V149.943H331.67V5.23193Z" stroke="#CBBDFA" stroke-miterlimit="10"/>
<path d="M375.453 5.23193H335.447V149.943H375.453V5.23193Z" stroke="#CBBDFA" stroke-miterlimit="10"/>
<path d="M216.088 314.48C224.726 321.3 240.686 319.135 240.55 327.575C221.516 329.748 211.931 324.824 211.931 324.824L211.886 327.543L205.246 326.639C205.246 326.639 202.672 319.754 204.451 314.171L216.088 314.48Z" fill="#281B4F"/>
<path d="M170.23 313.438C179.096 320.437 195.676 318.216 195.54 326.883C176.007 329.113 166.18 324.067 166.18 324.067L166.134 326.85L159.32 325.923C159.32 325.923 156.678 318.858 158.51 313.129L170.238 313.438H170.23Z" fill="#281B4F"/>
<path d="M195.631 181.838C201.143 241.933 203.763 314.895 203.763 314.895C207.647 317.564 212.212 317.003 216.088 314.48C225.363 213.66 218.723 156.064 218.723 156.064L194.859 155.657M194.859 155.657L168.474 155.209C165.43 264.347 158.344 314.35 158.344 314.35C162.266 316.987 166.392 315.994 170.223 313.446C181.89 255.109 194.639 181.814 195.624 181.846" fill="#9E6C52"/>
<path d="M167.262 158.261L157.178 297.804L179.664 300.262L196.032 183.987L199.432 300.262H222.932C222.932 300.262 223.273 196.838 219.798 159.335L167.262 158.253V158.261Z" fill="#463283"/>
<path d="M254.936 102.74C260.614 91.3785 260.288 91.9889 266.027 75.1503L257.04 71.7646C257.04 71.7646 249.961 87.3092 236.977 107.892C233.638 102.65 230.648 97.2138 228.339 91.761L203.309 78.8777C203.309 78.8777 208.51 95.9361 225.159 119.155C234.009 131.493 243.072 126.488 248.69 115.33L254.936 102.74Z" fill="#9E6C52"/>
<path d="M257.132 71.5856C256.92 71.9193 257.079 72.2611 257.336 72.4157C257.329 72.4808 257.313 72.5378 257.329 72.6111C257.662 75.2154 258.283 78.2022 260.796 79.3009C262.833 80.188 265.4 79.9846 267.467 79.5288C271.881 78.544 275.825 75.5409 278.051 71.2601C278.165 71.0322 278.135 70.8124 278.029 70.6334C278.597 69.844 279.005 68.9487 279.066 67.907C279.089 67.557 278.877 67.3536 278.634 67.2966C278.71 67.1094 278.771 66.9222 278.801 66.7188C278.922 66.0026 278.672 65.3108 278.203 64.8957C278.226 64.3179 278.006 63.7563 277.461 63.4308C276.386 62.796 275.409 63.6587 274.599 64.326C273.539 65.1969 272.388 65.9375 271.184 66.5479C269.322 67.4919 267.315 68.086 265.263 68.3302C265.544 68.1267 265.816 67.9314 266.096 67.7279C266.922 67.1257 267.876 66.5886 268.61 65.8724C269.155 65.3434 269.39 64.3667 268.739 63.7726C268.103 63.1866 267.156 63.6587 266.505 63.8947C262.704 65.2783 259.426 67.9965 257.139 71.5856H257.132Z" fill="#9E6C52"/>
<path d="M278.028 65.0664C278.073 65.1641 278.058 65.278 277.982 65.3594C275.355 67.9475 272.152 69.8437 268.715 70.8529C268.594 70.8855 268.473 70.8041 268.435 70.682C268.405 70.5518 268.473 70.4216 268.594 70.3809C271.963 69.3961 275.098 67.5324 277.672 65.0013C277.763 64.9118 277.907 64.9199 277.99 65.0176C278.005 65.0339 278.013 65.0502 278.028 65.0746V65.0664Z" fill="#7F4126"/>
<path d="M278.217 67.6872C278.262 67.7849 278.247 67.8988 278.164 67.972C275.718 70.3973 272.713 72.082 269.464 72.8389C269.343 72.8714 269.222 72.7901 269.192 72.6517C269.162 72.5215 269.245 72.3913 269.366 72.3587C272.531 71.6181 275.468 69.9741 277.853 67.6058C277.944 67.5163 278.088 67.5244 278.171 67.6221C278.187 67.6384 278.202 67.6546 278.209 67.6791L278.217 67.6872Z" fill="#7F4126"/>
<path d="M277.483 71.1298C277.521 71.2356 277.49 71.3577 277.407 71.4228C275.219 73.1075 272.789 74.3364 270.192 75.077C270.07 75.1095 269.949 75.0444 269.911 74.9061C269.881 74.7759 269.949 74.6456 270.07 74.605C272.622 73.8806 274.999 72.6761 277.142 71.024C277.241 70.9426 277.384 70.967 277.46 71.081C277.468 71.0972 277.483 71.1135 277.483 71.1298Z" fill="#7F4126"/>
<path d="M210.933 64.0005C220.466 68.436 230.687 93.5189 230.687 93.5189L214.908 101.739C210.661 93.5433 210.615 79.0405 210.941 64.0005H210.933Z" fill="#9A7FEF"/>
<path d="M219.815 159.555C182.944 167.93 167.211 159.466 167.211 159.466C167.93 143.384 169.134 127.571 170.421 113.58C170.663 111.001 170.898 108.486 171.14 106.036C171.254 104.954 171.367 103.888 171.466 102.838C171.738 100.241 171.996 97.7348 172.253 95.3339C174.29 76.4851 176.092 64.0006 176.092 64.0006L187.721 59.8906H199.229L210.941 64.0006C210.941 64.0006 212.493 77.9337 214.394 97.1081C214.636 99.5171 214.878 102.016 215.128 104.571C215.234 105.678 215.348 106.793 215.454 107.924C215.688 110.366 215.923 112.864 216.158 115.395C217.506 129.801 218.846 145.386 219.822 159.555H219.815Z" fill="#9A7FEF"/>
<path d="M216.151 115.404C201.009 118.627 185.344 118.016 170.422 113.589C170.664 111.009 170.899 108.494 171.141 106.044C185.632 110.537 200.759 111.188 215.447 107.941C215.682 110.382 215.916 112.881 216.151 115.412V115.404Z" fill="#8160EA"/>
<path d="M215.129 104.571C200.668 107.485 185.746 106.907 171.467 102.838C171.739 100.242 171.997 97.7349 172.254 95.334C186.056 99.4114 200.411 100.014 214.395 97.1082C214.637 99.5172 214.879 102.016 215.129 104.571Z" fill="#8160EA"/>
<path d="M165.825 113.792C169.413 107.989 169.3 108.339 172.124 101.739L172.252 68.9326C172.252 68.9326 152.454 101.755 148.888 118.472C148.888 118.488 148.888 118.504 148.88 118.521C148.381 120.905 149.781 123.29 151.992 123.851C152.075 123.876 152.166 123.892 152.25 123.917C165.363 127.164 192.808 124.47 192.808 124.47L193.02 115.721L165.832 113.8L165.825 113.792Z" fill="#9E6C52"/>
<path d="M203.316 105.8V107.737H197.335C197.078 107.737 196.828 107.859 196.654 108.071C196.48 108.283 196.404 108.559 196.434 108.836L198.418 125.691C198.448 125.959 198.584 126.204 198.789 126.358C198.94 126.48 199.13 126.537 199.311 126.537C199.372 126.537 199.432 126.537 199.501 126.513L203.309 125.65V127.245H219.942V105.8H203.309H203.316ZM200.091 124.389L198.357 109.682H203.316V123.664L200.091 124.389Z" fill="#372769"/>
<path d="M210.631 102.024C209.245 101.316 208.223 99.8348 207.996 98.199C207.769 96.5713 208.291 94.9192 208.208 93.2752C208.14 91.8591 207.618 90.4918 206.876 89.3117C206.134 88.1316 205.187 87.1225 204.195 86.1865C206.012 86.4714 207.83 87.1794 209.17 88.5386C210.51 89.8977 211.335 91.8916 211.123 93.8612C211.017 94.8052 210.684 95.7005 210.374 96.5957C210.063 97.4909 209.775 98.4106 209.76 99.3547C209.745 100.307 209.95 101.43 210.646 102.024H210.631Z" fill="white"/>
<path d="M214.583 103.879C214.06 102.895 213.917 101.69 214.182 100.6C214.431 99.5578 215.03 98.6463 215.37 97.629C216.082 95.4885 215.476 92.9168 213.909 91.3867C214.5 92.4203 214.341 93.755 213.954 94.8944C213.576 96.0338 212.985 97.1 212.743 98.2801C212.327 100.307 213.099 102.545 214.583 103.879Z" fill="white"/>
<path d="M185.214 120.116C185.214 120.116 190.9 104.108 192.506 104.498C194.111 104.889 193.354 110.814 193.354 110.814C193.354 110.814 202.091 108.958 202.409 111.489C202.727 114.02 199.698 114.24 199.698 114.24C199.698 114.24 202.136 114.069 202.068 115.689C202.008 117.308 199.842 118.033 199.842 118.033C199.842 118.033 201.909 118.081 202.038 119.522C202.167 120.962 199.721 121.386 199.721 121.386C199.721 121.386 202.227 121.296 202.273 122.501C202.348 124.413 192.657 126.31 190.507 125.251C188.364 124.193 185.199 120.116 185.199 120.116H185.214Z" fill="#9E6C52"/>
<path d="M176.091 64.0005C166.559 68.436 157.178 92.111 157.178 92.111L172.116 101.739L176.084 64.0005H176.091Z" fill="#9A7FEF"/>
<path d="M212.197 26.8644C207.617 34.6855 198.266 37.1352 193.792 44.9889C192.815 46.7061 191.589 48.6268 189.484 48.5861C187.546 48.5454 186.312 46.6817 185.32 45.1435C182.503 40.7731 180.293 35.9632 178.703 30.9255C177.189 26.14 175.667 20.6058 177.666 15.7146C179.059 12.3127 182.556 9.8874 185.857 10.6524C187.674 8.47129 189.317 6.17623 191.49 4.40203C193.656 2.62783 196.207 1.27683 198.925 1.04082C201.643 0.8048 204.528 1.7977 206.292 4.0358C209.237 3.20567 212.235 5.07753 213.923 7.79579C215.612 10.5141 215.952 13.9974 215.483 17.2283C215.014 20.4593 213.817 24.1054 212.197 26.8725V26.8644Z" fill="#281B4F"/>
<path d="M186.236 17.3181C191.43 7.07984 209.707 10.5794 211.123 18.7179C214.045 35.4589 211.827 42.3359 207.496 46.2913C202.484 50.8651 199.221 50.2873 199.221 59.8989C197.328 65.018 190.06 65.7179 187.713 59.8989C187.857 47.1621 183.791 37.5098 183.791 37.5098C183.791 37.5098 184.094 21.5501 186.236 17.3262V17.3181Z" fill="#9E6C52"/>
<path d="M188.188 19.5885C189.665 21.8755 191.845 22.8358 193.738 23.2183C195.063 23.4869 195.858 21.6801 194.836 20.7361L193.996 19.9548C193.996 19.9548 203.013 25.6924 212.325 23.7066C212.325 23.7066 213.688 20.0362 209.509 13.9078C206.828 9.98508 199.045 9.02473 192.413 10.3432C185.773 11.6616 182.889 14.7624 182.677 19.8815C182.457 25.0007 181.973 31.3894 181.973 31.3894L184.547 33.4973C188.59 30.6 188.188 19.5885 188.188 19.5885Z" fill="#281B4F"/>
<path d="M197.402 33.0984C197.402 33.7902 197.925 34.3599 198.576 34.3599C199.227 34.3599 199.749 33.7983 199.749 33.0984C199.749 32.3985 199.227 31.8369 198.576 31.8369C197.925 31.8369 197.402 32.3985 197.402 33.0984Z" fill="#1B1B28"/>
<path d="M199 33.2203C199.238 33.2203 199.432 33.0126 199.432 32.7564C199.432 32.5002 199.238 32.2925 199 32.2925C198.762 32.2925 198.568 32.5002 198.568 32.7564C198.568 33.0126 198.762 33.2203 199 33.2203Z" fill="white"/>
<path d="M206.465 33.0984C206.465 33.7902 206.987 34.3599 207.638 34.3599C208.29 34.3599 208.812 33.7983 208.812 33.0984C208.812 32.3985 208.29 31.8369 207.638 31.8369C206.987 31.8369 206.465 32.3985 206.465 33.0984Z" fill="#1B1B28"/>
<path d="M207.637 32.7564C207.637 33.0087 207.826 33.2203 208.068 33.2203C208.311 33.2203 208.5 33.0168 208.5 32.7564C208.5 32.4959 208.311 32.2925 208.068 32.2925C207.826 32.2925 207.637 32.4959 207.637 32.7564Z" fill="white"/>
<path d="M205.679 28.1665C207.148 27.0678 209.063 27.1247 210.449 28.4188C210.706 28.6629 210.752 29.1431 210.555 29.4605C210.35 29.7779 209.972 29.8349 209.707 29.5907C209.139 29.0617 208.412 28.8257 207.7 28.8827C207.344 28.9071 206.989 29.0129 206.663 29.1919C206.368 29.3466 206.088 29.6151 205.762 29.4198C205.686 29.371 205.618 29.2977 205.565 29.2163C205.383 28.9234 205.399 28.3862 205.679 28.1746V28.1665Z" fill="#281B4F"/>
<path d="M201.113 28.1665C199.425 27.0678 197.237 27.1247 195.647 28.4188C195.351 28.6629 195.298 29.1431 195.526 29.4605C195.76 29.7779 196.192 29.8349 196.495 29.5907C197.146 29.0617 197.979 28.8338 198.789 28.8908C199.198 28.9234 199.607 29.021 199.985 29.1919C200.318 29.3466 200.651 29.607 201.022 29.4117C201.113 29.3628 201.189 29.2896 201.249 29.2082C201.454 28.9152 201.446 28.3781 201.121 28.1665H201.113Z" fill="#281B4F"/>
<path d="M203.566 40.2605C204.202 40.2605 204.869 40.114 205.512 39.7477C205.815 39.5768 205.929 39.178 205.77 38.8606C205.611 38.5432 205.24 38.413 204.944 38.5839C203.392 39.4548 201.666 38.5595 201.174 37.8352C200.977 37.5422 200.591 37.4771 200.318 37.6887C200.046 37.9003 199.985 38.3154 200.182 38.6083C200.765 39.4629 202.098 40.2605 203.566 40.2605Z" fill="#7F4126"/>
<path d="M205.013 36.5165C205.081 36.5165 205.142 36.4677 205.157 36.3944C205.445 35.3202 205.104 34.9539 204.771 34.84C204.43 34.726 204.021 34.8156 203.56 35.1248C203.491 35.1737 203.469 35.2713 203.507 35.3527C203.552 35.426 203.65 35.4504 203.719 35.4097C204.105 35.1574 204.423 35.0679 204.68 35.1574C204.983 35.2632 205.044 35.6457 204.869 36.3049C204.847 36.3944 204.892 36.484 204.975 36.5084C204.991 36.5084 205.006 36.5084 205.021 36.5084L205.013 36.5165Z" fill="#7F4126"/>
<path d="M179.786 37.8678C181.353 39.878 183.821 40.4233 185.305 39.0804C186.789 37.7457 186.721 35.0356 185.154 33.0254C183.587 31.0151 181.118 30.4699 179.634 31.8127C178.15 33.1474 178.219 35.8576 179.786 37.8678Z" fill="#9E6C52"/>
<path d="M180.657 32.7977C181.323 32.4151 182.209 32.4396 183.034 32.8465C183.443 33.0499 183.738 33.3022 183.943 33.6034C184.208 34.0103 184.284 34.523 184.14 34.9381C184.011 35.3125 183.731 35.5485 183.489 35.7682C183.314 35.9228 183.148 36.0693 183.049 36.2402C182.906 36.5088 182.943 36.8832 183.133 37.1111C183.33 37.3389 183.67 37.4122 183.928 37.282C184.079 37.2087 184.261 37.282 184.337 37.4447C184.405 37.6075 184.337 37.8028 184.185 37.8842C184.019 37.9656 183.837 38.0063 183.655 38.0063C183.292 38.0063 182.928 37.8435 182.678 37.5506C182.307 37.1111 182.239 36.4193 182.519 35.9066C182.671 35.6299 182.898 35.4264 183.102 35.2555C183.307 35.0764 183.496 34.9137 183.572 34.7021C183.648 34.4905 183.602 34.2138 183.451 33.9859C183.39 33.8964 183.307 33.815 183.216 33.7336C182.913 33.7336 182.535 33.8312 182.338 34.0591C182.118 34.3114 182.02 34.6858 182.073 35.0195C182.103 35.1985 181.989 35.3694 181.823 35.3938C181.808 35.3938 181.793 35.3938 181.77 35.3938C181.626 35.3938 181.49 35.2799 181.467 35.1171C181.384 34.5718 181.543 34.0103 181.883 33.6034C182.012 33.4487 182.171 33.3511 182.345 33.2697C181.838 33.1232 181.338 33.1557 180.952 33.3755C180.475 33.6441 180.112 34.3521 180.362 34.9218C180.43 35.0846 180.362 35.2799 180.21 35.3613C180.059 35.4345 179.877 35.3613 179.801 35.1985C179.445 34.3684 179.839 33.2615 180.664 32.7977H180.657Z" fill="#7F4126"/>
<path d="M343.184 234.86V317.344C343.184 322.602 339.217 326.866 334.326 326.866H302.21C297.319 326.866 293.352 322.602 293.352 317.344V234.86" stroke="#FFA515" stroke-width="2" stroke-miterlimit="10"/>
<path d="M383.272 234.86V317.344C383.272 322.602 379.305 326.866 374.414 326.866H342.298C337.407 326.866 333.439 322.602 333.439 317.344V234.86" stroke="#FFA515" stroke-width="2" stroke-miterlimit="10"/>
<path d="M337.514 238.751H293.352V238.067C293.352 222.751 304.897 210.339 319.146 210.339H355.086L351.467 230.881L343.275 237.677L337.506 238.751H337.514Z" fill="#FFA515"/>
<path d="M382.351 132.738H362.325C353.149 132.738 345.404 140.055 344.215 149.837L333.449 238.759H375.007C383.759 238.759 391.156 231.776 392.284 222.449L400.461 154.908C401.884 143.156 393.374 132.738 382.351 132.738Z" fill="#DD4040"/>
<path d="M378.413 132.738H358.388C349.212 132.738 341.466 140.055 340.278 149.837L329.512 238.759H371.069C379.821 238.759 387.218 231.776 388.346 222.449L396.523 154.908C397.947 143.156 389.437 132.738 378.413 132.738Z" fill="#B72A2A"/>
<path d="M290.906 236.423L310.289 238.295V232.834L290.217 231.426L290.906 236.423Z" fill="#463283"/>
<path d="M303.361 320.926L296.577 323.099C296.577 323.099 286.901 327.16 266.717 328.413C265.801 323.001 271.35 320.779 277.589 317.833C281.473 316.002 285.614 313.894 288.65 310.549L302.195 307.79C304.943 313.275 303.353 320.917 303.353 320.917L303.361 320.926Z" fill="#1E2D42"/>
<path d="M302.195 307.79C297.062 314.293 288.15 318.256 279.716 319.428C278.974 319.534 278.058 319.534 277.664 318.842C277.483 318.533 277.475 318.166 277.589 317.825C281.473 315.994 285.614 313.886 288.65 310.541L302.195 307.782V307.79Z" fill="#F4A269"/>
<path d="M367.396 199.271C369.849 212.52 361.65 225.339 349.263 227.625C349.263 227.625 310.075 237.424 293.419 235.308C298.378 251.064 297.47 268.57 302.194 307.79C302.194 307.79 294.986 314.464 288.649 310.549C287.923 305.772 268.056 238.376 274.984 221.513C280.821 207.287 367.396 199.263 367.396 199.263V199.271Z" fill="#F4A269"/>
<path d="M328.89 321.707L322.129 323.872C322.129 323.872 312.476 327.925 292.36 329.17C291.443 323.774 296.978 321.56 303.201 318.622C307.078 316.799 311.204 314.699 314.232 311.363L327.739 308.612C330.48 314.081 328.897 321.699 328.897 321.699L328.89 321.707Z" fill="#1E2D42"/>
<path d="M327.732 308.62C322.614 315.098 313.733 319.054 305.322 320.225C304.58 320.331 303.664 320.331 303.27 319.64C303.088 319.33 303.081 318.964 303.194 318.622C307.071 316.799 311.197 314.699 314.225 311.363L327.732 308.612V308.62Z" fill="#FFB681"/>
<path d="M386.18 199.271C388.043 219.072 376.133 236.008 320.744 238.23C325.12 254.532 322.932 272.322 327.739 308.62C327.739 308.62 322.371 314.301 314.232 311.371C314.232 311.371 294.972 236.261 301.725 225.241C306.926 216.753 386.18 199.279 386.18 199.279V199.271Z" fill="#FFB681"/>
<path d="M274.379 223.41C274.379 223.41 274.591 220.333 277.627 218.396C280.663 216.459 315.846 211.031 321.267 223.67C325.794 234.226 320.737 238.23 320.737 238.23C320.737 238.23 369.328 243.227 382.146 222.376C391.647 206.913 384.803 193.533 384.803 193.533C384.803 193.533 273.826 201.289 274.379 223.41Z" fill="#463283"/>
<path d="M373.469 83.7282C373.537 78.9997 375.354 73.4329 374.309 67.7685C373.196 61.7541 367.988 55.105 363.203 57.0338C359.924 49.4324 353.065 45.9491 346.531 46.1119C340.012 46.2747 334.576 51.0683 331.813 57.929C329.383 63.9515 329.11 71.146 330.397 77.7057C331.904 85.3396 327.99 90.0844 327.967 95.8627C327.944 101.576 331.056 107.428 335.25 111.456C339.066 115.127 343.881 117.56 348.591 118.813C353.141 120.026 357.842 120.27 362.408 119.969C367.67 119.627 373.507 118.325 377.406 114.614C383.054 109.234 382.691 100.892 378.526 95.114C376.815 92.7457 374.627 90.4587 373.787 87.0161C373.53 85.9744 373.446 84.8676 373.461 83.72L373.469 83.7282Z" fill="#5B3D31"/>
<path d="M324.211 131.558C321.031 138.891 320.789 141.121 315.845 148.031L283.926 125.048L279.08 132.096C279.08 132.096 298.909 151.278 313.021 160.409C313.089 160.45 313.157 160.499 313.226 160.54C316.201 162.468 320.055 161.785 322.288 158.928C322.303 158.912 322.318 158.896 322.326 158.879C333.463 144.613 346.622 116.925 346.622 116.925L324.211 131.558Z" fill="#FFB681"/>
<path d="M278.588 120.164C277.937 119.928 276.99 119.464 276.354 120.042C275.703 120.636 275.938 121.613 276.483 122.142C277.225 122.858 278.179 123.395 278.997 123.997C279.277 124.201 279.55 124.404 279.83 124.6C277.778 124.347 275.771 123.753 273.909 122.817C272.697 122.207 271.554 121.466 270.494 120.596C269.684 119.928 268.715 119.066 267.632 119.7C267.079 120.026 266.867 120.587 266.89 121.165C266.428 121.58 266.171 122.272 266.292 122.988C266.322 123.184 266.39 123.379 266.459 123.566C266.216 123.623 266.004 123.827 266.027 124.177C266.088 125.218 266.496 126.113 267.064 126.903C266.958 127.082 266.928 127.302 267.042 127.53C269.268 131.81 273.212 134.814 277.626 135.798C279.693 136.254 282.26 136.458 284.297 135.57C286.811 134.48 287.424 131.493 287.765 128.881C287.772 128.807 287.765 128.742 287.757 128.685C288.014 128.522 288.181 128.189 287.969 127.855C285.682 124.274 282.404 121.556 278.603 120.164H278.588Z" fill="#FFB681"/>
<path d="M267.057 121.344C267.011 121.442 267.027 121.556 267.102 121.629C269.73 124.217 272.932 126.113 276.37 127.122C276.491 127.155 276.612 127.074 276.65 126.952C276.68 126.821 276.612 126.691 276.491 126.65C273.121 125.666 269.987 123.802 267.413 121.271C267.322 121.181 267.178 121.189 267.095 121.287C267.08 121.303 267.072 121.32 267.057 121.344Z" fill="#D88145"/>
<path d="M266.875 123.965C266.83 124.062 266.845 124.176 266.921 124.258C269.366 126.683 272.372 128.368 275.62 129.125C275.741 129.157 275.862 129.076 275.893 128.937C275.923 128.807 275.84 128.677 275.719 128.644C272.554 127.904 269.616 126.26 267.231 123.891C267.14 123.802 266.996 123.81 266.913 123.908C266.898 123.924 266.883 123.94 266.875 123.965Z" fill="#D88145"/>
<path d="M267.602 127.407C267.564 127.513 267.594 127.635 267.678 127.7C269.866 129.385 272.296 130.614 274.893 131.354C275.014 131.387 275.136 131.322 275.173 131.183C275.204 131.053 275.136 130.923 275.014 130.882C272.463 130.158 270.085 128.953 267.943 127.301C267.844 127.22 267.7 127.244 267.625 127.358C267.617 127.375 267.61 127.391 267.602 127.407Z" fill="#D88145"/>
<path d="M339.693 137.011L338.065 109.373C328.624 114.597 323.597 131.737 323.597 131.737C323.597 131.737 319.774 141.805 315.799 146.956L294.683 131.355C294.683 131.355 290.095 136.099 287.438 141.259C295.084 148.177 302.761 155.07 311.544 160.206C313.883 161.573 318.168 164.015 320.743 163.266C322.62 162.721 324.097 161.191 325.414 159.644C330.88 153.231 335.832 145.434 339.701 137.003L339.693 137.011Z" fill="#9A7FEF"/>
<path d="M429.54 125.047L397.62 148.031C392.676 141.121 392.434 138.891 389.254 131.558L379.639 125.275C378.352 128.262 377.034 131.241 375.717 134.211C380.259 142.561 385.923 152.189 391.147 158.879C391.162 158.896 391.177 158.912 391.184 158.928C393.418 161.785 397.279 162.46 400.247 160.539C400.315 160.499 400.383 160.45 400.451 160.409C414.556 151.278 434.393 132.095 434.393 132.095L429.547 125.047H429.54Z" fill="#FFB681"/>
<path d="M425.057 128.539C424.845 128.872 425.004 129.214 425.269 129.369C425.262 129.434 425.247 129.491 425.262 129.564C425.595 132.169 426.216 135.155 428.729 136.254C430.766 137.141 433.333 136.938 435.4 136.482C439.814 135.497 443.759 132.494 445.985 128.213C446.098 127.985 446.068 127.766 445.962 127.587C446.53 126.797 446.939 125.902 446.999 124.86C447.022 124.51 446.81 124.307 446.568 124.25C446.643 124.063 446.704 123.875 446.734 123.672C446.855 122.956 446.605 122.264 446.136 121.849C446.159 121.271 445.939 120.709 445.394 120.384C444.319 119.749 443.342 120.612 442.532 121.279C441.472 122.15 440.321 122.891 439.117 123.501C437.255 124.445 435.248 125.039 433.196 125.283C433.477 125.08 433.749 124.885 434.029 124.681C434.855 124.079 435.809 123.542 436.543 122.825C437.088 122.296 437.323 121.32 436.672 120.726C436.036 120.14 435.089 120.612 434.438 120.848C430.637 122.231 427.359 124.95 425.072 128.539H425.057Z" fill="#FFB681"/>
<path d="M445.954 122.028C445.999 122.125 445.984 122.239 445.908 122.313C443.281 124.901 440.078 126.797 436.641 127.806C436.52 127.839 436.399 127.757 436.361 127.635C436.33 127.505 436.399 127.375 436.52 127.334C439.889 126.349 443.024 124.486 445.598 121.954C445.689 121.865 445.832 121.873 445.916 121.971C445.931 121.987 445.939 122.003 445.954 122.028Z" fill="#D88145"/>
<path d="M446.143 124.64C446.188 124.738 446.173 124.852 446.098 124.925C443.652 127.35 440.646 129.035 437.398 129.792C437.277 129.825 437.156 129.743 437.125 129.605C437.095 129.475 437.178 129.344 437.3 129.312C440.464 128.571 443.402 126.927 445.787 124.559C445.878 124.469 446.022 124.478 446.105 124.575C446.12 124.591 446.135 124.608 446.143 124.632V124.64Z" fill="#D88145"/>
<path d="M445.409 128.083C445.446 128.189 445.416 128.311 445.333 128.376C443.145 130.061 440.714 131.29 438.117 132.03C437.996 132.063 437.875 131.998 437.837 131.859C437.807 131.729 437.875 131.599 437.996 131.558C440.548 130.834 442.925 129.629 445.068 127.977C445.166 127.896 445.31 127.92 445.386 128.034C445.394 128.05 445.401 128.067 445.409 128.083Z" fill="#D88145"/>
<path d="M424.596 142.228C424.066 140.104 423.385 137.971 422.136 136.23C420.887 134.488 418.948 133.145 416.904 133.153C410.726 138.216 404.261 142.911 397.522 147.07C394.592 142.268 392.177 137.06 390.156 131.745C390.156 131.745 385.219 113.767 375.68 109.519L373.234 138.883C376.452 145.076 380.344 150.659 384.273 156.356C388.49 162.476 395.69 163.958 401.8 160.214C410.068 155.152 417.858 149.447 424.604 142.236L424.596 142.228Z" fill="#9A7FEF"/>
<path d="M327.966 200.597C345.16 205.765 386.915 201.232 386.915 201.232C386.915 194.371 384.552 185.215 382.486 178.753C380.366 172.178 378.2 165.561 377.246 158.684C376.679 154.631 376.891 148.975 377.337 143.823C377.504 141.894 377.693 140.039 377.89 138.362C378.397 133.926 378.92 130.72 378.927 130.671C377.966 118.317 377.897 110.821 377.776 110.748C375.316 109.169 372.605 107.989 369.781 107.143C359.772 104.131 348.325 105.328 341.519 107.761C338.528 108.844 336.431 110.154 335.749 111.456C334.599 113.01 334.765 115.867 334.091 124.03C331.502 128.856 328.481 136.71 332.676 143.603C333.221 144.49 333.857 145.345 334.636 146.183C334.636 146.183 334.742 146.761 334.886 147.762C335.356 150.846 336.204 162.721 335.628 168.483C334.273 182.172 327.951 189.765 327.951 200.597H327.966Z" fill="#9A7FEF"/>
<path d="M352.504 185.028C358.354 185.028 363.097 172.756 363.097 157.618C363.097 142.479 358.354 130.207 352.504 130.207C346.654 130.207 341.912 142.479 341.912 157.618C341.912 172.756 346.654 185.028 352.504 185.028Z" fill="#8160EA"/>
<path d="M332.245 143.05C330.86 140.177 330.299 136.848 330.678 133.642C331.057 130.435 332.359 127.359 334.365 124.942C334.388 123.648 334.441 122.232 334.464 120.938" stroke="#8160EA" stroke-width="0.5" stroke-linecap="round" stroke-linejoin="round"/>
<path d="M362.104 61.9494C356.789 51.4833 338.103 55.0561 336.65 63.3736C333.659 80.4971 335.931 87.5207 340.36 91.5655C345.485 96.2452 348.998 96.1068 348.998 105.946C350.936 111.179 353.866 114.581 360.589 105.482C360.446 92.4607 364.602 82.5887 364.602 82.5887C364.602 82.5887 364.292 66.2628 362.104 61.9494Z" fill="#FFB681"/>
<path d="M360.113 64.2688C358.925 66.1081 357.297 67.1091 355.707 67.6463C354.026 68.2078 352.837 65.8802 354.17 64.6513C354.17 64.6513 344.948 70.5192 335.424 68.4845C335.424 68.4845 334.023 64.7327 338.309 58.466C341.042 54.4618 349.006 53.4689 355.79 54.8199C362.574 56.1709 365.526 59.3368 365.746 64.578C365.966 69.8111 366.465 76.3463 366.465 76.3463L363.831 78.5031C359.697 75.5406 360.106 64.2769 360.106 64.2769L360.113 64.2688Z" fill="#5B3D31"/>
<path d="M350.686 78.0876C350.686 78.7957 350.148 79.3735 349.489 79.3735C348.831 79.3735 348.293 78.7957 348.293 78.0876C348.293 77.3796 348.831 76.8018 349.489 76.8018C350.148 76.8018 350.686 77.3796 350.686 78.0876Z" fill="black"/>
<path d="M349.05 78.2014C349.293 78.2014 349.49 77.9901 349.49 77.7294C349.49 77.4687 349.293 77.2573 349.05 77.2573C348.808 77.2573 348.611 77.4687 348.611 77.7294C348.611 77.9901 348.808 78.2014 349.05 78.2014Z" fill="white"/>
<path d="M341.42 78.0876C341.42 78.7957 340.882 79.3735 340.224 79.3735C339.565 79.3735 339.027 78.7957 339.027 78.0876C339.027 77.3796 339.565 76.8018 340.224 76.8018C340.882 76.8018 341.42 77.3796 341.42 78.0876Z" fill="black"/>
<path d="M340.224 77.7294C340.224 77.9898 340.027 78.2014 339.785 78.2014C339.543 78.2014 339.346 77.9898 339.346 77.7294C339.346 77.4689 339.543 77.2573 339.785 77.2573C340.027 77.2573 340.224 77.4689 340.224 77.7294Z" fill="white"/>
<path d="M342.222 73.0419C340.716 71.9188 338.762 71.9839 337.346 73.3023C337.081 73.5465 337.036 74.0429 337.233 74.3685C337.437 74.694 337.831 74.751 338.096 74.5068C338.679 73.9697 339.421 73.7174 340.14 73.7825C340.504 73.815 340.867 73.9208 341.208 74.0999C341.503 74.2627 341.798 74.5394 342.132 74.3278C342.215 74.2789 342.283 74.2057 342.336 74.1162C342.525 73.8232 342.51 73.2616 342.222 73.05V73.0419Z" fill="#5B3D31"/>
<path d="M346.895 73.0419C348.621 71.9188 350.862 71.9839 352.49 73.3023C352.793 73.5465 352.846 74.0429 352.619 74.3685C352.384 74.694 351.937 74.751 351.627 74.5068C350.96 73.9697 350.112 73.7337 349.28 73.7906C348.863 73.8232 348.447 73.9208 348.061 74.0999C347.72 74.2545 347.387 74.5312 347.001 74.3196C346.91 74.2708 346.834 74.1976 346.766 74.108C346.554 73.815 346.569 73.2535 346.895 73.0419Z" fill="#5B3D31"/>
<path d="M342.911 81.5793C342.843 81.5793 342.782 81.5305 342.76 81.4572C342.464 80.3585 342.813 79.9841 343.153 79.8702C343.502 79.7481 343.918 79.8458 344.395 80.1632C344.471 80.212 344.494 80.3178 344.448 80.3911C344.403 80.4725 344.304 80.4969 344.236 80.448C343.842 80.1876 343.517 80.0981 343.259 80.1876C342.949 80.2934 342.888 80.6922 343.07 81.3677C343.093 81.4572 343.047 81.5467 342.964 81.5793C342.949 81.5793 342.934 81.5793 342.919 81.5793H342.911Z" fill="#D88145"/>
<path d="M342.215 83.4841C342.502 82.7191 343.714 83.2074 345.024 83.0447C346.333 82.8819 347.416 82.1169 347.855 82.8005C348.408 83.6551 347.515 86.0641 345.372 86.3245C343.222 86.5849 341.851 84.4526 342.215 83.4841Z" fill="#8E4136"/>
<path d="M342.555 84.9731C342.956 84.8673 343.395 84.7777 343.857 84.7208C345.386 84.5336 346.727 84.7208 347.385 85.1277C346.939 85.7218 346.272 86.2183 345.364 86.3322C344.077 86.4868 343.07 85.7788 342.555 84.9731Z" fill="#C16B5B"/>
<path d="M345.108 83.8337C343.934 83.972 342.912 83.8011 342.473 83.1582C342.965 82.8733 343.964 83.1582 345.024 83.0361C346.084 82.9059 346.993 82.385 347.53 82.5478C347.235 83.2721 346.274 83.6872 345.108 83.8337Z" fill="white"/>
<path d="M368.7 82.9632C367.095 85.0141 364.574 85.5756 363.052 84.2083C361.537 82.8411 361.606 80.0658 363.203 78.0149C364.808 75.964 367.33 75.4025 368.851 76.7697C370.366 78.137 370.298 80.9122 368.7 82.9632Z" fill="#FFB681"/>
<path d="M367.806 77.7788C367.125 77.3882 366.216 77.4126 365.376 77.8277C364.959 78.0393 364.656 78.2916 364.444 78.6008C364.172 79.0159 364.096 79.5368 364.248 79.96C364.384 80.3425 364.664 80.5866 364.914 80.8064C365.096 80.961 365.262 81.1156 365.361 81.2947C365.512 81.5714 365.474 81.9539 365.27 82.1899C365.073 82.4259 364.725 82.4992 364.452 82.369C364.293 82.2876 364.111 82.369 364.036 82.5317C363.96 82.7027 364.036 82.898 364.187 82.9794C364.361 83.0607 364.543 83.1096 364.732 83.1096C365.103 83.1096 365.474 82.9468 365.732 82.6457C366.11 82.1981 366.178 81.49 365.898 80.961C365.747 80.6762 365.512 80.4727 365.308 80.2936C365.103 80.1146 364.906 79.9437 364.831 79.7321C364.755 79.5205 364.8 79.2356 364.952 78.9996C365.012 78.9101 365.096 78.8206 365.186 78.7392C365.497 78.7392 365.883 78.8368 366.08 79.0729C366.299 79.3333 366.405 79.7077 366.352 80.0576C366.322 80.2448 366.443 80.4157 366.61 80.4401C366.625 80.4401 366.648 80.4401 366.663 80.4401C366.814 80.4401 366.943 80.3262 366.973 80.1553C367.057 79.6019 366.898 79.024 366.542 78.609C366.413 78.4543 366.246 78.3485 366.072 78.2672C366.587 78.1207 367.102 78.1451 367.496 78.373C367.988 78.6497 368.359 79.3659 368.101 79.9518C368.026 80.1227 368.101 80.3181 368.253 80.3994C368.412 80.4808 368.594 80.3994 368.669 80.2367C369.033 79.3821 368.631 78.259 367.783 77.7788H367.806Z" fill="#D88145"/>
<path d="M373.674 238.751H329.512V238.067C329.512 222.751 341.058 210.339 355.306 210.339H391.246L387.627 230.881L379.435 237.677L373.666 238.751H373.674Z" fill="#DD4040"/>
<path d="M63.1758 234.861V317.345C63.1758 322.602 67.143 326.867 72.0339 326.867H104.15C109.041 326.867 113.009 322.602 113.009 317.345V234.861" stroke="#FFA515" stroke-width="2" stroke-miterlimit="10"/>
<path d="M23.0938 234.861V317.345C23.0938 322.602 27.061 326.867 31.9519 326.867H64.0684C68.9593 326.867 72.9265 322.602 72.9265 317.345V234.861" stroke="#FFA515" stroke-width="2" stroke-miterlimit="10"/>
<path d="M68.8459 238.751H113.008V238.067C113.008 222.751 101.462 210.339 87.2133 210.339H51.2734L54.8924 230.881L63.0843 237.677L68.8534 238.751H68.8459Z" fill="#FFA515"/>
<path d="M24.0178 132.739H44.0432C53.2193 132.739 60.9645 140.055 62.1532 149.838L72.9193 238.759H31.3617C22.6095 238.759 15.2126 231.776 14.0845 222.45L5.90777 154.9C4.48441 143.148 12.9943 132.73 24.0178 132.73V132.739Z" fill="#DD4040"/>
<path d="M27.9474 132.739H47.9729C57.149 132.739 64.8942 140.055 66.0829 149.838L76.8489 238.759H35.2914C26.5392 238.759 19.1423 231.777 18.0142 222.45L9.83745 154.908C8.41409 143.156 16.924 132.739 27.9474 132.739Z" fill="#B72A2A"/>
<path d="M142.685 306.887C152.876 312.714 170.335 307.635 171.41 316.661C151.445 322.155 140.52 318.509 140.52 318.509L140.868 321.406L133.66 321.552C133.66 321.552 129.92 314.643 131.018 308.4L142.693 306.887H142.685Z" fill="#281B4F"/>
<path d="M142.686 306.887L141.391 294.956L129.504 297.251L131.048 309.613C135.493 311.965 139.491 309.8 142.678 306.895L142.686 306.887Z" fill="#EFAD9C"/>
<path d="M136.432 222.466C136 221.286 135.546 220.211 135.047 219.235C134.562 218.291 133.843 217.509 132.964 216.997C132.964 216.997 132.957 216.997 132.949 216.989C113.59 205.603 45.284 199.271 45.284 199.271C42.831 212.529 51.0228 225.339 63.4167 227.626C63.4167 227.626 101.794 238.743 118.458 236.627L125.87 300.018C125.87 300.018 139.036 301.979 145.154 294.964C144.662 290.675 143.874 242.674 136.432 222.466Z" fill="#372769"/>
<path d="M96.1548 311.233C104.233 320.112 122.737 321.048 121.215 330C100.622 328.731 91.2336 321.699 91.2336 321.699L90.7414 324.58L83.8291 322.374C83.8291 322.374 82.2164 314.57 85.0177 308.97L96.1548 311.241V311.233Z" fill="#281B4F"/>
<path d="M96.1552 311.233L98.5251 299.269L86.5244 297.804L84.7148 310.126C88.3415 313.748 92.3241 313.031 96.1552 311.233Z" fill="#EFAD9C"/>
<path d="M113.008 224.549C107.807 216.061 26.5085 199.271 26.5085 199.271C24.646 219.072 34.8896 237.213 90.2795 239.435L82.1331 298.74C82.1331 298.74 94.0045 304.022 102.143 301.092C102.143 301.092 119.761 235.561 113 224.541L113.008 224.549Z" fill="#463283"/>
<path d="M32.6952 238.751H76.8573V238.067C76.8573 222.751 65.3114 210.339 51.0626 210.339H15.1152L18.7342 230.881L26.9261 237.677L32.6952 238.751Z" fill="#DD4040"/>
<path d="M66.3555 112.889L86.6081 127.351C89.1368 135.196 88.9172 137.768 92.6346 145.516L102.061 118.797L109.836 121.393C109.836 121.393 101.591 168.988 92.6573 168.988C82.1714 168.988 66.3555 112.889 66.3555 112.889Z" fill="#EFAD9C"/>
<path d="M118.756 111.017C117.439 111.139 115.152 110.878 113.835 110.895C115.046 110.187 116.939 109.65 118.045 108.762C118.431 108.453 118.87 108.063 118.673 107.55C118.507 107.118 117.992 106.768 117.545 106.956C115.864 107.664 113.653 108.307 111.942 108.925C113.358 107.371 114.827 105.67 115.826 103.765C116.061 103.318 116.159 102.691 115.781 102.374C115.387 102.048 115.039 102.219 114.675 102.561C112.813 104.254 110.95 105.946 109.088 107.647C109.254 107.11 109.428 106.573 109.603 106.036L111.2 101.08C111.359 100.591 111.056 100.054 110.647 99.867C110.208 99.6717 109.693 99.8426 109.451 100.29C107.301 104.18 105.635 108.339 104.068 112.522C103.962 112.807 103.856 113.092 103.75 113.377C103.197 112.368 102.516 111.456 101.531 110.887C100.82 110.472 99.9036 110.195 99.0935 110.406C98.6544 110.52 98.2303 110.805 97.9956 111.228C97.7004 111.774 97.7912 112.474 98.2001 112.921C98.3515 113.084 98.5256 113.198 98.7225 113.287C98.7679 113.312 98.8209 113.328 98.8664 113.353C98.8664 113.353 98.8664 113.353 98.9042 113.369C98.9648 113.401 99.0253 113.434 99.0859 113.467C99.1541 113.507 99.2222 113.556 99.2903 113.605C99.2979 113.605 99.3055 113.613 99.3131 113.621C99.3206 113.629 99.3282 113.637 99.3434 113.654C99.4645 113.792 99.5932 113.922 99.7068 114.061C99.7219 114.085 99.7446 114.109 99.7522 114.126C99.7901 114.183 99.8279 114.248 99.8658 114.305C99.9566 114.451 100.04 114.606 100.123 114.769C100.29 115.086 100.434 115.412 100.57 115.737C101.244 117.324 101.948 118.87 103.038 120.189C104.227 121.621 105.847 122.622 107.649 122.753C107.793 122.761 107.944 122.72 108.073 122.647C109.989 122.46 111.579 120.913 112.495 119.139C113.411 117.365 113.903 115.322 113.956 113.287C115.561 113.296 117.166 113.23 118.772 113.076C119.271 113.027 119.756 112.636 119.733 112.042C119.71 111.521 119.309 110.96 118.772 111.009L118.756 111.017Z" fill="#EFAD9C"/>
<path d="M70.9219 106.215C80.6663 110.748 91.1224 136.401 91.1224 136.401L73.9201 145.362L70.9294 106.215H70.9219Z" fill="#9A7FEF"/>
<path d="M79.7193 203.536C64.3576 212.627 26.207 203.837 26.207 203.837C28.4405 153.744 35.2923 106.215 35.2923 106.215L43.9687 103.147L44.4306 102.984L47.1864 102.024H58.9595L62.0484 103.106L62.3437 103.212L70.9293 106.223C70.9293 106.223 76.7969 160.996 79.7269 203.544L79.7193 203.536Z" fill="#9A7FEF"/>
<path d="M62.0417 103.098C60.9817 106.093 58.4983 111.261 54.0387 111.261C48.8523 111.261 45.1196 105.263 43.9688 103.139L44.4306 102.976L47.1866 102.016H58.9601L62.0492 103.098H62.0417Z" fill="#463283"/>
<path d="M32.3015 109.031L34.2775 137.353C29.962 143.97 28.2888 145.321 25.1847 153.37L51.1383 142.163L54.3105 150.228C54.3105 150.228 15.1681 174.172 9.40656 166.839C2.63802 158.229 32.3015 109.039 32.3015 109.039V109.031Z" fill="#EFAD9C"/>
<path d="M63.8046 132.739V134.676H57.8235C57.5661 134.676 57.3162 134.798 57.1421 135.009C56.968 135.221 56.8922 135.498 56.9225 135.774L58.9061 152.629C58.9364 152.898 59.0727 153.142 59.2771 153.297C59.4286 153.419 59.6178 153.476 59.7995 153.476C59.8601 153.476 59.9207 153.476 59.9888 153.451L63.7971 152.589V154.184H80.4307V132.739H63.7971H63.8046ZM60.5794 151.327L58.8456 136.621H63.8046V150.603L60.5794 151.327Z" fill="#372769"/>
<path d="M74.6761 131.103C73.5631 129.964 73.0256 128.214 73.283 126.586C73.5404 124.958 74.5171 123.567 74.9109 121.98C75.2516 120.604 75.1531 119.139 74.7973 117.772C74.4414 116.405 73.8282 115.127 73.1543 113.906C74.7973 114.785 76.3191 116.071 77.1974 117.805C78.0757 119.538 78.2801 121.719 77.5078 123.51C77.1369 124.372 76.5538 125.113 76.0011 125.854C75.4484 126.594 74.9033 127.376 74.6156 128.271C74.3279 129.166 74.1916 130.305 74.6761 131.103Z" fill="white"/>
<path d="M69.9598 130.818C69.4374 129.833 69.2935 128.629 69.5585 127.538C69.8084 126.496 70.4065 125.585 70.7472 124.567C71.4589 122.427 70.8532 119.855 69.2859 118.325C69.8765 119.359 69.7175 120.694 69.3314 121.833C68.9528 122.972 68.3622 124.038 68.1199 125.219C67.7035 127.245 68.4758 129.483 69.9598 130.818Z" fill="white"/>
<path d="M45.7026 147.055C45.7026 147.055 51.3888 131.046 52.9939 131.437C54.599 131.827 53.8419 137.752 53.8419 137.752C53.8419 137.752 62.5793 135.897 62.8973 138.428C63.2153 140.959 60.1867 141.179 60.1867 141.179C60.1867 141.179 62.6247 141.008 62.5566 142.627C62.496 144.247 60.3306 144.971 60.3306 144.971C60.3306 144.971 62.3976 145.02 62.5263 146.46C62.655 147.901 60.2094 148.324 60.2094 148.324C60.2094 148.324 62.7156 148.235 62.761 149.439C62.8367 151.352 53.1453 153.248 50.995 152.19C48.8523 151.132 45.6875 147.055 45.6875 147.055H45.7026Z" fill="#EFAD9C"/>
<path d="M35.2923 106.215C25.5479 110.748 15.0918 136.401 15.0918 136.401L31.234 144.808C38.8508 135.807 37.6546 121.369 35.2923 106.215Z" fill="#9A7FEF"/>
<path d="M37.957 72.3994C39.5848 77.543 41.8409 82.4668 44.7255 86.9348C45.74 88.5137 47.0044 90.4181 48.9805 90.4588C51.1306 90.4995 52.3874 88.53 53.3868 86.7802C57.9597 78.7475 67.5296 76.2408 72.2085 68.2407C76.8268 60.3463 72.9429 50.4336 65.2355 46.9503C59.0121 44.1343 49.1016 44.9645 45.2706 51.6625C41.8939 50.8812 38.3128 53.3634 36.8895 56.8386C34.8453 61.8438 36.3973 67.5 37.9494 72.3913L37.957 72.3994Z" fill="#281B4F"/>
<path d="M45.6723 58.4821C50.9872 48.016 69.6726 51.5888 71.1262 59.9064C74.1168 77.0298 71.8455 84.0534 67.4164 88.0982C62.2908 92.7779 58.9519 92.1838 58.9519 102.015C57.0137 107.248 53.9096 111.114 47.1865 102.015C47.3303 88.9935 43.1738 79.1214 43.1738 79.1214C43.1738 79.1214 43.4842 62.7955 45.6723 58.4821Z" fill="#EFAD9C"/>
<path d="M72.3441 65.0094C72.3441 65.0094 73.7447 61.2576 69.4595 54.9909C66.7264 50.9867 58.7616 49.9938 51.9779 51.3448C45.1943 52.6958 42.2415 55.8617 42.022 61.1029C41.8024 66.336 41.3027 72.8712 41.3027 72.8712L43.9375 75.028C48.0713 72.0655 47.6624 60.8018 47.6624 60.8018C47.6624 60.8181 47.6776 60.8344 47.6851 60.8506C49.0479 63.9107 51.7508 65.9942 54.9004 66.1488C60.7301 66.4337 66.6431 66.0267 72.3441 65.0094Z" fill="#281B4F"/>
<path d="M57.0879 74.6208C57.0879 75.3289 57.6255 75.9067 58.2842 75.9067C58.9429 75.9067 59.4804 75.3289 59.4804 74.6208C59.4804 73.9128 58.9429 73.335 58.2842 73.335C57.6255 73.335 57.0879 73.9128 57.0879 74.6208Z" fill="black"/>
<path d="M58.2852 74.2709C58.2852 74.5313 58.482 74.7429 58.7243 74.7429C58.9666 74.7429 59.1634 74.5313 59.1634 74.2709C59.1634 74.0104 58.9666 73.7988 58.7243 73.7988C58.482 73.7988 58.2852 74.0104 58.2852 74.2709Z" fill="white"/>
<path d="M66.3555 74.6208C66.3555 75.3289 66.893 75.9067 67.5518 75.9067C68.2105 75.9067 68.748 75.3289 68.748 74.6208C68.748 73.9128 68.2105 73.335 67.5518 73.335C66.893 73.335 66.3555 73.9128 66.3555 74.6208Z" fill="black"/>
<path d="M67.9899 74.7429C68.2325 74.7429 68.4291 74.5316 68.4291 74.2709C68.4291 74.0102 68.2325 73.7988 67.9899 73.7988C67.7474 73.7988 67.5508 74.0102 67.5508 74.2709C67.5508 74.5316 67.7474 74.7429 67.9899 74.7429Z" fill="white"/>
<path d="M65.5534 69.5751C67.0601 68.452 69.0135 68.5171 70.4294 69.8355C70.6944 70.0797 70.7398 70.5761 70.5429 70.9017C70.3385 71.2272 69.9448 71.2842 69.6798 71.04C69.0968 70.5029 68.3548 70.2506 67.6355 70.3157C67.2721 70.3482 66.9087 70.454 66.568 70.6331C66.2727 70.7959 65.9774 71.0726 65.6442 70.861C65.561 70.8121 65.4928 70.7389 65.4398 70.6494C65.2505 70.3564 65.2657 69.7948 65.5534 69.5832V69.5751Z" fill="#5B3D31"/>
<path d="M60.8818 69.5751C59.1555 68.452 56.9144 68.5171 55.2865 69.8355C54.9836 70.0797 54.9307 70.5761 55.1578 70.9017C55.3925 71.2272 55.8392 71.2842 56.1496 71.04C56.8159 70.5029 57.6639 70.2669 58.4968 70.3238C58.9132 70.3564 59.3296 70.454 59.7158 70.6331C60.0565 70.7877 60.3896 71.0644 60.7758 70.8528C60.8666 70.804 60.9423 70.7308 61.0105 70.6412C61.2225 70.3482 61.2073 69.7867 60.8818 69.5751Z" fill="#5B3D31"/>
<path d="M64.865 78.1125C64.9331 78.1125 64.9937 78.0637 65.0164 77.9904C65.3117 76.8917 64.9634 76.5173 64.6227 76.4034C64.2744 76.2813 63.858 76.379 63.381 76.6964C63.3053 76.7452 63.2826 76.851 63.328 76.9243C63.3734 77.0057 63.4719 77.0301 63.54 76.9812C63.9337 76.7208 64.2593 76.6313 64.5167 76.7208C64.8271 76.8266 64.8877 77.2254 64.706 77.9009C64.6833 77.9904 64.7287 78.0799 64.812 78.1125C64.8271 78.1125 64.8423 78.1125 64.8574 78.1125H64.865Z" fill="#C16B5B"/>
<path d="M65.5544 80.0169C65.2667 79.2518 64.0553 79.7401 62.7454 79.5774C61.4356 79.4146 60.3529 78.6496 59.9137 79.3332C59.361 80.1878 60.2545 82.5968 62.3972 82.8572C64.5474 83.1176 65.9179 80.9853 65.5544 80.0169Z" fill="#8E4136"/>
<path d="M65.2134 81.5063C64.8121 81.4005 64.3729 81.3109 63.9111 81.254C62.3817 81.0668 61.0415 81.254 60.3828 81.6609C60.8295 82.255 61.4958 82.7515 62.4044 82.8654C63.6915 83.02 64.6985 82.312 65.2134 81.5063Z" fill="#C16B5B"/>
<path d="M62.6631 80.3752C63.8367 80.5135 64.8588 80.3426 65.2979 79.6997C64.8058 79.4148 63.8064 79.6997 62.7464 79.5776C61.6864 79.4474 60.7778 78.9265 60.2402 79.0893C60.5355 79.8136 61.4971 80.2287 62.6631 80.3752Z" fill="white"/>
<path d="M39.0703 79.4959C40.6754 81.5468 43.1967 82.1083 44.7185 80.7411C46.2328 79.3738 46.1647 76.5986 44.5671 74.5476C42.962 72.4967 40.4407 71.9352 38.9189 73.3024C37.4046 74.6697 37.4727 77.445 39.0703 79.4959Z" fill="#EFAD9C"/>
<path d="M39.9641 74.3116C40.6455 73.9209 41.5541 73.9453 42.3945 74.3604C42.8109 74.572 43.1138 74.8243 43.3258 75.1335C43.5984 75.5486 43.6741 76.0695 43.5226 76.4927C43.3864 76.8752 43.1062 77.1193 42.8564 77.3391C42.6747 77.4937 42.5081 77.6484 42.4097 77.8274C42.2582 78.1041 42.2961 78.4866 42.5005 78.7226C42.6974 78.9587 43.0456 79.0319 43.3182 78.9017C43.4772 78.8203 43.6589 78.9017 43.7346 79.0645C43.8104 79.2354 43.7346 79.4307 43.5832 79.5121C43.4091 79.5935 43.2274 79.6423 43.0381 79.6423C42.6671 79.6423 42.2961 79.4795 42.0387 79.1784C41.6601 78.7308 41.5919 78.0227 41.8721 77.4937C42.0235 77.2089 42.2582 77.0054 42.4627 76.8264C42.6671 76.6473 42.8639 76.4764 42.9397 76.2648C43.0154 76.0532 42.9699 75.7684 42.8185 75.5323C42.7579 75.4428 42.6747 75.3533 42.5838 75.2719C42.2734 75.2719 41.8872 75.3696 41.6904 75.6056C41.4708 75.866 41.3648 76.2404 41.4178 76.5903C41.4481 76.7775 41.3269 76.9484 41.1604 76.9729C41.1452 76.9729 41.1225 76.9729 41.1074 76.9729C40.9559 76.9729 40.8272 76.8589 40.7969 76.688C40.7137 76.1346 40.8727 75.5567 41.2285 75.1417C41.3572 74.9871 41.5238 74.8813 41.6979 74.7999C41.1831 74.6534 40.6682 74.6778 40.2745 74.9057C39.7824 75.1824 39.4114 75.8986 39.6688 76.4845C39.7445 76.6554 39.6688 76.8508 39.5174 76.9322C39.3584 77.0135 39.1767 76.9322 39.101 76.7694C38.7375 75.9148 39.1388 74.7917 39.9868 74.3116H39.9641Z" fill="#C16B5B"/>
<path d="M306.972 176.816H103.863V179.209H306.972V176.816Z" fill="#FFA515"/>
<path d="M248.212 179.209H162.629V181.602H248.212V179.209Z" fill="#FFA515"/>
<path d="M227.287 181.602H183.557V183.995H227.287V181.602Z" fill="#FFA515"/>
<path d="M312.37 174.424H98.4648V176.817H312.37V174.424Z" fill="#FFC612"/>
<path d="M207.08 277.791V182.196H203.764V277.791C187.206 278.719 173.994 293.499 173.994 311.526V326.867H177.166V311.526C177.166 295.379 188.955 282.137 203.764 281.21V326.875H207.08V281.21C221.889 282.137 233.677 295.379 233.677 311.526V326.867H236.849V311.526C236.849 293.499 223.645 278.719 207.08 277.791Z" fill="#FFA515"/>
<path d="M210.699 200.101C212.221 194.306 213.902 188.43 211.925 182.798H198.713C196.737 188.43 198.418 194.306 199.94 200.101C201.462 205.895 203.09 212.048 201.515 217.818C200.379 222.002 197.585 225.924 198.221 230.222C198.751 233.802 201.954 236.692 205.323 236.627C208.692 236.692 211.895 233.802 212.425 230.222C213.061 225.916 210.267 221.993 209.132 217.818C207.557 212.04 209.185 205.887 210.706 200.101H210.699Z" fill="#FFA515"/>
<path d="M256.465 161.459C256.291 162.801 255.988 164.104 255.564 165.324C254.337 168.873 252.112 171.884 249.265 174C248.871 174.285 248.409 174.423 247.932 174.423H231.465C230.996 174.423 230.526 174.285 230.133 174C227.278 171.892 225.06 168.865 223.834 165.324C223.402 164.087 223.099 162.801 222.933 161.459C222.834 160.653 222.781 159.831 222.781 159.001C222.781 148.567 230.943 140.193 240.778 140.852C249.219 141.413 256.079 148.811 256.586 157.886C256.654 159.107 256.609 160.311 256.465 161.467V161.459Z" fill="#9A7FEF"/>
<path opacity="0.3" d="M234.404 146.338C233.405 145.263 230.77 146.362 228.514 148.779C226.257 151.204 225.243 154.037 226.242 155.111C227.242 156.185 229.876 155.086 232.133 152.669C234.389 150.252 235.404 147.412 234.404 146.338Z" fill="white"/>
<path d="M228.711 137.011L230.324 138.647V143.888H249.07V138.647V137.011H228.711Z" fill="#463283"/>
<path d="M256.466 161.459C256.292 162.802 255.989 164.104 255.565 165.325H223.835C223.403 164.088 223.1 162.802 222.934 161.459H256.466Z" fill="#463283"/>
<path d="M255.256 164.177V162.615C257.724 162.615 259.943 161.361 261.503 159.091C263.357 156.38 263.971 152.596 263.055 149.455C262.343 147.005 260.859 144.995 258.981 143.937C256.256 142.407 252.742 142.431 249.358 142.455C248.896 142.455 248.427 142.455 247.965 142.455V140.893C248.419 140.893 248.881 140.893 249.343 140.893C252.917 140.86 256.604 140.836 259.648 142.545C261.866 143.79 263.607 146.142 264.433 148.982C265.493 152.637 264.811 156.869 262.661 160.01C260.821 162.696 258.186 164.169 255.241 164.169L255.256 164.177Z" fill="#463283"/>
<path d="M274.105 156.478H292.671V165.943C292.671 170.55 289.195 174.285 284.91 174.285H281.866C277.581 174.285 274.105 170.55 274.105 165.943V156.478Z" fill="#463283"/>
<path d="M293.419 171.185C291.988 171.185 290.444 170.859 288.732 170.208L289.338 168.369C291.186 169.077 292.776 169.345 294.199 169.191C295.88 169.012 297.334 168.214 298.182 166.993C299.083 165.707 299.211 163.909 298.484 162.712C297.795 161.573 296.296 160.881 294.684 160.971C293.063 161.052 291.481 161.76 289.951 162.452L289.255 160.653C290.852 159.937 292.67 159.123 294.6 159.026C296.894 158.903 298.961 159.913 300.006 161.654C301.142 163.542 300.991 166.22 299.628 168.165C298.469 169.817 296.554 170.9 294.373 171.128C294.063 171.16 293.745 171.176 293.419 171.176V171.185Z" fill="#463283"/>
</svg>
