<svg width="428" height="240" viewBox="0 0 428 240" fill="none" xmlns="http://www.w3.org/2000/svg">
<g clip-path="url(#clip0_833_33918)">
<path d="M341.555 79.5302C311.251 -13.6242 148.418 -17.6742 135.913 86.8429C135.913 86.8429 126.26 88.7546 117.745 87.4511C71.3143 80.3475 -9.92951 169.262 52.4237 237.206H400.628C438.303 172.319 411.241 105.925 341.555 79.5286V79.5302Z" fill="#F6F5F5"/>
<path d="M257.883 137.86L257.283 137.276C296.149 97.318 297.695 75.4624 300.032 42.3836C300.861 30.6694 301.797 17.4173 304.489 1.42352C286.082 9.9795 271.162 21.8283 260.132 36.6532C251.193 48.6683 244.77 62.6554 241.047 78.2278C234.7 104.765 238.449 126.999 238.487 127.221L237.662 127.365C237.622 127.142 233.845 104.765 240.224 78.0647C243.972 62.375 250.44 48.2803 259.448 36.1685C270.707 21.0301 285.987 8.97217 304.86 0.329073L305.581 -0.00195312L305.446 0.780471C302.658 17.0863 301.707 30.5569 300.866 42.4422C298.515 75.7063 296.961 97.6823 257.88 137.86H257.883Z" fill="#DADADA"/>
<path d="M250.558 129.276L249.745 129.067C249.9 128.468 265.378 68.7206 284.85 35.5547L285.574 35.9792C266.159 69.0453 250.711 128.677 250.558 129.276Z" fill="#DADADA"/>
<path d="M272.02 63.6329L271.182 63.6028C271.187 63.4825 271.537 51.4895 265.271 39.948L266.008 39.5488C272.386 51.301 272.025 63.5126 272.02 63.6345V63.6329Z" fill="#DADADA"/>
<path d="M263.087 87.9258L262.498 87.3318C271.404 78.4876 283.041 75.7554 283.156 75.7285L283.342 76.5458C283.228 76.5711 271.817 79.2573 263.087 87.9258Z" fill="#DADADA"/>
<path d="M287.449 163.464L287.366 162.629C302.521 161.128 314.814 150.972 324.948 131.582C333.925 114.404 340.093 92.4532 346.058 71.2263C349.924 57.4642 353.582 44.4481 357.851 33.1774C314.236 44.0775 296.16 78.6499 295.981 78.9999L295.235 78.6198C295.417 78.2634 313.867 42.9482 358.429 32.1732L359.204 31.9863L358.918 32.7307C354.541 44.1361 350.812 57.4056 346.865 71.4544C340.889 92.7224 334.709 114.714 325.691 131.97C315.416 151.631 302.907 161.932 287.45 163.464H287.449Z" fill="#DADADA"/>
<path d="M283.735 142.882L282.97 142.543C283.225 141.968 308.699 84.9178 330.1 68.3301L330.614 68.9921C321.841 75.7916 310.958 90.7163 299.138 112.152C290.194 128.372 283.8 142.74 283.735 142.882Z" fill="#DADADA"/>
<path d="M311.888 90.554L311.064 90.4004C311.077 90.337 312.259 83.8765 313.31 68.2676L314.147 68.3246C313.09 83.9937 311.901 90.4906 311.888 90.554Z" fill="#DADADA"/>
<path d="M297.603 114.853L297.128 114.162C297.244 114.083 308.882 106.147 324.16 102.662L324.345 103.479C309.222 106.927 297.717 114.774 297.603 114.851V114.853Z" fill="#DADADA"/>
<path d="M94.6829 218.225C57.0457 179.531 55.549 158.366 53.2857 126.329C52.4763 114.884 51.5593 101.911 48.8762 86.2102L48.7432 85.4277L49.4638 85.7588C90.6377 104.611 106.042 136.878 111.716 160.626C117.859 186.341 114.221 207.895 114.183 208.108L113.358 207.964C113.395 207.75 117.004 186.343 110.894 160.789C105.293 137.373 90.1467 105.603 49.8344 86.8516C52.424 102.24 53.3253 114.994 54.1219 126.267C56.3726 158.12 57.8598 179.162 95.2847 217.637L94.6845 218.221L94.6829 218.225Z" fill="#DADADA"/>
<path d="M101.732 209.953C101.585 209.377 86.7079 151.953 68.0137 120.114L68.7359 119.689C87.4903 151.631 102.396 209.168 102.543 209.744L101.731 209.953H101.732Z" fill="#DADADA"/>
<path d="M81.0626 146.735C81.0578 146.618 80.7094 134.853 86.8531 123.533L87.5896 123.932C81.5583 135.045 81.8957 146.589 81.8989 146.705L81.061 146.735H81.0626Z" fill="#DADADA"/>
<path d="M89.6701 170.14C81.2662 161.795 70.2821 159.212 70.1729 159.185L70.3598 158.369C70.4722 158.394 81.6811 161.025 90.2609 169.546L89.6701 170.14Z" fill="#DADADA"/>
<path d="M68.8122 232.923C36.4762 229.915 23.5313 194.069 12.1102 162.441C8.2503 151.752 4.60268 141.653 0.37379 132.964L0 132.197L0.836276 132.37C22.6792 136.916 37.7369 146.446 46.521 153.639C56.051 161.443 60.4763 168.277 60.5191 168.346L59.8127 168.797C59.6417 168.529 42.3523 142.174 1.49833 133.368C5.58942 141.921 9.1436 151.759 12.8973 162.157C24.233 193.549 37.0828 229.131 68.8882 232.089L68.8106 232.924L68.8122 232.923Z" fill="#DADADA"/>
<path d="M72.0333 217.348C71.7893 216.91 47.3647 173.535 27.3115 160.813L27.7598 160.105C47.9903 172.941 72.5179 216.5 72.7634 216.937L72.0317 217.348H72.0333Z" fill="#DADADA"/>
<path d="M45.0556 177.321C45.0445 177.272 43.8503 172.324 42.6719 160.426L43.505 160.344C44.6754 172.169 45.857 177.074 45.8681 177.122L45.054 177.321H45.0556Z" fill="#DADADA"/>
<path d="M58.7453 195.967C58.6376 195.905 47.7692 189.817 33.5811 187.023L33.7426 186.201C48.0702 189.024 59.0494 195.175 59.1587 195.237L58.7453 195.966V195.967Z" fill="#DADADA"/>
<path d="M369.446 236.635L369.248 235.823C404.851 227.129 411.564 188.883 418.056 151.9C420.335 138.919 422.69 125.504 426.29 113.893C390.85 120.683 370.775 145.153 360.155 164.554C348.556 185.743 345.417 205.63 345.387 205.828L344.559 205.701C344.589 205.501 347.745 185.489 359.409 164.174C370.184 144.48 390.625 119.606 426.824 112.939L427.51 112.812L427.299 113.478C423.596 125.187 421.2 138.842 418.883 152.045C412.344 189.295 405.585 227.811 369.447 236.635H369.446Z" fill="#DADADA"/>
<path d="M366.399 215.672L365.591 215.449C365.721 214.978 378.848 168.308 400.196 149.877L400.744 150.512C379.587 168.776 366.528 215.205 366.399 215.672Z" fill="#DADADA"/>
<path d="M381.487 176.539L380.667 176.369C380.686 176.274 382.604 166.765 381.931 152.803L382.769 152.762C383.447 166.837 381.508 176.442 381.489 176.537L381.487 176.539Z" fill="#DADADA"/>
<path d="M370.198 196.852L369.684 196.19C369.799 196.099 381.515 187.052 397.702 181.305L397.982 182.093C381.922 187.798 370.314 196.762 370.198 196.852Z" fill="#DADADA"/>
<path d="M287.302 65.2844C285.8 65.2844 284.579 64.0632 284.579 62.5602C284.579 61.0571 285.8 59.8359 287.302 59.8359C288.803 59.8359 290.024 61.0571 290.024 62.5602C290.024 64.0632 288.803 65.2844 287.302 65.2844ZM287.302 60.6754C286.263 60.6754 285.417 61.5212 285.417 62.5602C285.417 63.5992 286.263 64.445 287.302 64.445C288.341 64.445 289.187 63.5992 289.187 62.5602C289.187 61.5212 288.341 60.6754 287.302 60.6754Z" fill="#DADADA"/>
<path d="M61.4869 107.392C59.9854 107.392 58.7627 106.171 58.7627 104.668C58.7627 103.165 59.9838 101.943 61.4869 101.943C62.99 101.943 64.2096 103.165 64.2096 104.668C64.2096 106.171 62.9884 107.392 61.4869 107.392ZM61.4869 102.783C60.4479 102.783 59.6021 103.629 59.6021 104.668C59.6021 105.707 60.4479 106.552 61.4869 106.552C62.5259 106.552 63.3717 105.707 63.3717 104.668C63.3717 103.629 62.5259 102.783 61.4869 102.783Z" fill="#DADADA"/>
<path d="M314.115 168.074C312.614 168.074 311.393 166.853 311.393 165.352C311.393 163.85 312.614 162.629 314.115 162.629C315.617 162.629 316.838 163.85 316.838 165.352C316.838 166.853 315.617 168.074 314.115 168.074ZM314.115 163.465C313.076 163.465 312.23 164.311 312.23 165.35C312.23 166.389 313.076 167.235 314.115 167.235C315.154 167.235 316 166.389 316 165.35C316 164.311 315.154 163.465 314.115 163.465Z" fill="#DADADA"/>
<path d="M406.773 139.023C405.272 139.023 404.051 137.802 404.051 136.3C404.051 134.799 405.272 133.576 406.773 133.576C408.275 133.576 409.496 134.797 409.496 136.3C409.496 137.803 408.275 139.023 406.773 139.023ZM406.773 134.414C405.734 134.414 404.889 135.26 404.889 136.3C404.889 137.341 405.734 138.185 406.773 138.185C407.812 138.185 408.658 137.339 408.658 136.3C408.658 135.261 407.812 134.414 406.773 134.414Z" fill="#DADADA"/>
<path d="M305.107 131.273C306.148 131.273 306.992 130.43 306.992 129.389C306.992 128.348 306.148 127.504 305.107 127.504C304.067 127.504 303.223 128.348 303.223 129.389C303.223 130.43 304.067 131.273 305.107 131.273Z" fill="#DADADA"/>
<path d="M391.899 200.686C392.94 200.686 393.784 199.842 393.784 198.801C393.784 197.76 392.94 196.916 391.899 196.916C390.859 196.916 390.015 197.76 390.015 198.801C390.015 199.842 390.859 200.686 391.899 200.686Z" fill="#DADADA"/>
<path d="M255.038 75.5502C255.039 74.5092 254.197 73.6642 253.156 73.6627C252.115 73.6613 251.27 74.504 251.268 75.5449C251.267 76.5858 252.109 77.4309 253.15 77.4323C254.191 77.4338 255.036 76.5911 255.038 75.5502Z" fill="#DADADA"/>
<path d="M45.0069 206.83C46.0478 206.83 46.8916 205.986 46.8916 204.945C46.8916 203.904 46.0478 203.061 45.0069 203.061C43.9659 203.061 43.1221 203.904 43.1221 204.945C43.1221 205.986 43.9659 206.83 45.0069 206.83Z" fill="#DADADA"/>
<path d="M98.6967 76.6566C98.456 76.6566 98.2121 76.6218 97.9698 76.5489L92.7573 74.992C92.1063 74.7972 91.571 74.3616 91.2495 73.7645C90.9279 73.169 90.8598 72.4832 91.0546 71.8369L92.8301 65.9402C90.6254 64.7698 88.6044 63.3015 86.8115 61.5672L81.7305 64.9979C80.5695 65.7803 78.9888 65.4762 78.2032 64.32L75.1559 59.8297C74.7758 59.2691 74.6364 58.5959 74.7647 57.9307C74.893 57.2655 75.2731 56.6889 75.8354 56.3104L80.8578 52.921C79.7934 50.4153 79.1266 47.7623 78.8748 45.0239L72.9163 44.3412C72.2416 44.2636 71.6366 43.9278 71.2153 43.3972C70.794 42.8682 70.6055 42.2062 70.6831 41.5346L71.3056 36.1464C71.4655 34.7573 72.7279 33.7579 74.1201 33.9179L80.0009 34.5926C80.7897 32.1234 81.9332 29.7919 83.4078 27.6537L79.3468 23.4422C78.8764 22.9544 78.6245 22.313 78.6372 21.6367C78.6515 20.9588 78.9271 20.3284 79.4181 19.858L83.3413 16.0979C84.3518 15.1286 85.9625 15.1603 86.9319 16.1676L90.9564 20.3411C93.2404 18.8776 95.7223 17.78 98.3404 17.0751L97.9666 11.3226C97.8763 9.9288 98.9391 8.71873 100.336 8.62845L105.765 8.27525C107.18 8.1818 108.374 9.24457 108.466 10.6384L108.841 16.3925C111.529 16.752 114.13 17.5186 116.583 18.6733L120.033 14.012C120.864 12.8874 122.458 12.6483 123.584 13.4766L127.962 16.6966C128.508 17.0989 128.864 17.6881 128.966 18.3581C129.067 19.028 128.901 19.6964 128.497 20.2413L125.017 24.9437C126.755 26.8745 128.191 29.038 129.294 31.3837L135.037 29.9519C136.397 29.6161 137.778 30.4413 138.117 31.7971L139.434 37.0602C139.597 37.716 139.497 38.397 139.148 38.9767C138.798 39.558 138.242 39.9682 137.584 40.1329L131.764 41.5821C131.871 44.3301 131.554 47.0464 130.822 49.6693L136.24 52.3793C136.847 52.6834 137.3 53.2045 137.514 53.8475C137.728 54.489 137.677 55.1764 137.373 55.7814L134.934 60.6296C134.305 61.8777 132.777 62.3845 131.524 61.7589L126.039 59.0172C124.488 60.9685 122.673 62.687 120.638 64.1331L123.164 69.751C123.441 70.3687 123.462 71.0561 123.221 71.6881C122.98 72.3216 122.505 72.8237 121.884 73.1009L116.921 75.3198C115.642 75.89 114.138 75.3198 113.564 74.0448L111.025 68.3984C109.701 68.6914 108.346 68.8846 106.991 68.9717C105.637 69.0604 104.267 69.0446 102.915 68.9258L101.131 74.8526C100.802 75.9486 99.7896 76.6598 98.6967 76.6598V76.6566ZM86.9113 60.4886L87.1552 60.7309C89.0305 62.592 91.1718 64.1473 93.5223 65.3558L93.8327 65.5158L91.8561 72.0793C91.7262 72.5132 91.7721 72.971 91.986 73.3685C92.2014 73.7677 92.5609 74.0607 92.9965 74.1906L98.2089 75.7475C99.1101 76.0152 100.06 75.5051 100.328 74.6087L102.311 68.023L102.655 68.0579C104.072 68.2004 105.514 68.2257 106.936 68.1339C108.36 68.0404 109.784 67.8282 111.17 67.5035L111.505 67.4243L114.326 73.698C114.71 74.5517 115.718 74.9334 116.575 74.5517L121.539 72.3327C121.956 72.1474 122.272 71.8116 122.434 71.3855C122.596 70.9627 122.581 70.5033 122.396 70.0899L119.586 63.8385L119.873 63.6405C122.049 62.1358 123.972 60.316 125.587 58.2285L125.798 57.956L131.898 61.005C132.739 61.4263 133.763 61.0857 134.183 60.2479L136.622 55.3997C136.825 54.9958 136.86 54.5365 136.717 54.1073C136.575 53.6765 136.272 53.328 135.865 53.1237L129.821 50.1017L129.919 49.7659C130.725 47.0211 131.06 44.1638 130.911 41.2765L130.893 40.9312L137.381 39.3156C137.823 39.2064 138.195 38.9308 138.429 38.5411C138.662 38.1531 138.73 37.6985 138.621 37.2598L137.305 31.9967C137.078 31.0891 136.153 30.5348 135.241 30.7628L128.822 32.3625L128.678 32.0442C127.547 29.5543 126.031 27.2688 124.168 25.2526L123.932 24.9976L127.824 19.7408C128.093 19.3765 128.206 18.9283 128.137 18.4816C128.069 18.0334 127.832 17.639 127.466 17.3697L123.088 14.1498C122.333 13.5938 121.264 13.7554 120.708 14.5077L116.845 19.7265L116.531 19.5745C113.965 18.3264 111.228 17.5202 108.395 17.1781L108.049 17.1369L107.63 10.6906C107.568 9.75774 106.755 9.04976 105.821 9.10836L100.391 9.46156C99.4554 9.52333 98.7427 10.3311 98.8029 11.2656L99.2226 17.7103L98.8852 17.7958C96.1198 18.5006 93.5096 19.6553 91.1259 21.2264L90.8345 21.4181L86.3268 16.7441C85.6759 16.0694 84.5957 16.0488 83.9194 16.6982L79.9962 20.4583C79.6683 20.7719 79.483 21.1948 79.4735 21.6477C79.464 22.1007 79.6335 22.5299 79.9471 22.8562L84.488 27.565L84.2868 27.8485C82.7014 30.0865 81.4929 32.5494 80.6946 35.1659L80.5933 35.5001L74.0203 34.7478C73.0858 34.6322 72.24 35.3101 72.1339 36.2398L71.5115 41.6281C71.4592 42.0779 71.5859 42.5198 71.8678 42.873C72.1513 43.2294 72.5552 43.4543 73.0082 43.5049L79.6493 44.2652L79.6762 44.6089C79.9059 47.4915 80.6075 50.2807 81.7606 52.9004L81.9015 53.2203L76.301 56.9994C75.9241 57.2544 75.6691 57.6393 75.5835 58.0843C75.498 58.5278 75.5915 58.9792 75.8449 59.3546L78.8922 63.8448C79.4196 64.6193 80.4792 64.8236 81.2569 64.2978L86.9065 60.4839L86.9113 60.4886ZM105.271 57.9925C97.3172 57.9925 90.6017 51.8123 90.079 43.7853C89.5341 35.4241 95.9139 28.1764 104.3 27.6315C108.363 27.367 112.283 28.6959 115.343 31.371C118.403 34.0477 120.232 37.754 120.497 41.8039C120.761 45.8554 119.426 49.7659 116.74 52.818C114.054 55.8685 110.338 57.6947 106.275 57.9592C105.94 57.9814 105.604 57.9925 105.271 57.9925ZM105.314 28.4361C104.996 28.4361 104.676 28.4472 104.354 28.4678C96.4287 28.9842 90.4005 35.8312 90.9137 43.7314C91.4284 51.6333 98.3008 57.6393 106.218 57.1245C110.058 56.8743 113.569 55.1494 116.108 52.2668C118.647 49.3842 119.908 45.6891 119.657 41.8609C119.409 38.0343 117.679 34.5324 114.789 32.003C112.141 29.6842 108.805 28.4361 105.313 28.4361H105.314Z" fill="#DADADA"/>
<path d="M233.417 38.9844H108.776C104.462 38.9844 100.966 42.481 100.966 46.7944V228.979C100.966 233.292 104.462 236.789 108.776 236.789H233.417C237.731 236.789 241.227 233.292 241.227 228.979V46.7944C241.227 42.481 237.731 38.9844 233.417 38.9844Z" fill="#86A7FF"/>
<path d="M195.815 47.6875H146.378V55.9869H195.815V47.6875Z" fill="#D3DFFF"/>
<path d="M227.237 68.6367H114.958V93.5381H227.237V68.6367Z" fill="#DADADA"/>
<path d="M222.324 72.043H119.871V90.1322H222.324V72.043Z" fill="white"/>
<path d="M197.953 105.088H190.325C188.035 105.088 186.179 106.944 186.179 109.234V110.997C186.179 113.287 188.035 115.144 190.325 115.144H197.953C200.243 115.144 202.1 113.287 202.1 110.997V109.234C202.1 106.944 200.243 105.088 197.953 105.088Z" fill="#1F3C88"/>
<path d="M223.091 105.088H215.463C213.173 105.088 211.316 106.944 211.316 109.234V110.997C211.316 113.287 213.173 115.144 215.463 115.144H223.091C225.381 115.144 227.237 113.287 227.237 110.997V109.234C227.237 106.944 225.381 105.088 223.091 105.088Z" fill="#1F3C88"/>
<path d="M225.259 127.295H209.938C208.847 127.295 207.963 128.179 207.963 129.27V138.448C207.963 139.539 208.847 140.423 209.938 140.423H225.259C226.349 140.423 227.234 139.539 227.234 138.448V129.27C227.234 128.179 226.349 127.295 225.259 127.295Z" fill="#1F3C88"/>
<path d="M194.512 127.295H179.192C178.101 127.295 177.217 128.179 177.217 129.27V138.448C177.217 139.539 178.101 140.423 179.192 140.423H194.512C195.603 140.423 196.488 139.539 196.488 138.448V129.27C196.488 128.179 195.603 127.295 194.512 127.295Z" fill="#1F3C88"/>
<path d="M163.767 127.295H148.447C147.356 127.295 146.472 128.179 146.472 129.27V138.448C146.472 139.539 147.356 140.423 148.447 140.423H163.767C164.858 140.423 165.742 139.539 165.742 138.448V129.27C165.742 128.179 164.858 127.295 163.767 127.295Z" fill="#1F3C88"/>
<path d="M133.021 127.295H117.701C116.61 127.295 115.726 128.179 115.726 129.27V138.448C115.726 139.539 116.61 140.423 117.701 140.423H133.021C134.112 140.423 134.996 139.539 134.996 138.448V129.27C134.996 128.179 134.112 127.295 133.021 127.295Z" fill="#1F3C88"/>
<path d="M225.259 151.037H209.938C208.847 151.037 207.963 151.921 207.963 153.012V162.191C207.963 163.281 208.847 164.166 209.938 164.166H225.259C226.349 164.166 227.234 163.281 227.234 162.191V153.012C227.234 151.921 226.349 151.037 225.259 151.037Z" fill="#1F3C88"/>
<path d="M194.512 151.037H179.192C178.101 151.037 177.217 151.921 177.217 153.012V162.191C177.217 163.281 178.101 164.166 179.192 164.166H194.512C195.603 164.166 196.488 163.281 196.488 162.191V153.012C196.488 151.921 195.603 151.037 194.512 151.037Z" fill="#D3DFFF"/>
<path d="M163.767 151.037H148.447C147.356 151.037 146.472 151.921 146.472 153.012V162.191C146.472 163.281 147.356 164.166 148.447 164.166H163.767C164.858 164.166 165.742 163.281 165.742 162.191V153.012C165.742 151.921 164.858 151.037 163.767 151.037Z" fill="#D3DFFF"/>
<path d="M133.021 151.037H117.701C116.61 151.037 115.726 151.921 115.726 153.012V162.191C115.726 163.281 116.61 164.166 117.701 164.166H133.021C134.112 164.166 134.996 163.281 134.996 162.191V153.012C134.996 151.921 134.112 151.037 133.021 151.037Z" fill="#D3DFFF"/>
<path d="M225.259 174.779H209.938C208.847 174.779 207.963 175.664 207.963 176.754V185.933C207.963 187.024 208.847 187.908 209.938 187.908H225.259C226.349 187.908 227.234 187.024 227.234 185.933V176.754C227.234 175.664 226.349 174.779 225.259 174.779Z" fill="#1F3C88"/>
<path d="M194.512 174.779H179.192C178.101 174.779 177.217 175.664 177.217 176.754V185.933C177.217 187.024 178.101 187.908 179.192 187.908H194.512C195.603 187.908 196.488 187.024 196.488 185.933V176.754C196.488 175.664 195.603 174.779 194.512 174.779Z" fill="#D3DFFF"/>
<path d="M163.767 174.779H148.447C147.356 174.779 146.472 175.664 146.472 176.754V185.933C146.472 187.024 147.356 187.908 148.447 187.908H163.767C164.858 187.908 165.742 187.024 165.742 185.933V176.754C165.742 175.664 164.858 174.779 163.767 174.779Z" fill="#D3DFFF"/>
<path d="M133.021 174.779H117.701C116.61 174.779 115.726 175.664 115.726 176.754V185.933C115.726 187.024 116.61 187.908 117.701 187.908H133.021C134.112 187.908 134.996 187.024 134.996 185.933V176.754C134.996 175.664 134.112 174.779 133.021 174.779Z" fill="#D3DFFF"/>
<path d="M225.259 199.359H209.938C208.847 199.359 207.963 200.244 207.963 201.334V210.513C207.963 211.604 208.847 212.488 209.938 212.488H225.259C226.349 212.488 227.234 211.604 227.234 210.513V201.334C227.234 200.244 226.349 199.359 225.259 199.359Z" fill="#FBC343"/>
<path d="M194.512 199.359H179.192C178.101 199.359 177.217 200.244 177.217 201.334V210.513C177.217 211.604 178.101 212.488 179.192 212.488H194.512C195.603 212.488 196.488 211.604 196.488 210.513V201.334C196.488 200.244 195.603 199.359 194.512 199.359Z" fill="#D3DFFF"/>
<path d="M163.767 199.359H148.447C147.356 199.359 146.472 200.244 146.472 201.334V210.513C146.472 211.604 147.356 212.488 148.447 212.488H163.767C164.858 212.488 165.742 211.604 165.742 210.513V201.334C165.742 200.244 164.858 199.359 163.767 199.359Z" fill="#D3DFFF"/>
<path d="M133.021 199.359H117.701C116.61 199.359 115.726 200.244 115.726 201.334V210.513C115.726 211.604 116.61 212.488 117.701 212.488H133.021C134.112 212.488 134.996 211.604 134.996 210.513V201.334C134.996 200.244 134.112 199.359 133.021 199.359Z" fill="#D3DFFF"/>
<path d="M200.015 85.1879C200.312 85.2196 200.655 85.1879 201.121 85.1404C201.914 85.0327 202.664 84.7048 203.239 84.16C203.909 83.5518 204.392 82.6648 204.579 81.4658H204.533C203.97 82.1501 203.161 82.5555 202.15 82.5555C200.327 82.5555 199.16 81.1855 199.16 79.4559C199.16 77.5395 200.546 75.8574 202.618 75.8574C204.689 75.8574 205.966 77.5395 205.966 80.1243C205.966 82.3512 205.218 83.9097 204.222 84.8759C203.443 85.6393 202.367 86.1065 201.279 86.2317C200.78 86.3093 200.345 86.3251 200.017 86.3093V85.1879H200.015ZM200.514 79.3625C200.514 80.6232 201.278 81.5118 202.461 81.5118C203.38 81.5118 204.097 81.0604 204.455 80.4522C204.534 80.3286 204.579 80.1718 204.579 79.9533C204.579 78.2253 203.94 76.9012 202.507 76.9012C201.34 76.9012 200.513 77.9291 200.513 79.3625H200.514Z" fill="#3A6BEA"/>
<path d="M208.01 85.1879C208.306 85.2196 208.649 85.1879 209.115 85.1404C209.909 85.0327 210.658 84.7048 211.233 84.16C211.903 83.5518 212.386 82.6648 212.573 81.4658H212.527C211.964 82.1501 211.155 82.5555 210.145 82.5555C208.322 82.5555 207.154 81.1855 207.154 79.4559C207.154 77.5395 208.54 75.8574 210.612 75.8574C212.684 75.8574 213.96 77.5395 213.96 80.1243C213.96 82.3512 213.213 83.9097 212.216 84.8759C211.437 85.6393 210.362 86.1065 209.273 86.2317C208.775 86.3093 208.339 86.3251 208.011 86.3093V85.1879H208.01ZM208.508 79.3625C208.508 80.6232 209.272 81.5118 210.455 81.5118C211.374 81.5118 212.091 81.0604 212.449 80.4522C212.528 80.3286 212.573 80.1718 212.573 79.9533C212.573 78.2253 211.934 76.9012 210.501 76.9012C209.334 76.9012 208.507 77.9291 208.507 79.3625H208.508Z" fill="#3A6BEA"/>
<path d="M354.61 181.072H278.084V237.207H354.61V181.072Z" fill="#FBC343"/>
<path d="M354.613 193.781H334.224V194.619H354.613V193.781Z" fill="#E49B31"/>
<path d="M354.613 224.506H319.143V225.344H354.613V224.506Z" fill="#E49B31"/>
<path d="M316.235 201.413C316.235 207.873 315.262 214.367 313.286 220.677C310.278 230.264 301.403 236.784 291.367 236.784H278.086V181.076H312.943C315.121 187.629 316.236 194.501 316.236 201.413H316.235Z" fill="#E49B31"/>
<path d="M179.355 223.615H242.44C244.54 223.615 246.244 225.319 246.244 227.42V233.403C246.244 235.504 244.54 237.208 242.44 237.208H179.353C177.253 237.208 175.549 235.504 175.549 233.403V227.42C175.549 225.319 177.253 223.615 179.353 223.615H179.355Z" fill="#FBC343"/>
<path d="M238.426 213.82V219.812C238.426 221.915 236.717 223.616 234.621 223.616H171.535C169.432 223.616 167.73 221.915 167.73 219.812V213.82C167.73 211.725 169.432 210.016 171.535 210.016H234.621C236.717 210.016 238.426 211.725 238.426 213.82Z" fill="#FBC343"/>
<path d="M246.243 227.421V233.405C246.243 235.508 244.542 237.209 242.439 237.209H197.201C194.076 233.354 192.166 228.386 191.018 223.618C189.694 218.154 189.35 212.968 189.275 210.018H234.623C236.718 210.018 238.427 211.727 238.427 213.822V219.814C238.427 221.917 236.718 223.618 234.623 223.618H242.441C244.544 223.618 246.245 225.319 246.245 227.423L246.243 227.421Z" fill="#E49B31"/>
<path d="M279.4 115.955L274.306 131.6L273.929 132.757L271.566 140.022L271.548 140.072L263.932 139.904L234.705 139.242L232.568 133.126L232.209 132.104L226.553 115.957C244.099 122.032 258.561 108.75 279.4 115.957V115.955Z" fill="#FBC343"/>
<path d="M273.928 132.755L271.564 140.02L263.932 139.903L234.705 139.241L232.568 133.124C242.615 132.948 259.901 132.714 273.928 132.755Z" fill="#E49B31"/>
<path d="M306.581 221.102C305.081 225.895 302.106 229.918 298.261 232.75C294.405 235.582 289.681 237.208 284.662 237.208H218.467C208.899 237.208 200.503 230.814 197.955 221.58C196.488 216.243 195.701 210.829 195.576 205.441C195.568 204.921 195.559 204.402 195.559 203.882C195.559 203.268 195.567 202.655 195.584 202.042C196.124 182.513 205.667 164.326 220.981 152.198L236.816 139.66L273.055 140.498L292.975 159.56C295.777 162.241 298.273 165.238 300.277 168.559C302.678 172.539 304.621 176.74 306.094 181.08C310.444 193.868 310.729 207.878 306.581 221.1V221.102Z" fill="#FBC343"/>
<path d="M247.637 219.704V212.7C242.694 212.479 237.903 211.151 235.098 209.529L237.313 200.899C240.413 202.592 244.761 204.143 249.558 204.143C253.762 204.143 256.638 202.521 256.638 199.572C256.638 196.623 254.278 194.994 248.819 193.151C240.928 190.496 235.54 186.809 235.54 179.655C235.54 173.162 240.115 168.075 248.008 166.526V159.518H255.232V166.01C260.175 166.232 263.495 167.266 265.927 168.443L263.789 176.778C261.873 175.967 258.48 174.268 253.165 174.268C248.372 174.268 246.823 176.333 246.823 178.4C246.823 180.833 249.405 182.382 255.675 184.742C264.45 187.842 267.993 191.895 267.993 198.537C267.993 205.18 263.344 210.706 254.864 212.184V219.704H247.634H247.637Z" fill="white"/>
<path d="M279.053 137.074H227.79C225.661 137.074 223.935 138.8 223.935 140.929V142.57C223.935 144.699 225.661 146.425 227.79 146.425H279.053C281.182 146.425 282.908 144.699 282.908 142.57V140.929C282.908 138.8 281.182 137.074 279.053 137.074Z" fill="#ED7545"/>
<path opacity="0.4" d="M306.581 221.103C305.081 225.896 302.106 229.919 298.261 232.751C294.406 235.582 289.681 237.209 284.662 237.209H218.468C208.9 237.209 200.504 230.815 197.955 221.581C196.488 216.244 195.701 210.83 195.576 205.442C206.527 215.882 219.431 229.534 249.595 229.952C287.053 230.471 303.196 212.916 306.094 181.082C310.444 193.87 310.729 207.881 306.581 221.103Z" fill="#E49B31"/>
<path d="M49.4769 225.615L42.774 223.102L27.2031 236.788H45.6297L49.4769 225.615Z" fill="#102048"/>
<path d="M49.4771 225.615H64.2798L62.6041 236.229L45.6299 236.788L49.4771 225.615Z" fill="#F9B384"/>
<path d="M108.895 166.117L108.35 169.829L108.024 172.067L105.678 188.148L104.781 194.29L103.985 199.771L101.899 214.049L100.45 223.954C99.3599 231.403 92.9754 236.926 85.4426 236.926H52.6885L52.7297 236.507L53.794 225.613L53.9445 224.08L76.7773 219.68L79.8437 197.406C78.3358 190.928 78.7049 184.694 79.3574 180.319C79.9102 176.591 80.6815 174.218 80.6815 174.218L90.8705 171.294L108.893 166.115L108.895 166.117Z" fill="#1F3C88"/>
<path d="M101.898 214.049L100.448 223.954C99.3587 231.403 92.9742 236.926 85.4413 236.926H83.7656C98.7727 234.24 95.8393 215.072 101.898 214.049Z" fill="#102048"/>
<path d="M41.0187 231.402L37.8066 236.568L38.5182 237.011L41.7303 231.844L41.0187 231.402Z" fill="white"/>
<path d="M105.677 188.148L103.984 199.771C99.2673 198.421 93.0459 191.679 93.0459 191.679L105.676 188.148H105.677Z" fill="#102048"/>
<path d="M140.383 217.796C140.383 217.796 132.422 221.88 118.179 219.262L130.015 211.406L140.384 217.796H140.383Z" fill="#102048"/>
<path d="M136.001 223.425L123.273 223.71L123.197 220.962L122.996 213.43L134.308 214.268L134.845 217.174L136.001 223.425Z" fill="#F9B384"/>
<path d="M134.845 217.174L123.197 220.962L122.996 213.43L134.308 214.268L134.845 217.174Z" fill="#E28B6D"/>
<path d="M150.437 236.892L136.402 225.58L136.003 223.428L123.271 223.71L123.624 236.892H150.437Z" fill="#102048"/>
<path d="M140.858 228.768L135.829 231.908L136.273 232.619L141.301 229.479L140.858 228.768Z" fill="white"/>
<path d="M80.6822 174.22L126.226 166.986C128.356 166.647 130.539 166.934 132.509 167.81C136.426 169.55 139 173.382 139.131 177.666L140.381 217.793C140.381 217.793 127.393 215.07 118.177 219.26L117.339 191.816C111.77 194.352 102.124 194.889 92.3489 193.912L80.6807 174.22H80.6822Z" fill="#1F3C88"/>
<path d="M133.964 216.538H133.127C133.127 209.594 133.294 203.831 133.442 198.745C133.801 186.361 133.999 179.541 130.846 176.653C128.293 174.317 123.191 174.39 115.79 175.266C107.858 176.191 104.695 167.746 104.663 167.66L105.45 167.375C105.567 167.7 108.418 175.31 115.69 174.434C123.524 173.509 128.609 173.473 131.41 176.037C134.848 179.183 134.657 185.729 134.278 198.772C134.131 203.851 133.963 209.609 133.963 216.539L133.964 216.538Z" fill="#3A6BEA"/>
<path d="M118.194 214.205L117.896 213.421C118.003 213.382 128.627 209.427 140.351 212.359L140.148 213.171C128.689 210.304 118.297 214.164 118.194 214.204V214.205Z" fill="#3A6BEA"/>
<path d="M57.3403 237.047C56.0352 234.436 58.0546 223.623 58.1417 223.164L58.9653 223.321C58.3904 226.37 57.1106 234.714 58.091 236.673L57.3418 237.048L57.3403 237.047Z" fill="#3A6BEA"/>
<path d="M104.362 170.869C104.362 170.869 101.145 177.715 93.8881 182.324C91.4252 183.882 89.0035 184.595 86.8336 184.603C83.5582 184.611 80.8339 183.019 79.3594 180.32C79.9121 176.592 80.6835 174.219 80.6835 174.219L90.8724 171.295L101.153 170.969L104.362 170.869Z" fill="#102048"/>
<path d="M96.1836 129.605V139.303H105.679V130.915L96.1836 129.605Z" fill="#ED7545"/>
<path d="M105.679 124.92H96.1836V129.607L105.679 130.916V124.92Z" fill="#F9B384"/>
<path d="M98.9824 126.246C99.1915 126.246 101.273 129.511 105.679 130.917L105.616 125.828L98.9824 126.248V126.246Z" fill="#102048"/>
<path d="M106.797 113.327C106.797 113.327 112.033 127.433 105.26 128.34C98.4877 129.248 97.4392 126.175 97.4392 126.175L95.3438 118.703L100.022 112.418L106.795 113.326L106.797 113.327Z" fill="#F9B384"/>
<path d="M110.009 120.127C110.024 119.317 109.379 118.648 108.569 118.633C107.76 118.618 107.091 119.263 107.076 120.073C107.061 120.883 107.705 121.551 108.515 121.566C109.325 121.581 109.994 120.937 110.009 120.127Z" fill="#F9B384"/>
<path d="M99.6744 120.03C99.6744 120.03 100.023 112.488 106.797 113.326C106.797 113.326 102.239 107.472 96.2327 109.742C93.1822 110.895 91.1422 113.807 90.8428 117.054C90.4563 121.252 92.9082 126.035 96.3293 126.873C96.3293 126.873 97.4459 124.289 99.3244 121.008L99.6728 120.03H99.6744Z" fill="#102048"/>
<path d="M101.294 119.679C101.86 120.883 101.484 122.251 100.455 122.736C99.4254 123.221 98.1314 122.636 97.566 121.432C97.0005 120.229 97.3759 118.86 98.4054 118.376C99.4349 117.891 100.729 118.475 101.294 119.679Z" fill="#F9B384"/>
<path opacity="0.4" d="M106.422 120.971C106.437 119.911 105.59 119.04 104.53 119.025C103.47 119.009 102.598 119.856 102.583 120.917C102.568 121.977 103.415 122.848 104.475 122.863C105.535 122.879 106.407 122.032 106.422 120.971Z" fill="#EB5D60"/>
<path d="M99.8545 121.357C99.7389 121.357 99.6455 121.264 99.6455 121.148C99.6455 121.099 99.6217 119.93 98.3245 119.749C98.2105 119.734 98.1297 119.627 98.1455 119.512C98.1614 119.398 98.2675 119.323 98.3815 119.333C100.043 119.566 100.064 121.131 100.064 121.146C100.064 121.262 99.9701 121.355 99.8545 121.355V121.357Z" fill="#102048"/>
<path d="M131.584 115.771C131.584 115.771 138.909 116.331 142.896 121.009L133.825 123.244L131.584 115.771Z" fill="#BA5C36"/>
<path d="M144.566 111.759C144.599 112.428 142.755 115.772 141.398 118.143C140.601 119.508 139.982 120.547 139.982 120.547L135.097 121.971L131.611 116.718L131.443 116.458C131.443 116.458 131.494 116.231 131.586 115.829V115.821C131.594 115.813 131.594 115.796 131.603 115.77C132.189 113.282 134.267 104.801 135.466 104.517C136.523 104.275 135.902 108.917 135.902 108.917C135.902 108.917 138.507 101.367 140.05 101.677C141.282 101.92 138.868 109.161 138.868 109.161C138.868 109.161 139.732 108.257 140.603 108.542C141.533 108.852 141.65 109.723 141.65 109.723C141.65 109.723 142.269 109.288 142.89 109.657C143.509 110.034 143.451 111.207 143.451 111.207C143.451 111.207 144.497 110.713 144.566 111.76V111.759Z" fill="#F9B384"/>
<path d="M93.9627 135.9L90.6445 148.872L85.5001 168.984C82.0061 170.535 78.3189 171.105 75.3951 170.618C72.0009 170.056 69.6299 168.08 69.7899 164.586C70.2096 155.158 93.9627 135.902 93.9627 135.902V135.9Z" fill="#ED7545"/>
<path d="M93.3263 139.584L90.6449 148.872L85.5005 168.984C82.0065 170.534 78.3193 171.104 75.3955 170.618C82.8523 149.222 93.3263 139.586 93.3263 139.586V139.584Z" fill="#BA5C36"/>
<path d="M114.065 168.932C107.153 169.401 85.3667 187.418 80.1289 175.795C80.1289 175.795 80.8575 132.439 103.239 133.243C107.202 133.386 110.68 136.026 111.877 139.805C112.414 141.514 112.95 143.744 113.369 146.61C113.797 149.518 114.115 153.088 114.225 157.437C114.316 160.788 114.275 164.602 114.065 168.934V168.932Z" fill="#ED7545"/>
<path d="M114.223 157.435C110.763 155.197 107.151 148.451 107.151 148.451L113.368 146.607C113.796 149.515 114.114 153.085 114.223 157.435Z" fill="#BA5C36"/>
<path d="M141.398 118.142C140.601 119.507 139.982 120.546 139.982 120.546L135.097 121.97L131.611 116.717L131.586 115.828V115.77H131.603L141.398 118.141V118.142Z" fill="#E28B6D"/>
<path d="M103.241 133.243C103.241 133.243 113.989 133.997 120.483 135.254L131.586 115.771C134.977 118.485 138.746 120.235 142.898 121.009L133.181 143.904C131.038 148.252 126.678 151.069 121.833 151.236L105.191 151.804L103.241 133.243Z" fill="#ED7545"/>
<path d="M120.483 135.568C120.464 135.568 120.445 135.568 120.426 135.564C120.221 135.526 99.9275 131.804 96.4683 134.862C96.3385 134.976 96.1405 134.965 96.0249 134.834C95.9108 134.704 95.9219 134.506 96.0518 134.39C99.7374 131.132 119.692 134.788 120.54 134.946C120.711 134.978 120.823 135.142 120.792 135.312C120.763 135.464 120.632 135.568 120.483 135.568Z" fill="#BA5C36"/>
<path d="M342.883 218.911L344.28 236.788H321.027L332.759 228.688L332.548 217.516L342.883 218.911Z" fill="#102048"/>
<path d="M377.167 211.301L383.452 226.593L367.531 240L369.836 224.917L366.693 214.861L377.167 211.301Z" fill="#102048"/>
<path d="M349.03 125.057C348.821 125.643 348.628 126.398 348.444 127.285C348.134 128.836 347.866 130.812 347.64 133.142C346.902 140.751 346.593 152.055 346.509 164.064C346.333 191.105 347.355 221.708 347.355 221.708L343.099 221.642L332.625 221.482L328.922 221.423C323.308 178.586 324.908 142.411 325.754 129.816C325.779 129.381 325.812 128.978 325.83 128.601C326.006 126.289 326.123 125.057 326.123 125.057H349.032H349.03Z" fill="#1F3C88"/>
<path d="M381.147 215.281L379.019 215.808L367.857 218.599L361.037 220.308C361.037 220.308 352.959 190.334 346.508 164.064C343.409 151.395 340.677 139.587 339.419 132.422C338.983 129.891 338.724 127.938 338.69 126.732L348.444 127.285L360.761 127.988C360.761 127.988 361.062 129.756 361.65 132.933C363.996 145.595 370.876 180.655 381.149 215.279L381.147 215.281Z" fill="#1F3C88"/>
<path d="M361.649 132.933C356.688 133.343 351.962 133.361 347.639 133.142C344.698 132.992 341.942 132.732 339.419 132.422C333.185 131.642 328.375 130.511 325.754 129.816C324.32 129.431 323.541 129.179 323.541 129.179L325.828 128.601L339.939 125.057H349.03C348.821 125.643 348.628 126.398 348.444 127.285L360.762 127.988C360.762 127.988 361.063 129.756 361.65 132.933H361.649Z" fill="#102048"/>
<path d="M346.944 167.334C346.266 164.493 343.065 151.038 342.648 148.759L336.172 146.331L336.466 145.547L343.442 148.162V148.452C343.489 149.073 346.05 159.969 347.759 167.14L346.945 167.334H346.944Z" fill="#3A6BEA"/>
<path d="M330.502 179.599C327.454 179.599 325.519 178.844 325.411 178.799L325.722 178.021C325.755 178.036 329.173 179.36 334.005 178.419L334.165 179.241C332.824 179.502 331.591 179.599 330.502 179.599Z" fill="#3A6BEA"/>
<path d="M354.759 179.011C352.807 179.011 351.171 178.707 351.043 178.683L351.2 177.86C351.257 177.871 356.924 178.919 359.54 177.09L360.02 177.776C358.626 178.751 356.56 179.011 354.759 179.011Z" fill="#3A6BEA"/>
<path d="M333.02 228.38L332.511 229.045L335.792 231.559L336.302 230.894L333.02 228.38Z" fill="white"/>
<path d="M369.973 224.503L369.658 225.279L374.127 227.094L374.442 226.317L369.973 224.503Z" fill="white"/>
<path d="M336.739 79.25C336.739 79.25 322.355 81.0651 318.725 97.2664L323.053 116.54L321.099 129.389C321.099 129.389 340.65 131.343 360.76 127.992L354.651 95.2406L336.741 79.25H336.739Z" fill="#ED7545"/>
<path d="M345.676 120.31C345.676 120.31 341.348 117.133 347.004 103.201L350.775 116.922L345.678 120.308L345.676 120.31Z" fill="#6E3620"/>
<path d="M345.115 92.6838L345.298 93.0295C345.536 93.4789 345.364 94.0376 344.915 94.2756L328.82 102.797L327.775 100.822L343.869 92.3005C344.318 92.0626 344.877 92.2345 345.115 92.6838Z" fill="#102048"/>
<path d="M349.307 115.772L348.879 115.537L343.325 112.537L334.015 107.501C333.847 106.378 333.974 105.423 334.644 104.769L334.183 104.585C333.429 104.267 332.876 103.587 332.726 102.775L332.708 102.675C332.466 101.862 332.583 101.108 332.657 100.689L332.876 100.404C333.421 99.6908 333.663 99.3313 334.368 98.769L333.179 98.8355C333.179 98.8355 330.245 99.6401 331.612 97.7553C332.551 96.4487 334.653 95.3415 335.852 94.7888C336.354 94.5544 336.967 94.6542 337.352 95.0565C341.383 99.2378 348.471 104.249 348.471 104.249L348.547 105.271L349.234 114.68L349.31 115.77L349.307 115.772Z" fill="#F9B384"/>
<path d="M338.322 99.7587L335.786 98.5202C335.521 98.3903 335.227 98.3491 334.937 98.3998L332.236 98.8702L332.165 98.4568L334.866 97.9864C335.244 97.9199 335.626 97.9753 335.971 98.1432L338.507 99.3818L338.322 99.7587Z" fill="#E28B6D"/>
<path d="M337.849 102.14L334.808 100.974C334.674 100.922 334.531 100.897 334.385 100.897H332.654V100.479H334.385C334.582 100.479 334.775 100.513 334.959 100.585L338 101.75L337.849 102.142V102.14Z" fill="#E28B6D"/>
<path d="M337.431 104.515L334.669 103.471C334.453 103.388 334.216 103.358 333.983 103.385L332.852 103.514L332.805 103.097L333.937 102.969C334.233 102.935 334.539 102.973 334.819 103.08L337.582 104.123L337.433 104.515H337.431Z" fill="#E28B6D"/>
<path d="M349.231 114.681L348.879 115.536L343.323 112.536L347.003 103.201L348.544 105.271L349.231 114.681Z" fill="#E28B6D"/>
<path d="M345.676 120.311C345.676 120.311 353.987 128.202 360.758 127.993L358.802 118.705L345.675 120.311H345.676Z" fill="#BA5C36"/>
<path d="M336.739 79.2507C336.739 79.2507 337.762 79.1446 339.468 79.2032C356.241 79.7766 369.089 94.2102 368.271 110.974C367.932 117.903 366.132 124.783 360.34 124.921L345.677 120.312C347.06 115.125 348.092 109.746 347.004 103.203L353.812 106.45L336.739 79.2507Z" fill="#ED7545"/>
<path d="M341.523 119.668L321.028 120.172L320.465 118.436L318.405 112.102L312.438 93.7755L332.934 93.2734L341.523 119.668Z" fill="#D3DFFF"/>
<path opacity="0.3" d="M322.754 109.906C322.754 109.906 322.721 115.57 320.467 118.437L318.406 112.101L322.756 109.906H322.754Z" fill="#1F3C88"/>
<path d="M312.813 109.462C313.46 107.378 314.635 105.453 315.929 103.717C316.341 103.165 317.236 101.807 318.096 102.013C319.841 102.433 318.096 105.504 318.096 105.504C318.096 105.504 319.771 102.99 320.4 104.246C321.029 105.504 320.121 106.899 320.121 106.899C320.121 106.899 322.774 105.154 321.797 108.645C321.797 108.645 323.962 108.366 322.635 110.74C321.688 112.435 321.075 114.323 319.888 115.881C318.694 117.45 316.448 118.33 314.583 117.435C312.389 116.384 312.109 113.579 312.379 111.444C312.465 110.767 312.614 110.107 312.813 109.461V109.462Z" fill="#F9B384"/>
<path d="M316.576 108.909C316.548 108.909 316.519 108.902 316.491 108.891C316.385 108.844 316.337 108.72 316.385 108.614L318.374 104.11C318.42 104.003 318.545 103.956 318.65 104.002C318.756 104.049 318.803 104.173 318.756 104.279L316.766 108.784C316.731 108.861 316.655 108.909 316.575 108.909H316.576Z" fill="#E28B6D"/>
<path d="M318.618 110.587C318.588 110.587 318.558 110.581 318.529 110.566C318.425 110.517 318.379 110.392 318.428 110.288L320.313 106.255C320.363 106.151 320.489 106.106 320.591 106.154C320.696 106.203 320.742 106.328 320.693 106.433L318.808 110.465C318.773 110.541 318.697 110.587 318.618 110.587Z" fill="#E28B6D"/>
<path d="M320.19 111.948C320.156 111.948 320.123 111.94 320.091 111.924C319.99 111.87 319.949 111.744 320.004 111.641L321.628 108.551C321.683 108.449 321.808 108.41 321.911 108.464C322.013 108.517 322.054 108.644 321.998 108.747L320.375 111.837C320.337 111.908 320.264 111.95 320.19 111.95V111.948Z" fill="#E28B6D"/>
<path d="M326.962 95.1015H319.63L318.374 92.5879H325.706L326.962 95.1015Z" fill="#102048"/>
<path d="M336.54 87.4352C334.365 87.4352 332.936 86.3598 332.916 86.3439C332.778 86.2378 332.754 86.0414 332.859 85.9036C332.965 85.7674 333.161 85.7405 333.299 85.8466C333.42 85.9369 336.263 88.0529 340.069 85.7563C340.216 85.666 340.411 85.7151 340.499 85.8624C340.588 86.0113 340.541 86.2045 340.392 86.2932C338.971 87.1501 337.656 87.4352 336.54 87.4352Z" fill="#BA5C36"/>
<path d="M345.677 120.625C345.649 120.625 345.619 120.62 345.588 120.612C345.422 120.563 345.327 120.387 345.376 120.221C348.389 110.019 346.718 103.348 346.7 103.281L346.578 102.812L359.555 104.987C359.726 105.016 359.842 105.177 359.813 105.348C359.785 105.521 359.613 105.637 359.452 105.606L347.408 103.587C347.73 105.293 348.588 111.566 345.981 120.398C345.94 120.534 345.815 120.623 345.68 120.623L345.677 120.625Z" fill="#BA5C36"/>
<path d="M355.172 104.773C355.172 104.773 355.16 104.773 355.153 104.773C354.981 104.762 354.847 104.613 354.859 104.441C354.862 104.373 355.21 97.6144 350.512 90.6692C350.416 90.525 350.454 90.3302 350.596 90.2336C350.741 90.137 350.935 90.1734 351.034 90.3175C355.855 97.4465 355.491 104.409 355.486 104.479C355.475 104.645 355.337 104.773 355.172 104.773Z" fill="#BA5C36"/>
<path d="M342.497 71.5371V79.6243C342.497 82.2329 340.464 84.3473 337.953 84.3473C335.443 84.3473 333.409 82.2329 333.409 79.6243V71.5371H342.496H342.497Z" fill="#F9B384"/>
<path d="M338.204 72.6167C338.204 72.6167 337.732 77.6137 333.411 79.0582V71.9609L338.204 72.6167Z" fill="#102048"/>
<path d="M329.982 62.32C329.982 62.32 328.573 73.6636 332.995 75.0083C337.417 76.3545 341.454 72.4456 341.454 72.4456L340.621 63.0897L334.084 59.2441L329.984 62.32H329.982Z" fill="#F9B384"/>
<path d="M355.138 84.3654L346.416 84.9435C345.312 83.7287 344.688 82.0197 344.279 80.0922C343.91 82.0767 344.202 83.7255 345.176 85.0275L342.813 85.1874C340.717 82.053 338.958 75.1157 341.036 69.1826L341.278 67.7825C341.278 67.7825 339.786 63.2653 337.624 63.0737C337.624 63.0737 330.209 68.077 326.908 62.4955C324.445 58.3395 326.523 52.8752 332.447 56.9061C332.447 56.9061 346.682 50.227 346.649 63.9194C346.641 66.3744 347.563 68.7882 349.381 70.4307C349.532 70.5811 349.699 70.7237 349.875 70.8583C353.068 73.3893 356.512 78.4339 355.137 84.367L355.138 84.3654Z" fill="#102048"/>
<path d="M343.522 68.5102C343.943 67.203 343.378 65.8513 342.26 65.491C341.142 65.1307 339.894 65.8983 339.473 67.2055C339.051 68.5126 339.616 69.8643 340.735 70.2246C341.853 70.5849 343.101 69.8174 343.522 68.5102Z" fill="#F9B384"/>
<path d="M341.207 68.6361C341.092 68.6361 340.998 68.5427 340.998 68.427C340.998 67.5227 341.712 66.7244 342.558 66.6816H342.569C342.68 66.6816 342.772 66.7687 342.778 66.8812C342.785 66.9968 342.694 67.095 342.579 67.1014C342.018 67.1299 341.416 67.67 341.416 68.4286C341.416 68.5443 341.323 68.6377 341.207 68.6377V68.6361Z" fill="#102048"/>
<path d="M331.536 66.6453C331.536 66.9352 331.301 67.1696 331.012 67.1696C330.722 67.1696 330.487 66.9352 330.487 66.6453C330.487 66.3555 330.722 66.1211 331.012 66.1211C331.301 66.1211 331.536 66.3555 331.536 66.6453Z" fill="#102048"/>
<path d="M334.696 66.3836C334.696 66.6735 334.462 66.9079 334.172 66.9079C333.882 66.9079 333.647 66.6735 333.647 66.3836C333.647 66.0938 333.882 65.8594 334.172 65.8594C334.462 65.8594 334.696 66.0938 334.696 66.3836Z" fill="#102048"/>
<path d="M332.287 70.1556C332.235 70.1556 332.181 70.1366 332.141 70.0954C331.715 69.6789 331.541 69.2845 331.623 68.9202C331.707 68.5512 332.034 68.3374 332.228 68.2392L332.182 67.2049C332.178 67.0893 332.268 66.9911 332.382 66.9863C332.496 66.9863 332.596 67.0719 332.601 67.1859L332.659 68.5211L332.512 68.5718C332.396 68.6114 332.084 68.7698 332.03 69.0137C331.972 69.2766 332.216 69.5839 332.433 69.7945C332.515 69.8753 332.517 70.0083 332.436 70.0907C332.395 70.1334 332.341 70.154 332.285 70.154L332.287 70.1556Z" fill="#102048"/>
<path d="M332.709 71.6651C332.535 71.6651 332.424 71.6492 332.41 71.6461C332.296 71.6286 332.218 71.5209 332.237 71.4069C332.255 71.2929 332.372 71.2168 332.476 71.2327C332.487 71.2343 333.549 71.3863 334.48 70.5754C334.566 70.4993 334.699 70.5073 334.775 70.596C334.851 70.6831 334.843 70.8161 334.754 70.8921C333.983 71.5653 333.145 71.6667 332.709 71.6667V71.6651Z" fill="#102048"/>
<path opacity="0.4" d="M336.777 70.1558C337.536 70.1558 338.152 69.5403 338.152 68.781C338.152 68.0218 337.536 67.4062 336.777 67.4062C336.018 67.4062 335.402 68.0218 335.402 68.781C335.402 69.5403 336.018 70.1558 336.777 70.1558Z" fill="#EB5D60"/>
</g>
<defs>
<clipPath id="clip0_833_33918">
<rect width="427.508" height="240" fill="white"/>
</clipPath>
</defs>
</svg>
