<svg width="1074" height="801" viewBox="0 0 1074 801" fill="none" xmlns="http://www.w3.org/2000/svg">
<path d="M1074 703.363H0V703.9H1074V703.363Z" fill="#EBEBEB"/>
<path d="M509.106 607.562H94.3276C87.5614 607.562 82.0625 602.063 82.0625 595.297V12.2651C82.0625 5.49888 87.5614 0 94.3276 0H509.106C515.873 0 521.371 5.49888 521.371 12.2651V595.297C521.371 602.063 515.873 607.562 509.106 607.562ZM94.3276 0.537C87.8621 0.537 82.5995 5.7996 82.5995 12.2651V595.297C82.5995 601.762 87.8621 607.025 94.3276 607.025H509.106C515.572 607.025 520.834 601.762 520.834 595.297V12.2651C520.834 5.7996 515.572 0.537 509.106 0.537H94.3276Z" fill="#EBEBEB"/>
<path d="M973.708 607.562H558.929C552.163 607.562 546.664 602.063 546.664 595.297V12.2651C546.664 5.49888 552.163 0 558.929 0H973.708C980.474 0 985.973 5.49888 985.973 12.2651V595.297C985.973 602.063 980.474 607.562 973.708 607.562ZM558.929 0.537C552.464 0.537 547.201 5.7996 547.201 12.2651V595.297C547.201 601.762 552.464 607.025 558.929 607.025H973.708C980.173 607.025 985.436 601.762 985.436 595.297V12.2651C985.436 5.7996 980.173 0.537 973.708 0.537H558.929Z" fill="#EBEBEB"/>
<path d="M165.996 723.812H110.148V724.349H165.996V723.812Z" fill="#EBEBEB"/>
<path d="M408.498 717.99H311.773V718.527H408.498V717.99Z" fill="#EBEBEB"/>
<path d="M298.718 743.766H168.141V744.303H298.718V743.766Z" fill="#EBEBEB"/>
<path d="M963.853 740.157H922.547V740.694H963.853V740.157Z" fill="#EBEBEB"/>
<path d="M903.396 740.157H784.633V740.694H903.396V740.157Z" fill="#EBEBEB"/>
<path d="M712.11 731.071H552.148V731.608H712.11V731.071Z" fill="#EBEBEB"/>
<path d="M409.914 344.732L382.742 703.363H644.755L671.927 344.732H409.914ZM574.688 598.218C572.475 627.474 546.957 651.188 517.701 651.188C488.445 651.188 466.536 627.474 468.748 598.218L478.307 472.13C480.519 442.875 506.037 419.139 535.293 419.139C549.921 419.139 562.723 425.068 571.573 434.669C580.423 444.249 585.342 457.502 584.246 472.13L574.688 598.218Z" fill="#E6E6E6"/>
<path d="M727.903 703.362H345.859L348.05 679.82H730.115L727.903 703.362Z" fill="#E6E6E6"/>
<path d="M874.719 570.186H908.55C910.484 570.186 911.987 568.596 911.88 566.663L911.751 564.257C911.644 562.324 909.99 560.734 908.056 560.734H874.225C872.292 560.734 870.789 562.324 870.896 564.257L871.025 566.663C871.132 568.596 872.786 570.186 874.719 570.186Z" fill="#E0E0E0"/>
<path d="M818.165 570.186H851.996C853.929 570.186 855.433 568.596 855.325 566.663L855.196 564.257C855.089 562.324 853.435 560.734 851.502 560.734H817.671C815.738 560.734 814.234 562.324 814.341 564.257L814.47 566.663C814.578 568.596 816.232 570.186 818.165 570.186Z" fill="#E0E0E0"/>
<path d="M934.883 567.544H145.213C136.106 567.544 128.352 560.155 127.901 551.047L104.122 76.7261C103.671 67.6186 110.674 60.2295 119.781 60.2295H909.45C918.558 60.2295 926.312 67.6186 926.763 76.7261L950.542 551.047C950.993 560.155 943.99 567.544 934.883 567.544Z" fill="#E0E0E0"/>
<path d="M944.549 567.544H154.901C145.793 567.544 138.039 560.155 137.588 551.047L113.81 76.7261C113.359 67.6186 120.361 60.2295 129.469 60.2295H919.116C928.224 60.2295 935.978 67.6186 936.429 76.7261L960.208 551.047C960.659 560.155 953.656 567.544 944.549 567.544Z" fill="#E6E6E6"/>
<path d="M159.512 534.444L137.388 93.3304C137.108 87.6167 141.49 82.9985 147.204 82.9985H903.644C909.357 82.9985 914.212 87.6167 914.491 93.3304L936.594 534.422C936.873 540.136 932.491 544.754 926.778 544.754H170.359C164.646 544.754 159.791 540.136 159.512 534.422V534.444Z" fill="#F5F5F5"/>
<path d="M184.018 105.574C184.276 110.622 180.388 114.724 175.34 114.724C170.292 114.724 165.996 110.622 165.739 105.574C165.481 100.526 169.369 96.4233 174.417 96.4233C179.464 96.4233 183.76 100.526 184.018 105.574Z" fill="white"/>
<path d="M225.393 105.574C225.651 110.622 221.763 114.724 216.715 114.724C211.667 114.724 207.371 110.622 207.114 105.574C206.856 100.526 210.744 96.4233 215.792 96.4233C220.839 96.4233 225.135 100.526 225.393 105.574Z" fill="white"/>
<path d="M266.815 105.574C267.073 110.622 263.185 114.724 258.137 114.724C253.089 114.724 248.793 110.622 248.536 105.574C248.278 100.526 252.166 96.4233 257.213 96.4233C262.261 96.4233 266.557 100.526 266.815 105.574Z" fill="white"/>
<g opacity="0.6">
<path d="M238.18 544.776H347.191L446.858 82.9985H337.847L238.18 544.776Z" fill="white"/>
<path d="M707.297 544.776H734.899L834.566 82.9985H806.964L707.297 544.776Z" fill="white"/>
<path d="M371.43 544.776H526.086L625.753 82.9985H471.097L371.43 544.776Z" fill="white"/>
</g>
<path d="M536.999 800.365C767.012 800.365 953.475 789.479 953.475 776.05C953.475 762.621 767.012 751.734 536.999 751.734C306.986 751.734 120.523 762.621 120.523 776.05C120.523 789.479 306.986 800.365 536.999 800.365Z" fill="#F5F5F5"/>
<path d="M774.568 446.999C774.31 446.999 774.052 446.999 773.795 446.977C716.593 442.295 677.199 393.385 675.545 391.301C672.259 387.155 672.946 381.12 677.092 377.812C681.237 374.525 687.273 375.213 690.56 379.358C691.011 379.938 724.713 421.48 771.389 427.409C786.532 412.394 799.27 372.678 797.874 360.649C797.874 360.542 797.852 360.434 797.852 360.305C797.53 356.439 796.821 343.207 800.623 335.303C802.922 330.534 808.657 328.515 813.425 330.813C818.194 333.112 820.213 338.847 817.915 343.615C816.97 345.592 816.518 352.723 816.97 358.63C819.096 378.392 801.976 428.268 780.454 444.958C778.757 446.268 776.695 446.977 774.568 446.977V446.999Z" fill="#263238"/>
<path d="M319.669 394.953C302.635 394.953 254.413 390.764 215.362 347.095C212.333 343.701 212.097 338.632 214.804 334.98C230.312 314.123 257.678 264.87 261.952 248.824C260.191 245.774 257.012 241.392 253.06 239.523C250.009 238.084 247.926 235.141 247.582 231.791L246.036 216.067C245.52 210.783 249.365 206.1 254.649 205.585C259.912 205.069 264.616 208.914 265.131 214.198L266.205 225.132C275.571 231.855 280.253 242.337 280.833 243.69C281.478 245.216 281.714 246.891 281.542 248.545C279.566 265.6 251.921 314.918 234.909 339.856C274.625 379.444 322.096 375.835 324.18 375.642C329.421 375.212 334.104 379.079 334.576 384.341C335.049 389.604 331.182 394.265 325.92 394.759C325.469 394.802 323.278 394.996 319.69 394.996L319.669 394.953Z" fill="#263238"/>
<path d="M629.067 775.729H603.355C600.348 775.729 597.534 774.333 595.708 771.949C593.904 769.564 593.303 766.471 594.097 763.572C600.821 739.428 604.107 719.795 606.599 689.014C597.491 646.162 588.921 606.939 588.835 606.531C587.696 601.355 590.983 596.242 596.159 595.104C601.336 593.965 606.448 597.252 607.587 602.428C607.673 602.837 616.437 642.94 625.673 686.372C625.866 687.275 625.931 688.198 625.845 689.122C623.675 716.745 620.883 735.841 615.792 756.526H629.067C634.372 756.526 638.668 760.822 638.668 766.128C638.668 771.433 634.372 775.729 629.067 775.729Z" fill="#263238"/>
<path d="M430.281 775.729H415.76C412.989 775.729 410.347 774.526 408.521 772.421C406.696 770.338 405.879 767.545 406.266 764.796C408.736 747.182 421.388 715.113 434.834 682.871C439.624 640.341 443.555 603.825 443.598 603.46C444.157 598.197 448.882 594.352 454.166 594.954C459.429 595.512 463.252 600.238 462.672 605.522C462.629 605.887 458.613 643.241 453.758 686.394C453.651 687.296 453.436 688.177 453.071 689.014C443.534 711.848 432.686 738.741 427.724 756.548H430.302C435.608 756.548 439.904 760.844 439.904 766.149C439.904 771.455 435.608 775.751 430.302 775.751L430.281 775.729Z" fill="#263238"/>
<path d="M438.642 120.352L326.796 232.198C321.168 356.159 321.64 486.371 326.796 621.395H696.595C689.271 447.17 688.583 279.476 696.595 120.374H438.62L438.642 120.352Z" fill="white"/>
<path d="M696.614 623.285H326.814C325.783 623.285 324.945 622.469 324.903 621.438C319.533 481.259 319.533 350.253 324.903 232.091C324.924 231.619 325.117 231.167 325.461 230.824L437.307 118.977C437.673 118.612 438.145 118.419 438.661 118.419H696.635C697.151 118.419 697.666 118.634 698.032 119.02C698.397 119.407 698.59 119.923 698.569 120.438C690.857 273.676 690.857 437.526 698.569 621.287C698.59 621.803 698.397 622.318 698.032 622.705C697.666 623.07 697.172 623.285 696.657 623.285H696.614ZM328.661 619.44H694.616C687.012 437.161 687.012 274.493 694.616 122.242H439.455L328.704 232.993C323.399 350.338 323.399 480.335 328.661 619.44Z" fill="#263238"/>
<path d="M630.318 568.167H589.978C589.183 568.167 588.539 567.523 588.539 566.728C588.539 565.933 589.183 565.289 589.978 565.289H630.318C631.112 565.289 631.757 565.933 631.757 566.728C631.757 567.523 631.112 568.167 630.318 568.167Z" fill="#027DC2"/>
<path d="M573.272 568.167H393.119C392.324 568.167 391.68 567.523 391.68 566.728C391.68 565.933 392.324 565.289 393.119 565.289H573.272C574.066 565.289 574.711 565.933 574.711 566.728C574.711 567.523 574.066 568.167 573.272 568.167Z" fill="#027DC2"/>
<path d="M460.257 352.766C459.827 343.423 454.522 336.012 448.378 336.227C442.235 336.442 437.617 344.217 438.025 353.561C438.455 362.905 443.76 370.315 449.904 370.101C456.047 369.886 460.665 362.11 460.257 352.766Z" fill="#027DC2"/>
<path d="M589.944 349.845C589.515 340.501 584.209 333.091 578.066 333.305C571.923 333.52 567.304 341.296 567.713 350.64C568.142 359.984 573.448 367.394 579.591 367.179C585.734 366.965 590.353 359.189 589.944 349.845Z" fill="#027DC2"/>
<path d="M492.64 391.108C526.642 378.972 552.912 393.235 554.137 393.901C555.469 394.652 555.941 396.306 555.189 397.638C554.438 398.948 552.762 399.421 551.43 398.691C551.13 398.519 520.521 382.022 483.962 400.86C482.608 401.547 480.933 401.032 480.224 399.7C479.515 398.347 480.031 396.693 481.384 396.006C485.207 394.03 488.966 392.419 492.618 391.108H492.64Z" fill="#027DC2"/>
<path d="M441.707 265.042C442.631 265.064 443.554 265.322 444.414 265.816C447.056 267.362 447.936 270.735 446.39 273.355C430.946 299.453 405.492 300.742 404.418 300.785C401.368 300.914 398.79 298.551 398.64 295.523C398.489 292.494 400.831 289.959 403.859 289.83C404.697 289.787 424.523 288.563 436.853 267.749C437.905 265.988 439.795 265.021 441.707 265.064V265.042Z" fill="#027DC2"/>
<path d="M571.48 261.885C573.241 261.541 575.131 262.056 576.484 263.41C593.733 280.658 613.301 277.135 614.117 276.985C617.103 276.405 620.024 278.338 620.626 281.302C621.227 284.267 619.337 287.145 616.373 287.746C615.299 287.94 590.275 292.73 568.666 271.121C566.518 268.973 566.518 265.493 568.666 263.367C569.46 262.572 570.449 262.078 571.48 261.885Z" fill="#027DC2"/>
<path opacity="0.2" d="M691.056 322.007L675.375 323.489C669.747 324.026 664.614 320.288 663.389 314.768L641.63 217.292C640.32 211.406 643.886 205.542 649.728 203.996L691.807 192.955L691.056 322.007Z" fill="black"/>
<path opacity="0.2" d="M448.977 242.166C438.044 212.309 427.11 164.559 438.667 120.353L326.82 232.199C358.417 242.768 408.809 247.386 448.977 242.188V242.166Z" fill="black"/>
<path d="M438.635 232.177C426.37 195.962 431.375 146.73 438.635 120.331L326.789 232.177C360.642 238.342 398.468 237.376 438.635 232.177Z" fill="white"/>
<path d="M377.955 238.364C359.289 238.364 342.212 236.925 326.467 234.068C325.759 233.939 325.2 233.445 324.985 232.757C324.77 232.07 324.964 231.34 325.458 230.824L437.304 118.978C437.927 118.355 438.872 118.248 439.624 118.677C440.376 119.107 440.741 120.009 440.505 120.847C433.739 145.42 428.154 195.189 440.462 231.555C440.655 232.092 440.569 232.693 440.268 233.187C439.968 233.681 439.452 234.003 438.894 234.068C416.812 236.925 396.6 238.342 377.955 238.342V238.364ZM330.785 230.932C360.492 235.851 395.01 235.743 436.101 230.588C425.984 198.518 428.283 156.052 435.092 126.625L330.785 230.932Z" fill="#263238"/>
<path d="M822.898 395.576C821.48 395.576 820.17 394.631 819.805 393.17L780.411 243.068C779.96 241.35 780.991 239.61 782.709 239.159C784.427 238.708 786.167 239.739 786.618 241.457L826.013 391.559C826.464 393.278 825.433 395.018 823.714 395.469C823.435 395.533 823.177 395.576 822.898 395.576Z" fill="#263238"/>
<path d="M894.937 175.782L892.859 176.327L895.863 187.775L897.94 187.23L894.937 175.782Z" fill="#407BFF"/>
<path d="M889.499 163.548L881.23 132.016C879.318 124.712 872.702 119.6 865.141 119.6C863.723 119.6 862.284 119.793 860.909 120.137L839.279 125.808L838.742 123.724L860.372 118.054C861.919 117.645 863.53 117.431 865.141 117.431C873.669 117.431 881.122 123.187 883.292 131.436L891.561 162.968L889.478 163.505L889.499 163.548Z" fill="#407BFF"/>
<path d="M862.326 125.409L657.528 179.136C651.515 180.714 647.919 186.867 649.497 192.88L675.415 291.674C676.992 297.687 683.146 301.282 689.158 299.705L893.956 245.977C899.969 244.4 903.565 238.247 901.987 232.234L876.069 133.44C874.492 127.427 868.339 123.831 862.326 125.409Z" fill="#027DC2"/>
<path d="M852.099 240.494L722.887 274.392C716.874 275.969 713.279 282.122 714.856 288.135L722.956 319.01C724.533 325.022 730.686 328.618 736.699 327.041L865.911 293.143C871.924 291.565 875.519 285.412 873.942 279.399L865.842 248.525C864.265 242.512 858.111 238.916 852.099 240.494Z" fill="#027DC2"/>
<path d="M702.674 183.633C707.872 184.857 712.318 187.327 715.97 191.043C719.621 194.759 722.199 199.485 723.703 205.22C725.206 210.955 725.271 216.261 723.917 221.33C722.564 226.399 719.901 230.738 715.948 234.368C711.975 237.999 706.97 240.598 700.912 242.209L679.175 247.901L663.945 189.905L685.683 184.213C691.805 182.602 697.454 182.43 702.674 183.654V183.633ZM708.13 222.554C710.342 218.86 710.75 214.328 709.333 208.979C707.936 203.631 705.359 199.872 701.6 197.681C697.841 195.49 693.287 195.082 687.96 196.499L681.258 198.261L690.108 231.963L696.81 230.201C702.158 228.805 705.939 226.249 708.13 222.554Z" fill="white"/>
<path d="M729.78 196.564C730.639 192.526 732.336 189.132 734.914 186.383C737.491 183.633 740.692 181.786 744.472 180.776C747.716 179.917 750.744 179.831 753.537 180.519C756.329 181.206 758.671 182.43 760.561 184.235L758.842 177.705L772.976 173.989L785.069 220.085L770.936 223.801L769.217 217.271C768.401 219.784 766.94 222.018 764.835 223.994C762.73 225.97 760.045 227.367 756.802 228.226C753.064 229.214 749.391 229.128 745.783 227.989C742.174 226.851 739.016 224.703 736.288 221.567C733.56 218.431 731.563 214.5 730.317 209.753C729.071 205.006 728.878 200.624 729.737 196.564H729.78ZM759.809 193.192C757.317 191.667 754.675 191.28 751.861 192.01C749.047 192.741 746.942 194.373 745.503 196.908C744.086 199.443 743.828 202.45 744.751 205.972C745.675 209.495 747.394 212.03 749.885 213.598C752.377 215.144 755.04 215.553 757.854 214.822C760.668 214.092 762.773 212.438 764.191 209.882C765.609 207.326 765.866 204.297 764.943 200.774C764.019 197.252 762.301 194.717 759.809 193.192Z" fill="white"/>
<path d="M817.914 198.712L821.05 210.698L813.854 212.588C808.742 213.941 804.403 213.726 800.88 211.965C797.358 210.204 794.845 206.488 793.362 200.817L788.551 182.473L782.923 183.955L779.852 172.227L785.479 170.745L782.537 159.511L796.67 155.795L799.613 167.029L808.871 164.602L811.943 176.33L802.685 178.757L807.539 197.273C807.904 198.648 808.484 199.55 809.322 199.979C810.138 200.409 811.32 200.43 812.866 200.022L817.914 198.69V198.712Z" fill="white"/>
<path d="M819.421 173.043C820.28 169.005 821.977 165.611 824.554 162.862C827.132 160.112 830.332 158.265 834.113 157.255C837.356 156.396 840.385 156.31 843.177 156.998C845.97 157.685 848.311 158.909 850.201 160.714L848.483 154.184L862.617 150.468L874.71 196.564L860.576 200.28L858.858 193.75C858.042 196.263 856.581 198.497 854.476 200.473C852.371 202.449 849.686 203.846 846.442 204.705C842.705 205.693 839.032 205.607 835.423 204.468C831.815 203.33 828.657 201.182 825.929 198.046C823.201 194.91 821.203 190.979 819.958 186.232C818.712 181.485 818.518 177.103 819.378 173.043H819.421ZM849.45 169.671C846.958 168.146 844.316 167.759 841.502 168.489C838.688 169.22 836.583 170.852 835.144 173.387C833.726 175.922 833.468 178.929 834.392 182.451C835.316 185.974 837.034 188.509 839.526 190.077C842.017 191.623 844.681 192.032 847.495 191.301C850.309 190.571 852.414 188.917 853.831 186.361C855.249 183.805 855.507 180.776 854.583 177.253C853.66 173.731 851.941 171.196 849.45 169.671Z" fill="white"/>
<path d="M780.179 264.419L773.692 266.116L758.549 252.54L762.866 268.951L756.379 270.648L749.398 244.034L755.885 242.337L771.05 255.977L766.733 239.481L773.22 237.784L780.201 264.397L780.179 264.419Z" fill="white"/>
<path d="M788.636 261.111C786.745 260.66 785.113 259.736 783.738 258.34C782.363 256.944 781.375 255.139 780.795 252.948C780.215 250.757 780.194 248.738 780.731 246.826C781.247 244.915 782.235 243.304 783.674 241.972C785.113 240.64 786.874 239.717 788.936 239.18C790.998 238.643 792.996 238.578 794.886 239.029C796.777 239.48 798.43 240.404 799.827 241.8C801.223 243.196 802.211 245.001 802.77 247.17C803.328 249.34 803.349 251.38 802.812 253.292C802.275 255.204 801.287 256.815 799.827 258.146C798.388 259.478 796.626 260.402 794.543 260.96C792.459 261.519 790.483 261.562 788.593 261.111H788.636ZM795.917 253.163C796.54 252.025 796.648 250.607 796.197 248.91C795.746 247.213 794.994 246.032 793.898 245.344C792.803 244.657 791.643 244.485 790.419 244.807C789.194 245.13 788.228 245.86 787.626 246.977C787.025 248.094 786.96 249.511 787.411 251.23C787.862 252.948 788.614 254.108 789.667 254.817C790.719 255.504 791.879 255.698 793.125 255.375C794.371 255.053 795.294 254.323 795.939 253.185L795.917 253.163Z" fill="white"/>
<path d="M819.375 248.266L820.814 253.765L817.507 254.624C815.165 255.247 813.168 255.14 811.557 254.345C809.946 253.55 808.786 251.832 808.098 249.233L805.886 240.812L803.308 241.478L801.891 236.087L804.468 235.421L803.115 230.266L809.602 228.569L810.955 233.724L815.208 232.607L816.626 237.999L812.373 239.116L814.607 247.6C814.779 248.223 815.036 248.653 815.423 248.846C815.81 249.039 816.347 249.061 817.056 248.846L819.375 248.245V248.266Z" fill="white"/>
<path d="M751.987 282.935L753.297 287.896L742.965 290.603L744.361 295.951L752.094 293.911L753.362 298.722L745.629 300.763L748.314 311.03L742.127 312.663L735.469 287.274L751.987 282.935Z" fill="white"/>
<path d="M765.504 305.467C763.7 305.038 762.153 304.157 760.821 302.825C759.511 301.494 758.566 299.775 758.029 297.692C757.492 295.608 757.47 293.675 757.964 291.849C758.458 290.023 759.404 288.498 760.778 287.231C762.153 285.964 763.829 285.083 765.805 284.567C767.781 284.052 769.671 284.009 771.497 284.438C773.323 284.868 774.891 285.749 776.201 287.08C777.533 288.412 778.478 290.131 779.015 292.193C779.552 294.255 779.573 296.209 779.058 298.035C778.542 299.861 777.597 301.408 776.222 302.675C774.848 303.942 773.151 304.823 771.175 305.338C769.199 305.854 767.308 305.897 765.504 305.467ZM772.442 297.885C773.043 296.789 773.129 295.458 772.721 293.825C772.313 292.193 771.561 291.076 770.53 290.41C769.499 289.744 768.382 289.572 767.201 289.894C766.019 290.217 765.117 290.904 764.537 291.956C763.957 293.03 763.893 294.384 764.323 296.016C764.752 297.649 765.461 298.766 766.471 299.431C767.48 300.097 768.576 300.269 769.757 299.968C770.938 299.668 771.841 298.959 772.442 297.885Z" fill="white"/>
<path d="M799.564 276.018L804.848 296.188L798.662 297.82L797.932 295.071C797.545 296.123 796.879 297.068 795.956 297.885C795.032 298.701 793.915 299.281 792.605 299.625C791.058 300.033 789.619 300.054 788.244 299.668C786.891 299.281 785.71 298.529 784.722 297.412C783.734 296.274 783.003 294.835 782.531 293.073L779.438 281.281L785.581 279.67L788.459 290.624C788.824 291.978 789.447 292.923 790.328 293.503C791.23 294.061 792.261 294.19 793.443 293.889C794.624 293.589 795.505 292.944 795.999 292.021C796.493 291.097 796.579 289.959 796.213 288.605L793.335 277.651L799.521 276.018H799.564Z" fill="white"/>
<path d="M822.512 272.216C824.316 273.376 825.584 275.288 826.292 277.973L829.385 289.766L823.242 291.377L820.364 280.422C820.02 279.069 819.376 278.123 818.495 277.543C817.593 276.985 816.562 276.856 815.38 277.157C814.199 277.457 813.361 278.08 812.846 279.026C812.352 279.949 812.266 281.088 812.631 282.441L815.509 293.396L809.323 295.028L804.039 274.858L810.225 273.226L810.934 275.911C811.321 274.858 811.987 273.935 812.91 273.14C813.834 272.345 814.951 271.765 816.283 271.422C818.645 270.799 820.729 271.078 822.533 272.238L822.512 272.216Z" fill="white"/>
<path d="M829.541 273.054C829.906 271.292 830.658 269.789 831.796 268.607C832.934 267.405 834.331 266.588 835.985 266.159C837.316 265.815 838.584 265.772 839.83 266.03C841.075 266.288 842.128 266.825 843.009 267.598L840.56 258.233L846.746 256.6L853.77 283.364L847.584 284.997L846.832 282.097C846.51 283.214 845.887 284.202 844.963 285.061C844.04 285.92 842.88 286.543 841.441 286.908C839.787 287.338 838.154 287.317 836.586 286.801C835.018 286.307 833.622 285.362 832.419 283.987C831.216 282.612 830.357 280.894 829.798 278.81C829.24 276.727 829.175 274.815 829.541 273.032V273.054ZM842.686 271.572C841.591 270.906 840.431 270.734 839.207 271.056C837.982 271.378 837.059 272.087 836.414 273.204C835.791 274.3 835.684 275.631 836.092 277.178C836.5 278.724 837.252 279.841 838.347 280.507C839.443 281.195 840.603 281.367 841.827 281.044C843.051 280.722 843.975 280.013 844.598 278.896C845.221 277.779 845.328 276.448 844.92 274.901C844.512 273.355 843.76 272.259 842.686 271.593V271.572Z" fill="white"/>
</svg>
