<svg width="32" height="32" viewBox="0 0 32 32" fill="none" xmlns="http://www.w3.org/2000/svg">
<circle cx="16" cy="16" r="16" transform="rotate(-180 16 16)" fill="#027DC2"/>
<path d="M15.944 13.4359C15.8792 13.5193 15.8338 13.5912 15.7762 13.6507C13.5395 15.9432 11.301 18.2339 9.06571 20.5273C8.77184 20.8287 8.43341 20.9347 8.04099 20.8024C7.38663 20.5821 7.17422 19.7559 7.62785 19.2264C7.66745 19.1804 7.71156 19.1384 7.75386 19.0951C10.2246 16.5648 12.6952 14.034 15.1664 11.5038C15.7213 10.9356 16.2271 10.9347 16.7784 11.4991C19.2703 14.0516 21.7612 16.6049 24.2562 19.1541C24.5312 19.4352 24.6792 19.7518 24.5924 20.1481C24.4277 20.8959 23.555 21.1775 23.0015 20.6559C22.6541 20.3287 22.3296 19.9757 21.9961 19.6333C20.0407 17.6284 18.0858 15.6234 16.1304 13.6184C16.0831 13.57 16.0336 13.5239 15.944 13.4364L15.944 13.4359Z" fill="white"/>
</svg>
