<svg width="17" height="21" viewBox="0 0 17 21" fill="none" xmlns="http://www.w3.org/2000/svg">
<path d="M8.07693 11.9022C7.80916 11.9022 7.55236 12.0075 7.36302 12.1951C7.17368 12.3826 7.06731 12.637 7.06731 12.9022V15.9022C7.06731 16.1674 7.17368 16.4218 7.36302 16.6093C7.55236 16.7968 7.80916 16.9022 8.07693 16.9022C8.3447 16.9022 8.6015 16.7968 8.79084 16.6093C8.98018 16.4218 9.08654 16.1674 9.08654 15.9022V12.9022C9.08654 12.637 8.98018 12.3826 8.79084 12.1951C8.6015 12.0075 8.3447 11.9022 8.07693 11.9022ZM13.125 7.90219V5.90219C13.125 4.57611 12.5932 3.30434 11.6465 2.36666C10.6998 1.42898 9.41576 0.902191 8.07693 0.902191C6.73809 0.902191 5.4541 1.42898 4.5074 2.36666C3.5607 3.30434 3.02885 4.57611 3.02885 5.90219V7.90219C2.22555 7.90219 1.45515 8.21826 0.887129 8.78087C0.31911 9.34348 0 10.1065 0 10.9022V17.9022C0 18.6978 0.31911 19.4609 0.887129 20.0235C1.45515 20.5861 2.22555 20.9022 3.02885 20.9022H13.125C13.9283 20.9022 14.6987 20.5861 15.2667 20.0235C15.8347 19.4609 16.1539 18.6978 16.1539 17.9022V10.9022C16.1539 10.1065 15.8347 9.34348 15.2667 8.78087C14.6987 8.21826 13.9283 7.90219 13.125 7.90219ZM5.04808 5.90219C5.04808 5.10654 5.36719 4.34348 5.93521 3.78087C6.50323 3.21826 7.27363 2.90219 8.07693 2.90219C8.88023 2.90219 9.65063 3.21826 10.2186 3.78087C10.7867 4.34348 11.1058 5.10654 11.1058 5.90219V7.90219H5.04808V5.90219ZM14.1346 17.9022C14.1346 18.1674 14.0283 18.4218 13.8389 18.6093C13.6496 18.7968 13.3928 18.9022 13.125 18.9022H3.02885C2.76108 18.9022 2.50428 18.7968 2.31494 18.6093C2.1256 18.4218 2.01923 18.1674 2.01923 17.9022V10.9022C2.01923 10.637 2.1256 10.3826 2.31494 10.1951C2.50428 10.0075 2.76108 9.90219 3.02885 9.90219H13.125C13.3928 9.90219 13.6496 10.0075 13.8389 10.1951C14.0283 10.3826 14.1346 10.637 14.1346 10.9022V17.9022Z" fill="#027DC2"/>
</svg>
