<svg width="20" height="21" viewBox="0 0 20 21" fill="none" xmlns="http://www.w3.org/2000/svg">
<path d="M1.9802 19.9998C1.16723 19.9998 0.5 19.3325 0.5 18.5196V17.1524L3.34735 19.9998H1.9802Z" stroke="#71717A"/>
<path d="M13.8174 1.44761L13.8174 1.44761C14.4142 0.850796 15.2857 0.850796 15.8825 1.44761L19.0508 4.61593C19.6477 5.21275 19.6477 6.08428 19.0508 6.6811L18.8528 6.87912C18.652 7.0799 18.3746 7.0799 18.1738 6.87912L13.6193 2.32466C13.4186 2.12389 13.4186 1.84641 13.6193 1.64563C13.6193 1.64563 13.6193 1.64563 13.6193 1.64563L13.8174 1.44761Z" stroke="#71717A"/>
<path d="M15.9766 9.06386L15.9765 9.06394L15.9842 9.07163C16.185 9.2724 16.185 9.54988 15.9842 9.75066L6.97429 18.7606C6.77351 18.9613 6.49603 18.9613 6.29526 18.7606L1.7408 14.2061C1.63515 14.1004 1.59683 13.9873 1.60203 13.878C1.60742 13.7648 1.66289 13.605 1.83981 13.4281L10.8497 4.41816C11.0494 4.21848 11.3249 4.21739 11.5255 4.4149L15.9766 9.06386Z" stroke="#71717A"/>
</svg>
