<svg width="32" height="32" viewBox="0 0 32 32" fill="none" xmlns="http://www.w3.org/2000/svg">
<path d="M16 0C14.0853 0 12.2133 0.334667 10.4347 0.994667L10.8987 2.24467C12.528 1.64 14.2447 1.33333 16 1.33333C24.0873 1.33333 30.6667 7.91267 30.6667 16C30.6667 24.0873 24.0873 30.6667 16 30.6667C7.91267 30.6667 1.33333 24.0873 1.33333 16C1.33333 11.6033 3.30867 7.47 6.66667 4.69467V9.33333H8V2.66667H1.33333V4H5.41733C1.99533 7.02 0 11.3787 0 16C0 24.822 7.178 32 16 32C24.822 32 32 24.822 32 16C32 7.178 24.822 0 16 0Z" fill="white"/>
<path d="M11.9993 21.3335H10.666V22.6668H21.3327V21.3335H19.9993V19.0575L16.942 16.0002L19.9993 12.9428V10.6668H21.3327V9.3335H10.666V10.6668H11.9993V12.9428L15.0567 16.0002L11.9993 19.0575V21.3335ZM13.3327 12.3908V10.6668H18.666V12.3908L15.9993 15.0575L13.3327 12.3908ZM15.9993 16.9428L18.666 19.6095V21.3335H13.3327V19.6095L15.9993 16.9428Z" fill="white"/>
<path d="M13.3333 25.3335H12V26.6668H13.3333V25.3335Z" fill="white"/>
<path d="M16.6673 25.3335H15.334V26.6668H16.6673V25.3335Z" fill="white"/>
<path d="M19.9993 25.3335H18.666V26.6668H19.9993V25.3335Z" fill="white"/>
</svg>
