<svg width="32" height="33" viewBox="0 0 32 33" fill="none" xmlns="http://www.w3.org/2000/svg">
<path d="M16 0.208496C14.0853 0.208496 12.2133 0.543163 10.4347 1.20316L10.8987 2.45316C12.528 1.8485 14.2447 1.54183 16 1.54183C24.0873 1.54183 30.6667 8.12116 30.6667 16.2085C30.6667 24.2958 24.0873 30.8752 16 30.8752C7.91267 30.8752 1.33333 24.2958 1.33333 16.2085C1.33333 11.8118 3.30867 7.6785 6.66667 4.90316V9.54183H8V2.87516H1.33333V4.2085H5.41733C1.99533 7.2285 0 11.5872 0 16.2085C0 25.0305 7.178 32.2085 16 32.2085C24.822 32.2085 32 25.0305 32 16.2085C32 7.3865 24.822 0.208496 16 0.208496Z" fill="#3A3A3A"/>
<path d="M11.9993 21.542H10.666V22.8753H21.3327V21.542H19.9993V19.266L16.942 16.2087L19.9993 13.1513V10.8753H21.3327V9.54199H10.666V10.8753H11.9993V13.1513L15.0567 16.2087L11.9993 19.266V21.542ZM13.3327 12.5993V10.8753H18.666V12.5993L15.9993 15.266L13.3327 12.5993ZM15.9993 17.1513L18.666 19.818V21.542H13.3327V19.818L15.9993 17.1513Z" fill="#027DC2"/>
<path d="M13.3333 25.542H12V26.8753H13.3333V25.542Z" fill="#3A3A3A"/>
<path d="M16.6673 25.542H15.334V26.8753H16.6673V25.542Z" fill="#3A3A3A"/>
<path d="M19.9993 25.542H18.666V26.8753H19.9993V25.542Z" fill="#3A3A3A"/>
</svg>
