<svg width="18" height="18" viewBox="0 0 18 18" fill="none" xmlns="http://www.w3.org/2000/svg">
<path d="M3.79636 13.0182C3.63963 13.1418 3.51666 13.2401 3.39207 13.3361C3.21324 13.4739 3.04927 13.4735 2.93152 13.3373C2.81257 13.2 2.83869 13.034 3.01029 12.8943C3.3756 12.5969 3.74372 12.3033 4.11867 12.002C4.50889 12.2994 4.8967 12.5894 5.27808 12.888C5.432 13.0084 5.44767 13.1693 5.33997 13.3031C5.2395 13.4282 5.06187 13.4459 4.90916 13.3369C4.75363 13.2264 4.60413 13.1076 4.45222 12.9923C4.43173 12.999 4.41163 13.0056 4.39114 13.0123C4.42731 13.2645 4.4478 13.5203 4.50125 13.7689C4.92161 15.722 6.62798 17.2053 8.66308 17.3942C10.8308 17.5953 12.792 16.4062 13.578 14.4142C13.5997 14.3595 13.6186 14.3025 13.6484 14.2521C13.7283 14.1179 13.869 14.0731 13.9928 14.1368C14.0804 14.1817 14.1382 14.3036 14.1804 14.4028C14.2013 14.4516 14.1656 14.5303 14.1411 14.5897C13.3502 16.505 11.9183 17.6704 9.82852 17.9509C6.96355 18.3357 4.36622 16.4287 3.87232 13.6478C3.83816 13.4561 3.8253 13.261 3.79676 13.0182H3.79636Z" fill="#667085"/>
<path d="M14.4787 12.5569C14.6636 12.4086 14.8095 12.285 14.9626 12.1705C15.1141 12.0572 15.2873 12.0734 15.393 12.1997C15.5019 12.3303 15.4874 12.4896 15.3359 12.6155C14.9686 12.9205 14.5953 13.2183 14.2062 13.5335C13.8036 13.2254 13.3997 12.926 13.0082 12.6116C12.8768 12.5062 12.8764 12.3539 12.9881 12.2252C13.0987 12.0982 13.2405 12.0789 13.3824 12.1761C13.5343 12.2803 13.679 12.3944 13.8783 12.4845C13.8445 12.2575 13.8253 12.0273 13.775 11.8038C13.3273 9.8059 11.662 8.36076 9.58466 8.16128C7.47842 7.95904 5.49798 9.14805 4.72517 11.0779C4.69583 11.1507 4.67976 11.2499 4.6235 11.2865C4.52825 11.3482 4.40327 11.4061 4.29556 11.3982C4.15652 11.388 4.08498 11.2652 4.09824 11.1236C4.10548 11.0468 4.12838 10.9689 4.15933 10.8977C5.00608 8.95408 6.48579 7.80875 8.64306 7.58999C11.4478 7.30591 13.9908 9.25547 14.4104 11.9683C14.4381 12.1477 14.4526 12.3291 14.4783 12.5565L14.4787 12.5569Z" fill="#667085"/>
<path d="M16.5876 2.54169C16.6511 2.57828 16.7146 2.61291 16.7765 2.64989C17.5385 3.10787 17.9649 3.76454 17.999 4.64823C18.0091 4.90476 17.903 5.01453 17.6446 5.01493C16.2581 5.01729 14.8716 5.01729 13.4852 5.01493C13.2376 5.01453 13.1291 4.90358 13.1371 4.66161C13.1661 3.78657 13.578 3.12872 14.3311 2.66799C14.3986 2.62668 14.469 2.59009 14.5618 2.53776C14.1704 2.1388 13.9992 1.67571 14.1181 1.13707C14.1941 0.792016 14.3846 0.510305 14.6731 0.296267C15.2598 -0.139283 16.0761 -0.0897085 16.6029 0.412729C17.1929 0.974971 17.1905 1.71623 16.588 2.5413L16.5876 2.54169ZM13.7737 4.42318H17.3512C17.3986 3.71654 16.5221 2.95915 15.6215 2.91311C14.7318 2.86786 13.7954 3.62368 13.7737 4.42318ZM15.5617 2.32726C16.0576 2.33041 16.4586 1.94522 16.4631 1.46167C16.4675 0.985987 16.0584 0.579552 15.5733 0.577978C15.0858 0.576404 14.6763 0.971823 14.6699 1.44987C14.6635 1.92634 15.0681 2.32451 15.5617 2.32726Z" fill="#667085"/>
<path d="M3.44862 2.54227C3.50689 2.57493 3.56396 2.60522 3.61982 2.63827C4.39263 3.0931 4.82424 3.75213 4.86282 4.64212C4.87448 4.90534 4.76637 5.01511 4.49551 5.0155C3.1239 5.01747 1.7523 5.01708 0.380697 5.0155C0.0937569 5.0155 -0.0111328 4.91203 0.000923457 4.63504C0.0391017 3.76079 0.461474 3.11002 1.21539 2.65558C1.27728 2.61821 1.34078 2.58398 1.42557 2.53558C1.03736 2.14843 0.875004 1.69438 0.975071 1.17031C1.04259 0.816593 1.23227 0.527407 1.52403 0.3055C2.10997 -0.14028 2.93261 -0.0934593 3.46791 0.41488C4.06349 0.980663 4.05987 1.73412 3.44822 2.54227H3.44862ZM4.24956 4.42415C4.14105 3.85128 3.84447 3.42714 3.34654 3.15605C2.67943 2.79251 2.0103 2.82438 1.37695 3.24301C0.956987 3.52078 0.705412 3.91227 0.615794 4.42415H4.24956ZM2.43589 2.32666C2.93141 2.3243 3.33208 1.93203 3.32966 1.45162C3.32725 0.976728 2.91372 0.575801 2.42785 0.576982C1.94199 0.578162 1.53167 0.98381 1.53609 1.4591C1.54051 1.94304 1.94078 2.32902 2.43589 2.32666Z" fill="#667085"/>
<path d="M10.0717 2.49719C10.3655 2.75293 10.6741 2.97602 10.9237 3.25026C11.2616 3.62168 11.4256 4.08083 11.4469 4.5817C11.4614 4.92479 11.3689 5.01607 11.0205 5.01646C9.86875 5.01685 8.71657 5.01646 7.56479 5.01646C7.35702 5.01646 7.14965 5.01961 6.94188 5.01567C6.68468 5.01095 6.57457 4.90157 6.58461 4.65016C6.61998 3.77591 7.03471 3.11963 7.78944 2.66205C7.85173 2.62428 7.91522 2.58847 7.97752 2.55109C7.98274 2.54795 7.98475 2.54047 7.98837 2.53457C7.37269 1.6497 7.40002 0.888763 8.06713 0.337538C8.63539 -0.131456 9.47973 -0.103521 10.0319 0.392228C10.4953 0.808499 10.7951 1.7158 10.0717 2.49719ZM10.8349 4.42314C10.7272 3.85578 10.4338 3.43636 9.9455 3.16448C9.29728 2.8033 8.63941 2.81864 8.00886 3.21288C7.56278 3.49144 7.29392 3.89316 7.19988 4.42314H10.8345H10.8349ZM9.01114 2.32683C9.50826 2.32958 9.90813 1.94439 9.91014 1.46045C9.91175 0.97965 9.51108 0.581871 9.02119 0.577543C8.53813 0.573609 8.12139 0.976503 8.11857 1.45022C8.11576 1.92865 8.51804 2.32368 9.01154 2.32643L9.01114 2.32683Z" fill="#667085"/>
<path d="M10.1518 12.4806C10.4455 12.7363 10.7542 12.9594 11.0037 13.2337C11.3417 13.6051 11.5057 14.0642 11.527 14.5651C11.5415 14.9082 11.449 14.9995 11.1006 14.9999C9.94882 15.0003 8.79664 14.9999 7.64487 14.9999C7.4371 14.9999 7.22973 15.003 7.02196 14.9991C6.76476 14.9944 6.65464 14.885 6.66469 14.6336C6.70006 13.7593 7.11479 13.103 7.86952 12.6454C7.93181 12.6077 7.9953 12.5719 8.05759 12.5345C8.06282 12.5313 8.06483 12.5239 8.06844 12.518C7.45277 11.6331 7.4801 10.8722 8.14721 10.3209C8.71547 9.85194 9.55981 9.87988 10.112 10.3756C10.5753 10.7919 10.8751 11.6992 10.1518 12.4806ZM10.9149 14.4065C10.8072 13.8392 10.5139 13.4198 10.0256 13.1479C9.37736 12.7867 8.71948 12.802 8.08894 13.1963C7.64286 13.4748 7.374 13.8766 7.27996 14.4065H10.9145H10.9149ZM9.09122 12.3102C9.58834 12.313 9.98821 11.9278 9.99022 11.4438C9.99182 10.963 9.59115 10.5653 9.10127 10.5609C8.61821 10.557 8.20147 10.9599 8.19865 11.4336C8.19584 11.9121 8.59812 12.3071 9.09162 12.3098L9.09122 12.3102Z" fill="#667085"/>
<path d="M3.52873 6.16018C3.6935 6.15821 3.8422 6.29474 3.84581 6.45172C3.84903 6.60281 3.71159 6.74367 3.55646 6.74839C3.39732 6.75311 3.25063 6.61186 3.24621 6.45015C3.24179 6.28293 3.35954 6.16214 3.52873 6.16018Z" fill="#667085"/>
<path d="M14.8744 6.44257C14.8744 6.6035 14.7313 6.74789 14.5722 6.74789C14.4179 6.74789 14.2752 6.6094 14.2744 6.4591C14.2736 6.30329 14.4199 6.16126 14.5839 6.15968C14.7526 6.15811 14.8748 6.27693 14.8748 6.44257H14.8744Z" fill="#667085"/>
<path d="M13.7211 7.58126C13.5523 7.58559 13.4265 7.47031 13.4229 7.30781C13.4193 7.1402 13.5487 7.00525 13.7175 7.00013C13.8823 6.99541 14.0129 7.11542 14.0169 7.27594C14.0213 7.44237 13.8911 7.57693 13.7211 7.58126Z" fill="#667085"/>
<path d="M4.40573 7.58203C4.23654 7.58046 4.10232 7.44708 4.10352 7.28183C4.10473 7.12091 4.23253 6.99854 4.3973 7.00051C4.56729 7.00209 4.6987 7.13389 4.6975 7.3019C4.69629 7.46636 4.57412 7.58361 4.40573 7.58203Z" fill="#667085"/>
<path d="M9.1012 5.43851C9.26115 5.43615 9.39256 5.56363 9.39578 5.72376C9.39859 5.88822 9.28044 6.01531 9.11728 6.02318C8.94849 6.03105 8.80582 5.89688 8.80863 5.73242C8.81105 5.57779 8.94768 5.44087 9.1012 5.43851Z" fill="#667085"/>
<path d="M9.09497 6.44885C9.26255 6.44452 9.38914 6.56019 9.39437 6.72072C9.39959 6.88755 9.26657 7.02565 9.101 7.02525C8.94386 7.02525 8.80883 6.89305 8.80763 6.73843C8.80642 6.58262 8.93502 6.45278 9.09497 6.44885Z" fill="#667085"/>
<path d="M2.97622 5.60806C2.98024 5.77763 2.8653 5.89488 2.6933 5.89606C2.5229 5.89764 2.40073 5.78157 2.39752 5.61593C2.3943 5.45894 2.52692 5.32084 2.68245 5.31887C2.83757 5.3169 2.9722 5.4495 2.97622 5.60806Z" fill="#667085"/>
<path d="M15.442 5.89582C15.2695 5.90015 15.1474 5.78684 15.1446 5.62041C15.1422 5.4583 15.2651 5.33043 15.4287 5.32532C15.5846 5.3206 15.7289 5.45319 15.7337 5.60585C15.7385 5.75811 15.6043 5.89149 15.442 5.89543V5.89582Z" fill="#667085"/>
<path d="M13.161 8.13156C13.161 8.28501 13.026 8.41327 12.8624 8.41445C12.6908 8.41563 12.5715 8.29956 12.5723 8.13235C12.5731 7.97064 12.6993 7.84591 12.8636 7.84473C13.0208 7.84355 13.161 7.9789 13.1614 8.13156H13.161Z" fill="#667085"/>
<path d="M5.26777 7.83845C5.42531 7.84396 5.55109 7.97852 5.54868 8.13826C5.54587 8.30587 5.42611 8.418 5.2533 8.41407C5.08532 8.41053 4.96717 8.28816 4.97078 8.12213C4.9744 7.96514 5.11265 7.83255 5.26817 7.83806L5.26777 7.83845Z" fill="#667085"/>
</svg>
