<svg width="14" height="18" viewBox="0 0 14 18" fill="none" xmlns="http://www.w3.org/2000/svg">
<path d="M3.64596 0.0953438L2.8391 0.338413C2.12067 0.555069 1.47909 0.972447 0.989855 1.54142C0.500624 2.1104 0.184111 2.80729 0.0775687 3.55007C-0.256651 5.87723 0.490561 8.59826 2.2922 11.7188C4.08933 14.8314 6.06764 16.8367 8.24514 17.7145C8.94478 17.9964 9.71067 18.0716 10.4518 17.9309C11.1929 17.7903 11.878 17.4398 12.4257 16.9211L13.0356 16.3427C13.4317 15.9679 13.6782 15.462 13.7293 14.9191C13.7804 14.3762 13.6327 13.8332 13.3136 13.391L11.7876 11.2754C11.5813 10.9898 11.2908 10.7759 10.9568 10.6637C10.6229 10.5515 10.2621 10.5466 9.92524 10.6497L7.61721 11.3553L7.55757 11.3665C7.30324 11.4037 6.71583 10.8534 5.98437 9.58629C5.21915 8.26066 5.06161 7.48531 5.27204 7.28501L6.44575 6.19007C6.87496 5.78998 7.16815 5.26556 7.2842 4.69038C7.40024 4.1152 7.33332 3.51813 7.09281 2.98291L6.34785 1.32757C6.12384 0.829438 5.72633 0.429764 5.22942 0.203051C4.73252 -0.0236624 4.169 -0.0619435 3.64596 0.0953438ZM5.32268 1.78895L6.06539 3.44429C6.21004 3.76527 6.25048 4.1235 6.18105 4.46865C6.11162 4.81379 5.93579 5.12851 5.67828 5.36859L4.5012 6.46465C3.74836 7.1781 3.99818 8.3957 5.01097 10.1489C5.96299 11.7987 6.83173 12.6134 7.76575 12.4716L7.90529 12.4423L10.255 11.7255C10.3673 11.691 10.4876 11.6925 10.599 11.7299C10.7104 11.7672 10.8073 11.8385 10.8761 11.9337L12.4021 14.0493C12.5618 14.2704 12.6359 14.542 12.6104 14.8135C12.585 15.0851 12.4617 15.3382 12.2636 15.5257L11.6526 16.1041C11.2614 16.4744 10.7721 16.7246 10.2429 16.8249C9.71364 16.9252 9.16673 16.8715 8.66713 16.6702C6.75634 15.9005 4.9502 14.0696 3.26785 11.1561C1.581 8.2359 0.897927 5.75232 1.19163 3.70987C1.26766 3.1792 1.49373 2.68131 1.84322 2.2748C2.1927 1.8683 2.65106 1.57011 3.16432 1.41534L3.97117 1.17227C4.23276 1.09367 4.51401 1.11289 4.76247 1.22636C5.01094 1.33982 5.20965 1.53978 5.32156 1.78895H5.32268Z" fill="#667085"/>
</svg>
