<svg width="24" height="24" viewBox="0 0 24 24" fill="none" xmlns="http://www.w3.org/2000/svg">
<path d="M12.0053 24C8.80097 24 5.78944 22.752 3.52415 20.4849C-0.178788 16.7811 -1.05783 11.1643 1.33597 6.51C1.55274 6.08914 2.06851 5.92371 2.49004 6.13971C2.91071 6.35571 3.07692 6.87257 2.86016 7.29429C0.808206 11.2843 1.5613 16.098 4.73562 19.2729C6.67705 21.216 9.25849 22.2857 12.0053 22.2857C14.7512 22.2857 17.3335 21.216 19.2749 19.2729C21.2164 17.3297 22.2865 14.7471 22.2865 12C22.2865 9.252 21.2172 6.66943 19.2749 4.72714C17.3326 2.78486 14.7521 1.71429 12.0053 1.71429C9.25849 1.71429 6.67705 2.78486 4.73562 4.72714C4.40062 5.06229 3.85915 5.06229 3.52415 4.72714C3.18916 4.392 3.18916 3.85029 3.52415 3.51514C5.78944 1.24886 8.80097 0 12.0053 0C15.2096 0 18.222 1.24886 20.4864 3.51514C22.7525 5.78143 24 8.79429 24 12C24 15.2049 22.7525 18.2186 20.4864 20.4849C18.222 22.752 15.2096 24 12.0053 24Z" fill="white"/>
<path d="M12.0056 17.1426C11.5324 17.1426 11.1484 16.7595 11.1484 16.2855V7.71408C11.1484 7.24093 11.5324 6.85693 12.0056 6.85693C12.4787 6.85693 12.8627 7.24093 12.8627 7.71408V16.2855C12.8627 16.7595 12.4787 17.1426 12.0056 17.1426Z" fill="white"/>
<path d="M16.2877 12.8574H7.72005C7.24711 12.8574 6.86328 12.4734 6.86328 12.0002C6.86328 11.5271 7.24711 11.1431 7.72005 11.1431H16.2877C16.7615 11.1431 17.1445 11.5271 17.1445 12.0002C17.1445 12.4734 16.7615 12.8574 16.2877 12.8574Z" fill="white"/>
</svg>
