<svg width="12" height="13" viewBox="0 0 12 13" fill="none" xmlns="http://www.w3.org/2000/svg">
<path d="M5.54076 6.96371H0.459019C0.205647 6.96371 0 6.7581 0 6.50477C0 6.25058 0.205647 6.0454 0.459019 6.0454H5.52645V0.958502C5.52645 0.70561 5.73209 0.5 5.98547 0.5H5.98764C6.24101 0.5 6.44665 0.70561 6.44665 0.958936V6.03109H11.541C11.7944 6.03109 12 6.2367 12 6.49002V6.5C12 6.75333 11.7944 6.95893 11.541 6.95893H6.4588V12.0411C6.4588 12.2944 6.25315 12.5 5.99978 12.5C5.74641 12.5 5.54076 12.2944 5.54076 12.0411V6.96414V6.96371Z" fill="white"/>
</svg>
