<svg width="32" height="22" viewBox="0 0 32 22" fill="none" xmlns="http://www.w3.org/2000/svg">
<path d="M0 7.89471C0.0471875 7.59753 0.080625 7.29721 0.144063 7.00346C0.475 5.46471 1.2825 4.20159 2.42125 3.14002C3.78031 1.87284 5.39437 1.07752 7.18125 0.615962C8.55344 0.261587 9.94906 0.142212 11.3612 0.242837C13.3013 0.381275 15.1237 0.903775 16.7884 1.93221C16.8441 1.96659 16.94 1.98096 16.9991 1.95815C18.7797 1.26315 20.6259 1.01409 22.5269 1.14127C24.4853 1.27221 26.3212 1.80784 28.0016 2.83471C29.3731 3.67315 30.4931 4.76096 31.2447 6.19877C31.6491 6.97221 31.8981 7.79409 31.9728 8.66627C31.9766 8.7119 31.9909 8.75659 32 8.80159V9.64534C31.9541 9.94753 31.9231 10.2525 31.8597 10.551C31.5466 12.0281 30.7919 13.2588 29.7234 14.3063C28.7553 15.2556 27.6213 15.9513 26.3659 16.4522C26.2247 16.5085 26.1731 16.5722 26.1741 16.73C26.1819 18.0003 26.1781 19.271 26.1787 20.5416C26.1787 20.8016 26.1184 21.0181 25.8553 21.146C25.6066 21.2669 25.41 21.1869 25.2281 21.0266C24.6972 20.5581 24.17 20.0853 23.6419 19.6138C22.8337 18.8928 22.0272 18.1703 21.2159 17.4528C21.1591 17.4025 21.0731 17.3647 20.9978 17.3597C19.5825 17.26 18.2013 16.9956 16.8872 16.4525C16.3172 16.2169 15.7734 15.9169 15.2222 15.6381C15.1344 15.5938 15.0669 15.5835 14.9762 15.6188C13.6956 16.1185 12.3675 16.3935 10.9953 16.4641C10.9213 16.4678 10.8369 16.5113 10.78 16.5619C9.45656 17.7375 8.13406 18.9141 6.81812 20.0981C6.615 20.281 6.39594 20.3428 6.16094 20.2385C5.92437 20.1332 5.82063 19.9172 5.82094 19.6531C5.8225 18.3669 5.81938 17.081 5.82469 15.7947C5.82531 15.6685 5.78375 15.6175 5.66937 15.5716C4.08219 14.9356 2.69406 14.0153 1.60938 12.6769C0.709375 11.5663 0.148125 10.311 0.025 8.87502C0.021875 8.8394 0.0084375 8.80502 0 8.77002C0 8.47815 0 8.18659 0 7.89471ZM25.0903 19.4744C25.0903 19.3797 25.0903 19.3244 25.0903 19.2691C25.0903 18.2691 25.0897 17.2691 25.0906 16.2691C25.0906 15.976 25.2103 15.8044 25.4828 15.6963C25.5553 15.6675 25.6291 15.6419 25.7016 15.6138C27.2872 15.001 28.6731 14.1019 29.6856 12.7135C31.0544 10.8363 31.2425 8.83034 30.2009 6.74565C29.5737 5.49065 28.5769 4.56627 27.3937 3.83909C25.8647 2.89909 24.1906 2.4119 22.4062 2.29315C20.3244 2.1544 18.3294 2.49221 16.4519 3.42596C15.2453 4.02596 14.1934 4.82627 13.4134 5.93752C12.2031 7.6619 11.92 9.51565 12.7575 11.48C13.345 12.8578 14.3653 13.8725 15.6116 14.6656C17.3131 15.7488 19.1922 16.2575 21.1966 16.3303C21.4453 16.3394 21.6459 16.4178 21.83 16.5825C22.6797 17.3431 23.5347 18.0981 24.3878 18.8547C24.6119 19.0531 24.8366 19.251 25.0903 19.4747V19.4744ZM6.84625 18.5078C6.905 18.4606 6.93406 18.4394 6.96094 18.4153C7.99344 17.4997 9.02875 16.5872 10.0556 15.6653C10.2738 15.4694 10.5081 15.3703 10.8013 15.3706C11.5431 15.3722 12.2769 15.286 12.9975 15.1097C13.3331 15.0275 13.6628 14.9206 14.0241 14.8169C13.9534 14.7541 13.9159 14.7197 13.8775 14.6869C13.3556 14.2425 12.8825 13.751 12.4975 13.1835C10.9709 10.9325 10.7472 8.57284 11.9866 6.13096C12.7566 4.61377 13.9816 3.52284 15.4394 2.67846C15.4909 2.64877 15.5416 2.61752 15.6097 2.57721C15.5025 2.52065 15.4222 2.47284 15.3375 2.4344C15.0484 2.30409 14.7625 2.16502 14.4672 2.05065C12.7606 1.39002 10.9919 1.19096 9.17625 1.3544C7.63906 1.49284 6.18188 1.90471 4.82875 2.65409C3.66813 3.2969 2.67594 4.13284 1.955 5.26065C1.19187 6.4544 0.875 7.75284 1.0925 9.16377C1.30094 10.5163 1.96 11.6347 2.91656 12.5894C3.91156 13.5822 5.10406 14.2544 6.41969 14.7235C6.76687 14.8472 6.84656 14.965 6.84688 15.3366C6.84719 16.326 6.84688 17.3157 6.84688 18.305C6.84688 18.3607 6.84688 18.4163 6.84688 18.5078H6.84625Z" fill="black"/>
<path d="M22.2748 9.36765C22.2748 9.77203 22.2757 10.1723 22.2742 10.5723C22.2738 10.6552 22.2723 10.7395 22.2563 10.8205C22.1985 11.117 21.9485 11.3002 21.6423 11.277C21.3554 11.2552 21.1273 11.0239 21.1245 10.7302C21.1188 10.0952 21.1179 9.46015 21.1245 8.82515C21.1279 8.49984 21.3748 8.2864 21.7373 8.27171C22.4395 8.24359 23.0304 7.75484 23.191 7.06984C23.3807 6.26015 22.831 5.40671 22.012 5.2389C21.172 5.06671 20.3279 5.63422 20.1876 6.46765C20.172 6.55984 20.1635 6.65328 20.1585 6.74671C20.1401 7.08015 19.8973 7.31703 19.5751 7.31265C19.2485 7.30828 18.9963 7.05515 19.0082 6.71453C19.0426 5.74859 19.4663 4.99265 20.2923 4.49109C21.6207 3.6839 23.3145 4.22265 24.0595 5.65328C24.9638 7.38984 23.752 8.97203 22.4351 9.32453C22.3854 9.33796 22.3357 9.35171 22.2745 9.36828L22.2748 9.36765Z" fill="#027DC2"/>
<path d="M21.0598 13.0153C21.0598 12.9219 21.057 12.8281 21.0604 12.7347C21.0691 12.4869 21.2226 12.2825 21.452 12.2084C21.6773 12.1359 21.881 12.2031 22.0432 12.4075C22.1529 12.5456 22.2173 12.7 22.2116 12.8809C22.2076 13.0106 22.2157 13.1409 22.2088 13.2703C22.1901 13.6147 21.9448 13.8466 21.6138 13.8391C21.2951 13.8319 21.0648 13.5872 21.0591 13.2491C21.0579 13.1713 21.0591 13.0931 21.0591 13.0153H21.0598Z" fill="#027DC2"/>
<path d="M6.32734 10.4536C6.73827 10.4536 7.14952 10.4523 7.56046 10.4539C7.90827 10.4555 8.18952 10.7164 8.1889 11.0333C8.18827 11.3617 7.93671 11.603 7.57765 11.6045C6.75046 11.6083 5.92296 11.6076 5.09546 11.6045C4.73265 11.6033 4.47359 11.3526 4.47859 11.0198C4.48327 10.6905 4.73671 10.4555 5.09421 10.4536C5.50515 10.4517 5.9164 10.4533 6.32734 10.453V10.4536Z" fill="black"/>
<path d="M6.32111 9.04546C5.89955 9.04546 5.4783 9.05077 5.05674 9.04358C4.74205 9.03827 4.51361 8.82077 4.48143 8.51546C4.4533 8.24764 4.63174 7.98921 4.90049 7.91452C4.95455 7.89952 5.01299 7.89389 5.06955 7.89358C5.90705 7.89233 6.74486 7.88983 7.58236 7.89358C7.99205 7.89546 8.30393 8.37139 8.12955 8.72108C8.0183 8.94452 7.82799 9.04327 7.58455 9.04452C7.1633 9.04671 6.74174 9.04514 6.32018 9.04514L6.32111 9.04546Z" fill="black"/>
<path d="M6.3436 5.39465C6.74954 5.39465 7.15517 5.39309 7.5611 5.39497C7.88079 5.39653 8.19204 5.70372 8.18798 6.01028C8.18392 6.31184 7.91985 6.54715 7.5761 6.54809C6.74892 6.54997 5.92173 6.54997 5.09423 6.54809C4.73517 6.54747 4.47298 6.29528 4.4786 5.96309C4.48423 5.63497 4.7411 5.39653 5.09485 5.39528C5.5111 5.3934 5.92735 5.39497 6.3436 5.39497V5.39465Z" fill="black"/>
</svg>
