<svg width="265" height="240" viewBox="0 0 265 240" fill="none" xmlns="http://www.w3.org/2000/svg">
<path d="M260.219 173.757C255.82 163.751 247.371 155.401 237.223 151.293C226.654 147.012 214.516 148.569 203.383 147.137C193.713 145.892 186.737 141.575 180.963 133.9C175.431 126.547 170.47 118.403 161.426 115.001C154.279 112.312 146.153 113.059 139.049 115.859C125.961 121.02 116.074 131.993 107.748 142.926C100.146 152.908 93.9458 163.837 79.8847 164.193C65.8145 164.549 52.4196 156.523 38.2545 158.65C19.5319 161.461 3.93763 177.048 0.670582 195.602C-2.39205 212.993 5.29191 229.861 18.4934 239.77H245.402C262.037 222.122 270.765 197.745 260.219 173.757Z" fill="#F7F0E3"/>
<path d="M55.0997 239.768H55.7239C60.0587 235.003 63.4554 229.222 65.6127 222.805C69.1061 212.418 68.9601 201.516 65.1984 192.109C63.2984 187.355 60.5534 182.925 57.8977 178.639C55.2056 174.294 52.4222 169.8 50.5332 164.985C49.752 162.994 49.1752 160.857 48.8284 158.676C48.6715 158.656 48.5145 158.639 48.3594 158.619C48.708 160.879 49.3012 163.093 50.1097 165.151C52.0134 170.005 54.8095 174.516 57.5126 178.879C60.1573 183.146 62.8914 187.561 64.7768 192.277C68.4983 201.584 68.6425 212.374 65.182 222.659C62.9973 229.157 59.5294 234.992 55.1016 239.768H55.0997Z" fill="white"/>
<path d="M244.306 219.98C248.982 220.976 253.487 221.869 257.843 222.431C257.918 222.287 257.991 222.143 258.064 221.998C253.671 221.44 249.123 220.54 244.401 219.533C237.21 218.001 229.427 216.342 221.707 216.342C216.927 216.342 212.172 216.977 207.598 218.673C205.866 219.315 204.196 220.129 202.605 221.1C198.474 219.341 194.322 217.419 190.21 215.309C193.194 213.061 196.211 210.859 199.259 208.731C221.888 192.931 242.771 183.973 262.947 181.43C262.907 181.283 262.865 181.135 262.823 180.987C242.592 183.549 221.665 192.531 199 208.357C195.886 210.531 192.807 212.781 189.761 215.077C185.136 212.688 180.566 210.062 176.142 207.163C168.118 201.907 158.576 194.404 150.242 184.433C182.539 180.81 215.419 176.245 242.271 158.298C243.291 157.617 244.421 156.813 245.591 155.902C245.462 155.81 245.33 155.719 245.201 155.628C244.08 156.497 242.998 157.263 242.019 157.919C215.175 175.86 182.232 180.39 149.896 184.013C144.006 176.889 138.744 168.523 135.088 158.837C129.392 143.748 129.693 128.942 135.913 118.212C136.183 117.747 136.468 117.287 136.762 116.834C136.503 116.953 136.245 117.077 135.988 117.201C135.827 117.46 135.67 117.721 135.519 117.984C129.229 128.833 128.917 143.781 134.661 158.997C138.299 168.63 143.513 176.964 149.354 184.073C147.481 184.283 145.608 184.489 143.743 184.696C137.01 185.438 130.045 186.207 123.285 187.077C120.817 187.395 118.307 187.766 115.809 188.231C110.456 176.931 104.575 165.909 96.9731 156.455C96.8636 156.562 96.754 156.668 96.6445 156.776C104.181 166.157 110.025 177.099 115.347 188.319C104.454 190.396 93.8776 194.302 88.2305 203.391C82.9558 211.88 82.9612 223.614 88.2451 238.266C88.4276 238.774 88.6156 239.272 88.8073 239.768H89.2964C89.0865 239.226 88.8784 238.677 88.6758 238.111C83.4413 223.595 83.423 211.995 88.6193 203.63C94.1988 194.648 104.719 190.795 115.551 188.744C117.442 192.741 119.268 196.773 121.082 200.779L121.279 201.215C127.581 215.127 134.099 228.551 142.632 239.77H143.201C134.59 228.531 128.036 215.026 121.693 201.027L121.496 200.591C119.696 196.619 117.886 192.622 116.013 188.658C118.463 188.205 120.925 187.842 123.345 187.532C130.102 186.661 137.063 185.893 143.796 185.15C145.762 184.933 147.733 184.716 149.704 184.495C158.118 194.621 167.782 202.228 175.897 207.545C180.272 210.412 184.791 213.013 189.363 215.382C181.601 221.254 174.052 227.43 166.68 233.461C164.127 235.549 161.546 237.658 158.943 239.768H159.666C162.121 237.777 164.557 235.786 166.968 233.815C174.391 227.742 181.995 221.52 189.812 215.616C193.902 217.72 198.031 219.639 202.139 221.396C196.52 224.97 191.938 230.506 189.17 237.226C188.823 238.067 188.52 238.918 188.241 239.77H188.721C188.985 238.976 189.268 238.184 189.591 237.399C192.367 230.661 196.987 225.13 202.65 221.613C214.134 226.492 225.419 230.113 235.118 232.982L235.483 233.09C239.57 234.298 243.75 235.538 247.447 237.525C247.551 237.407 247.655 237.29 247.758 237.171C244 235.132 239.76 233.877 235.613 232.652L235.248 232.544C225.649 229.704 214.492 226.127 203.132 221.321C204.612 220.44 206.162 219.697 207.764 219.102C219.603 214.714 232.731 217.512 244.314 219.98H244.306Z" fill="white"/>
<path d="M19.644 190.422C21.659 198.672 20.761 207.58 17.1763 214.865C14.8292 219.636 11.4398 223.956 7.26562 227.664C7.34776 227.794 7.43354 227.922 7.5175 228.05C11.7592 224.292 15.2033 219.909 17.5852 215.065C21.2154 207.686 22.1262 198.664 20.0857 190.312C18.4923 183.787 15.2873 178.261 10.8576 174.262C10.759 174.379 10.6605 174.495 10.5637 174.612C14.9186 178.549 18.0707 183.994 19.6421 190.422H19.644Z" fill="white"/>
<path d="M122.908 85.922C126.883 89.983 128.665 96.8274 126.472 103.135C124.35 109.244 119.697 114.303 114.109 117.558C109.612 120.175 103.745 121.619 99.3231 118.877C96.0177 116.829 94.3039 112.81 94.209 108.925C94.1141 105.037 95.4209 101.25 97.0362 97.7126C99.314 92.728 102.378 87.8932 106.945 84.8615C113.238 80.6819 119.086 82.0179 122.908 85.922Z" fill="#F7F0E3"/>
<path d="M70.2199 14.7036H37.3047V0H70.2199V14.7036ZM37.9891 14.0191H69.5354V0.684438H37.9891V14.0191Z" fill="#E9DDCA"/>
<path d="M48.8029 28.7679H15.8877V14.0625H48.8029V28.7661V28.7679ZM16.5721 28.0834H48.1184V14.7469H16.5721V28.0816V28.0834Z" fill="#E9DDCA"/>
<path d="M257.489 44.4321C255.357 37.345 251.608 30.8382 246.242 24.89C240.865 18.9418 233.532 14.0302 224.241 10.1463C214.951 6.2623 203.148 4.32031 188.831 4.32031C177.409 4.32031 165.77 5.86076 153.912 8.94165C142.043 12.0335 131.747 16.4303 123.016 22.1449L134.383 53.3517L128.29 58.287L137.126 60.8842C145.847 56.3195 153.793 53.005 160.963 50.9407C168.121 48.8874 175.728 47.8598 183.794 47.8598C191.859 47.8598 197.948 49.8018 202.089 53.6857C206.231 57.5807 208.297 62.2568 208.297 67.7487C208.297 74.3777 206.165 80.2603 201.925 85.4054C197.663 90.5506 192.964 95.7505 187.815 101.007C184.241 104.657 180.766 108.428 177.409 112.312C174.055 116.207 171.082 120.37 168.514 124.835C165.935 129.288 163.868 134.086 162.306 139.232C160.733 144.377 159.957 150.146 159.957 156.542C159.957 158.606 160.001 161.061 160.121 163.919C160.141 164.446 160.169 164.959 160.2 165.467H151.848L160.963 171.63H205.282C205.052 170.258 204.942 168.661 204.942 166.832V162.714C204.942 158.83 205.729 155.003 207.291 151.23C208.853 147.458 210.821 143.864 213.172 140.427C215.521 137.001 218.145 133.741 221.062 130.662C223.97 127.571 226.768 124.658 229.456 121.913C233.03 118.262 236.724 114.38 240.528 110.261C244.331 106.143 247.697 101.812 250.604 97.2362C253.512 92.6605 255.916 87.6942 257.817 82.3154C259.719 76.9476 260.681 71.065 260.681 64.6587C260.681 58.2523 259.61 51.5229 257.489 44.4358V44.4321Z" fill="#E49B31"/>
<path d="M174.418 45.6828C166.448 45.6828 158.93 46.6757 151.855 48.6633C144.77 50.6618 136.918 53.8687 128.298 58.2874L114.354 20.7966C122.983 15.2663 133.158 11.01 144.889 8.01854C156.608 5.03804 168.11 3.54688 179.397 3.54688C193.546 3.54688 205.212 5.4268 214.393 9.18483C223.574 12.9429 230.821 17.6956 236.136 23.4522C241.44 29.2088 245.143 35.5056 247.25 42.3646C249.345 49.2236 250.404 55.7468 250.404 61.9359C250.404 68.1251 249.453 73.8287 247.575 79.0232C245.695 84.2286 243.318 89.0361 240.445 93.4639C237.573 97.8918 234.245 102.082 230.487 106.069C226.729 110.055 223.077 113.813 219.545 117.344C216.888 120.002 214.123 122.82 211.25 125.813C208.366 128.794 205.774 131.948 203.451 135.264C201.129 138.591 199.184 142.068 197.64 145.719C196.096 149.369 195.318 153.074 195.318 156.832V160.818C195.318 162.59 195.426 164.135 195.652 165.463H151.853C151.399 163.249 151.131 160.765 151.021 158C150.903 155.235 150.859 152.859 150.859 150.86C150.859 144.671 151.625 139.088 153.18 134.107C154.724 129.128 156.767 124.483 159.315 120.173C161.854 115.853 164.79 111.825 168.107 108.054C171.423 104.296 174.858 100.644 178.39 97.1124C183.476 92.0257 188.121 86.9919 192.334 82.0128C196.525 77.0337 198.631 71.341 198.631 64.9255C198.631 59.6106 196.59 55.0861 192.496 51.3171C188.403 47.559 182.376 45.6791 174.416 45.6791L174.418 45.6828Z" fill="#FBC343"/>
<path d="M208.32 214.648C208.32 222.639 205.733 228.804 200.559 233.154C195.386 237.512 189.539 239.682 183.01 239.682C176.481 239.682 170.626 237.512 165.454 233.154C160.288 228.804 157.702 222.639 157.702 214.648C157.702 206.658 160.288 200.501 165.454 196.143C173.417 189.423 185.198 187.926 194.521 192.642C202.795 196.827 208.32 205.327 208.32 214.648Z" fill="#E49B31"/>
<path d="M199.649 214.649C199.649 222.64 197.062 228.805 191.888 233.155C186.716 237.513 180.868 239.683 174.339 239.683C167.81 239.683 161.955 237.513 156.783 233.155C151.618 228.805 149.031 222.64 149.031 214.649C149.031 206.659 151.618 200.502 156.783 196.144C161.955 191.794 167.803 189.615 174.339 189.615C180.875 189.615 186.714 191.794 191.888 196.144C197.061 200.502 199.649 206.668 199.649 214.649Z" fill="#FBC343"/>
<path d="M68.4658 101.385C68.9516 98.7937 67.2452 96.2997 64.6544 95.8139C62.0636 95.3281 59.5695 97.0345 59.0837 99.6253C58.5979 102.216 60.3044 104.71 62.8952 105.196C65.486 105.682 67.9801 103.975 68.4658 101.385Z" fill="#D3DFFF"/>
<path d="M70.729 110.333C71.002 108.876 70.0338 107.471 68.5664 107.196C67.0991 106.922 65.6883 107.88 65.4152 109.338C65.1422 110.795 66.1104 112.199 67.5778 112.474C69.0451 112.749 70.4559 111.79 70.729 110.333Z" fill="#D3DFFF"/>
<path d="M65.2817 89.7528C72.6204 82.414 72.6204 70.5156 65.2817 63.1769C57.943 55.8382 46.0446 55.8382 38.7059 63.1769C31.3672 70.5156 31.3672 82.414 38.7059 89.7528C46.0446 97.0915 57.943 97.0915 65.2817 89.7528Z" fill="#D3DFFF"/>
<path d="M44.7881 78.8322C46.0955 78.8322 47.1554 77.7723 47.1554 76.4649C47.1554 75.1575 46.0955 74.0977 44.7881 74.0977C43.4808 74.0977 42.4209 75.1575 42.4209 76.4649C42.4209 77.7723 43.4808 78.8322 44.7881 78.8322Z" fill="white"/>
<path d="M52.001 78.8322C53.3084 78.8322 54.3683 77.7723 54.3683 76.4649C54.3683 75.1575 53.3084 74.0977 52.001 74.0977C50.6936 74.0977 49.6338 75.1575 49.6338 76.4649C49.6338 77.7723 50.6936 78.8322 52.001 78.8322Z" fill="white"/>
<path d="M59.2237 78.8322C60.5311 78.8322 61.5909 77.7723 61.5909 76.4649C61.5909 75.1575 60.5311 74.0977 59.2237 74.0977C57.9163 74.0977 56.8564 75.1575 56.8564 76.4649C56.8564 77.7723 57.9163 78.8322 59.2237 78.8322Z" fill="white"/>
<path d="M38.5177 230.278L40.2736 237.047C40.7317 238.812 42.4382 240.006 44.3273 239.876C50.0838 239.486 62.046 238.075 68.9123 233.014L66.9612 223.258C57.5214 222.725 48.6949 223.251 41.0492 225.822C39.1346 226.467 38.0286 228.385 38.5196 230.276L38.5177 230.278Z" fill="#102048"/>
<path d="M49.5146 235.666C49.4142 235.666 49.323 235.601 49.2956 235.5L46.9375 227.059C46.9028 226.938 46.974 226.812 47.0963 226.778C47.2186 226.745 47.3445 226.814 47.3774 226.936L49.7355 235.378C49.7702 235.5 49.699 235.624 49.5767 235.659C49.5566 235.664 49.5347 235.668 49.5146 235.668V235.666Z" fill="white"/>
<path d="M54.6123 234.524C54.5119 234.524 54.4206 234.459 54.3933 234.358L52.0351 225.917C52.0005 225.796 52.0716 225.67 52.1939 225.636C52.3162 225.601 52.4422 225.672 52.475 225.795L54.8331 234.236C54.8678 234.358 54.7966 234.482 54.6743 234.517C54.6543 234.523 54.6324 234.526 54.6123 234.526V234.524Z" fill="white"/>
<path d="M60.5235 193.687L38.585 200.198L54.8783 222.523L78.2697 224.383L110.531 210.74L98.2717 192.291L60.5235 193.687Z" fill="#FBC343"/>
<path d="M87.5774 196.786C135.758 182.524 143.501 225.106 68.3273 232.857C65.6717 229.869 62.5689 224.686 61.3369 220.351L101.034 202.006L87.5774 196.786Z" fill="#FBC343"/>
<path d="M89.6224 227.305C87.3684 226.584 85.2092 225.158 85.2092 225.158L77.4668 227.588L79.2409 236.011L87.2844 237.644C89.7356 233.162 89.878 229.482 89.6224 227.305Z" fill="#F9B384"/>
<path d="M61.5043 220.648L61.1611 220.056C69.4438 215.243 90.6559 203.681 108.731 200.27L108.858 200.943C90.8896 204.334 69.7577 215.853 61.5061 220.648H61.5043Z" fill="#E49B31"/>
<path d="M60.5336 193.686C15.6873 185.158 4.0719 228.258 79.2471 236.009C81.9028 233.022 83.9835 229.492 85.2155 225.157C73.6676 217.431 60.7563 210.086 46.6076 203.091L60.5355 193.686H60.5336Z" fill="#FBC343"/>
<path d="M85.0228 225.446C82.8892 224.089 80.6661 222.654 78.3135 221.134C66.4992 213.506 53.1097 204.86 41.7334 199.931L42.0053 199.303C53.4328 204.254 66.8478 212.917 78.684 220.559C81.0367 222.077 83.2579 223.512 85.3897 224.87L85.0228 225.446Z" fill="#E49B31"/>
<path d="M27.628 215.056L27.0293 214.726C28.7121 211.678 31.4097 209.623 35.0436 208.617L35.2262 209.276C31.7273 210.245 29.2414 212.136 27.628 215.056Z" fill="#E49B31"/>
<path d="M121.222 212.459C119.609 209.538 117.123 207.648 113.624 206.678L113.807 206.02C117.44 207.025 120.138 209.082 121.821 212.128L121.222 212.459Z" fill="#E49B31"/>
<path d="M75.0421 235.631L74.542 235.164C78.1303 231.322 80.3333 227.266 81.2787 222.764L81.9485 222.904C80.9775 227.531 78.718 231.694 75.0439 235.631H75.0421Z" fill="#E49B31"/>
<path d="M111.989 224.797C106.243 221.247 95.1042 227.382 92.308 227.692C91.4922 227.783 90.5504 227.605 89.6232 227.307C89.8787 229.484 89.7364 233.164 87.2852 237.647L88.6522 237.924C88.6522 237.924 98.0975 241.386 108.118 239.371C117.366 237.512 116.506 227.59 111.989 224.799V224.797Z" fill="#102048"/>
<path d="M104.153 236.408C104.131 236.408 104.108 236.404 104.084 236.397C103.963 236.358 103.898 236.231 103.934 236.11C104.617 233.949 104.914 229.697 102.938 226.84C102.867 226.736 102.892 226.594 102.996 226.523C103.1 226.451 103.243 226.477 103.314 226.581C105.383 229.573 105.08 234 104.37 236.247C104.339 236.344 104.25 236.406 104.153 236.406V236.408Z" fill="white"/>
<path d="M99.6591 237.263C99.6372 237.263 99.6135 237.26 99.5898 237.252C99.4693 237.214 99.4036 237.086 99.4401 236.966C100.123 234.805 100.42 230.552 98.4436 227.696C98.3724 227.592 98.3979 227.449 98.502 227.378C98.606 227.307 98.7484 227.332 98.8195 227.437C100.889 230.428 100.586 234.856 99.8763 237.103C99.8453 237.199 99.7559 237.261 99.6591 237.261V237.263Z" fill="white"/>
<path d="M52.5963 138.116C52.5963 138.116 63.8905 128.511 63.4725 126.686C63.1732 125.381 59.9736 127.294 59.9736 127.294C59.9736 127.294 64.4599 121.97 64.2318 121.324C63.8248 120.169 60.7201 122.322 60.7201 122.322C60.7201 122.322 62.8173 119.304 61.8152 118.811C60.8132 118.318 58.6267 120.18 58.6267 120.18C58.6267 120.18 59.9043 118.504 59.3038 118.064C58.7033 117.624 56.1152 119.433 56.1152 119.433C56.1152 119.433 57.0442 117.32 55.0712 118.121C53.0982 118.922 39.2598 131.622 39.2598 131.622L52.5963 138.116Z" fill="#F9B384"/>
<path d="M57.2219 126.724C57.1672 126.724 57.1124 126.704 57.0686 126.664C55.1303 124.893 54.2743 124.462 52.137 123.804C52.0165 123.767 51.949 123.639 51.9855 123.519C52.022 123.398 52.1498 123.331 52.2702 123.367C54.486 124.048 55.3712 124.493 57.377 126.326C57.4701 126.412 57.4774 126.556 57.3917 126.649C57.346 126.698 57.2858 126.724 57.2237 126.724H57.2219Z" fill="#E28B6D"/>
<path d="M53.8158 131.933C53.8048 131.933 53.7939 131.933 53.7847 131.931C53.6606 131.913 53.573 131.798 53.5913 131.674C53.8139 130.086 54.314 129.093 55.1189 128.641C55.8089 128.254 56.705 128.292 57.7855 128.759C57.9005 128.809 57.9553 128.944 57.9042 129.059C57.8549 129.174 57.7198 129.228 57.6048 129.177C56.663 128.77 55.9019 128.723 55.3434 129.039C54.6791 129.413 54.241 130.32 54.0439 131.738C54.0275 131.851 53.9308 131.935 53.8176 131.935L53.8158 131.933Z" fill="#E28B6D"/>
<path d="M53.2788 122.332C53.2186 122.332 53.1583 122.308 53.1127 122.261C53.0269 122.17 53.0306 122.026 53.1218 121.938L55.9563 119.268C56.0476 119.18 56.1918 119.186 56.2794 119.277C56.3651 119.368 56.3615 119.512 56.2702 119.6L53.4358 122.27C53.3919 122.312 53.3354 122.332 53.2788 122.332Z" fill="#E28B6D"/>
<path d="M55.9125 123.243C55.8559 123.243 55.7993 123.221 55.7537 123.179C55.6624 123.092 55.6606 122.948 55.7464 122.856L58.4695 120.02C58.5571 119.929 58.7013 119.925 58.7926 120.013C58.8839 120.1 58.8857 120.245 58.7999 120.336L56.0767 123.172C56.0311 123.22 55.9727 123.241 55.9125 123.241V123.243Z" fill="#E28B6D"/>
<path d="M58.5914 124.841C58.5348 124.841 58.4801 124.821 58.4363 124.779C58.345 124.694 58.3395 124.549 58.4253 124.456L60.5608 122.166C60.6465 122.075 60.7907 122.069 60.8838 122.155C60.9751 122.241 60.9806 122.385 60.8948 122.478L58.7593 124.768C58.7137 124.816 58.6535 124.841 58.5914 124.841Z" fill="#E28B6D"/>
<path d="M95.2617 202.355L53.9672 203.952L49.4043 166.308C49.4043 166.308 63.2281 153.196 68.5467 148.366L77.5265 147.906C105.384 160.569 100.823 176.384 95.2617 202.355Z" fill="#3A6BEA"/>
<path d="M77.5283 147.906C77.5283 147.906 109.399 150.631 119.447 172.468C129.279 193.835 88.8754 201.442 88.8754 201.442L77.5283 147.906Z" fill="#3A6BEA"/>
<path d="M41.0878 152.584L54.2583 136.557L41.942 129.094C36.8042 132.666 26.8697 140.757 18.4502 149.919C16.5922 151.941 15.1394 154.303 14.4093 156.904C13.7851 159.123 13.6719 161.315 14.0224 163.462C14.9368 169.058 19.3373 173.374 25.2125 174.062C30.2299 174.65 49.396 173.15 64.91 168.587L69.4729 150.976C67.1276 149.645 49.7027 149.413 41.0878 152.584Z" fill="#3A6BEA"/>
<g opacity="0.8">
<path d="M104.128 156.571C104.197 156.554 104.265 156.54 104.334 156.523C104.19 156.438 104.046 156.356 103.901 156.272C101.565 156.81 99.1561 157.359 96.7797 157.646C95.3524 157.818 90.5814 158.133 89.1888 154.956C88.4952 153.375 89.0209 151.616 89.8039 150.382C89.6889 150.349 89.5757 150.316 89.4626 150.283C88.6595 151.59 88.143 153.424 88.8749 155.093C90.3624 158.487 95.3341 158.166 96.8217 157.985C99.2656 157.692 101.739 157.122 104.128 156.571Z" fill="white"/>
<path d="M119.003 181.198C117.481 180.61 115.908 180.001 114.254 180.158C111.354 180.432 108.872 183.301 108.72 186.551C108.618 188.769 109.465 191.092 111.078 193.135C111.175 193.075 111.272 193.013 111.369 192.952C109.79 190.967 108.961 188.712 109.062 186.568C109.204 183.48 111.547 180.756 114.285 180.499C115.857 180.353 117.326 180.919 118.879 181.518C119.434 181.731 119.998 181.948 120.571 182.131C120.6 182.021 120.629 181.91 120.655 181.799C120.096 181.62 119.545 181.408 119.001 181.198H119.003Z" fill="white"/>
<path d="M38.5497 170.315C36.5603 168.668 33.4684 168.228 30.0681 169.108C27.0384 169.891 24.4393 171.444 22.6543 173.498C22.7711 173.536 22.8861 173.578 23.0047 173.613C24.7423 171.663 27.2446 170.191 30.1539 169.439C33.4447 168.586 36.427 169.002 38.3307 170.577C39.236 171.326 39.8766 172.299 40.342 173.346C40.4588 173.333 40.5775 173.319 40.6961 173.306C40.2088 172.178 39.5298 171.125 38.5497 170.313V170.315Z" fill="white"/>
<path d="M20.5615 147.682C24.2903 146.755 27.9279 145.453 31.2844 143.521C32.5529 142.79 33.9838 141.86 34.9913 140.493C36.0627 139.038 36.4186 137.306 35.9441 135.86C35.7579 135.293 35.4275 134.794 35.0151 134.396C34.9274 134.468 34.8398 134.541 34.7522 134.612C35.1373 134.979 35.4458 135.44 35.6192 135.968C36.0591 137.309 35.7232 138.925 34.7176 140.29C33.7484 141.606 32.3521 142.513 31.1147 143.225C27.9498 145.048 24.5258 146.309 21.0087 147.22C20.859 147.373 20.7112 147.529 20.5633 147.682H20.5615Z" fill="white"/>
</g>
<path d="M80.446 139.538L80.4405 140.122L80.3475 149.198L80.3365 150.182C80.3201 151.721 79.6886 153.115 78.6701 154.128C77.6571 155.134 76.2627 155.765 74.7186 155.776C71.6067 155.793 69.0606 153.294 69.0314 150.176L68.9219 138.959L80.446 139.538Z" fill="#F9B384"/>
<path d="M80.4376 140.121L80.3445 149.198C75.2997 147.144 73.2227 141.683 73.2227 141.683L80.4357 140.121H80.4376Z" fill="#102048"/>
<path d="M82.4348 124.282C84.2417 126.452 89.5219 138.745 84.1705 142.939C78.1492 147.659 68.9851 139.902 68.9851 139.902L67.7549 125.583L75.709 123.486L82.4348 124.282Z" fill="#F9B384"/>
<path d="M63.7049 123.492C63.7049 123.492 46.0609 132.695 60.447 159.22C62.294 162.628 66.3879 164.113 69.8886 162.452C73.6448 160.669 75.0666 156.081 73.026 152.458C70.6734 148.278 68.4011 142.894 69.372 138.889L63.7049 123.494V123.492Z" fill="#102048"/>
<path d="M68.7351 131.223C70.599 129.359 70.599 126.337 68.735 124.473C66.8711 122.609 63.8492 122.609 61.9853 124.473C60.1213 126.337 60.1213 129.359 61.9852 131.223C63.8492 133.086 66.8711 133.086 68.7351 131.223Z" fill="#FBC343"/>
<path d="M71.2407 133.583C70.7242 130.606 70.4102 128.564 73.42 127.029C73.42 127.029 84.026 128.958 86.0501 124.956C88.0743 120.955 84.9897 114.64 78.5304 119.026C61.9944 115.795 59.7768 131.271 64.7905 136.429L69.7386 135.669C70.7351 135.516 71.4123 134.574 71.2407 133.581V133.583Z" fill="#102048"/>
<path d="M79.4604 134.298C79.8495 134.298 80.1649 133.982 80.1649 133.593C80.1649 133.204 79.8495 132.889 79.4604 132.889C79.0713 132.889 78.7559 133.204 78.7559 133.593C78.7559 133.982 79.0713 134.298 79.4604 134.298Z" fill="#102048"/>
<path d="M84.228 131.946C84.617 131.946 84.9325 131.631 84.9325 131.242C84.9325 130.853 84.617 130.537 84.228 130.537C83.8389 130.537 83.5234 130.853 83.5234 131.242C83.5234 131.631 83.8389 131.946 84.228 131.946Z" fill="#102048"/>
<path d="M83.7437 135.761C83.6945 135.761 83.6452 135.742 83.6068 135.706C83.5265 135.629 83.5229 135.503 83.5995 135.423C83.8824 135.125 84.1927 134.708 84.0613 134.403C83.9263 134.087 83.355 133.952 83.0921 133.952C82.53 133.952 82.2599 132.952 82.2106 132.751C82.185 132.643 82.2507 132.536 82.3584 132.51C82.4661 132.483 82.5738 132.55 82.5994 132.658C82.7016 133.081 82.9352 133.554 83.0921 133.554C83.3623 133.554 84.1854 133.682 84.4282 134.248C84.6016 134.651 84.4209 135.14 83.8879 135.7C83.8496 135.742 83.7967 135.762 83.7437 135.762V135.761Z" fill="#102048"/>
<path d="M83.7746 138.437C83.7362 138.437 83.6979 138.426 83.6632 138.402C82.3363 137.506 80.9948 138.258 80.9821 138.266C80.8871 138.32 80.7649 138.287 80.7101 138.193C80.6553 138.098 80.6882 137.975 80.7831 137.921C80.847 137.884 82.3546 137.039 83.8877 138.072C83.979 138.134 84.0027 138.258 83.9407 138.35C83.9023 138.406 83.8384 138.437 83.7746 138.437Z" fill="#102048"/>
<path d="M79.1459 130.537C79.5475 131.292 78.8484 131.444 78.0289 131.878C77.2094 132.313 76.3717 132.473 76.18 132.112C75.9884 131.752 76.4976 131.108 77.3171 130.672C78.1366 130.236 78.8356 129.951 79.1459 130.535V130.537Z" fill="#102048"/>
<path d="M82.1363 129.175C82.3133 129.849 82.8153 129.555 83.5453 129.363C84.2754 129.171 84.8668 128.805 84.7828 128.483C84.6988 128.162 84.0381 128.056 83.3062 128.248C82.5743 128.44 81.9976 128.655 82.1345 129.177L82.1363 129.175Z" fill="#102048"/>
<path opacity="0.4" d="M77.6059 138.397C78.4498 137.618 78.5029 136.303 77.7244 135.459C76.9459 134.615 75.6307 134.562 74.7868 135.34C73.9429 136.119 73.8899 137.434 74.6683 138.278C75.4468 139.122 76.762 139.175 77.6059 138.397Z" fill="#EB5D60"/>
<path d="M70.8333 138.852C71.7836 137.621 71.42 135.747 70.0211 134.668C68.6222 133.588 66.7178 133.711 65.7675 134.942C64.8172 136.174 65.1809 138.047 66.5798 139.127C67.9787 140.206 69.8831 140.083 70.8333 138.852Z" fill="#F9B384"/>
<path d="M69.542 137.933C69.4324 137.933 69.343 137.844 69.343 137.734C69.343 137.145 69.0565 136.601 68.5746 136.276C68.1639 135.998 67.673 135.935 67.2623 136.101C67.1601 136.141 67.0433 136.093 67.0013 135.991C66.9593 135.889 67.0086 135.772 67.1108 135.73C67.6438 135.513 68.2735 135.591 68.7955 135.944C69.3868 136.342 69.7409 137.01 69.7409 137.732C69.7409 137.842 69.6515 137.931 69.542 137.931V137.933Z" fill="#102048"/>
<path d="M40.9248 152.424L33.7217 160.217L34.0567 160.527L41.2599 152.734L40.9248 152.424Z" fill="#102048"/>
<path d="M91.6762 185.917L91.543 185.48C96.7867 183.882 101.877 181.971 106.489 176.203L106.845 176.488C102.151 182.358 96.9911 184.298 91.6762 185.919V185.917Z" fill="#102048"/>
<path d="M94.873 168.248H50.2621C48.6578 168.248 47.3564 169.655 47.3564 171.391V203.242C47.3564 204.978 48.6578 206.385 50.2621 206.385H94.873C96.4773 206.385 97.7786 204.978 97.7786 203.242V171.391C97.7786 169.655 96.4773 168.248 94.873 168.248Z" fill="#D3DFFF"/>
<path d="M74.9183 185.303C75.088 185.303 75.2249 185.451 75.2249 185.635V188.997C75.2249 189.18 75.088 189.33 74.9183 189.33H70.2075C70.0378 189.33 69.9009 189.182 69.9009 188.997V185.635C69.9009 185.453 70.0378 185.303 70.2075 185.303H74.9183ZM74.9183 184.391H70.2075C69.5358 184.391 68.9883 184.949 68.9883 185.635V188.997C68.9883 189.684 69.5358 190.242 70.2075 190.242H74.9183C75.5899 190.242 76.1375 189.684 76.1375 188.997V185.635C76.1375 184.949 75.5899 184.391 74.9183 184.391Z" fill="#1F3C88"/>
</svg>
