<svg width="217" height="240" viewBox="0 0 217 240" fill="none" xmlns="http://www.w3.org/2000/svg">
<path d="M149.104 1.23968C149.063 1.1303 148.942 1.0743 148.832 1.11467L37.3861 42.2589L23.5785 47.3562C23.4692 47.3966 23.4132 47.5183 23.4535 47.6277L28.2811 60.7118L85.7954 216.6L211.247 170.285C211.357 170.245 211.413 170.123 211.372 170.014L149.104 1.23968Z" fill="white"/>
<path d="M149.104 1.23968C149.063 1.1303 148.942 1.0743 148.832 1.11467L37.3861 42.2589L23.5785 47.3562C23.4692 47.3966 23.4132 47.5183 23.4535 47.6277L28.2811 60.7118L85.7954 216.6L211.247 170.285C211.357 170.245 211.413 170.123 211.372 170.014L149.104 1.23968Z" fill="white"/>
<path d="M153.693 52.4976L52.777 89.7543L51.3535 85.8947L152.269 48.6387L153.693 52.4976Z" fill="#EFEAFD"/>
<path d="M150.758 44.5432L49.8424 81.7992L48.4189 77.9396L149.334 40.6836L150.758 44.5432Z" fill="#EFEAFD"/>
<path d="M155.371 57.0399L54.457 94.3008L55.881 98.1598L156.795 60.8989L155.371 57.0399Z" fill="#EFEAFD"/>
<path d="M159.791 69.0315L58.8763 106.287L57.4521 102.429L158.368 65.1719L159.791 69.0315Z" fill="#EFEAFD"/>
<path d="M162.756 77.064L61.8411 114.321L60.417 110.461L161.332 73.2051L162.756 77.064Z" fill="#EFEAFD"/>
<path d="M164.436 81.6044L63.5225 118.865L64.9464 122.724L165.86 85.4634L164.436 81.6044Z" fill="#EFEAFD"/>
<path d="M168.857 93.5972L67.941 130.853L66.5176 126.994L167.433 89.7383L168.857 93.5972Z" fill="#EFEAFD"/>
<path d="M171.573 100.96L70.6575 138.217L69.2334 134.358L170.149 97.1016L171.573 100.96Z" fill="#EFEAFD"/>
<path d="M174.683 109.392L73.7672 146.649L72.3438 142.789L173.259 105.533L174.683 109.392Z" fill="#EFEAFD"/>
<path d="M176.365 113.932L75.4512 151.193L76.8752 155.052L177.789 117.791L176.365 113.932Z" fill="#EFEAFD"/>
<path d="M187.004 140.76L85.4309 178.259L84.0068 174.399L185.579 136.9L187.004 140.76Z" fill="#EFEAFD"/>
<path d="M149.553 159.749L87.1162 182.803L88.5402 186.662L150.977 163.608L149.553 159.749Z" fill="#EFEAFD"/>
<path d="M180.784 125.927L79.8684 163.183L78.4443 159.324L179.36 122.068L180.784 125.927Z" fill="#EFEAFD"/>
<path d="M183.574 133.487L82.6578 170.743L81.2344 166.884L182.15 129.627L183.574 133.487Z" fill="#EFEAFD"/>
<path d="M61.2049 60.1652C60.4714 60.0545 59.8231 59.7693 59.2595 59.309C58.6958 58.8487 58.2786 58.2504 58.0066 57.514C57.7351 56.7776 57.6636 56.0517 57.7931 55.3355C57.9226 54.6193 58.2318 53.9799 58.7212 53.4181C59.2107 52.8562 59.8342 52.4349 60.5918 52.155C61.1835 51.9369 61.7614 51.8359 62.3251 51.8535C62.8888 51.8711 63.416 52.0104 63.9061 52.2722L63.4544 53.2143C62.6629 52.8256 61.8415 52.7885 60.9902 53.1029C60.4272 53.3106 59.965 53.6251 59.6038 54.0457C59.2426 54.4663 59.0154 54.9455 58.923 55.4839C58.8306 56.0224 58.8859 56.566 59.0883 57.1149C59.2907 57.6637 59.6018 58.1123 60.0217 58.462C60.4415 58.8116 60.9257 59.0284 61.4731 59.113C62.0211 59.1977 62.5763 59.1365 63.1393 58.9288C63.9835 58.6169 64.5823 58.0518 64.9364 57.2321L65.8919 57.6546C65.6895 58.1722 65.3783 58.6234 64.9585 59.0082C64.5387 59.393 64.033 59.6945 63.4413 59.9126C62.6837 60.1925 61.9378 60.2772 61.2043 60.1665L61.2049 60.1652Z" fill="#7263D6"/>
<path d="M65.0518 50.6068L66.1342 50.207L68.5834 56.8448L72.6858 55.3304L73.0334 56.2725L67.8486 58.1866L65.0518 50.6068Z" fill="#7263D6"/>
<path d="M78.4381 52.124L74.4111 53.6104L74.2771 55.813L73.1621 56.2245L73.7967 47.3783L74.8681 46.9824L81.1067 53.2914L79.9702 53.7107L78.4374 52.1233L78.4381 52.124ZM77.7397 51.3974L74.7346 48.2865L74.4704 52.6038L77.7397 51.3967V51.3974Z" fill="#7263D6"/>
<path d="M79.4365 45.2943L80.5189 44.8945L83.3157 52.4744L82.2333 52.8741L79.4365 45.2943Z" fill="#7263D6"/>
<path d="M92.6143 49.0415L90.566 43.5229L89.5253 49.1359L89.0273 49.3195L84.6027 45.7613L86.6282 51.2512L85.5888 51.6347L82.792 44.0549L83.6798 43.7274L88.806 47.8878L89.9581 41.4095L90.8459 41.082L93.6531 48.658L92.6137 49.0415H92.6143Z" fill="#7263D6"/>
<path d="M97.472 39.7078L98.447 42.3499L102.246 40.9475L102.59 41.8785L98.7906 43.2809L99.9212 46.3456L98.8388 46.7453L96.042 39.1655L101.39 37.1914L101.737 38.1335L97.472 39.7078Z" fill="#7263D6"/>
<path d="M106.824 43.3226C106.086 43.2132 105.433 42.9274 104.865 42.4645C104.297 42.0022 103.878 41.4058 103.609 40.6766C103.34 39.9474 103.271 39.2228 103.403 38.5014C103.534 37.7806 103.845 37.1387 104.334 36.5768C104.823 36.0149 105.451 35.5923 106.216 35.3098C106.973 35.0298 107.72 34.9445 108.458 35.0539C109.195 35.1633 109.846 35.4478 110.409 35.9081C110.973 36.3684 111.39 36.9668 111.662 37.7031C111.934 38.4395 112.005 39.1655 111.876 39.8816C111.746 40.5978 111.437 41.2372 110.947 41.7991C110.458 42.361 109.835 42.7822 109.077 43.0622C108.312 43.3447 107.561 43.4313 106.824 43.3219V43.3226ZM110.081 41.1669C110.431 40.7502 110.653 40.2729 110.745 39.7345C110.838 39.1961 110.782 38.6524 110.58 38.1036C110.377 37.5553 110.066 37.1061 109.646 36.7565C109.227 36.4068 108.748 36.1881 108.211 36.0989C107.674 36.0103 107.128 36.0683 106.572 36.2734C106.016 36.4785 105.56 36.791 105.202 37.2096C104.844 37.6289 104.619 38.1075 104.527 38.6459C104.435 39.1843 104.49 39.728 104.693 40.2769C104.895 40.8257 105.206 41.2743 105.626 41.6239C106.046 41.9736 106.528 42.191 107.072 42.277C107.616 42.3636 108.166 42.3037 108.722 42.0986C109.278 41.8935 109.731 41.5829 110.082 41.1662L110.081 41.1669Z" fill="#7263D6"/>
<path d="M119.783 39.0112L117.29 37.2865C117.093 37.3757 116.937 37.4415 116.822 37.4838L114.949 38.1753L115.8 40.4814L114.718 40.8811L111.921 33.3013L114.876 32.2101C115.857 31.8481 116.716 31.7973 117.452 32.059C118.188 32.3208 118.708 32.8625 119.012 33.6854C119.227 34.2701 119.267 34.8216 119.13 35.3398C118.993 35.8581 118.692 36.3093 118.227 36.6941L120.963 38.575L119.783 39.0106L119.783 39.0112ZM117.856 35.5521C118.107 35.123 118.132 34.634 117.929 34.0852C117.727 33.537 117.391 33.1828 116.922 33.0233C116.454 32.8644 115.876 32.9113 115.191 33.1639L113.351 33.843L114.609 37.254L116.449 36.5749C117.134 36.3216 117.603 35.9811 117.855 35.5514L117.856 35.5521Z" fill="#7263D6"/>
<path d="M129.613 35.3833L127.565 29.8647L126.524 35.4777L126.026 35.6613L121.602 32.1031L123.627 37.593L122.588 37.9765L119.791 30.3967L120.679 30.0692L125.805 34.2296L126.957 27.7513L127.845 27.4238L130.652 34.9998L129.613 35.3833H129.613Z" fill="#7263D6"/>
<path d="M127.624 0.106892C127.567 0.00532381 127.438 -0.0298344 127.337 0.0274605L24.0785 58.7821L11.2856 66.0611C11.184 66.1191 11.1489 66.248 11.2062 66.3489L18.0996 78.4713L100.232 222.906L216.466 156.768C216.567 156.71 216.603 156.581 216.545 156.48L127.624 0.106892Z" fill="white"/>
<path d="M208.975 163.508L192.462 118.75L182.993 93.0876L133.841 6.65039L129.606 8.21428L94.5704 21.1486L89.7943 22.9117L27.4297 58.3975L27.7206 59.1866L28.2836 60.712L61.1455 149.782L70.6138 175.444L92.5911 214.092L96.8264 212.529L166.076 186.963L174.332 183.675L208.975 163.508Z" fill="#EFEAFD"/>
<path d="M151.144 192.475L207.773 160.253L182.758 101.417L129.157 7.1582L74.8621 28.4244L26.5186 55.9318L28.2824 60.712L64.2177 158.111L95.4505 213.036L151.144 192.475Z" fill="#FCFAFE"/>
<path d="M127.624 0.183064C127.567 0.0814957 127.438 0.0463374 127.337 0.103632L11.2856 66.1373C11.184 66.1953 11.1489 66.3242 11.2062 66.4251L100.232 222.982L216.466 156.844C216.567 156.786 216.603 156.657 216.545 156.556L127.624 0.183064Z" fill="white"/>
<path d="M140.498 49.9331L46.9972 103.136L44.9639 99.5596L138.464 46.3574L140.498 49.9331Z" fill="#EFEAFD"/>
<path d="M136.307 42.562L42.8068 95.7649L40.7734 92.1885L134.274 38.9863L136.307 42.562Z" fill="#EFEAFD"/>
<path d="M142.896 54.1549L49.3936 107.354L51.4266 110.929L144.93 57.7305L142.896 54.1549Z" fill="#EFEAFD"/>
<path d="M149.21 65.2515L55.7091 118.454L53.6758 114.878L147.176 61.6758L149.21 65.2515Z" fill="#EFEAFD"/>
<path d="M153.441 72.6929L59.9396 125.895L57.9062 122.319L151.407 69.1172L153.441 72.6929Z" fill="#EFEAFD"/>
<path d="M155.839 76.9166L62.3359 130.115L64.369 133.691L157.872 80.4922L155.839 76.9166Z" fill="#EFEAFD"/>
<path d="M162.154 88.0132L68.6534 141.215L66.6201 137.64L160.121 84.4375L162.154 88.0132Z" fill="#EFEAFD"/>
<path d="M166.033 94.8355L72.5323 148.038L70.499 144.462L163.999 91.2598L166.033 94.8355Z" fill="#EFEAFD"/>
<path d="M170.475 102.646L76.9738 155.848L74.9404 152.273L168.441 99.0703L170.475 102.646Z" fill="#EFEAFD"/>
<path d="M172.869 106.872L79.3662 160.07L81.3993 163.646L174.902 110.447L172.869 106.872Z" fill="#EFEAFD"/>
<path d="M187.738 131.589L93.6281 185.138L91.5947 181.562L185.704 128.014L187.738 131.589Z" fill="#EFEAFD"/>
<path d="M153.874 156.444L96.0225 189.359L98.0555 192.935L155.908 160.02L153.874 156.444Z" fill="#EFEAFD"/>
<path d="M179.186 117.966L85.6857 171.169L83.6523 167.593L177.153 114.391L179.186 117.966Z" fill="#EFEAFD"/>
<path d="M183.169 124.972L89.6687 178.174L87.6348 174.599H87.6354L181.136 121.396L183.169 124.972Z" fill="#EFEAFD"/>
<path d="M50.4974 72.5675C49.7554 72.5779 49.0694 72.4021 48.4381 72.0394C47.8074 71.6768 47.2977 71.1546 46.9098 70.4723C46.5219 69.79 46.3331 69.0855 46.3442 68.3576C46.3553 67.6297 46.5564 66.9487 46.9476 66.3145C47.3387 65.6804 47.8861 65.1634 48.5878 64.7636C49.1358 64.4518 49.6897 64.2584 50.2488 64.1835C50.8079 64.1087 51.3507 64.1607 51.8773 64.3391L51.585 65.3418C50.7409 65.0872 49.9247 65.1842 49.1358 65.6335C48.6145 65.9304 48.2096 66.3158 47.9213 66.7891C47.6329 67.2631 47.4871 67.7729 47.4839 68.3192C47.4806 68.8654 47.6232 69.3928 47.9122 69.9013C48.2012 70.4098 48.5813 70.8017 49.0525 71.0784C49.5237 71.3545 50.0366 71.4899 50.5912 71.4847C51.1457 71.4795 51.6833 71.3278 52.2047 71.0309C52.987 70.5856 53.4856 69.9299 53.701 69.064L54.7125 69.3251C54.5966 69.8687 54.3636 70.3649 54.0121 70.8128C53.6607 71.2607 53.2109 71.641 52.6622 71.9528C51.9599 72.3526 51.2381 72.557 50.4961 72.5675H50.4974Z" fill="#7263D6"/>
<path d="M52.7373 62.5117L53.7403 61.9414L57.2374 68.0915L61.0385 65.9286L61.5351 66.8017L56.7311 69.5349L52.738 62.5124L52.7373 62.5117Z" fill="#7263D6"/>
<path d="M66.192 61.8271L62.4612 63.9502L62.687 66.145L61.6541 66.733L60.8398 57.9011L61.8331 57.3359L69.0161 62.5439L67.963 63.1429L66.1926 61.8264L66.192 61.8271ZM65.3842 61.2242L61.9131 58.6446L62.3557 62.9476L65.3849 61.2242H65.3842Z" fill="#7263D6"/>
<path d="M66.0651 54.9258L67.0681 54.3555L71.0612 61.378L70.0582 61.9483L66.0645 54.9258H66.0651Z" fill="#7263D6"/>
<path d="M79.6763 56.4763L76.7565 51.3654L76.6439 57.0727L76.1824 57.3351L71.2377 54.5452L74.1302 59.6315L73.1676 60.179L69.1738 53.1565L69.9965 52.6884L75.732 55.9581L75.8134 49.3783L76.6361 48.9102L80.6396 55.9275L79.677 56.475L79.6763 56.4763Z" fill="#7263D6"/>
<path d="M82.9492 46.4748L84.3414 48.9228L87.8619 46.9195L88.3527 47.7822L84.8321 49.7855L86.4463 52.6249L85.4433 53.1952L81.4502 46.1727L86.4046 43.3535L86.9013 44.2266L82.9498 46.4748H82.9492Z" fill="#7263D6"/>
<path d="M92.7648 48.5174C92.0195 48.5297 91.329 48.3539 90.6931 47.99C90.0572 47.626 89.5469 47.1065 89.1629 46.4307C88.7788 45.7555 88.5927 45.051 88.6051 44.3179C88.6174 43.5848 88.8192 42.9012 89.211 42.267C89.6022 41.6329 90.1528 41.114 90.8616 40.7103C91.5639 40.3112 92.287 40.1048 93.0323 40.0924C93.7775 40.08 94.4655 40.2552 95.0962 40.6178C95.7269 40.9805 96.2365 41.5026 96.6245 42.185C97.0124 42.8673 97.2011 43.5724 97.1901 44.2997C97.179 45.0276 96.9779 45.7086 96.5867 46.3428C96.1955 46.9769 95.6482 47.4939 94.9465 47.8936C94.2377 48.2966 93.5107 48.505 92.7654 48.5174H92.7648ZM95.6273 45.8597C95.9052 45.3915 96.0458 44.8843 96.0497 44.3381C96.053 43.7918 95.9105 43.2645 95.6215 42.756C95.3325 42.2475 94.9524 41.8555 94.4811 41.5788C94.0099 41.3028 93.5022 41.1647 92.9581 41.1641C92.414 41.1641 91.8842 41.3106 91.3693 41.6036C90.8545 41.8965 90.4548 42.2787 90.1698 42.7508C89.8847 43.2228 89.7408 43.7319 89.7376 44.2782C89.7337 44.8244 89.8769 45.3518 90.1659 45.8603C90.4548 46.3688 90.835 46.7608 91.3062 47.0375C91.7774 47.3135 92.2884 47.4502 92.8396 47.4463C93.3903 47.4431 93.9233 47.2946 94.4382 47.0017C94.953 46.7087 95.3494 46.3284 95.6273 45.8603V45.8597Z" fill="#7263D6"/>
<path d="M104.85 42.154L102.109 40.859C101.929 40.9788 101.786 41.0693 101.679 41.1299L99.944 42.1169L101.159 44.2537L100.156 44.8241L96.1631 37.8016L98.9013 36.2435C99.8106 35.7259 100.65 35.5365 101.418 35.6745C102.187 35.8125 102.788 36.2624 103.222 37.0255C103.53 37.5672 103.659 38.105 103.608 38.6382C103.557 39.1714 103.334 39.6662 102.938 40.1213L105.944 41.5316L104.851 42.1534L104.85 42.154ZM102.384 39.0555C102.562 38.5913 102.507 38.105 102.218 37.5965C101.929 37.088 101.541 36.7937 101.052 36.713C100.564 36.6322 100.001 36.7729 99.3667 37.1342L97.6614 38.1043L99.4585 41.2646L101.164 40.2945C101.799 39.9332 102.206 39.5204 102.384 39.0555Z" fill="#7263D6"/>
<path d="M113.956 36.9718L111.036 31.8608L110.924 37.5682L110.462 37.8306L105.517 35.0407L108.41 40.1269L107.447 40.6745L103.454 33.6519L104.276 33.1838L110.012 36.4535L110.093 29.8744L110.916 29.4062L114.919 36.4236L113.957 36.9711L113.956 36.9718Z" fill="#7263D6"/>
<path d="M87.5098 28.2197L42.6289 48.2931V122.028L88.7185 203.08H135.193L176.563 179.539V86.2419L140.495 22.7559L87.5098 28.2197Z" fill="#EFEAFD"/>
<path d="M79.6825 27.2188L40.3965 49.5729V117.757L91.4522 207.543H127.365L174.33 180.819V82.3182L142.999 27.2188H79.6825Z" fill="#EFEAFD"/>
<path d="M174.33 24.9688C174.33 24.8522 174.236 24.7578 174.12 24.7578H40.6074C40.4909 24.7578 40.3965 24.8522 40.3965 24.9688V205.081H174.12C174.236 205.081 174.33 204.987 174.33 204.87V24.9688Z" fill="#FCFAFE"/>
<path d="M84.0115 24.7559L39.3975 50.1414V115.997L81.0162 189.186C146.432 173.124 170.96 119.531 173.409 80.6939L141.6 24.7559H84.0122H84.0115Z" fill="#FCFAFE"/>
<path d="M173.846 24.8796C173.846 24.763 173.752 24.668 173.636 24.668H40.9221C40.8063 24.668 40.7119 24.7624 40.7119 24.8796V205.08H173.635C173.751 205.08 173.845 204.986 173.845 204.869V24.8796H173.846Z" fill="white"/>
<path d="M174.33 37.7441H40.3955V51.6753H174.33V37.7441Z" fill="#FFDA00"/>
<path d="M124.357 62.2656H52.8623V67.3844H124.357V62.2656Z" fill="#9A87FD"/>
<path d="M161.36 76.6122H53.2842V72.4941H161.36V76.6122Z" fill="#EDE7F6"/>
<path d="M161.36 81.0723H53.2842V85.191H161.36V81.0723Z" fill="#EDE7F6"/>
<path d="M102.944 89.209H53.2842V93.3277H102.944V89.209Z" fill="#EDE7F6"/>
<path d="M161.458 100.162H53.1875V105.281H161.458V100.162Z" fill="#FFDA00"/>
<path d="M161.458 109.376H127.928V109.374H124.989V109.376H91.5493V109.371H88.6099V109.376H53.1875V155.214H124.989V155.216H127.928V155.214H161.458V109.376ZM158.201 112.684V130.642H127.928V112.684H158.201ZM124.989 112.684V130.642H91.5493V112.684H124.989ZM88.6099 112.684V130.642H56.4445V112.684H88.6099ZM56.4445 133.949H88.6099V151.907H56.4445V133.949ZM91.5493 151.971V134.013H124.989V151.971H91.5493ZM127.928 151.906V133.948H158.201V151.906H127.928Z" fill="#EDE7F6"/>
<path d="M161.695 176.565H53.6191V172.447H161.695V176.565Z" fill="#EDE7F6"/>
<path d="M161.695 181.023H53.6191V185.142H161.695V181.023Z" fill="#EDE7F6"/>
<path d="M124.357 162.186H52.8623V167.4H124.357V162.186Z" fill="#9A87FD"/>
<path d="M74.8908 48.1671C74.3024 47.8409 73.8409 47.3923 73.507 46.8213C73.1731 46.2503 73.0059 45.607 73.0059 44.8915C73.0059 44.176 73.1731 43.5333 73.507 42.9617C73.8416 42.3907 74.3043 41.9415 74.896 41.6159C75.4876 41.2897 76.1496 41.127 76.8805 41.127C77.4513 41.127 77.9733 41.2233 78.4472 41.416C78.9203 41.6088 79.3245 41.8946 79.6584 42.2728L78.9796 42.935C78.4296 42.3529 77.7436 42.0619 76.9222 42.0619C76.3793 42.0619 75.8879 42.1843 75.4492 42.4298C75.0105 42.6752 74.6675 43.0131 74.4202 43.4448C74.1729 43.8758 74.0492 44.3583 74.0492 44.8908C74.0492 45.4234 74.1729 45.9059 74.4202 46.3369C74.6675 46.7679 75.0105 47.1065 75.4492 47.3519C75.8879 47.5974 76.3787 47.7198 76.9222 47.7198C77.737 47.7198 78.4224 47.4255 78.9796 46.8363L79.6584 47.4991C79.3245 47.8773 78.9184 48.1651 78.4419 48.3611C77.9649 48.5577 77.4409 48.6554 76.8701 48.6554C76.1392 48.6554 75.4792 48.4926 74.8908 48.1664V48.1671Z" fill="white"/>
<path d="M81.1523 41.2109H82.197V47.6573H86.1556V48.572H81.153V41.2109H81.1523Z" fill="white"/>
<path d="M92.0457 46.7321H88.1606L87.3562 48.572H86.2803L89.5913 41.2109H90.6255L93.9469 48.572H92.8502L92.0457 46.7321ZM91.6799 45.8909L90.1028 42.2839L88.5258 45.8909H91.6799Z" fill="white"/>
<path d="M95.0322 41.2109H96.0769V48.572H95.0322V41.2109Z" fill="white"/>
<path d="M105.048 48.572L105.037 43.2091L102.395 47.6781H101.914L99.2719 43.2404V48.572H98.2695V41.2109H99.1261L102.176 46.3844L105.184 41.2109H106.04L106.051 48.572H105.048H105.048Z" fill="white"/>
<path d="M112.098 42.1257V44.6916H115.764V45.596H112.098V48.572H111.054V41.2109H116.213V42.1257H112.098Z" fill="white"/>
<path d="M118.908 48.1671C118.317 47.8409 117.852 47.391 117.514 46.8161C117.176 46.2412 117.008 45.5999 117.008 44.8915C117.008 44.1831 117.176 43.5418 117.514 42.9669C117.852 42.392 118.317 41.9415 118.908 41.6159C119.5 41.2897 120.165 41.127 120.903 41.127C121.641 41.127 122.296 41.2897 122.888 41.6159C123.479 41.9421 123.943 42.3907 124.277 42.9617C124.611 43.5333 124.778 44.176 124.778 44.8915C124.778 45.607 124.611 46.2496 124.277 46.8213C123.943 47.3929 123.479 47.8415 122.888 48.1671C122.296 48.4933 121.634 48.656 120.903 48.656C120.172 48.656 119.5 48.4933 118.908 48.1671ZM122.35 47.3519C122.778 47.1065 123.116 46.7685 123.362 46.3369C123.61 45.9059 123.733 45.4241 123.733 44.8908C123.733 44.3576 123.61 43.8758 123.362 43.4448C123.115 43.0138 122.777 42.6752 122.35 42.4298C121.921 42.1843 121.439 42.0619 120.903 42.0619C120.368 42.0619 119.881 42.1843 119.446 42.4298C119.011 42.6752 118.669 43.0131 118.422 43.4448C118.175 43.8758 118.051 44.3583 118.051 44.8908C118.051 45.4234 118.175 45.9059 118.422 46.3369C118.669 46.7679 119.011 47.1065 119.446 47.3519C119.881 47.5974 120.367 47.7198 120.903 47.7198C121.44 47.7198 121.922 47.5974 122.35 47.3519Z" fill="white"/>
<path d="M131.264 48.572L129.687 46.3115C129.492 46.3258 129.339 46.3323 129.227 46.3323H127.421V48.572H126.376V41.2109H129.227C130.174 41.2109 130.92 41.4388 131.463 41.8946C132.005 42.3503 132.277 42.978 132.277 43.7768C132.277 44.3446 132.138 44.8283 131.86 45.2281C131.581 45.6279 131.184 45.9189 130.669 46.1012L132.403 48.5727H131.265L131.264 48.572ZM130.711 45.0074C131.059 44.7203 131.233 44.3101 131.233 43.7768C131.233 43.2436 131.058 42.8354 130.711 42.5515C130.363 42.2676 129.857 42.1257 129.196 42.1257H127.421V45.4384H129.196C129.857 45.4384 130.363 45.2945 130.711 45.0074Z" fill="white"/>
<path d="M140.747 48.572L140.737 43.2091L138.094 47.6781H137.614L134.971 43.2404V48.572H133.969V41.2109H134.825L137.875 46.3844L140.883 41.2109H141.74L141.75 48.572H140.748H140.747Z" fill="white"/>
<path d="M56.471 220.041C61.1826 214.416 65.4296 208.316 67.8606 201.211C68.2329 200.123 68.6162 199.088 68.9697 198.288C71.1149 193.428 73.529 186.138 77.103 182.208C77.1036 182.207 93.0552 163.056 93.0552 163.056C95.5988 159.975 76.3532 160.083 72.8189 163.277C68.8863 166.83 65.4973 170.89 61.4085 174.298C60.4946 175.059 59.5444 175.813 58.4314 176.232C56.1214 177.099 52.8202 176.131 51.3805 175.073C48.5375 172.985 44.3406 166.837 43.3949 163.438C41.5575 156.831 39.174 136.267 40.3911 135.836C40.3911 135.836 26.264 141.289 25.9327 152.998C25.2831 175.963 25.5825 213.831 21.1221 240.001H54.6095C53.4021 232.781 52.1518 225.198 56.471 220.041Z" fill="#FFA8A8"/>
<path d="M50.1981 218.191C55.2957 212.914 57.5236 209.125 60.4513 202.209C60.8997 201.149 61.3553 200.145 61.7641 199.372C64.2478 194.676 55.6836 177.423 52.411 177.972C50.2189 178.34 48.0118 176.24 46.1601 175.011C44.307 173.78 42.6395 172.229 41.464 170.34C39.9995 167.986 38.2357 162.477 38.2357 162.477C38.2357 162.477 39.3539 136.719 39.3662 136.719C39.3662 136.719 25.5007 139.492 24.3415 151.149C21.973 174.969 15.8444 212.097 4.43262 239.542H45.6823C45.6107 231.583 45.4148 223.142 50.1981 218.191Z" fill="#FFE3E3"/>
<path d="M52.5008 218.65C57.5984 213.373 59.8263 209.584 62.754 202.668C63.2024 201.609 63.658 200.604 64.0668 199.831C66.5505 195.135 69.4749 188.034 73.3176 184.367C73.3189 184.367 91.9833 166.556 91.9833 166.556C94.7385 163.662 95.2344 157.818 91.6917 155.416C88.8019 153.457 84.3512 154.463 81.7041 156.466C77.9076 159.34 74.1332 162.244 70.3835 165.179C67.7611 167.232 57.9863 176.733 54.7137 177.282C52.5216 177.649 50.3145 176.699 48.4628 175.469C46.6097 174.238 44.9422 172.688 43.7667 170.798C43.5051 170.378 43.2343 169.857 42.9655 169.284C41.3578 165.864 40.5338 162.127 40.5117 158.348C40.4668 150.619 40.3815 135.834 40.3906 135.834C40.3906 135.834 25.5019 139.951 24.3427 151.607C22.012 175.051 19.5673 214.2 12.8984 240H47.985C47.9134 232.041 47.7175 223.601 52.5008 218.649V218.65Z" fill="#FFCECE"/>
<path d="M85.3019 166.602L80.5538 161.234C80.1294 160.754 80.1743 160.021 80.654 159.597L86.4728 154.447C88.4345 152.711 91.4312 152.894 93.1664 154.856C94.9016 156.818 94.7187 159.816 92.7576 161.551L86.9388 166.701C86.4591 167.126 85.7263 167.081 85.3019 166.601V166.602Z" fill="#FFE7E3"/>
<path d="M67.0399 224.562C57.3087 212.161 20.4628 204.307 6.92984 211.887C6.46902 212.146 6.13773 212.585 6.01797 213.1C4.10115 221.323 2.00859 230.747 0 240.001H64.7397C65.6945 235.536 66.6422 231.087 67.5573 226.766C67.7213 225.991 67.5287 225.186 67.0399 224.562V224.562Z" fill="#3F3F63"/>
<path d="M59.9647 232.322C58.2822 232.357 56.8854 231.016 56.8503 229.333C56.8151 227.65 58.1559 226.253 59.8384 226.217C61.5209 226.182 62.9177 227.524 62.9529 229.207C62.988 230.89 61.6472 232.287 59.9647 232.322ZM59.856 227.061C58.6389 227.087 57.6684 228.098 57.6938 229.315C57.7192 230.533 58.73 231.503 59.9471 231.478C61.1643 231.453 62.1341 230.442 62.1093 229.224C62.084 228.007 61.0731 227.037 59.856 227.061Z" fill="#E4D6F6"/>
<path d="M55.2649 216.2C40.1582 209.175 17.0392 206.224 6.92984 211.887C6.46902 212.146 6.13773 212.585 6.01797 213.1C4.10115 221.323 2.00859 230.748 0 240.002H15.4029C21.3389 218.345 48.7744 214.21 55.2649 216.201V216.2Z" fill="#5D5D89"/>
<path d="M74.8975 128.4L73.3302 128.947L74.451 132.16L71.578 133.163L67.3604 121.074L72.0037 119.453C72.9227 119.132 73.7838 119.035 74.5876 119.161C75.3915 119.287 76.0944 119.623 76.6971 120.168C77.2998 120.713 77.76 121.441 78.077 122.351C78.3822 123.226 78.4766 124.049 78.3601 124.819C78.2436 125.589 77.9305 126.27 77.4209 126.861L80.9376 129.896L77.8615 130.97L74.8981 128.4H74.8975ZM74.2668 122.208C73.8587 122.002 73.3588 122.002 72.7691 122.208L71.1732 122.765L72.4085 126.306L74.0045 125.749C74.5941 125.543 74.986 125.235 75.1799 124.825C75.3732 124.415 75.3719 123.928 75.1747 123.364C74.9782 122.8 74.6749 122.414 74.2668 122.208Z" fill="#FF1744"/>
<path d="M89.4723 123.951L90.3939 126.593L82.2391 129.44L78.0215 117.351L85.9875 114.57L86.9092 117.212L81.7874 119.001L82.4982 121.039L87.0107 119.463L87.9024 122.019L83.3899 123.595L84.1612 125.805L89.4716 123.951H89.4723Z" fill="#FF1744"/>
<path d="M92.1798 125.727C91.4638 125.635 90.8123 125.369 90.2246 124.928L91.0206 122.17C91.8557 122.822 92.5873 123.037 93.216 122.818C93.6319 122.672 93.8968 122.412 94.0094 122.037C94.1227 121.662 94.0791 121.186 93.8779 120.611L92.064 115.412L88.5525 116.638L87.6309 113.996L93.986 111.777L96.6494 119.411C97.1954 120.976 97.2742 122.267 96.885 123.281C96.4957 124.295 95.6574 125.027 94.3713 125.475C93.626 125.735 92.8958 125.819 92.1805 125.727L92.1798 125.727Z" fill="#FF1744"/>
<path d="M107.191 117.766L108.113 120.408L99.9579 123.255L95.7402 111.166L103.706 108.385L104.628 111.027L99.5062 112.815L100.217 114.853L104.729 113.278L105.621 115.834L101.109 117.409L101.88 119.62L107.19 117.766H107.191Z" fill="#FF1744"/>
<path d="M111.357 118.646C110.323 118.406 109.399 117.892 108.582 117.106C107.764 116.319 107.145 115.321 106.723 114.112C106.302 112.903 106.166 111.737 106.316 110.612C106.466 109.487 106.871 108.51 107.531 107.679C108.19 106.848 109.052 106.247 110.116 105.875C111.045 105.551 111.949 105.455 112.831 105.586C113.712 105.718 114.528 106.066 115.279 106.631L114.137 109.237C113.15 108.523 112.187 108.33 111.249 108.657C110.698 108.85 110.257 109.165 109.927 109.603C109.597 110.042 109.405 110.564 109.35 111.171C109.296 111.777 109.388 112.42 109.624 113.1C109.861 113.779 110.189 114.339 110.61 114.78C111.03 115.222 111.505 115.511 112.036 115.648C112.566 115.785 113.108 115.758 113.659 115.565C114.597 115.238 115.23 114.487 115.559 113.313L118.074 114.644C117.838 115.553 117.415 116.334 116.807 116.985C116.199 117.636 115.431 118.124 114.502 118.448C113.438 118.82 112.389 118.886 111.356 118.646H111.357Z" fill="#FF1744"/>
<path d="M119.51 105.91L116.39 106.999L115.444 104.287L124.542 101.111L125.488 103.823L122.383 104.907L125.655 114.285L122.782 115.288L119.51 105.91V105.91Z" fill="#FF1744"/>
<path d="M137.103 107.322L138.025 109.964L129.87 112.811L125.652 100.722L133.618 97.9414L134.54 100.583L129.418 102.372L130.129 104.41L134.642 102.834L135.533 105.39L131.021 106.966L131.792 109.176L137.102 107.322H137.103Z" fill="#FF1744"/>
<path d="M135.25 97.3712L140.053 95.6947C141.165 95.3066 142.238 95.2096 143.272 95.4036C144.306 95.5983 145.218 96.0677 146.01 96.8113C146.801 97.5555 147.41 98.5379 147.835 99.7581C148.261 100.979 148.396 102.127 148.239 103.201C148.082 104.276 147.66 105.211 146.972 106.007C146.283 106.803 145.383 107.395 144.27 107.783L139.468 109.46L135.25 97.3706V97.3712ZM143.202 105.096C144.073 104.792 144.669 104.254 144.992 103.483C145.314 102.711 145.294 101.808 144.933 100.772C144.572 99.7353 144.024 99.0158 143.293 98.6128C142.561 98.2098 141.759 98.1603 140.889 98.4637L139.075 99.0972L141.389 105.729L143.203 105.096H143.202Z" fill="#FF1744"/>
<path d="M151.66 108.47L71.4473 136.475L72.3335 139.015L152.547 111.01L151.66 108.47Z" fill="#FF1744"/>
<path d="M144.562 88.1221L64.3486 116.127L65.2349 118.667L145.448 90.6621L144.562 88.1221Z" fill="#FF1744"/>
</svg>
