<svg width="28" height="33" viewBox="0 0 28 33" fill="none" xmlns="http://www.w3.org/2000/svg">
<path d="M7.96376 5.73443C8.47456 5.65023 8.9291 5.61215 9.36039 5.49573C9.92445 5.34343 10.466 5.11571 11.0256 4.94511C11.5214 4.79427 11.9586 5.01174 12.0779 5.43423C12.2039 5.87941 11.9729 6.24698 11.4786 6.41832C10.8328 6.64237 10.2005 6.91403 9.54266 7.09415C9.14437 7.20325 8.70783 7.193 8.28704 7.20471C8.05077 7.2113 7.95926 7.27061 7.96001 7.51664C7.96751 10.7267 7.96526 13.9367 7.96601 17.1474C7.96601 17.2067 7.97726 17.2653 7.98926 17.3839C8.4318 17.3839 8.86384 17.3788 9.29589 17.3854C9.87044 17.3934 10.121 17.5787 10.2342 18.1293C10.4488 19.1764 10.8155 20.1671 11.2948 21.1255C11.7381 22.0122 12.1612 22.9099 12.5632 23.8149C12.6832 24.0844 12.7545 24.397 12.7567 24.6907C12.774 26.4846 12.7657 28.2792 12.7657 30.0732C12.7657 30.2181 12.7657 30.3631 12.7657 30.5674C12.9817 30.4978 13.1633 30.462 13.323 30.3836C14.4496 29.8293 15.1262 28.9514 15.1735 27.7066C15.22 26.4758 15.19 25.2413 15.1937 24.009C15.1937 23.8991 15.19 23.7893 15.196 23.6795C15.2245 23.1904 15.5357 22.8638 15.9753 22.8572C16.4276 22.8499 16.7719 23.1867 16.7734 23.6941C16.7764 25.0853 16.8124 26.4795 16.7366 27.867C16.6061 30.2562 14.5944 32.1255 12.1544 32.2075C11.5251 32.2288 11.1958 31.9264 11.1951 31.3106C11.1928 29.1747 11.1981 27.0381 11.1883 24.9023C11.1876 24.6921 11.1321 24.4673 11.0451 24.2748C10.439 22.9377 9.81194 21.6102 9.20738 20.2725C9.07762 19.9847 8.97711 19.6743 8.92985 19.3638C8.8721 18.9816 8.66583 18.8828 8.31629 18.9311C8.21878 18.945 8.11977 18.945 7.96301 18.9545C7.96301 19.2174 7.96976 19.4693 7.96151 19.7204C7.94501 20.1993 7.64798 20.4958 7.15668 20.4973C5.04372 20.5024 2.93152 20.5031 0.81856 20.4973C0.271756 20.4958 0.00247983 20.1854 0.00247983 19.5835C0.000229614 15.3594 0.000979688 11.1367 0.000979688 6.91329C0.000979688 6.27847 -0.00202061 5.64364 0.00247983 5.00954C0.0062302 4.41792 0.294258 4.11844 0.889816 4.11698C2.95252 4.11039 5.01522 4.11112 7.07792 4.11698C7.66223 4.11844 7.95251 4.41279 7.96376 4.97513C7.96826 5.18088 7.96376 5.38663 7.96376 5.73516V5.73443ZM1.58663 18.9413H6.36535V5.68171H1.58663V18.9413Z" fill="#3A3A3A"/>
<path d="M20.7403 14.2404C16.6937 14.1701 13.5329 11.0026 13.5967 7.08012C13.6589 3.1994 16.954 0.136561 20.9849 0.209782C24.9168 0.281539 28.0581 3.50766 27.9786 7.39278C27.9005 11.1871 24.6025 14.3078 20.7403 14.2404ZM20.7696 12.694C23.8599 12.7064 26.3854 10.2704 26.4079 7.25366C26.4304 4.24573 23.9147 1.75255 20.8431 1.74084C17.7056 1.72839 15.1733 4.17324 15.1681 7.21924C15.1628 10.2279 17.6733 12.6815 20.7696 12.6947V12.694Z" fill="#3A3A3A"/>
<path d="M20.2026 21.2756C18.5907 21.2756 16.9781 21.2778 15.3661 21.2749C14.7773 21.2734 14.4406 21.015 14.4121 20.5617C14.3858 20.1466 14.6341 19.8273 15.0579 19.7541C15.2161 19.727 15.3811 19.7277 15.5432 19.7277C18.6305 19.7263 21.717 19.727 24.8043 19.7277C25.5776 19.7277 26.0614 19.4473 26.3 18.8601C26.567 18.2033 26.4185 17.5626 25.8747 17.0603C25.3511 16.577 25.1441 15.9964 25.2986 15.3044C25.3931 14.8805 25.7674 14.6184 26.1747 14.6791C26.5962 14.7421 26.8925 15.0796 26.8445 15.508C26.8183 15.7467 26.8978 15.8902 27.0628 16.0469C27.9846 16.9226 28.2517 18.2706 27.7536 19.4605C27.2803 20.5903 26.204 21.2742 24.8891 21.2756C23.3267 21.2771 21.7643 21.2756 20.2026 21.2756Z" fill="#3A3A3A"/>
<path d="M3.96645 8.77683C3.53066 8.76804 3.19163 8.42391 3.20138 7.99922C3.21113 7.57674 3.56816 7.24285 3.99946 7.25163C4.4315 7.25969 4.77203 7.60822 4.76378 8.03217C4.75478 8.45832 4.40449 8.78562 3.96645 8.77756V8.77683Z" fill="#3A3A3A"/>
<path d="M23.0252 3.97461C23.392 4.33705 23.7333 4.6746 24.0588 4.99604C23.3358 5.69824 22.6052 6.40775 21.8529 7.1385C22.669 7.92782 23.4093 8.64246 24.1421 9.35124C23.7408 9.7459 23.3905 10.0908 23.0372 10.4386C22.3187 9.72906 21.5941 9.01296 20.8725 8.29978C20.0895 9.07373 19.3641 9.79057 18.6531 10.4942C18.2375 10.0754 17.8857 9.72028 17.5257 9.35783C18.2083 8.69518 18.9396 7.98493 19.6867 7.26004C18.9111 6.51026 18.1798 5.80221 17.4395 5.08684C17.8602 4.70829 18.2323 4.37293 18.6411 4.0039C19.3124 4.66801 20.0362 5.38485 20.82 6.16026C21.5754 5.41267 22.3037 4.69144 23.0267 3.97534L23.0252 3.97461Z" fill="#FD0E0E"/>
</svg>
