<svg width="28" height="32" viewBox="0 0 28 32" fill="none" xmlns="http://www.w3.org/2000/svg">
<path d="M7.96376 5.52594C8.47456 5.44173 8.9291 5.40366 9.36039 5.28724C9.92445 5.13494 10.466 4.90722 11.0256 4.73661C11.5214 4.58578 11.9586 4.80324 12.0779 5.22573C12.2039 5.67091 11.9729 6.03848 11.4786 6.20982C10.8328 6.43388 10.2005 6.70553 9.54266 6.88565C9.14437 6.99475 8.70783 6.9845 8.28704 6.99622C8.05077 7.00281 7.95926 7.06212 7.96001 7.30814C7.96751 10.5182 7.96526 13.7282 7.96601 16.9389C7.96601 16.9982 7.97726 17.0568 7.98926 17.1754C8.4318 17.1754 8.86384 17.1703 9.29589 17.1769C9.87044 17.1849 10.121 17.3702 10.2342 17.9208C10.4488 18.9679 10.8155 19.9586 11.2948 20.917C11.7381 21.8037 12.1612 22.7014 12.5632 23.6064C12.6832 23.8759 12.7545 24.1885 12.7567 24.4822C12.774 26.2761 12.7657 28.0707 12.7657 29.8647C12.7657 30.0096 12.7657 30.1546 12.7657 30.3589C12.9817 30.2893 13.1633 30.2535 13.323 30.1751C14.4496 29.6208 15.1262 28.7429 15.1735 27.4981C15.22 26.2673 15.19 25.0328 15.1937 23.8005C15.1937 23.6906 15.19 23.5808 15.196 23.471C15.2245 22.9819 15.5357 22.6553 15.9753 22.6487C16.4276 22.6414 16.7719 22.9782 16.7734 23.4856C16.7764 24.8768 16.8124 26.271 16.7366 27.6585C16.6061 30.0477 14.5944 31.917 12.1544 31.9991C11.5251 32.0203 11.1958 31.7179 11.1951 31.1021C11.1928 28.9662 11.1981 26.8296 11.1883 24.6938C11.1876 24.4836 11.1321 24.2588 11.0451 24.0663C10.439 22.7293 9.81194 21.4018 9.20738 20.064C9.07762 19.7762 8.97711 19.4658 8.92985 19.1553C8.8721 18.7731 8.66583 18.6743 8.31629 18.7226C8.21878 18.7365 8.11977 18.7365 7.96301 18.746C7.96301 19.0089 7.96976 19.2608 7.96151 19.5119C7.94501 19.9908 7.64798 20.2873 7.15668 20.2888C5.04372 20.2939 2.93152 20.2946 0.81856 20.2888C0.271756 20.2873 0.00247983 19.9769 0.00247983 19.375C0.000229614 15.1509 0.000979688 10.9282 0.000979688 6.7048C0.000979688 6.06997 -0.00202061 5.43514 0.00247983 4.80105C0.0062302 4.20942 0.294258 3.90994 0.889816 3.90848C2.95252 3.90189 5.01522 3.90262 7.07792 3.90848C7.66223 3.90994 7.95251 4.20429 7.96376 4.76663C7.96826 4.97238 7.96376 5.17814 7.96376 5.52667V5.52594ZM1.58663 18.7328H6.36535V5.47322H1.58663V18.7328Z" fill="white"/>
<path d="M20.7403 14.0319C16.6937 13.9616 13.5329 10.7941 13.5967 6.87163C13.6589 2.99091 16.954 -0.0719353 20.9849 0.00128589C24.9168 0.0730426 28.0581 3.29917 27.9786 7.18428C27.9005 10.9786 24.6025 14.0993 20.7403 14.0319ZM20.7696 12.4855C23.8599 12.4979 26.3854 10.0619 26.4079 7.04516C26.4304 4.03724 23.9147 1.54406 20.8431 1.53234C17.7056 1.51989 15.1733 3.96475 15.1681 7.01075C15.1628 10.0194 17.6733 12.473 20.7696 12.4862V12.4855Z" fill="white"/>
<path d="M20.2026 21.0671C18.5907 21.0671 16.9781 21.0693 15.3661 21.0664C14.7773 21.0649 14.4406 20.8065 14.4121 20.3532C14.3858 19.9381 14.6341 19.6188 15.0579 19.5456C15.2161 19.5185 15.3811 19.5192 15.5432 19.5192C18.6305 19.5178 21.717 19.5185 24.8043 19.5192C25.5776 19.5192 26.0614 19.2388 26.3 18.6516C26.567 17.9948 26.4185 17.3541 25.8747 16.8518C25.3511 16.3685 25.1441 15.7879 25.2986 15.0959C25.3931 14.672 25.7674 14.4099 26.1747 14.4706C26.5962 14.5336 26.8925 14.8712 26.8445 15.2995C26.8183 15.5382 26.8978 15.6817 27.0628 15.8384C27.9846 16.7141 28.2517 18.0621 27.7536 19.252C27.2803 20.3818 26.204 21.0657 24.8891 21.0671C23.3267 21.0686 21.7643 21.0671 20.2026 21.0671Z" fill="white"/>
<path d="M3.96645 8.56834C3.53066 8.55955 3.19163 8.21541 3.20138 7.79073C3.21113 7.36824 3.56816 7.03435 3.99946 7.04314C4.4315 7.05119 4.77203 7.39973 4.76378 7.82368C4.75478 8.24982 4.40449 8.57712 3.96645 8.56907V8.56834Z" fill="white"/>
<path d="M23.0252 3.76611C23.392 4.12856 23.7333 4.46611 24.0588 4.78755C23.3358 5.48974 22.6052 6.19925 21.8529 6.93C22.669 7.71932 23.4093 8.43396 24.1421 9.14275C23.7408 9.53741 23.3905 9.88228 23.0372 10.2301C22.3187 9.52057 21.5941 8.80446 20.8725 8.09129C20.0895 8.86524 19.3641 9.58207 18.6531 10.2857C18.2375 9.8669 17.8857 9.51178 17.5257 9.14933C18.2083 8.48668 18.9396 7.77644 19.6867 7.05155C18.9111 6.30176 18.1798 5.59371 17.4395 4.87834C17.8602 4.49979 18.2323 4.16444 18.6411 3.7954C19.3124 4.45952 20.0362 5.17635 20.82 5.95177C21.5754 5.20418 22.3037 4.48295 23.0267 3.76685L23.0252 3.76611Z" fill="white"/>
</svg>
