<svg width="737" height="549" viewBox="0 0 737 549" fill="none" xmlns="http://www.w3.org/2000/svg">
<path d="M737 482.453H0V482.821H737V482.453Z" fill="#E0E0E0"/>
<path d="M559.135 496.04H508.43V496.408H559.135V496.04Z" fill="#E0E0E0"/>
<path d="M618.779 494.993H590.242V495.362H618.779V494.993Z" fill="#E0E0E0"/>
<path d="M364.571 495.862H326.719V496.231H364.571V495.862Z" fill="#E0E0E0"/>
<path d="M391.924 501.093H366.07V501.462H391.924V501.093Z" fill="#E0E0E0"/>
<path d="M213.248 492.135H135.141V492.503H213.248V492.135Z" fill="#E0E0E0"/>
<path d="M349.337 416.731H64.7221C62.4925 416.727 60.3555 415.839 58.7802 414.261C57.205 412.684 56.3203 410.546 56.3203 408.317V8.34051C56.3397 6.12427 57.233 4.00518 58.8061 2.44353C60.3793 0.881881 62.5052 0.00379654 64.7221 0H349.337C351.569 0 353.71 0.886493 355.288 2.46446C356.867 4.04243 357.753 6.18261 357.753 8.41419V408.317C357.753 410.548 356.867 412.688 355.288 414.266C353.71 415.844 351.569 416.731 349.337 416.731ZM64.7221 0.294719C62.5902 0.298622 60.5469 1.14802 59.0408 2.65648C57.5347 4.16493 56.6888 6.20919 56.6888 8.34051V408.317C56.6888 410.448 57.5347 412.492 59.0408 414.001C60.5469 415.509 62.5902 416.359 64.7221 416.362H349.337C351.47 416.359 353.515 415.51 355.023 414.002C356.532 412.494 357.381 410.449 357.385 408.317V8.34051C357.381 6.20783 356.532 4.16361 355.023 2.65558C353.515 1.14754 351.47 0.298614 349.337 0.294719H64.7221Z" fill="#E0E0E0"/>
<path d="M668.179 416.731H383.549C381.318 416.727 379.18 415.839 377.602 414.262C376.025 412.685 375.137 410.547 375.133 408.317V8.34051C375.156 6.12293 376.053 4.00385 377.628 2.44261C379.204 0.881366 381.331 0.00375513 383.549 0H668.179C670.393 0.00766929 672.515 0.887468 674.085 2.4487C675.655 4.00994 676.546 6.12682 676.566 8.34051V408.317C676.566 410.543 675.683 412.679 674.111 414.256C672.539 415.833 670.406 416.723 668.179 416.731ZM383.549 0.294719C381.416 0.298614 379.371 1.14754 377.863 2.65558C376.354 4.16361 375.505 6.20783 375.501 8.34051V408.317C375.505 410.449 376.354 412.494 377.863 414.002C379.371 415.51 381.416 416.359 383.549 416.362H668.179C670.312 416.359 672.357 415.51 673.865 414.002C675.374 412.494 676.223 410.449 676.227 408.317V8.34051C676.223 6.20783 675.374 4.16361 673.865 2.65558C672.357 1.14754 670.312 0.298614 668.179 0.294719H383.549Z" fill="#E0E0E0"/>
<path d="M639.757 35.7642H417.625V226.682H639.757V35.7642Z" fill="#E0E0E0"/>
<path d="M644.694 35.7642H422.562V226.682H644.694V35.7642Z" fill="#F0F0F0"/>
<path d="M635.828 217.723V44.7236L431.414 44.7236V217.723H635.828Z" fill="#FAFAFA"/>
<path d="M570.508 217.723V44.7236H557.153V217.723H570.508Z" fill="#E0E0E0"/>
<path d="M500.258 217.723V44.7236H486.903V217.723H500.258Z" fill="#E0E0E0"/>
<path d="M575.219 223.396V38.0479H561.864V223.396H575.219Z" fill="#F0F0F0"/>
<path d="M504.938 223.411V38.063H491.583V223.411H504.938Z" fill="#F0F0F0"/>
<path d="M635.828 217.708V44.7085H632.099V217.708H635.828Z" fill="#E0E0E0"/>
<path d="M261.383 186.542C261.383 186.542 234.35 139.991 271.863 102.872C271.863 102.872 281.651 109.252 281.503 117.829C281.356 126.405 271.008 128.571 273.234 135.733C275.46 142.894 285.203 149.894 278.806 155.818C272.409 161.741 279.838 166.987 279.41 174.237C278.983 181.488 261.383 186.542 261.383 186.542Z" fill="#E0E0E0"/>
<path d="M265.633 194.161C265.633 194.161 276.6 141.436 229.314 118.064C229.314 118.064 222.032 127.201 224.892 135.291C227.752 143.381 238.232 142.172 238.379 149.673C238.527 157.174 231.496 166.899 239.426 170.495C247.356 174.09 241.976 181.429 244.673 188.178C247.371 194.927 265.633 194.161 265.633 194.161Z" fill="#E6E6E6"/>
<path d="M241.578 180.765C241.578 180.765 242.05 226.284 260.254 226.284C278.458 226.284 278.915 180.765 278.915 180.765H241.578Z" fill="#F0F0F0"/>
<path d="M132.195 209.161C132.195 209.161 133.212 226.284 172.082 226.284C210.951 226.284 211.983 209.161 211.983 209.161H132.195Z" fill="#E6E6E6"/>
<path d="M541.99 312.401H521.472C518.916 312.401 516.844 314.473 516.844 317.028V350.95C516.844 353.505 518.916 355.577 521.472 355.577H541.99C544.546 355.577 546.619 353.505 546.619 350.95V317.028C546.619 314.473 544.546 312.401 541.99 312.401Z" fill="#F0F0F0"/>
<path d="M596.414 326.518H582.602C580.885 326.518 579.492 327.91 579.492 329.627V352.468C579.492 354.185 580.885 355.577 582.602 355.577H596.414C598.131 355.577 599.524 354.185 599.524 352.468V329.627C599.524 327.91 598.131 326.518 596.414 326.518Z" fill="#E6E6E6"/>
<path d="M598.477 323.703H580.539C579.961 323.703 579.492 324.172 579.492 324.749V325.928C579.492 326.506 579.961 326.974 580.539 326.974H598.477C599.055 326.974 599.524 326.506 599.524 325.928V324.749C599.524 324.172 599.055 323.703 598.477 323.703Z" fill="#F0F0F0"/>
<path d="M469.352 331.557C469.352 331.557 470.089 355.577 498.227 355.577C526.366 355.577 527.118 331.557 527.118 331.557H469.352Z" fill="#E6E6E6"/>
<path d="M399.361 299.832H441.945V291.432H399.361V299.832Z" fill="#E0E0E0"/>
<path d="M653.656 291.446H441.945V299.846H653.656V291.446Z" fill="#F0F0F0"/>
<path d="M399.361 363.976H441.945V355.577H399.361V363.976Z" fill="#E0E0E0"/>
<path d="M653.656 355.577H441.945V363.977H653.656V355.577Z" fill="#F0F0F0"/>
<path d="M414.708 299.832H406.852V482.439H414.708V299.832Z" fill="#E0E0E0"/>
<path d="M449.802 299.832H441.945V482.439H449.802V299.832Z" fill="#F0F0F0"/>
<path d="M626.419 299.832H618.562V482.439H626.419V299.832Z" fill="#E0E0E0"/>
<path d="M653.661 299.832H645.805V482.439H653.661V299.832Z" fill="#F0F0F0"/>
<path d="M132.199 236.968H91.9297V471.401H132.199V236.968Z" fill="#E6E6E6"/>
<path d="M298.249 471.387H99.6719V482.454H298.249V471.387Z" fill="#E6E6E6"/>
<path d="M132.199 471.387H305.969L305.969 236.954L132.199 236.954L132.199 471.387Z" fill="#F0F0F0"/>
<path d="M148.032 382.809H290.141V325.545H148.032V382.809Z" fill="#E6E6E6"/>
<path d="M148.032 450.506H290.141V393.243H148.032V450.506Z" fill="#E6E6E6"/>
<path d="M235.036 331.823H203.124C202.085 331.82 201.09 331.405 200.356 330.671C199.621 329.937 199.207 328.942 199.203 327.904C199.203 326.863 199.616 325.864 200.351 325.127C201.085 324.389 202.083 323.973 203.124 323.969H235.036C236.077 323.973 237.075 324.389 237.809 325.127C238.544 325.864 238.957 326.863 238.957 327.904C238.953 328.942 238.539 329.937 237.804 330.671C237.07 331.405 236.075 331.82 235.036 331.823Z" fill="#F0F0F0"/>
<path d="M148.032 315.097H290.141V257.834H148.032V315.097Z" fill="#E6E6E6"/>
<path d="M235.036 264.126H203.124C202.083 264.122 201.085 263.706 200.351 262.969C199.616 262.231 199.203 261.233 199.203 260.192C199.207 259.153 199.621 258.159 200.356 257.424C201.09 256.69 202.085 256.276 203.124 256.272H235.036C236.075 256.276 237.07 256.69 237.804 257.424C238.539 258.159 238.953 259.153 238.957 260.192C238.957 261.233 238.544 262.231 237.809 262.969C237.075 263.706 236.077 264.122 235.036 264.126Z" fill="#F0F0F0"/>
<path d="M235.036 399.52H203.124C202.085 399.516 201.09 399.102 200.356 398.367C199.621 397.633 199.207 396.638 199.203 395.6C199.203 394.559 199.616 393.561 200.351 392.823C201.085 392.086 202.083 391.669 203.124 391.666H235.036C236.077 391.669 237.075 392.086 237.809 392.823C238.544 393.561 238.957 394.559 238.957 395.6C238.953 396.638 238.539 397.633 237.804 398.367C237.07 399.102 236.075 399.516 235.036 399.52Z" fill="#F0F0F0"/>
<path d="M311.331 226.284H132.195V236.967H311.331V226.284Z" fill="#E6E6E6"/>
<path d="M86.295 236.953H132.195V226.27H86.295V236.953Z" fill="#E0E0E0"/>
<path d="M177.08 44.7236H111.93V116.252H177.08V44.7236Z" fill="#E6E6E6"/>
<path d="M184.147 44.7236H116.844V116.252H184.147V44.7236Z" fill="#F0F0F0"/>
<path d="M178.508 110.608V50.3525H122.481V110.608H178.508Z" fill="#FAFAFA"/>
<path d="M164.922 96.0046V64.9561H136.061V96.0046H164.922Z" fill="#F0F0F0"/>
<path d="M245.776 23.6069H196.367V76.6709H245.776V23.6069Z" fill="#E6E6E6"/>
<path d="M251.026 23.6069H201.102V76.6709H251.026V23.6069Z" fill="#F0F0F0"/>
<path d="M246.844 72.4855V27.7915L205.292 27.7915V72.4855H246.844Z" fill="#FAFAFA"/>
<path d="M226.052 38.8286L214.688 58.5158H237.417L226.052 38.8286Z" fill="#F0F0F0"/>
<path d="M368.497 549C526.337 549 654.291 541.531 654.291 532.319C654.291 523.106 526.337 515.638 368.497 515.638C210.657 515.638 82.7031 523.106 82.7031 532.319C82.7031 541.531 210.657 549 368.497 549Z" fill="#F5F5F5"/>
<path d="M192.153 205.211C190.856 208.158 189.426 211.341 188.173 214.451C186.92 217.56 185.623 220.758 184.488 223.94C182.16 230.146 180.292 236.514 178.902 242.994L178.474 245.352L178.327 246.236C178.327 246.486 178.327 246.811 178.239 247.105C178.182 248.54 178.212 249.977 178.327 251.408C178.607 254.517 179.108 257.848 179.801 261.178C181.039 267.853 182.616 274.735 184.223 281.514L176.661 284.461C173.136 278.037 170.135 271.34 167.685 264.435C166.394 260.841 165.35 257.163 164.56 253.427C164.117 251.36 163.841 249.261 163.734 247.149C163.734 246.56 163.734 246 163.734 245.366C163.734 244.733 163.734 244.025 163.838 243.613L164.132 240.666C164.573 236.87 165.247 233.105 166.152 229.393C166.977 225.709 168.038 222.128 169.1 218.591C170.161 215.055 171.488 211.577 172.888 208.158C173.581 206.449 174.362 204.754 175.04 203.06C175.718 201.365 176.514 199.744 177.457 197.932L192.153 205.211Z" fill="#E4897B"/>
<path d="M183.828 279.524L189.576 285.139L177.033 291.033C177.033 291.033 173.996 285.713 176.104 280.91L183.828 279.524Z" fill="#E4897B"/>
<path d="M194.211 293.494L183.613 297.826L177.039 290.974L189.568 285.139L194.211 293.494Z" fill="#E4897B"/>
<path opacity="0.4" d="M408.904 287.452C388.048 285.111 368.355 276.641 352.313 263.113C336.272 249.584 324.603 231.604 318.782 211.447C312.96 191.289 313.248 169.859 319.608 149.864C325.967 129.87 338.114 112.21 354.512 99.1157C370.911 86.0218 390.824 78.0824 411.735 76.3011C432.646 74.5198 453.616 78.9766 471.993 89.1081C490.371 99.2396 505.331 114.591 514.983 133.221C524.635 151.852 528.545 172.925 526.219 193.776C524.674 207.63 520.413 221.044 513.679 233.25C506.946 245.457 497.873 256.218 486.978 264.917C476.083 273.617 463.58 280.085 450.184 283.951C436.787 287.818 422.76 289.008 408.904 287.452Z" fill="#FAFAFA"/>
<path opacity="0.4" d="M486.113 98.4199L324.71 227.344C324.032 225.871 323.369 224.397 322.75 222.923C318.704 213.301 316.115 203.13 315.07 192.744L454.481 81.3853C465.927 85.2021 476.628 90.9649 486.113 98.4199Z" fill="#FAFAFA"/>
<path opacity="0.4" d="M523.361 154.903L371.613 276.105C357.196 268.592 344.703 257.863 335.102 244.747L500.794 112.39C511.474 124.645 519.195 139.191 523.361 154.903Z" fill="#FAFAFA"/>
<path d="M301.275 141.464L299.875 140.992C302.3 133.838 305.348 126.91 308.984 120.289L310.267 120.996C306.679 127.544 303.67 134.392 301.275 141.464ZM319.17 107.07L317.976 106.201C330.089 89.8264 345.943 76.584 364.215 67.5783L364.878 68.9045C346.814 77.8173 331.142 90.9181 319.17 107.115V107.07ZM480.705 70.9234C475.889 68.3405 470.905 66.081 465.788 64.1596L466.319 62.7744C471.486 64.7408 476.518 67.0446 481.383 69.6708L480.705 70.9234Z" fill="#027DC2"/>
<path opacity="0.3" d="M301.275 141.464L299.875 140.992C302.3 133.838 305.348 126.91 308.984 120.289L310.267 120.996C306.679 127.544 303.67 134.392 301.275 141.464ZM319.17 107.07L317.976 106.201C330.089 89.8264 345.943 76.584 364.215 67.5783L364.878 68.9045C346.814 77.8173 331.142 90.9181 319.17 107.115V107.07ZM480.705 70.9234C475.889 68.3405 470.905 66.081 465.788 64.1596L466.319 62.7744C471.486 64.7408 476.518 67.0446 481.383 69.6708L480.705 70.9234Z" fill="black"/>
<path d="M530.447 127.818C516.798 99.5184 492.779 77.5547 463.37 66.4802C433.961 55.4058 401.417 56.07 372.484 68.3352C343.551 80.6005 320.45 103.526 307.968 132.359C295.486 161.192 294.581 193.722 305.441 223.204C295.594 226.652 285.866 230.351 276.197 234.167C262.252 239.698 248.436 245.474 234.748 251.497C221.069 257.553 207.449 263.727 193.962 270.182C187.196 273.35 180.519 276.695 173.783 279.937C170.279 281.442 167.104 283.62 164.438 286.347C162.995 287.857 161.725 289.523 160.65 291.313C159.338 293.43 158.345 295.729 157.702 298.136C156.593 302.472 157.072 307.062 159.054 311.076C161.035 315.089 164.388 318.261 168.506 320.018C170.793 320.977 173.205 321.602 175.67 321.875C177.751 322.111 179.853 322.111 181.934 321.875C185.717 321.416 189.373 320.22 192.694 318.353C199.372 314.979 206.093 311.722 212.726 308.259C225.992 301.495 239.258 294.437 252.362 287.275C265.466 280.114 278.584 272.613 291.379 264.921C300.223 259.572 309.155 254.105 317.911 248.387C334.724 274.922 361.103 293.972 391.583 301.592C422.064 309.212 454.308 304.816 481.635 289.316C508.961 273.816 529.276 248.4 538.369 218.334C547.461 188.268 544.635 155.858 530.476 127.818H530.447ZM463.439 268.59C446.309 277.043 427.057 280.228 408.116 277.743C389.175 275.258 371.397 267.214 357.03 254.628C342.662 242.042 332.35 225.48 327.397 207.035C322.445 188.59 323.074 169.092 329.206 151.005C335.337 132.917 346.696 117.054 361.846 105.42C376.995 93.7868 395.255 86.9052 414.316 85.6458C433.378 84.3864 452.385 88.8058 468.934 98.3452C485.483 107.885 498.831 122.115 507.29 139.239C512.908 150.61 516.23 162.977 517.067 175.632C517.903 188.287 516.238 200.983 512.166 212.995C508.094 225.007 501.695 236.099 493.334 245.638C484.973 255.177 474.815 262.977 463.439 268.59Z" fill="#027DC2"/>
<path opacity="0.3" d="M530.447 127.818C516.798 99.5184 492.779 77.5547 463.37 66.4802C433.961 55.4058 401.417 56.07 372.484 68.3352C343.551 80.6005 320.45 103.526 307.968 132.359C295.486 161.192 294.581 193.722 305.441 223.204C295.594 226.652 285.866 230.351 276.197 234.167C262.252 239.698 248.436 245.474 234.748 251.497C221.069 257.553 207.449 263.727 193.962 270.182C187.196 273.35 180.519 276.695 173.783 279.937C170.279 281.442 167.104 283.62 164.438 286.347C162.995 287.857 161.725 289.523 160.65 291.313C159.338 293.43 158.345 295.729 157.702 298.136C156.593 302.472 157.072 307.062 159.054 311.076C161.035 315.089 164.388 318.261 168.506 320.018C170.793 320.977 173.205 321.602 175.67 321.875C177.751 322.111 179.853 322.111 181.934 321.875C185.717 321.416 189.373 320.22 192.694 318.353C199.372 314.979 206.093 311.722 212.726 308.259C225.992 301.495 239.258 294.437 252.362 287.275C265.466 280.114 278.584 272.613 291.379 264.921C300.223 259.572 309.155 254.105 317.911 248.387C334.724 274.922 361.103 293.972 391.583 301.592C422.064 309.212 454.308 304.816 481.635 289.316C508.961 273.816 529.276 248.4 538.369 218.334C547.461 188.268 544.635 155.858 530.476 127.818H530.447ZM463.439 268.59C446.309 277.043 427.057 280.228 408.116 277.743C389.175 275.258 371.397 267.214 357.03 254.628C342.662 242.042 332.35 225.48 327.397 207.035C322.445 188.59 323.074 169.092 329.206 151.005C335.337 132.917 346.696 117.054 361.846 105.42C376.995 93.7868 395.255 86.9052 414.316 85.6458C433.378 84.3864 452.385 88.8058 468.934 98.3452C485.483 107.885 498.831 122.115 507.29 139.239C512.908 150.61 516.23 162.977 517.067 175.632C517.903 188.287 516.238 200.983 512.166 212.995C508.094 225.007 501.695 236.099 493.334 245.638C484.973 255.177 474.815 262.977 463.439 268.59Z" fill="black"/>
<path d="M232.898 152.589C232.898 153.459 233.355 154.166 233.93 154.166C234.505 154.166 234.962 153.459 234.962 152.589C234.962 151.72 234.505 151.013 233.93 151.013C233.355 151.013 232.898 151.779 232.898 152.589Z" fill="#263238"/>
<path d="M233.305 154.166C234.348 156.835 235.751 159.348 237.476 161.637C236.88 162.064 236.197 162.354 235.477 162.489C234.756 162.624 234.015 162.6 233.305 162.418V154.166Z" fill="#DE5753"/>
<path d="M229.832 147.741C229.75 147.741 229.669 147.722 229.595 147.686C229.521 147.651 229.456 147.599 229.405 147.534C229.328 147.422 229.297 147.284 229.319 147.15C229.341 147.015 229.414 146.895 229.523 146.812C230.172 146.32 230.931 145.992 231.734 145.856C232.537 145.72 233.361 145.78 234.136 146.031C234.206 146.05 234.271 146.084 234.327 146.129C234.383 146.175 234.428 146.232 234.461 146.296C234.494 146.36 234.512 146.431 234.516 146.503C234.52 146.575 234.508 146.647 234.482 146.714C234.456 146.781 234.417 146.843 234.366 146.894C234.315 146.945 234.254 146.984 234.186 147.01C234.119 147.036 234.047 147.048 233.975 147.044C233.903 147.04 233.832 147.022 233.768 146.989C233.152 146.8 232.5 146.762 231.867 146.877C231.233 146.993 230.637 147.259 230.127 147.652C230.04 147.71 229.937 147.741 229.832 147.741Z" fill="#263238"/>
<path d="M203.127 159.147C204.601 167.06 206.222 181.575 200.68 186.865C200.68 186.865 202.846 194.896 217.572 194.896C233.786 194.896 225.295 186.865 225.295 186.865C216.451 184.743 216.702 178.2 218.235 172.041L203.127 159.147Z" fill="#E4897B"/>
<path d="M194.053 191.036C195.807 188.309 192.859 181.693 192.859 181.693C192.859 181.693 218.92 175.135 229.577 185.2C231.788 187.278 229.341 190.343 229.341 190.343L194.053 191.036Z" fill="#027DC2"/>
<path opacity="0.1" d="M194.053 191.036C195.807 188.309 192.859 181.693 192.859 181.693C192.859 181.693 218.92 175.135 229.577 185.2C231.788 187.278 229.341 190.343 229.341 190.343L194.053 191.036Z" fill="black"/>
<path d="M150.954 491.691C149.583 491.691 147.387 489.407 146.738 488.552C146.71 488.511 146.695 488.462 146.695 488.412C146.695 488.362 146.71 488.314 146.738 488.272C146.762 488.231 146.796 488.197 146.838 488.174C146.879 488.15 146.926 488.139 146.974 488.14C147.136 488.14 150.747 488.464 151.735 489.746C151.842 489.881 151.919 490.038 151.96 490.206C152 490.374 152.004 490.549 151.971 490.718C151.958 490.938 151.877 491.148 151.74 491.319C151.603 491.491 151.416 491.616 151.204 491.676L150.954 491.691ZM147.534 488.744C148.61 489.982 150.335 491.382 151.072 491.205C151.072 491.205 151.366 491.131 151.455 490.66C151.474 490.561 151.471 490.46 151.446 490.363C151.42 490.266 151.373 490.176 151.307 490.1C150.216 489.273 148.902 488.79 147.534 488.714V488.744Z" fill="#027DC2"/>
<path d="M147.69 488.715C147.425 488.741 147.159 488.741 146.894 488.715C146.848 488.711 146.803 488.694 146.766 488.665C146.73 488.636 146.702 488.597 146.688 488.552C146.667 488.511 146.656 488.466 146.656 488.42C146.656 488.374 146.667 488.328 146.688 488.287C146.791 488.199 148.958 485.944 150.594 485.944C150.79 485.94 150.984 485.977 151.165 486.053C151.345 486.129 151.507 486.243 151.64 486.386C151.787 486.509 151.888 486.678 151.925 486.866C151.963 487.053 151.935 487.248 151.847 487.418C151.419 488.243 149.164 488.715 147.69 488.715ZM147.498 488.199C148.972 488.199 151.11 487.742 151.464 487.094C151.464 487.094 151.567 486.902 151.331 486.666C151.245 486.573 151.14 486.5 151.023 486.451C150.906 486.403 150.779 486.381 150.653 486.386C149.445 486.664 148.346 487.295 147.498 488.199Z" fill="#027DC2"/>
<path d="M248.214 525.142C247.097 525.134 245.982 525.031 244.883 524.833C244.828 524.822 244.779 524.793 244.744 524.75C244.709 524.707 244.69 524.652 244.691 524.597C244.683 524.546 244.689 524.494 244.71 524.447C244.731 524.4 244.766 524.36 244.809 524.332C244.971 524.243 248.744 522.077 250.557 522.578C250.726 522.616 250.884 522.688 251.024 522.789C251.163 522.891 251.28 523.019 251.368 523.167C251.484 523.331 251.546 523.527 251.546 523.727C251.546 523.928 251.484 524.123 251.368 524.287C250.941 524.951 249.599 525.142 248.214 525.142ZM245.723 524.449C247.727 524.744 250.469 524.729 250.97 524.022C251.044 523.934 251.103 523.772 250.97 523.462C250.858 523.279 250.678 523.147 250.469 523.094C249.319 522.799 247.035 523.772 245.723 524.449Z" fill="#027DC2"/>
<path d="M244.944 524.847C244.896 524.861 244.845 524.861 244.796 524.847C244.756 524.821 244.724 524.783 244.705 524.738C244.687 524.693 244.683 524.644 244.693 524.597C244.793 523.063 245.382 521.601 246.374 520.426C246.574 520.253 246.81 520.126 247.064 520.052C247.318 519.978 247.586 519.96 247.848 519.999C248.555 519.999 248.761 520.426 248.806 520.706C248.997 521.929 246.418 524.272 245.106 524.862L244.944 524.847ZM247.582 520.426C247.258 520.424 246.944 520.539 246.698 520.751C245.864 521.681 245.348 522.853 245.224 524.096C246.55 523.285 248.319 521.458 248.172 520.721C248.172 520.721 248.172 520.471 247.671 520.426H247.582Z" fill="#027DC2"/>
<path d="M233.039 524.582H243.873L244.949 499.516H234.115L233.039 524.582Z" fill="#E4897B"/>
<path d="M136.555 481.553L145.605 487.477L165.592 470.605L156.527 464.666L136.555 481.553Z" fill="#E4897B"/>
<path d="M147.093 486.917L137.689 479.21C137.523 479.074 137.315 478.999 137.1 478.999C136.885 478.999 136.676 479.074 136.51 479.21L128.757 485.296C128.569 485.445 128.418 485.634 128.314 485.85C128.21 486.066 128.156 486.302 128.156 486.541C128.156 486.781 128.21 487.017 128.314 487.232C128.418 487.448 128.569 487.637 128.757 487.786C132.088 490.424 133.842 491.544 137.984 494.933C140.534 497.011 146.828 503.377 150.38 506.25C153.933 509.124 157.19 506.029 156.011 504.541C150.719 497.836 148.641 492.104 148.037 488.553C147.932 487.911 147.597 487.329 147.093 486.917Z" fill="#263238"/>
<path d="M243.797 523.329H232.005C231.79 523.33 231.581 523.403 231.413 523.537C231.244 523.67 231.126 523.857 231.076 524.066L228.939 533.688C228.885 533.922 228.885 534.164 228.939 534.397C228.993 534.63 229.099 534.848 229.25 535.034C229.4 535.22 229.591 535.369 229.808 535.471C230.025 535.572 230.262 535.623 230.501 535.619C234.761 535.545 240.922 535.295 246.288 535.295C252.552 535.295 257.976 535.634 265.317 535.634C269.739 535.634 271.007 531.139 269.135 530.741C260.674 528.885 253.746 528.693 246.435 524.169C245.651 523.65 244.737 523.359 243.797 523.329Z" fill="#263238"/>
<path d="M179.326 190.092C169.937 194.513 164.586 224.132 164.586 224.132L187.536 233.283C190.895 225.082 193.611 216.633 195.658 208.011C198.812 194.365 188.936 185.524 179.326 190.092Z" fill="#263238"/>
<path d="M191.498 206.787C185.823 212.534 183.229 223.792 182.094 231.116L187.592 233.312C190.856 225.344 193.516 217.142 195.551 208.776C195.065 205.652 193.856 204.4 191.498 206.787Z" fill="#203048"/>
<path d="M241.944 189.885C241.944 189.885 253.471 202.912 242.593 283.458H184.679C184.281 274.617 189.868 231.219 181.289 189.34C187.689 188.099 194.164 187.282 200.672 186.894C208.87 186.407 217.09 186.407 225.288 186.894C230.909 187.459 236.478 188.459 241.944 189.885Z" fill="#263238"/>
<path d="M247.226 221.155L237.468 204.342C235.584 212.187 234.815 220.258 235.183 228.317C235.449 234.094 240.74 255.49 245.501 258.614C246.765 246.169 247.34 233.664 247.226 221.155Z" fill="#203048"/>
<path d="M248.596 201.395C250.07 208.556 251.544 215.895 253.121 223.086C254.698 230.277 256.335 237.497 258.236 244.468C258.722 246.192 259.179 247.96 259.71 249.61L260.108 250.878L260.3 251.511V251.438C260.196 251.305 260.079 251.29 260.167 251.438C260.773 252.099 261.547 252.583 262.407 252.838C263.801 253.356 265.236 253.755 266.697 254.031C273.666 255.135 280.722 255.594 287.775 255.402L289.175 263.418C287.2 264.052 285.358 264.508 283.412 264.965C281.466 265.422 279.55 265.805 277.59 266.1C273.534 266.775 269.421 267.051 265.311 266.925C263.027 266.863 260.755 266.567 258.531 266.041C255.703 265.423 253.046 264.19 250.748 262.431C249.247 261.219 248.009 259.715 247.107 258.01C246.872 257.568 246.665 257.067 246.474 256.639L246.208 255.947L245.663 254.473C244.911 252.602 244.292 250.76 243.614 248.918C241.123 241.55 239.045 234.108 237.217 226.681C235.389 219.254 233.812 211.842 232.5 204.224L248.596 201.395Z" fill="#E4897B"/>
<path d="M227.492 197.784C224.441 207.672 236.808 237.159 236.808 237.159L261.438 230.97C261.438 230.97 260.495 215.644 254.879 203.487C246.418 185.156 231.148 185.922 227.492 197.784Z" fill="#263238"/>
<path d="M287.569 255.401L299.833 255.092L293.937 267.853C293.937 267.853 288.94 268.516 284.842 261.782L280.523 256.624L285.491 255.637C286.175 255.493 286.87 255.414 287.569 255.401Z" fill="#E4897B"/>
<path d="M307.572 257.464L300.556 268.045L293.938 267.853L299.834 255.092L307.572 257.464Z" fill="#E4897B"/>
<path d="M244.941 499.516L244.381 512.439H233.547L234.107 499.516H244.941Z" fill="#CE6F64"/>
<path d="M156.53 464.666L165.595 470.605L155.277 479.299L146.227 473.375L156.53 464.666Z" fill="#CE6F64"/>
<path d="M203.799 150.717C204.448 161.43 204.286 167.752 209.695 173.248C217.832 181.545 231.083 176.638 233.648 165.88C235.962 156.243 234.518 140.328 224.023 136.055C221.707 135.121 219.192 134.79 216.713 135.093C214.234 135.397 211.874 136.325 209.852 137.791C207.83 139.256 206.215 141.211 205.156 143.472C204.097 145.734 203.63 148.226 203.799 150.717Z" fill="#E4897B"/>
<path d="M191.189 148.831C193.857 158.6 200.137 169.859 208.258 170.581C218.341 171.465 222.895 161.047 224.222 150.289C230.265 146.149 227.096 141.595 233.154 141.021C240.937 140.284 238.446 126.049 228.202 123.765C228.202 123.765 231.636 130.175 224.428 126.933C217.573 123.676 209.958 122.356 202.407 123.116C202.407 123.116 211.604 127.714 202.613 129.762C193.622 131.811 190.939 137.351 195.081 140.696C195.081 140.711 189.435 142.406 191.189 148.831Z" fill="#263238"/>
<path d="M218.066 152.501C218.264 155.164 219.337 157.687 221.117 159.677C223.475 162.286 225.937 160.665 226.35 157.496C226.733 154.652 225.952 149.863 223.063 148.419C220.174 146.975 217.874 149.289 218.066 152.501Z" fill="#E4897B"/>
<path d="M222.051 283.459C222.051 283.459 232.604 359.864 224.291 390.485C211.113 438.966 160.732 479.888 160.732 479.888L143.648 468.689C143.648 468.689 186.557 434.133 191.804 393.536C196.521 357.094 184.685 313.019 184.685 283.444L222.051 283.459Z" fill="#027DC2"/>
<path opacity="0.1" d="M222.051 283.459C222.051 283.459 232.604 359.864 224.291 390.485C211.113 438.966 160.732 479.888 160.732 479.888L143.648 468.689C143.648 468.689 186.557 434.133 191.804 393.536C196.521 357.094 184.685 313.019 184.685 283.444L222.051 283.459Z" fill="black"/>
<path d="M226.414 327.136C223.604 323.918 220.511 320.959 217.172 318.294C218.97 343.095 220.444 379.832 218.808 405.929C221.008 400.926 222.84 395.769 224.291 390.5C228.345 375.543 227.917 349.711 226.414 327.136Z" fill="#027DC2"/>
<path opacity="0.3" d="M226.414 327.136C223.604 323.918 220.511 320.959 217.172 318.294C218.97 343.095 220.444 379.832 218.808 405.929C221.008 400.926 222.84 395.769 224.291 390.5C228.345 375.543 227.917 349.711 226.414 327.136Z" fill="black"/>
<path d="M167.615 476.071C167.689 476.071 160.997 480.492 160.997 480.492L142.336 468.261L148.232 463.384L167.615 476.071Z" fill="#027DC2"/>
<path opacity="0.3" d="M167.615 476.071C167.689 476.071 160.997 480.492 160.997 480.492L142.336 468.261L148.232 463.384L167.615 476.071Z" fill="black"/>
<path d="M242.589 283.458C242.589 283.458 258.891 352.57 260.041 385.593C261.338 422.61 248.411 509.934 248.411 509.934H230.06C230.06 509.934 227.805 421.932 226.994 388.216C226.095 351.45 204.516 283.458 204.516 283.458H242.589Z" fill="#027DC2"/>
<path opacity="0.1" d="M242.589 283.458C242.589 283.458 258.891 352.57 260.041 385.593C261.338 422.61 248.411 509.934 248.411 509.934H230.06C230.06 509.934 227.805 421.932 226.994 388.216C226.095 351.45 204.516 283.458 204.516 283.458H242.589Z" fill="black"/>
<path d="M251.945 502.641C252.033 502.641 250.913 510.244 250.913 510.244H228.597L227.992 503.451L251.945 502.641Z" fill="#027DC2"/>
<path opacity="0.3" d="M251.945 502.641C252.033 502.641 250.913 510.244 250.913 510.244H228.597L227.992 503.451L251.945 502.641Z" fill="black"/>
<path d="M524.755 217.046C526.008 218.225 526.995 219.227 528.027 220.347C529.059 221.467 530.032 222.557 530.975 223.692C532.891 225.946 534.69 228.319 536.429 230.706C539.903 235.495 542.993 240.55 545.671 245.825L546.216 246.901C546.483 247.422 546.705 247.964 546.88 248.522C547.236 249.6 547.454 250.719 547.528 251.852C547.624 253.85 547.349 255.848 546.718 257.746C545.641 260.899 544.041 263.848 541.986 266.47C538.282 271.225 533.914 275.424 529.015 278.937L525.345 274.722C527.069 272.703 528.867 270.537 530.474 268.371C532.109 266.272 533.587 264.056 534.896 261.74C536.119 259.719 537.024 257.522 537.579 255.227C537.769 254.405 537.804 253.556 537.682 252.721C537.629 252.441 537.54 252.168 537.417 251.911C537.362 251.798 537.297 251.69 537.225 251.587L536.753 250.791C533.911 246.157 530.826 241.676 527.511 237.367C525.875 235.201 524.121 233.123 522.352 231.074C521.483 230.043 520.584 229.041 519.684 228.039C518.785 227.037 517.812 226.035 517.031 225.254L524.755 217.046Z" fill="#E4897B"/>
<path d="M526.776 273.484L515.766 271.687L521.529 281.324C521.529 281.324 528.619 281.073 530.638 276.903L526.776 273.484Z" fill="#E4897B"/>
<path d="M507.633 276.137L512.88 283.962L521.533 281.324L515.769 271.687L507.633 276.137Z" fill="#E4897B"/>
<path d="M526.241 525.012C525.493 525.076 524.746 524.872 524.133 524.437C523.949 524.262 523.812 524.043 523.737 523.801C523.662 523.558 523.652 523.3 523.706 523.052C523.716 522.894 523.77 522.741 523.861 522.611C523.952 522.482 524.077 522.379 524.222 522.315C525.504 521.74 528.865 523.892 529.248 524.142C529.292 524.169 529.326 524.21 529.344 524.257C529.363 524.305 529.365 524.358 529.351 524.407C529.346 524.458 529.324 524.505 529.29 524.542C529.255 524.579 529.21 524.605 529.16 524.614C528.205 524.856 527.226 524.99 526.241 525.012ZM524.767 522.728C524.66 522.711 524.55 522.711 524.443 522.728C524.378 522.758 524.323 522.806 524.284 522.865C524.245 522.925 524.223 522.995 524.222 523.066C524.183 523.231 524.187 523.403 524.233 523.565C524.28 523.728 524.367 523.876 524.487 523.995C525.047 524.496 526.492 524.57 528.423 524.186C527.316 523.456 526.072 522.959 524.767 522.728Z" fill="#027DC2"/>
<path d="M529.188 524.599H529.055C528.009 523.995 525.989 521.652 526.24 520.369C526.288 520.167 526.4 519.986 526.559 519.853C526.719 519.721 526.917 519.643 527.124 519.633C527.324 519.604 527.526 519.621 527.718 519.682C527.91 519.744 528.085 519.847 528.23 519.986C529.439 521.047 529.453 524.23 529.453 524.407C529.451 524.452 529.437 524.495 529.414 524.534C529.391 524.572 529.359 524.605 529.321 524.628L529.188 524.599ZM527.301 520.178H527.183C526.859 520.178 526.785 520.355 526.756 520.487C526.609 521.239 527.861 523.037 528.908 523.877C528.934 522.641 528.579 521.426 527.891 520.399C527.803 520.317 527.698 520.254 527.583 520.216C527.469 520.178 527.348 520.165 527.228 520.178H527.301Z" fill="#027DC2"/>
<path d="M476.007 525.012C475.066 525.102 474.123 524.862 473.339 524.334C473.163 524.177 473.026 523.98 472.942 523.76C472.857 523.539 472.827 523.302 472.853 523.067C472.863 522.923 472.908 522.785 472.985 522.664C473.063 522.543 473.169 522.443 473.295 522.374C474.666 521.608 479.059 523.848 479.56 524.128C479.606 524.158 479.642 524.199 479.666 524.249C479.689 524.298 479.698 524.353 479.692 524.408C479.684 524.459 479.659 524.507 479.622 524.544C479.585 524.581 479.538 524.606 479.486 524.614C478.342 524.857 477.177 524.99 476.007 525.012ZM474.047 522.728C473.878 522.717 473.71 522.752 473.561 522.831C473.508 522.856 473.463 522.896 473.432 522.945C473.4 522.995 473.384 523.052 473.384 523.111C473.361 523.264 473.376 523.421 473.428 523.567C473.479 523.714 473.565 523.845 473.678 523.951C474.357 524.555 476.17 524.658 478.616 524.246C477.19 523.486 475.645 522.973 474.047 522.728Z" fill="#027DC2"/>
<path d="M479.438 524.599H479.32C478.008 524.009 475.399 521.652 475.605 520.37C475.605 520.075 475.871 519.706 476.593 519.633C476.857 519.604 477.124 519.63 477.377 519.709C477.631 519.787 477.865 519.917 478.067 520.09C479.452 521.239 479.718 524.216 479.718 524.348C479.724 524.393 479.717 524.439 479.699 524.48C479.681 524.522 479.652 524.558 479.615 524.584C479.559 524.608 479.497 524.613 479.438 524.599ZM476.799 520.178H476.637C476.165 520.178 476.136 520.414 476.121 520.473C476.003 521.224 477.772 523.096 479.069 523.906C478.941 522.647 478.426 521.457 477.595 520.502C477.372 520.312 477.092 520.198 476.799 520.178Z" fill="#027DC2"/>
<path d="M496.872 183.168C496.444 189.829 495.295 203.357 500.409 207.1C500.409 207.1 499.481 213.922 487.409 215.514C474.143 217.238 480.201 209.752 480.201 209.752C487.232 207.07 486.333 201.721 484.416 196.829L496.872 183.168Z" fill="#E4897B"/>
<path d="M469.408 171.394C469.336 171.394 469.263 171.378 469.197 171.348C469.131 171.317 469.072 171.272 469.025 171.217C468.604 170.717 468.071 170.323 467.469 170.067C466.867 169.811 466.214 169.7 465.561 169.743C465.492 169.756 465.422 169.754 465.353 169.739C465.285 169.723 465.221 169.693 465.164 169.652C465.108 169.611 465.06 169.558 465.024 169.498C464.989 169.438 464.966 169.371 464.957 169.301C464.94 169.163 464.979 169.023 465.064 168.913C465.15 168.802 465.275 168.73 465.414 168.712C466.246 168.641 467.083 168.774 467.853 169.097C468.623 169.42 469.303 169.925 469.836 170.568C469.9 170.645 469.941 170.739 469.954 170.838C469.967 170.937 469.952 171.037 469.91 171.128C469.869 171.219 469.802 171.296 469.719 171.351C469.635 171.406 469.538 171.436 469.438 171.438L469.408 171.394Z" fill="#263238"/>
<path d="M467.106 177.922C466.583 180.036 465.775 182.068 464.703 183.964C465.195 184.229 465.739 184.382 466.297 184.412C466.855 184.443 467.413 184.35 467.931 184.141L467.106 177.922Z" fill="#DE5753"/>
<path d="M467.69 176.301C467.808 177.186 467.439 177.952 466.864 178.04C466.29 178.129 465.715 177.451 465.612 176.567C465.508 175.683 465.862 174.916 466.437 174.843C467.012 174.769 467.587 175.358 467.69 176.301Z" fill="#263238"/>
<path d="M466.712 174.858L464.516 174.519C464.516 174.519 465.813 176.038 466.712 174.858Z" fill="#263238"/>
<path d="M491.589 524.363H480.534L479.797 498.796H490.852L491.589 524.363Z" fill="#E4897B"/>
<path d="M541.779 524.363H530.724L527.172 498.796H538.227L541.779 524.363Z" fill="#E4897B"/>
<path d="M530.041 523.125H542.452C542.664 523.123 542.869 523.198 543.029 523.337C543.189 523.475 543.293 523.667 543.322 523.877L544.796 533.705C544.823 533.953 544.797 534.204 544.721 534.441C544.644 534.678 544.518 534.897 544.351 535.082C544.184 535.267 543.979 535.414 543.751 535.515C543.523 535.616 543.276 535.667 543.027 535.665C538.708 535.592 536.615 535.341 531.161 535.341C527.801 535.341 522.892 535.68 518.264 535.68C513.636 535.68 513.385 531.097 515.316 530.685C523.968 528.828 525.339 526.264 528.243 523.803C528.75 523.382 529.383 523.144 530.041 523.125Z" fill="#263238"/>
<path d="M480.16 523.125H492.557C492.77 523.123 492.977 523.197 493.139 523.335C493.302 523.474 493.409 523.666 493.441 523.877L494.915 533.705C494.942 533.953 494.916 534.204 494.84 534.441C494.763 534.678 494.637 534.897 494.47 535.082C494.303 535.267 494.099 535.414 493.871 535.515C493.642 535.616 493.396 535.667 493.146 535.665C488.827 535.592 486.734 535.341 481.281 535.341C477.92 535.341 470.963 535.68 466.334 535.68C461.706 535.68 461.455 531.097 463.386 530.685C472.039 528.828 475.444 526.264 478.362 523.803C478.869 523.382 479.502 523.144 480.16 523.125Z" fill="#263238"/>
<path d="M479.797 498.796L480.18 511.985H491.235L490.852 498.796H479.797Z" fill="#CE6F64"/>
<path d="M538.227 498.796H527.172L529.014 511.985H540.055L538.227 498.796Z" fill="#CE6F64"/>
<path d="M497.01 169.376C497.761 180.31 498.307 184.922 493.561 191.214C486.412 200.66 472.821 199.201 468.812 188.709C465.201 179.263 464.582 162.98 474.634 157.263C476.846 155.996 479.344 155.315 481.893 155.284C484.442 155.253 486.956 155.874 489.198 157.087C491.439 158.301 493.333 160.066 494.7 162.217C496.068 164.368 496.862 166.832 497.01 169.376Z" fill="#E4897B"/>
<path d="M503.387 179.529C509.518 182.947 514.073 174.518 514.073 174.518C514.073 174.518 503.077 175.712 504.065 169.169C505.362 160.49 499.141 149.939 483.546 151.295C482.677 151.368 481.851 151.471 481.041 151.604C479.408 150.83 477.562 150.631 475.801 151.037C474.041 151.444 472.47 152.433 471.342 153.844C466.92 154.212 460.95 159.488 465.004 166.458C465.288 165.657 465.729 164.921 466.301 164.292C466.64 168.374 470.207 174.857 474.658 175.285C475.616 180.87 471.902 187.339 473.184 193.174C475.086 201.588 489.28 203.489 489.28 203.489C488.791 202.438 488.609 201.271 488.755 200.121C488.901 198.971 489.369 197.886 490.106 196.991C499.746 201.411 506.099 197.094 506.099 197.094C499.525 194.648 501.515 190.286 501.515 190.286C503.784 191.293 506.357 191.382 508.69 190.533C511.024 189.684 512.938 187.963 514.029 185.732C511.845 185.836 509.678 185.305 507.79 184.204C505.901 183.104 504.372 181.48 503.387 179.529Z" fill="#263238"/>
<path d="M478.499 176.964C478.525 178.014 478.343 179.058 477.963 180.037C477.584 181.015 477.014 181.909 476.288 182.667C474.342 184.686 471.954 183.271 471.306 180.692C470.731 178.364 471.055 174.518 473.59 173.457C474.148 173.238 474.752 173.162 475.347 173.235C475.942 173.309 476.509 173.53 476.997 173.878C477.485 174.227 477.878 174.692 478.14 175.231C478.402 175.77 478.526 176.366 478.499 176.964Z" fill="#E4897B"/>
<path d="M487.688 278.834C487.688 278.834 490.488 351.57 497.151 394.275C502.516 428.786 526.351 509.421 526.351 509.421H541.415C541.415 509.421 528.989 431.542 526.262 397.428C519.364 311.091 537.273 292.553 520.366 274.575L487.688 278.834Z" fill="#263238"/>
<path d="M500.274 301.836C500.274 301.836 493.464 300.657 489.484 313.625C490.958 338.189 493.479 370.785 497.149 394.274C497.96 399.505 499.198 405.812 500.716 412.724C497.842 371.227 500.274 301.836 500.274 301.836Z" fill="#161F33"/>
<path d="M475.938 280.366C475.938 280.366 463.527 360.839 464.249 394.51C465.001 429.537 477.839 509.45 477.839 509.45H492.771C492.771 509.45 490.413 431.615 491.724 397.222C493.198 359.719 508.513 276.137 508.513 276.137L475.938 280.366Z" fill="#263238"/>
<path d="M543.594 510.128H523.562L522 503.409L543.447 503.556L543.594 510.128Z" fill="#027DC2"/>
<path opacity="0.2" d="M543.594 510.128H523.562L522 503.409L543.447 503.556L543.594 510.128Z" fill="black"/>
<path d="M519.596 207.114C525.359 207.674 534.115 224.045 534.115 224.045L519.567 235.201C519.567 235.201 507.524 224.635 508.954 218.696C510.443 212.522 514.069 206.598 519.596 207.114Z" fill="#027DC2"/>
<path opacity="0.1" d="M519.596 207.114C525.359 207.674 534.115 224.045 534.115 224.045L519.567 235.201C519.567 235.201 507.524 224.635 508.954 218.696C510.443 212.522 514.069 206.598 519.596 207.114Z" fill="black"/>
<path d="M515.247 214.158C513.778 213.762 512.257 213.593 510.736 213.657C509.963 215.268 509.365 216.957 508.953 218.696C507.479 224.591 519.566 235.201 519.566 235.201L520.642 234.375L515.247 214.158Z" fill="#027DC2"/>
<path opacity="0.3" d="M515.247 214.158C513.778 213.762 512.257 213.593 510.736 213.657C509.963 215.268 509.365 216.957 508.953 218.696C507.479 224.591 519.566 235.201 519.566 235.201L520.642 234.375L515.247 214.158Z" fill="black"/>
<path d="M470.994 229.881C466.793 240.505 462.371 251.307 458.849 261.961C458.613 262.639 458.421 263.287 458.215 263.95L457.714 265.586C457.577 266.067 457.577 266.578 457.714 267.059C458.546 268.902 459.866 270.481 461.531 271.627C465.938 274.789 470.74 277.36 475.814 279.275L474.488 284.698C468.245 283.875 462.209 281.907 456.682 278.892C453.28 277.076 450.51 274.27 448.737 270.846C447.719 268.658 447.365 266.219 447.72 263.832C447.753 263.54 447.803 263.25 447.867 262.963L448.015 262.344L448.265 261.224C448.442 260.472 448.619 259.75 448.811 259.014C450.285 253.119 452.171 247.52 454.161 241.964C456.151 236.409 458.229 230.927 460.573 225.46L470.994 229.881Z" fill="#E4897B"/>
<path d="M462.048 214.968C462.048 214.968 457.066 217.488 475.933 280.366L520.419 274.56C517.294 256.553 515.82 245.398 519.608 207.114C513.229 206.657 506.825 206.657 500.446 207.114C493.654 207.509 486.901 208.395 480.237 209.766C471.703 211.667 462.048 214.968 462.048 214.968Z" fill="#027DC2"/>
<path opacity="0.1" d="M462.048 214.968C462.048 214.968 457.066 217.488 475.933 280.366L520.419 274.56C517.294 256.553 515.82 245.398 519.608 207.114C513.229 206.657 506.825 206.657 500.446 207.114C493.654 207.509 486.901 208.395 480.237 209.766C471.703 211.667 462.048 214.968 462.048 214.968Z" fill="black"/>
<path d="M520.736 271.863L523.286 275.562C523.477 275.857 523.153 276.21 522.652 276.284L476 282.385C475.602 282.385 475.233 282.282 475.174 282.031L474.26 278.097C474.187 277.831 474.511 277.551 474.953 277.492L519.999 271.598C520.134 271.576 520.272 271.589 520.401 271.636C520.53 271.682 520.645 271.76 520.736 271.863Z" fill="#027DC2"/>
<path opacity="0.2" d="M520.736 271.863L523.286 275.562C523.477 275.857 523.153 276.21 522.652 276.284L476 282.385C475.602 282.385 475.233 282.282 475.174 282.031L474.26 278.097C474.187 277.831 474.511 277.551 474.953 277.492L519.999 271.598C520.134 271.576 520.272 271.589 520.401 271.636C520.53 271.682 520.645 271.76 520.736 271.863Z" fill="black"/>
<path d="M515.356 277.685L516.565 277.523C516.8 277.523 516.963 277.346 516.933 277.199L515.695 272.1C515.648 272.013 515.573 271.945 515.481 271.907C515.39 271.87 515.288 271.865 515.194 271.894L513.985 272.041C513.735 272.041 513.572 272.218 513.617 272.38L514.855 277.464C514.884 277.626 515.12 277.714 515.356 277.685Z" fill="#263238"/>
<path d="M486.098 281.457L487.306 281.295C487.542 281.295 487.719 281.118 487.675 280.971L486.437 275.872C486.388 275.786 486.313 275.718 486.223 275.678C486.133 275.638 486.032 275.629 485.936 275.651L484.727 275.813C484.491 275.813 484.314 275.99 484.358 276.137L485.597 281.236C485.626 281.457 485.862 281.545 486.098 281.457Z" fill="#263238"/>
<path d="M464.125 236.306C465.348 241.994 467.073 249.2 469.594 258.322L470.139 235.201L464.125 236.306Z" fill="#027DC2"/>
<path opacity="0.3" d="M464.125 236.306C465.348 241.994 467.073 249.2 469.594 258.322L470.139 235.201L464.125 236.306Z" fill="black"/>
<path d="M462.052 214.969C456.525 217.194 451.734 236.1 451.734 236.1L470.749 245.354C470.749 245.354 479.932 222.233 475.82 217.724C471.707 213.215 468.42 212.419 462.052 214.969Z" fill="#027DC2"/>
<path opacity="0.1" d="M462.052 214.969C456.525 217.194 451.734 236.1 451.734 236.1L470.749 245.354C470.749 245.354 479.932 222.233 475.82 217.724C471.707 213.215 468.42 212.419 462.052 214.969Z" fill="black"/>
<path d="M495.321 510.128H475.289L473.727 503.409L496.028 503.556L495.321 510.128Z" fill="#027DC2"/>
<path opacity="0.2" d="M495.321 510.128H475.289L473.727 503.409L496.028 503.556L495.321 510.128Z" fill="black"/>
<path d="M476.122 277.449L474.515 276.785C474.12 276.625 473.69 276.572 473.268 276.631C472.846 276.69 472.447 276.86 472.111 277.124C471.776 277.387 471.516 277.735 471.359 278.131C471.201 278.527 471.151 278.957 471.214 279.379L472.378 287.056C472.434 287.441 472.575 287.808 472.79 288.131C473.005 288.454 473.289 288.726 473.622 288.926C473.955 289.126 474.328 289.25 474.714 289.289C475.101 289.327 475.491 289.279 475.857 289.149C476.441 288.937 476.989 288.633 477.478 288.25C478.011 287.808 478.433 287.247 478.71 286.612C478.986 285.977 479.11 285.287 479.07 284.595L478.908 281.413C478.88 280.552 478.601 279.719 478.107 279.015C477.612 278.311 476.922 277.767 476.122 277.449Z" fill="#E4897B"/>
</svg>
