<svg width="20" height="20" viewBox="0 0 20 20" fill="none" xmlns="http://www.w3.org/2000/svg">
<path d="M9.48454 18.125C4.7762 18.125 0.942871 14.2917 0.942871 9.58335C0.942871 4.87502 4.7762 1.04169 9.48454 1.04169C14.1929 1.04169 18.0262 4.87502 18.0262 9.58335C18.0262 14.2917 14.1929 18.125 9.48454 18.125ZM9.48454 2.29169C5.45954 2.29169 2.19287 5.56669 2.19287 9.58335C2.19287 13.6 5.45954 16.875 9.48454 16.875C13.5095 16.875 16.7762 13.6 16.7762 9.58335C16.7762 5.56669 13.5095 2.29169 9.48454 2.29169Z" fill="#78828E"/>
<path d="M18.2344 18.9583C18.0761 18.9583 17.9177 18.9 17.7927 18.775L16.1261 17.1083C15.8844 16.8667 15.8844 16.4667 16.1261 16.225C16.3677 15.9833 16.7677 15.9833 17.0094 16.225L18.6761 17.8917C18.9177 18.1333 18.9177 18.5333 18.6761 18.775C18.5511 18.9 18.3927 18.9583 18.2344 18.9583Z" fill="#78828E"/>
</svg>
