<svg width="20" height="20" viewBox="0 0 20 20" fill="none" xmlns="http://www.w3.org/2000/svg">
<path d="M6.97919e-07 7.93077C0.00181145 3.55559 3.54228 -0.0068392 7.88264 9.85941e-06C12.2488 0.00685892 15.7748 3.56244 15.7685 7.95223C15.7621 12.3338 12.2298 15.8871 7.88536 15.8821C3.5201 15.877 -0.00181005 12.326 6.97919e-07 7.93077ZM7.88264 15.1214C11.7934 15.131 14.9948 11.9201 15.0066 7.97688C15.0188 3.99438 11.8428 0.773041 7.8917 0.760712C3.9832 0.747927 0.770927 3.9647 0.761873 7.90063C0.752367 11.8945 3.92525 15.1118 7.88264 15.1214Z" fill="#667085"/>
<path d="M19.9999 18.0332C19.9922 18.3076 19.9044 18.5693 19.7052 18.7784C19.4087 19.0903 19.1094 19.4003 18.7957 19.6944C18.3539 20.1085 17.7029 20.1016 17.2638 19.6715C16.5051 18.9291 15.7582 18.1739 15.0067 17.4241C14.3517 16.7707 13.698 16.1164 13.0421 15.4639C12.9361 15.3584 12.8678 15.2406 12.8977 15.0868C12.9257 14.9416 13.0104 14.8397 13.1525 14.7913C13.306 14.7393 13.4373 14.7827 13.5486 14.8927C13.8316 15.1726 14.1127 15.4548 14.3947 15.7361C15.5047 16.8442 16.6147 17.9524 17.7251 19.0606C17.9546 19.2898 18.1335 19.2889 18.3634 19.0574C18.6015 18.8177 18.8396 18.578 19.0773 18.3378C19.2982 18.114 19.2978 17.9287 19.0737 17.7031C17.7084 16.3269 16.3431 14.9502 14.9764 13.5754C14.8687 13.4672 14.7913 13.3494 14.8211 13.19C14.8483 13.0448 14.9316 12.9389 15.0737 12.8932C15.2186 12.8467 15.3517 12.8745 15.4617 12.9836C15.6532 13.1736 15.8424 13.3654 16.0321 13.5562C17.2222 14.7553 18.4109 15.9557 19.6029 17.1524C19.8437 17.394 19.9904 17.6721 19.9999 18.0328V18.0332Z" fill="#667085"/>
<path d="M2.38086 8.13219C2.41255 6.44595 2.92952 5.15969 3.97206 4.09398C4.14046 3.92229 4.37268 3.90951 4.52886 4.06019C4.68866 4.21406 4.68459 4.45424 4.51166 4.63049C3.81226 5.34325 3.36953 6.18933 3.21154 7.18108C3.01417 8.41939 3.26677 9.56364 3.95893 10.6033C4.12733 10.8563 4.33918 11.0809 4.5361 11.3143C4.63932 11.4366 4.67191 11.57 4.62076 11.7188C4.57232 11.8604 4.46548 11.9412 4.31927 11.964C4.19116 11.9841 4.08206 11.9403 3.99243 11.8489C3.25409 11.096 2.75297 10.2075 2.53025 9.17233C2.44333 8.76824 2.41164 8.35227 2.38086 8.13219Z" fill="#667085"/>
</svg>
