<svg width="22" height="20" viewBox="0 0 22 20" fill="none" xmlns="http://www.w3.org/2000/svg">
<path d="M10.4183 13.4429C13.0668 14.9678 15.6913 16.4787 18.3538 18.0117C18.9058 12.3385 19.4544 6.70366 20.0069 1.02516C13.6832 4.49424 7.38783 7.94794 1.09296 11.4016C1.09776 11.4189 1.10257 11.4367 1.10737 11.454C1.85153 11.5871 2.59569 11.7197 3.33986 11.8528C4.84356 12.1223 6.34725 12.3899 7.85047 12.6623C8.19637 12.7252 8.38037 12.9649 8.32945 13.2623C8.27804 13.563 8.0042 13.7302 7.65206 13.6678C5.76259 13.331 3.87312 12.9923 1.98365 12.6546C1.64495 12.594 1.30674 12.5321 0.968049 12.4749C0.441034 12.3855 0.0922527 12.0761 0.0173079 11.6265C-0.0638822 11.1393 0.140775 10.7555 0.626954 10.4889C6.88772 7.05245 13.1499 3.61748 19.4102 0.179149C19.7998 -0.0346352 20.1827 -0.0797942 20.5656 0.169061C20.9413 0.413111 21.0628 0.777266 21.0196 1.20916C20.9975 1.43207 20.9783 1.65546 20.9567 1.87886C20.7683 3.81493 20.58 5.75052 20.3907 7.68659C20.2063 9.57462 20.0194 11.4627 19.8349 13.3507C19.6841 14.8962 19.5279 16.4412 19.3886 17.9877C19.3093 18.8702 18.5339 19.2987 17.7653 18.8572C15.3997 17.4991 13.0375 16.1352 10.6739 14.7742C10.5711 14.7151 10.4668 14.6569 10.3121 14.57C10.5081 15.7268 10.6965 16.839 10.8963 18.0189C11.0087 17.8133 11.0942 17.659 11.1778 17.5039C11.3027 17.2714 11.4209 17.035 11.5525 16.8063C11.7092 16.5344 11.995 16.4484 12.2492 16.5844C12.5004 16.7194 12.5936 17.0134 12.4514 17.2886C12.154 17.8642 11.8494 18.4364 11.541 19.0061C11.3484 19.3621 11.0203 19.5293 10.671 19.4673C10.2939 19.4001 10.0484 19.1498 9.97727 18.7385C9.77886 17.5875 9.58717 16.4354 9.3902 15.2839C9.30133 14.7636 9.18987 14.2467 9.12501 13.7235C9.10484 13.5611 9.15432 13.3416 9.25713 13.22C11.7519 10.265 14.2578 7.31908 16.7622 4.37221C16.8193 4.30495 16.8746 4.23577 16.937 4.17428C17.1364 3.97635 17.4256 3.95857 17.6327 4.1272C17.8441 4.29967 17.8849 4.60857 17.7067 4.83773C17.5203 5.07794 17.317 5.30518 17.1206 5.53722C14.9332 8.11272 12.7459 10.6882 10.5586 13.2637C10.5173 13.3123 10.4798 13.3637 10.4168 13.4439L10.4183 13.4429Z" fill="#027DC2"/>
</svg>
