<?xml version="1.0" encoding="utf-8"?>
<!-- Generator: Adobe Illustrator 27.0.0, SVG Export Plug-In . SVG Version: 6.00 Build 0)  -->
<svg version="1.1" id="Layer_1" xmlns="http://www.w3.org/2000/svg" xmlns:xlink="http://www.w3.org/1999/xlink" x="0px" y="0px"
	 viewBox="0 0 21 21" style="enable-background:new 0 0 21 21;" xml:space="preserve">
<style type="text/css">
	.st0{fill:#202020;}
</style>
<g>
	<path class="st0" d="M10.8,4.2v0.2c0,2.7,0,5.5,0,8.2c0,0.3-0.1,0.4-0.3,0.4c-0.2,0-0.3-0.1-0.3-0.4c0-2.7,0-5.5,0-8.2
		c0-0.1,0-0.1,0-0.2C10.1,4.2,10,4.2,10,4.3C9,5.1,8.1,5.9,7.1,6.8C7.1,6.8,7,6.9,6.9,6.9C6.8,7,6.7,7,6.6,6.9
		c-0.1-0.1-0.1-0.2,0-0.3c0-0.1,0.1-0.1,0.1-0.1c1.2-1,2.4-2.1,3.6-3.1c0.2-0.2,0.3-0.2,0.5,0c1.2,1,2.4,2.1,3.6,3.1
		c0.1,0,0.1,0.1,0.1,0.1c0.1,0.1,0.1,0.2-0.1,0.3c-0.1,0.1-0.2,0.1-0.4,0c-0.1,0-0.1-0.1-0.2-0.1c-1-0.8-1.9-1.7-2.9-2.5
		C11,4.2,10.9,4.2,10.8,4.2C10.9,4.1,10.8,4.2,10.8,4.2L10.8,4.2z"/>
	<path class="st0" d="M10.5,17.8c-2,0-3.9,0-5.9,0c-0.9,0-1.7-0.3-2.3-0.9c-0.3-0.4-0.4-0.8-0.4-1.2c0-0.8,0-1.5,0-2.3
		C1.9,13.1,2,13,2.2,13c0.2,0,0.3,0.1,0.3,0.3c0,0.7,0,1.5,0,2.2c0,0.9,0.6,1.5,1.5,1.7c0.2,0,0.4,0,0.6,0c3.8,0,7.7,0,11.5,0
		c0.3,0,0.7,0,1-0.1c0.9-0.2,1.4-0.8,1.4-1.6c0-0.8,0-1.5,0-2.3c0-0.1,0-0.2,0.1-0.2c0.1-0.1,0.2-0.1,0.3-0.1c0.1,0,0.2,0.1,0.2,0.2
		c0,0.1,0,0.2,0,0.4c0,0.6,0,1.3,0,1.9c0,1.4-1,2.3-2.7,2.3C14.4,17.8,12.5,17.8,10.5,17.8L10.5,17.8z"/>
</g>
</svg>
