<svg width="24" height="24" viewBox="0 0 24 24" fill="none" xmlns="http://www.w3.org/2000/svg">
<circle cx="12" cy="12" r="12" fill="#027DC2"/>
<path d="M14.6319 5.32685C14.5582 5.32685 14.5049 5.32685 14.4515 5.32685C13.202 5.32685 11.9523 5.32817 10.7028 5.32454C10.5954 5.32454 10.5218 5.35818 10.4471 5.43338C8.41924 7.48045 6.38939 9.52521 4.36019 11.5706C4.32255 11.6086 4.28719 11.6491 4.25871 11.6801C5.6162 13.0455 6.96682 14.4036 8.33119 15.7759C8.35639 15.7518 8.40287 15.709 8.44739 15.6641C9.65103 14.4508 10.8547 13.2374 12.0583 12.0241C12.1005 11.9812 12.1405 11.9337 12.1892 11.9001C12.3012 11.8233 12.4184 11.8246 12.5189 11.9189C12.6249 12.0188 12.6348 12.1389 12.5529 12.2609C12.5258 12.3015 12.4888 12.3354 12.4541 12.3704C11.1575 13.6767 9.86086 14.9831 8.56393 16.2888C8.36687 16.487 8.25066 16.4873 8.05458 16.2901C6.61918 14.8446 5.18379 13.3984 3.74871 11.9519C3.54969 11.7514 3.55002 11.6396 3.74904 11.4387C5.89805 9.27292 8.04771 7.10745 10.1951 4.94C10.2903 4.84403 10.3898 4.79752 10.5267 4.79785C11.9509 4.80148 13.3752 4.79983 14.7992 4.80049C15.0666 4.80049 15.155 4.88756 15.155 5.15371C15.1556 6.32483 15.156 7.49628 15.1543 8.6674C15.1543 8.73204 15.1491 8.8013 15.1262 8.86067C15.0816 8.97445 14.988 9.03249 14.8669 9.01963C14.7399 9.00611 14.6568 8.93058 14.6368 8.80031C14.6276 8.74095 14.6316 8.67961 14.6316 8.61925C14.6316 7.59654 14.6316 6.57383 14.6316 5.55079C14.6316 5.48549 14.6316 5.41986 14.6316 5.32718L14.6319 5.32685Z" fill="white"/>
<path d="M14.8513 17.9993C13.8424 17.9993 12.8335 17.9993 11.825 17.9993C11.5451 17.9993 11.4682 17.9172 11.4616 17.6392C11.4476 17.0535 11.4842 16.4776 11.7068 15.9246C12.2682 14.5308 13.7111 13.6321 15.1524 13.7868C16.7276 13.9557 17.9463 15.0602 18.2069 16.5881C18.271 16.9634 18.2596 17.3533 18.2684 17.7368C18.2723 17.9086 18.1535 17.998 17.9594 17.9987C17.3705 18.0003 16.7816 17.9993 16.1927 17.9993C15.7456 17.9993 15.2984 17.9993 14.8513 17.9993ZM11.9867 17.4598H17.7496C17.7856 16.286 17.3702 15.3428 16.3698 14.7346C15.3698 14.1268 14.3278 14.1324 13.335 14.7524C12.3546 15.3649 11.9474 16.3009 11.9864 17.4598H11.9867Z" fill="white"/>
<path d="M14.8624 13.2481C13.8558 13.2468 13.0316 12.4124 13.0332 11.3976C13.0352 10.3822 13.8614 9.55239 14.8689 9.55371C15.8755 9.55536 16.7008 10.3898 16.6991 11.4042C16.6975 12.4177 15.869 13.2498 14.8624 13.2481ZM14.8716 12.7208C15.595 12.7181 16.1777 12.1258 16.1754 11.3956C16.1731 10.6668 15.5852 10.0797 14.8598 10.0821C14.1357 10.084 13.5547 10.6754 13.557 11.4075C13.5592 12.1374 14.1462 12.7238 14.8712 12.7211L14.8716 12.7208Z" fill="white"/>
<path d="M10.9688 7.69412C10.9714 6.9613 11.5531 6.37986 12.2817 6.38184C13.0055 6.38382 13.5901 6.9768 13.5868 7.70533C13.5836 8.43221 12.9921 9.02321 12.2706 9.02058C11.5475 9.01794 10.9661 8.42562 10.9688 7.69412ZM11.4912 7.69346C11.4896 8.13275 11.8424 8.49322 12.2745 8.49388C12.705 8.49487 13.0664 8.13011 13.0644 7.69643C13.0624 7.2667 12.7125 6.91249 12.2853 6.9082C11.846 6.90392 11.4925 7.25317 11.4912 7.69346Z" fill="white"/>
</svg>
