<svg width="26" height="32" viewBox="0 0 26 32" fill="none" xmlns="http://www.w3.org/2000/svg">
<path d="M11.8893 1.67234C12.2574 1.37944 12.619 1.09315 12.9806 0.806858C13.2599 0.584432 13.537 0.362005 13.8163 0.14178C14.0524 -0.0454103 14.2581 -0.0476125 14.4919 0.137376C15.1003 0.619668 15.7087 1.10196 16.3128 1.58866C16.3994 1.65692 16.4514 1.66133 16.5402 1.58866C17.1399 1.10416 17.7462 0.628477 18.3481 0.146185C18.5214 0.00744358 18.7032 -0.0498148 18.9046 0.0514885C19.1016 0.148387 19.1644 0.324567 19.1644 0.544791C19.1601 2.37045 19.1644 4.19832 19.1644 6.02398C19.1644 6.16492 19.2323 6.23539 19.368 6.23539C20.6887 6.23539 22.0095 6.23539 23.3303 6.23539C24.6749 6.23539 25.7207 7.1229 25.961 8.46186C25.9913 8.63584 26 8.81422 26 8.9904C26 16.4626 26 23.937 26 31.4093C26 31.7594 25.8549 31.962 25.5821 31.9906C25.4241 32.0083 25.2941 31.951 25.1794 31.8431C24.5904 31.2881 23.9993 30.7354 23.4082 30.1826C23.3584 30.1364 23.3065 30.0901 23.248 30.0373C22.9882 30.2795 22.7349 30.5151 22.4837 30.753C22.1026 31.1097 21.7237 31.4665 21.3405 31.8233C21.0871 32.0589 20.8511 32.0589 20.6 31.8233C20.0089 31.2705 19.4178 30.7177 18.8288 30.1628C18.7877 30.1231 18.7422 30.0857 18.6924 30.0395C18.6426 30.0835 18.5993 30.1187 18.5582 30.1584C17.9714 30.7089 17.3846 31.2595 16.7978 31.8079C16.5229 32.0655 16.2998 32.0633 16.0227 31.8035C15.4403 31.2573 14.8578 30.7111 14.2754 30.165C14.2321 30.1253 14.1888 30.0879 14.1368 30.0395C14.087 30.0857 14.0394 30.1253 13.9939 30.1672C13.4071 30.7177 12.8204 31.2661 12.2336 31.8167C11.9759 32.0589 11.7399 32.0589 11.4801 31.8167C10.9193 31.2925 10.3607 30.7684 9.80204 30.2443C9.73276 30.1782 9.66131 30.1143 9.57903 30.0373C9.51407 30.0967 9.45128 30.1518 9.39065 30.209C8.81254 30.7508 8.23443 31.2947 7.65415 31.8365C7.40299 32.0721 7.05872 32.0479 6.90716 31.7726C6.85303 31.6757 6.8357 31.548 6.8357 31.4357C6.83137 28.8943 6.83354 26.3529 6.83354 23.8115C6.83354 23.7366 6.83354 23.664 6.83354 23.5759C6.77508 23.5693 6.73177 23.5604 6.6863 23.5604C5.23778 23.5604 3.79142 23.545 2.34289 23.5693C0.961483 23.5935 -0.0128629 22.5562 0.000128369 21.2217C0.0282761 18.1055 0.0217805 14.9893 0.0282761 11.8731C0.0391022 8.1073 0.0499283 4.34146 0.0607543 0.575623C0.0607543 0.194634 0.268615 -0.0388036 0.584736 0.0118481C0.697327 0.029466 0.812083 0.0977356 0.905187 0.17041C1.50062 0.635083 2.08956 1.10416 2.6785 1.57985C2.77593 1.65913 2.83656 1.65472 2.93183 1.57985C3.5186 1.10636 4.11187 0.637286 4.70297 0.168207C4.98661 -0.0564215 5.16633 -0.0564215 5.45213 0.172612C6.03891 0.639488 6.62784 1.10196 7.21029 1.57324C7.30989 1.65472 7.37268 1.66133 7.47661 1.57764C8.06771 1.09755 8.66314 0.628477 9.25858 0.154994C9.51407 -0.0476126 9.71327 -0.0498148 9.9731 0.154994C10.5685 0.628477 11.164 1.10196 11.7572 1.57324C11.7984 1.60627 11.8417 1.6371 11.8893 1.67234ZM25.0646 30.4403C25.0646 30.3324 25.0646 30.2729 25.0646 30.2156C25.0646 23.1354 25.0603 16.0552 25.069 8.97498C25.069 7.9157 24.2527 7.18015 23.3151 7.18236C18.0688 7.19557 12.8247 7.18896 7.57837 7.18896C7.52424 7.18896 7.46795 7.18896 7.40299 7.18896C7.41382 7.2286 7.41598 7.24622 7.42248 7.25944C7.68663 7.68227 7.76891 8.14914 7.76675 8.64245C7.76241 10.3448 7.76675 12.0471 7.76675 13.7517C7.76675 16.9471 7.76675 20.1448 7.76675 23.3402C7.76675 25.6504 7.76675 27.9605 7.76675 30.2707C7.76675 30.3147 7.77541 30.3588 7.77974 30.4248C7.83603 30.3764 7.87284 30.3456 7.90748 30.3147C8.33403 29.9139 8.76274 29.5131 9.18929 29.1123C9.46427 28.8546 9.69162 28.8546 9.9666 29.1123C10.4278 29.5462 10.8911 29.98 11.3523 30.4138C11.5191 30.5702 11.6858 30.7244 11.8547 30.8807C11.9045 30.8367 11.9456 30.8014 11.9846 30.7662C12.5757 30.2134 13.1646 29.6585 13.7557 29.1057C14.0177 28.8613 14.2494 28.8568 14.5092 29.0991C14.8492 29.414 15.1848 29.7333 15.5225 30.0505C15.817 30.3257 16.1115 30.601 16.4124 30.8829C16.4644 30.8367 16.5099 30.7992 16.551 30.7596C17.1421 30.2068 17.7311 29.6541 18.3222 29.0991C18.5733 28.8635 18.8093 28.8613 19.0627 29.0991C19.6581 29.6541 20.2514 30.2134 20.8468 30.7684C20.8879 30.8058 20.9312 30.8433 20.9745 30.8807C21.0308 30.8301 21.0741 30.7904 21.1174 30.7508C21.7085 30.198 22.2975 29.6431 22.8886 29.0925C23.1333 28.8635 23.3714 28.8657 23.6183 29.0947C24.0383 29.4867 24.4584 29.8809 24.8763 30.2729C24.9261 30.3191 24.978 30.3654 25.0646 30.4447V30.4403ZM18.2182 1.47414C18.1576 1.51818 18.1143 1.54461 18.0753 1.57544C17.6509 1.91239 17.2266 2.24933 16.8022 2.58627C16.5185 2.8131 16.3453 2.8131 16.0638 2.59068C15.4684 2.11719 14.873 1.64591 14.2797 1.17023C14.1888 1.09535 14.1303 1.09535 14.0372 1.17023C13.4418 1.65032 12.8398 2.126 12.2422 2.60169C11.9759 2.8131 11.7962 2.8109 11.5299 2.60169C10.9388 2.13261 10.3477 1.66353 9.75874 1.19005C9.65698 1.10857 9.59202 1.09315 9.47943 1.18344C8.89049 1.66353 8.29289 2.13261 7.69746 2.60609C7.4398 2.8109 7.25575 2.8131 6.99809 2.60609C6.39833 2.13041 5.79857 1.65472 5.20313 1.17463C5.10786 1.09755 5.04507 1.09535 4.9498 1.17463C4.35437 1.65692 3.75461 2.13041 3.15484 2.60609C2.89935 2.8087 2.71314 2.8087 2.45548 2.60609C2.02244 2.26254 1.58939 1.91679 1.15635 1.57324C1.11305 1.54021 1.06758 1.50937 0.998291 1.45872C0.998291 1.56884 0.998291 1.64371 0.998291 1.71859C0.9853 6.90267 0.972309 12.0868 0.957152 17.2708C0.952822 18.6252 0.941996 19.9774 0.941996 21.3318C0.941996 21.9947 1.38153 22.499 2.02244 22.5981C2.58106 22.6862 3.17433 22.314 3.33889 21.7458C3.39518 21.5498 3.40817 21.334 3.40817 21.127C3.4125 16.9427 3.40817 12.7562 3.41683 8.57197C3.41683 8.29229 3.44931 7.99939 3.53592 7.73512C3.84122 6.79917 4.65317 6.23759 5.65999 6.23759C9.77606 6.23759 13.89 6.23759 18.006 6.23759C18.0775 6.23759 18.1489 6.23759 18.2226 6.23759V1.47414H18.2182ZM3.96463 22.6113C4.04908 22.6113 4.10321 22.6113 4.1595 22.6113C4.97795 22.6113 5.7964 22.6113 6.61702 22.6113C6.76281 22.6113 6.8357 22.5349 6.8357 22.3822C6.8357 18.8785 6.8357 15.3769 6.8357 11.8731C6.8357 10.739 6.83787 9.60483 6.8357 8.47287C6.83354 7.9091 6.50659 7.44222 6.00426 7.25944C5.51492 7.08105 4.98445 7.2264 4.63801 7.63382C4.39984 7.9135 4.33488 8.24824 4.33488 8.60721C4.33488 12.8091 4.33488 17.0088 4.33705 21.2107C4.33705 21.6269 4.27859 22.0233 4.08155 22.3911C4.04691 22.4549 4.01227 22.5188 3.96463 22.6113Z" fill="#202020"/>
<path d="M16.9517 23.5542C16.9517 23.9616 16.9517 24.369 16.9517 24.7764C16.9517 24.8954 16.9517 25.0121 16.9452 25.131C16.9344 25.3865 16.746 25.5737 16.497 25.5803C16.2372 25.5869 16.0293 25.4063 16.025 25.1442C16.0185 24.6773 16.0293 24.2105 16.0315 23.7414C16.0315 23.6775 16.0315 23.6137 16.0315 23.5498C15.7803 23.4903 15.5356 23.4507 15.2996 23.3758C14.3448 23.0763 13.5913 22.5235 13.1669 21.5722C13.024 21.2506 12.9569 20.9093 12.959 20.5547C12.959 20.2751 13.1626 20.068 13.4224 20.0658C13.6844 20.0658 13.8922 20.2662 13.8944 20.5481C13.8987 21.1031 14.1391 21.5391 14.5353 21.8959C15.0506 22.3606 15.6699 22.5654 16.3476 22.6028C16.982 22.6381 17.5904 22.5324 18.1447 22.202C18.6406 21.9047 19.0173 21.5039 19.1386 20.9115C19.2576 20.3367 19.0866 19.839 18.7033 19.414C18.2638 18.9273 17.703 18.6674 17.0686 18.5771C16.6464 18.5177 16.2112 18.5243 15.7955 18.4362C14.7908 18.2248 13.9659 17.7205 13.4505 16.7867C12.8161 15.6371 13.1344 14.2585 14.2127 13.3952C14.7475 12.9658 15.3603 12.7214 16.0315 12.6245C16.1462 12.6068 16.1657 12.5606 16.1679 12.4615C16.17 12.021 16.1787 11.5806 16.1874 11.1401C16.1917 10.8362 16.3887 10.6226 16.6594 10.627C16.9214 10.6314 17.1206 10.8428 17.1206 11.1379C17.1206 11.5674 17.1162 11.9968 17.0989 12.4263C17.0946 12.5694 17.1466 12.6024 17.2743 12.6201C18.4262 12.783 19.3702 13.2917 19.9678 14.3488C20.1908 14.743 20.2926 15.1747 20.2731 15.6305C20.2623 15.8772 20.0718 16.06 19.8293 16.0666C19.5824 16.0732 19.3681 15.908 19.3572 15.6658C19.3118 14.5867 18.6644 14.0009 17.7398 13.6992C16.7785 13.3864 15.8279 13.4547 14.9575 14.0251C14.4812 14.3378 14.1521 14.765 14.0784 15.3574C14.0157 15.8529 14.1759 16.2802 14.4877 16.6502C14.9402 17.1853 15.5313 17.4562 16.2069 17.5509C16.6702 17.6147 17.1466 17.6191 17.6013 17.7227C18.424 17.9098 19.1147 18.3437 19.6149 19.0506C20.4463 20.2244 20.2168 21.7484 19.0714 22.7019C18.4868 23.1886 17.8048 23.4397 17.0621 23.5344C17.0361 23.5366 17.0123 23.5432 16.9495 23.552L16.9517 23.5542Z" fill="#027DC2"/>
</svg>
