<svg width="22" height="18" viewBox="0 0 22 18" fill="none" xmlns="http://www.w3.org/2000/svg">
<path d="M10.8299 17.8203C8.38202 17.8203 5.93465 17.8109 3.48673 17.8245C2.30547 17.831 1.34556 17.484 0.658661 16.6417C0.283942 16.1825 0.102837 15.6657 0.101749 15.1045C0.100117 14.1532 0.100117 13.202 0.102293 12.2507C0.102837 11.9813 0.249679 11.8279 0.487346 11.8326C0.722293 11.8373 0.861521 11.9912 0.862065 12.2648C0.863697 13.1926 0.854995 14.1205 0.861521 15.0484C0.868591 16.1105 1.599 16.9088 2.7634 17.1216C2.99128 17.1632 3.23166 17.1632 3.46661 17.1637C8.24442 17.166 13.0217 17.1669 17.7995 17.1627C18.2145 17.1627 18.6408 17.1707 19.0417 17.0944C20.1011 16.8924 20.8342 16.0805 20.8429 15.1452C20.8516 14.186 20.8429 13.2272 20.8484 12.268C20.8484 12.1708 20.8538 12.037 20.9229 11.9846C21.0235 11.9079 21.2002 11.8359 21.3145 11.8616C21.4298 11.8873 21.5527 12.0225 21.5918 12.131C21.6402 12.2666 21.6071 12.4242 21.6071 12.5725C21.6071 13.3521 21.6081 14.1317 21.6071 14.9118C21.6054 16.6965 20.317 17.8123 18.2281 17.8193C15.7622 17.8273 13.2963 17.8212 10.8305 17.8217L10.8299 17.8203Z" fill="#009618"/>
<path d="M11.2286 2.09311V2.36717C11.2286 5.7653 11.2286 9.16343 11.2286 12.5616C11.2286 12.9179 11.1078 13.0779 10.8446 13.0727C10.5852 13.0676 10.4672 12.9044 10.4672 12.5489C10.4672 9.1508 10.4672 5.75267 10.4672 2.35454C10.4672 2.27129 10.4672 2.18758 10.4672 2.05289C10.3568 2.13894 10.2844 2.19085 10.2181 2.24791C9.0254 3.27259 7.83381 4.29773 6.64167 5.32241C6.56498 5.38835 6.49047 5.45991 6.40074 5.51042C6.23323 5.60395 6.0679 5.57589 5.93411 5.45523C5.80032 5.33457 5.77693 5.19286 5.89332 5.05209C5.94498 4.98942 6.0146 4.93704 6.07877 4.88186C7.56405 3.60183 9.04933 2.32227 10.5346 1.04271C10.7516 0.855638 10.9567 0.852831 11.1682 1.03523C12.66 2.3204 14.1513 3.60557 15.6425 4.89121C15.7062 4.9464 15.7736 5.00112 15.8237 5.06472C15.9395 5.21157 15.8954 5.34953 15.7578 5.46458C15.6181 5.5815 15.4544 5.60161 15.2896 5.50293C15.2162 5.45897 15.1552 5.39911 15.0911 5.34392C13.8924 4.31363 12.6937 3.28334 11.4978 2.25118C11.4287 2.19132 11.3803 2.11369 11.3221 2.044C11.2911 2.06037 11.2601 2.07721 11.2291 2.09358L11.2286 2.09311Z" fill="#009618"/>
</svg>
