<svg width="20" height="21" viewBox="0 0 20 21" fill="none" xmlns="http://www.w3.org/2000/svg">
<path d="M10 0.902191C4.486 0.902191 0 5.38819 0 10.9022C0 16.4162 4.486 20.9022 10 20.9022C11.466 20.9022 12.961 20.5312 14.442 19.7982L13.557 18.0052C12.353 18.6002 11.156 18.9022 10 18.9022C5.589 18.9022 2 15.3132 2 10.9022C2 6.49119 5.589 2.90219 10 2.90219C14.411 2.90219 18 6.49119 18 10.9022V11.9022C18 12.5942 17.687 13.9022 16.5 13.9022C15.104 13.9022 15.006 12.0832 15 11.9022V6.90219H13V6.92719C12.1393 6.26614 11.0853 5.90602 10 5.90219C7.243 5.90219 5 8.14519 5 10.9022C5 13.6592 7.243 15.9022 10 15.9022C11.45 15.9022 12.748 15.2712 13.662 14.2812C14.186 15.1712 15.07 15.9022 16.5 15.9022C18.773 15.9022 20 13.8412 20 11.9022V10.9022C20 5.38819 15.514 0.902191 10 0.902191ZM10 13.9022C8.346 13.9022 7 12.5562 7 10.9022C7 9.24819 8.346 7.90219 10 7.90219C11.654 7.90219 13 9.24819 13 10.9022C13 12.5562 11.654 13.9022 10 13.9022Z" fill="#027DC2"/>
</svg>
