<svg width="32" height="32" viewBox="0 0 32 32" fill="none" xmlns="http://www.w3.org/2000/svg">
<path d="M15.998 32C24.8334 32 31.996 24.8366 31.996 16C31.996 7.16344 24.8334 0 15.998 0C7.16254 0 -2.07778e-07 7.16344 -4.64086e-07 16C-7.20394e-07 24.8366 7.16254 32 15.998 32Z" fill="#FFC332"/>
<path d="M25.9999 15.9971C25.989 21.5428 21.5138 26.0121 15.9854 25.9994C10.4556 25.9863 5.99564 21.5154 6 15.9896C6.00436 10.4652 10.4896 5.98596 16.0032 5.99948C21.5404 6.013 26.0104 10.484 25.9999 15.9971ZM16.0063 24.6024C20.765 24.5941 24.5986 20.7589 24.6034 16.0027C24.6078 11.2427 20.7541 7.39039 15.9932 7.39563C11.238 7.40086 7.39869 11.2414 7.39651 15.9944C7.39433 20.7554 11.2507 24.6107 16.0067 24.6024H16.0063Z" fill="white"/>
<path d="M15.1737 18.3743C15.9631 17.5031 16.7337 16.6528 17.5044 15.8022C18.241 14.989 18.9785 14.1771 19.7139 13.3626C19.9079 13.1477 20.1378 13.0291 20.4296 13.0918C20.9363 13.2008 21.1509 13.7951 20.8278 14.205C20.6751 14.3986 20.5002 14.5748 20.3345 14.7579C18.8363 16.4104 17.3391 18.0638 15.8397 19.715C15.4393 20.1563 15.0851 20.1681 14.6407 19.7708C13.601 18.8412 12.5608 17.9116 11.5171 16.986C11.3134 16.8055 11.1882 16.597 11.2196 16.3206C11.2511 16.0437 11.4063 15.8497 11.6636 15.7494C11.9327 15.6443 12.1787 15.7058 12.3915 15.8946C13.0436 16.4736 13.6934 17.0549 14.3441 17.6352C14.6145 17.8763 14.8849 18.117 15.1737 18.3738V18.3743Z" fill="white"/>
</svg>
