<svg width="33" height="32" viewBox="0 0 33 32" fill="none" xmlns="http://www.w3.org/2000/svg">
<path d="M16.248 32.0048C25.0834 32.0048 32.246 24.8414 32.246 16.0048C32.246 7.16827 25.0834 0.00482178 16.248 0.00482178C7.41252 0.00482178 0.25 7.16827 0.25 16.0048C0.25 24.8414 7.41252 32.0048 16.248 32.0048Z" fill="#5D0004"/>
<path d="M25.9999 15.9975C25.989 21.5433 21.5138 26.0126 15.9854 25.9999C10.4556 25.9868 5.99564 21.5159 6 15.9901C6.00436 10.4657 10.4896 5.98645 16.0032 5.99997C21.5404 6.01349 26.0104 10.4845 25.9999 15.9975ZM16.0063 24.6029C20.765 24.5946 24.5986 20.7594 24.6034 16.0032C24.6078 11.2431 20.7541 7.39088 15.9932 7.39612C11.238 7.40135 7.39869 11.2418 7.39651 15.9949C7.39433 20.7559 11.2507 24.6112 16.0067 24.6029H16.0063Z" fill="white"/>
<path d="M15.1737 18.3748C15.9631 17.5036 16.7337 16.6533 17.5044 15.8027C18.241 14.9895 18.9785 14.1776 19.7139 13.3631C19.9079 13.1481 20.1378 13.0295 20.4296 13.0923C20.9363 13.2013 21.1509 13.7956 20.8278 14.2055C20.6751 14.3991 20.5002 14.5752 20.3345 14.7584C18.8363 16.4109 17.3391 18.0643 15.8397 19.7155C15.4393 20.1568 15.0851 20.1686 14.6407 19.7713C13.601 18.8417 12.5608 17.9121 11.5171 16.9865C11.3134 16.8059 11.1882 16.5975 11.2196 16.3211C11.2511 16.0442 11.4063 15.8502 11.6636 15.7499C11.9327 15.6448 12.1787 15.7063 12.3915 15.8951C13.0436 16.4741 13.6934 17.0553 14.3441 17.6357C14.6145 17.8768 14.8849 18.1175 15.1737 18.3743V18.3748Z" fill="white"/>
</svg>
