<svg width="32" height="32" viewBox="0 0 32 32" fill="none" xmlns="http://www.w3.org/2000/svg">
<circle cx="16" cy="16" r="16" fill="#027DC2"/>
<path d="M15.9929 24.7319C11.1728 24.7319 7.26562 20.8247 7.26562 16.0046C7.26562 11.1845 11.1728 7.27734 15.9929 7.27734C20.813 7.27734 24.7202 11.1845 24.7202 16.0046C24.7202 20.8247 20.813 24.7319 15.9929 24.7319ZM15.9929 8.22676C11.7206 8.22676 8.21504 11.7323 8.21504 16.0046C8.21504 20.277 11.7206 23.7825 15.9929 23.7825C20.2652 23.7825 23.7708 20.277 23.7708 16.0046C23.7708 11.7323 20.2652 8.22676 15.9929 8.22676Z" fill="white"/>
<path d="M11.3574 15.4888H20.6324V16.5112H11.3574V15.4888Z" fill="white"/>
<path d="M15.4824 11.3638H16.5049V20.6388H15.4824V11.3638Z" fill="white"/>
</svg>
