<svg width="18" height="25" viewBox="0 0 18 25" fill="none" xmlns="http://www.w3.org/2000/svg">
<path d="M11.8498 0C11.8695 0.0112828 11.8883 0.0300875 11.9095 0.0333783C12.9057 0.168772 13.3965 0.863135 13.4924 1.77187C13.546 2.27631 13.5342 2.7878 13.5403 3.29646C13.5478 3.89962 13.537 4.50278 13.545 5.10594C13.5507 5.51636 13.6649 5.89527 13.9456 6.20696C14.4345 6.74995 15.1096 6.69823 15.5087 6.08896C15.7024 5.79279 15.795 5.46323 15.7964 5.11112C15.8002 4.28089 15.8021 3.45019 15.7917 2.61996C15.7908 2.53252 15.7203 2.42063 15.6474 2.36516C15.4622 2.22271 15.2586 2.00881 15.0597 2.00599C14.8632 2.00317 14.6634 2.22366 14.4655 2.34636C14.4204 2.37409 14.3752 2.40183 14.3137 2.43991C14.292 2.17335 14.2704 1.92795 14.253 1.68208C14.2507 1.64588 14.2558 1.589 14.2784 1.57442C14.5149 1.42352 14.7481 1.26415 14.9996 1.1438C15.071 1.10948 15.213 1.17341 15.3 1.22842C15.6507 1.44984 16.0028 1.67221 16.3314 1.92372C16.4381 2.00552 16.535 2.17523 16.5373 2.30687C16.5552 3.25462 16.5599 4.20285 16.5448 5.15014C16.5336 5.84309 16.2952 6.4533 15.7663 6.92483C15.4758 7.18339 15.1335 7.33101 14.7419 7.33242C13.5196 7.33618 12.2978 7.3343 11.0755 7.3343C11.0294 7.3343 10.9838 7.33007 10.9241 7.32725V6.58869H13.223C13.2291 6.55767 13.239 6.53792 13.2333 6.52946C12.8887 6.01515 12.775 5.44537 12.7863 4.83328C12.8008 4.02656 12.7928 3.21936 12.7881 2.41264C12.7867 2.21002 12.7731 2.00552 12.7439 1.80478C12.6833 1.38309 12.5338 1.00464 12.0928 0.850442C11.6175 0.684491 11.1493 0.693893 10.7384 1.03238C10.3308 1.36851 10.1555 1.81136 10.1559 2.33554C10.1583 4.8502 10.1569 7.36533 10.1569 9.87999V10.8733C9.89973 10.9429 9.66749 11.0054 9.41504 11.0736C9.41175 10.9956 9.4047 10.9147 9.4047 10.8334C9.40423 8.07568 9.41034 5.31797 9.39953 2.56026C9.39718 1.91432 9.50342 1.31539 9.93029 0.773343C9.84755 0.764881 9.79066 0.754068 9.73425 0.754068C7.16459 0.753128 4.59493 0.752188 2.02527 0.754068C1.23218 0.754538 0.754538 1.23688 0.754538 2.0295C0.754538 5.83698 0.755949 9.64446 0.750307 13.4519C0.750307 13.6315 0.792618 13.7387 0.96092 13.8153C1.22231 13.9347 1.4757 14.1858 1.72768 14.1797C1.96979 14.1736 2.22318 13.9333 2.43991 13.7575C2.76241 13.4957 3.04401 13.5079 3.36228 13.7632C3.57383 13.9329 3.82158 14.1679 4.05476 14.1693C4.28653 14.1707 4.51971 13.9174 4.75195 13.7749C4.8187 13.734 4.88687 13.6945 4.94893 13.6475C5.13838 13.5041 5.31985 13.5196 5.51072 13.6508C5.74295 13.8102 5.99071 13.9479 6.2173 14.1143C6.34987 14.2116 6.4439 14.198 6.57036 14.1096C6.81341 13.939 7.06633 13.781 7.31926 13.6249C7.55385 13.4801 8.0155 13.6184 8.09354 13.8769C8.18286 14.1731 8.22893 14.482 8.30603 14.844C8.09072 14.7067 7.9196 14.6127 7.76587 14.4961C7.62154 14.3865 7.50589 14.3743 7.35263 14.4895C7.12745 14.6578 6.88017 14.7965 6.64605 14.9535C6.4674 15.0734 6.30051 15.0687 6.12375 14.9479C5.89104 14.789 5.6447 14.6493 5.41763 14.4834C5.27237 14.3771 5.16377 14.3879 5.02414 14.4909C4.81635 14.6437 4.58694 14.7669 4.37726 14.9173C4.16524 15.0691 3.97155 15.0814 3.75436 14.9234C3.53951 14.7669 3.30116 14.6427 3.0882 14.4843C2.94246 14.3762 2.83528 14.3898 2.69565 14.4909C2.47423 14.6512 2.23494 14.7871 2.00834 14.9413C1.8344 15.0593 1.66939 15.0715 1.48322 14.9643C1.08315 14.7339 0.678849 14.5106 0.272198 14.292C0.0785096 14.1853 0 14.0354 0 13.8144C0.00329082 9.85836 0.000940235 5.90185 0.00376094 1.94582C0.00470117 1.00088 0.615854 0.253863 1.54151 0.0418404C1.57818 0.0333783 1.6125 0.0141035 1.64823 0C5.04859 0 8.44942 0 11.8498 0Z" fill="#667085"/>
<path d="M11.567 24.07C11.253 23.9313 11.0833 23.6822 10.9747 23.362C10.8116 22.8811 10.6179 22.4105 10.4397 21.9343C10.2366 21.3922 10.3777 21.0622 10.9112 20.8205C10.939 20.8079 10.9648 20.7905 11.0212 20.7576C10.8468 20.5751 10.6898 20.3946 10.5159 20.232C10.1826 19.9207 9.99451 19.5461 9.90706 19.0966C9.56059 17.3154 9.19907 15.5369 8.84037 13.7584C8.7675 13.3969 8.78348 13.0415 8.89349 12.6913C9.09047 12.0627 9.60431 11.65 10.2314 11.6095C10.9164 11.5654 11.5196 11.8827 11.7664 12.4684C11.8863 12.7529 11.9314 13.0697 12.0014 13.3739C12.1848 14.1665 12.3634 14.9601 12.5435 15.7532C12.5538 15.7988 12.5613 15.8453 12.5675 15.8918C12.5957 16.1208 12.4875 16.2877 12.2821 16.3352C12.0837 16.3808 11.8971 16.2717 11.843 16.047C11.6968 15.4386 11.5628 14.8275 11.4251 14.2173C11.3287 13.7899 11.2347 13.3621 11.1374 12.9353C11.0654 12.6198 10.821 12.4022 10.5008 12.3636C10.1379 12.3199 9.80928 12.4478 9.69645 12.7538C9.60525 13.0011 9.53238 13.2963 9.57939 13.546C9.92587 15.3907 10.3001 17.2307 10.6799 19.0694C10.7175 19.2508 10.8233 19.4342 10.9423 19.5799C11.1642 19.8526 11.4152 20.1022 11.6644 20.3509C11.7095 20.396 11.819 20.428 11.8736 20.4054C12.8556 19.9978 13.834 19.5809 14.8127 19.1653C14.825 19.1601 14.8325 19.1427 14.8532 19.1173C14.4884 18.7638 14.4761 18.3021 14.4869 17.8372C14.5302 15.9892 14.5725 14.1411 14.6256 12.2931C14.6327 12.0496 14.5481 11.9052 14.3445 11.7793C13.2529 11.1037 12.1702 10.4145 11.08 9.73706C10.9503 9.6562 10.8962 9.57205 10.9065 9.41974C10.9202 9.21006 10.9098 8.99851 10.9098 8.75217C11.0057 8.80623 11.0791 8.84337 11.1482 8.88709C12.3479 9.64022 13.5434 10.4004 14.7493 11.1437C15.1954 11.4182 15.3943 11.7854 15.3778 12.3105C15.3252 13.97 15.2913 15.6305 15.2518 17.2904C15.2448 17.5955 15.2504 17.9011 15.2429 18.2067C15.2358 18.4822 15.4286 18.626 15.6115 18.7708C15.6472 18.799 15.7483 18.7765 15.8014 18.7459C16.2955 18.4615 16.8347 18.6486 17.0317 19.2757C17.1934 19.7896 17.4092 20.2865 17.5972 20.7919C17.7801 21.2831 17.6259 21.6494 17.1393 21.8557C15.4262 22.5821 13.7108 23.3037 11.9967 24.0282C11.977 24.0366 11.9615 24.0559 11.9441 24.07H11.568H11.567ZM11.7711 23.3258C13.5039 22.5872 15.2062 21.8619 16.9222 21.1304C16.696 20.5328 16.4779 19.9565 16.2532 19.3637C14.5293 20.0975 12.8204 20.8252 11.0979 21.5586C11.324 22.1529 11.5435 22.7283 11.7711 23.3258Z" fill="#667085"/>
<path d="M4.1208 3.0111C4.26888 3.0111 4.41744 3.00264 4.56506 3.01298C4.77097 3.02803 4.91906 3.18599 4.92329 3.37732C4.92799 3.57618 4.77238 3.74966 4.55754 3.75718C4.26935 3.76752 3.9807 3.76752 3.69252 3.75718C3.46874 3.74966 3.32724 3.59217 3.32912 3.38108C3.331 3.17188 3.47439 3.02427 3.70051 3.0111C3.84014 3.00311 3.98117 3.00969 4.12127 3.00969C4.12127 3.00969 4.12127 3.01016 4.12127 3.01063L4.1208 3.0111Z" fill="#667085"/>
<path d="M6.03746 3.76047C5.89737 3.76047 5.7568 3.76564 5.61671 3.75906C5.39528 3.74777 5.24014 3.59546 5.2345 3.39425C5.22933 3.19539 5.38353 3.02144 5.59931 3.01345C5.88749 3.00217 6.17615 3.00264 6.46433 3.01345C6.68904 3.02144 6.83008 3.17893 6.82867 3.38907C6.82726 3.59922 6.68387 3.74307 6.45821 3.76094C6.4427 3.76235 6.42719 3.76188 6.41167 3.76188C6.28709 3.76188 6.16204 3.76188 6.03746 3.76188V3.76047Z" fill="#667085"/>
<path d="M4.12604 5.64047C3.98595 5.64047 3.84538 5.64611 3.70529 5.63953C3.47869 5.62825 3.33343 5.48345 3.32919 5.27472C3.32496 5.06411 3.46506 4.90238 3.68789 4.89392C3.97561 4.88264 4.26473 4.88311 4.55291 4.89345C4.7701 4.90097 4.92571 5.06975 4.92336 5.26908C4.92148 5.46888 4.76493 5.62778 4.5468 5.63953C4.4067 5.64705 4.26614 5.64094 4.12604 5.64094V5.64047Z" fill="#667085"/>
<path d="M6.03844 5.64047C5.89835 5.64047 5.75778 5.64611 5.61769 5.63906C5.39579 5.62824 5.24065 5.4764 5.23454 5.27519C5.22843 5.06739 5.38968 4.89862 5.62192 4.89204C5.90211 4.88405 6.18324 4.88264 6.46343 4.89298C6.68814 4.90144 6.82965 5.05752 6.82871 5.26766C6.82777 5.47781 6.68438 5.62636 6.4592 5.63906C6.31957 5.64705 6.17854 5.64047 6.03844 5.64047Z" fill="#667085"/>
<path d="M4.1189 7.52047C3.97082 7.52047 3.82226 7.5294 3.67464 7.51812C3.46591 7.50213 3.33005 7.3484 3.32911 7.14813C3.32817 6.94739 3.46262 6.78473 3.67135 6.7758C3.97458 6.76264 4.27968 6.76264 4.58291 6.77721C4.78553 6.78708 4.92938 6.96573 4.92327 7.1566C4.91716 7.3484 4.76813 7.50495 4.56269 7.51859C4.41508 7.52846 4.26652 7.52047 4.11843 7.52047H4.1189Z" fill="#667085"/>
<path d="M6.0341 7.52C5.88601 7.52 5.73745 7.52846 5.58984 7.51764C5.38487 7.50307 5.23772 7.3437 5.23443 7.15142C5.23114 6.9615 5.37734 6.7852 5.57949 6.77627C5.88272 6.76264 6.18783 6.76217 6.49105 6.77627C6.69837 6.78567 6.83189 6.95162 6.82859 7.15236C6.82577 7.35216 6.68756 7.50307 6.47789 7.51811C6.33074 7.52846 6.18171 7.52 6.03363 7.52H6.0341Z" fill="#667085"/>
<path d="M2.43208 3.75952C2.36955 3.75952 2.30655 3.76422 2.24403 3.75858C2.03483 3.73931 1.88909 3.58981 1.88392 3.39424C1.87875 3.19021 2.02825 3.02849 2.2492 3.01157C2.36579 3.00263 2.48426 3.00546 2.60132 3.00969C2.8439 3.01909 3.00327 3.16436 3.00844 3.37591C3.01408 3.59686 2.84954 3.75059 2.59615 3.75999C2.54161 3.76187 2.48661 3.75999 2.43161 3.75999C2.43161 3.75999 2.43161 3.75905 2.43161 3.75858L2.43208 3.75952Z" fill="#667085"/>
<path d="M7.70286 3.76094C7.65585 3.76094 7.60884 3.76235 7.56183 3.76094C7.30796 3.75107 7.14436 3.59828 7.14953 3.37685C7.1547 3.16483 7.31313 3.02003 7.55618 3.01016C7.65773 3.00593 7.75975 3.00593 7.86176 3.01016C8.11421 3.01909 8.27969 3.17517 8.27405 3.39519C8.26888 3.60721 8.10951 3.75107 7.86693 3.76094C7.8124 3.76329 7.75739 3.76094 7.70239 3.76094H7.70286Z" fill="#667085"/>
<path d="M2.44371 5.64141C2.41221 5.64141 2.38118 5.64188 2.34968 5.64141C2.05445 5.63765 1.88239 5.49802 1.8838 5.26343C1.88521 5.02979 2.05774 4.89204 2.35438 4.88922C2.44042 4.88828 2.52692 4.88593 2.61295 4.89063C2.85224 4.90332 3.0102 5.05517 3.00879 5.26814C3.00738 5.4811 2.84895 5.62919 2.60872 5.64094C2.55418 5.64376 2.49918 5.64094 2.44418 5.64188L2.44371 5.64141Z" fill="#667085"/>
<path d="M7.72459 4.8911C7.78711 4.8911 7.85058 4.88593 7.91263 4.89204C8.13124 4.91273 8.28167 5.07492 8.27462 5.27848C8.26804 5.47358 8.12136 5.62402 7.91122 5.63906C7.79416 5.64752 7.67616 5.6447 7.55863 5.64094C7.31464 5.63295 7.15668 5.49003 7.14963 5.27754C7.14258 5.05705 7.30712 4.90144 7.55957 4.89063C7.61411 4.88828 7.66911 4.89063 7.72411 4.89063C7.72411 4.8911 7.72411 4.89157 7.72411 4.89204L7.72459 4.8911Z" fill="#667085"/>
<path d="M2.44468 7.52188C2.41319 7.52188 2.38216 7.52235 2.35066 7.52188C2.05543 7.51812 1.88336 7.37849 1.88477 7.1439C1.88618 6.91026 2.05872 6.77251 2.35489 6.76922C2.44092 6.76828 2.52742 6.76593 2.61346 6.77063C2.85275 6.78332 3.0107 6.93517 3.00929 7.14813C3.00788 7.3611 2.84945 7.50918 2.60922 7.52094C2.55469 7.52376 2.49969 7.52094 2.44468 7.52188Z" fill="#667085"/>
<path d="M7.72075 6.77015C7.76776 6.77015 7.81477 6.76827 7.86178 6.77015C8.11424 6.7805 8.27972 6.93564 8.27408 7.15565C8.2689 7.36767 8.10953 7.51247 7.86695 7.52093C7.76541 7.52469 7.66339 7.52422 7.56138 7.52093C7.30751 7.51247 7.14391 7.35874 7.14956 7.13685C7.15473 6.92482 7.31363 6.78097 7.55621 6.77015C7.61074 6.7678 7.66574 6.77015 7.72075 6.76968V6.77015Z" fill="#667085"/>
</svg>
