<svg width="36" height="24" viewBox="0 0 36 24" fill="none" xmlns="http://www.w3.org/2000/svg">
<path d="M10.7226 17.1448C9.94623 17.4503 9.27876 17.7116 8.6128 17.976C7.99144 18.2233 7.37234 18.4761 6.75098 18.7234C6.23923 18.9265 5.93535 18.8389 5.80533 18.4575C5.69195 18.1225 5.87034 17.8643 6.34203 17.6751C8.3452 16.8727 10.3476 16.0702 12.3508 15.267C12.4657 15.2212 12.5776 15.1693 12.7174 15.1088C12.31 14.0706 11.6947 13.2185 10.9123 12.4921C9.67939 11.3469 8.22048 10.6592 6.61341 10.2614C6.33674 10.1932 6.0442 10.0436 5.83784 9.84508C3.99265 8.06725 2.16712 6.26693 0.329496 4.47901C0.093651 4.24952 -0.0923037 4.00994 0.0490521 3.66957C0.185117 3.34238 0.485214 3.32455 0.786068 3.32532C2.47478 3.32765 4.16273 3.33928 5.85144 3.31757C6.33372 3.31136 6.66708 3.46023 6.80314 3.94326C6.93391 4.40458 7.21133 4.5139 7.66942 4.50693C9.63479 4.47669 11.6002 4.49297 13.5663 4.49685C13.7273 4.49685 13.8989 4.50848 14.0471 4.56508C14.3033 4.66277 14.4424 4.90234 14.3502 5.152C14.2814 5.33653 14.0811 5.48384 13.9118 5.6079C13.8354 5.66372 13.691 5.6234 13.5784 5.6234C11.7514 5.6234 9.92431 5.62418 8.09726 5.62418C7.96044 5.62418 7.82438 5.62418 7.62104 5.62418C7.75559 5.9157 7.84781 6.16768 7.98614 6.38943C8.03679 6.47161 8.19402 6.52279 8.30287 6.52279C10.1171 6.53054 11.9313 6.53442 13.7462 6.51658C13.9057 6.51503 14.0947 6.3871 14.2179 6.26383C15.3994 5.07834 16.7253 4.13322 18.3558 3.74788C19.9228 3.37727 21.4618 3.52303 22.9177 4.25417C23.536 4.5643 24.0009 5.05276 24.2118 5.74823C24.2594 5.90562 24.2836 6.07697 24.2821 6.24134C24.2799 6.5476 24.0818 6.76159 23.8165 6.74453C23.6199 6.73213 23.2994 6.55613 23.2669 6.40106C23.0674 5.45438 22.3666 5.13882 21.5941 4.92328C19.2825 4.27588 17.305 4.98686 15.5483 6.54139C15.3578 6.71042 15.1484 6.87013 15.0018 7.07482C14.6601 7.55088 14.2217 7.66873 13.66 7.65942C11.7453 7.62763 9.82982 7.63771 7.91509 7.65399C7.50614 7.6571 7.26349 7.51366 7.09265 7.13142C6.73133 6.32198 6.34279 5.52494 5.94971 4.731C5.89226 4.61547 5.74713 4.47049 5.64054 4.46893C4.44469 4.45033 3.24883 4.4573 1.95471 4.4573C2.08548 4.60617 2.15729 4.69843 2.23969 4.77984C3.66156 6.17156 5.08192 7.56561 6.51362 8.94725C6.64969 9.07828 6.85379 9.15736 7.0405 9.20776C9.60531 9.89625 11.7566 11.198 13.1876 13.5628C13.9601 14.839 14.3434 16.247 14.4454 17.738C14.4749 18.1714 14.3078 18.4086 13.9821 18.4505C13.6457 18.4939 13.4174 18.2737 13.3546 17.8364C13.2783 17.3045 13.2072 16.7719 13.1256 16.1772C12.6577 16.3648 12.2555 16.5052 11.8768 16.6959C11.7929 16.7378 11.7423 16.9696 11.7657 17.096C11.994 18.2977 11.895 19.4623 11.4127 20.5834C10.3605 23.0257 7.96271 24.1856 5.80685 23.9662C3.05683 23.6863 1.16705 21.4875 0.83369 19.156C0.492017 16.7657 1.61077 14.4219 3.68878 13.2651C5.72899 12.1292 8.27642 12.4393 10.0256 14.0373C10.3385 14.3234 10.4028 14.6537 10.1964 14.915C9.97949 15.1894 9.63933 15.1778 9.30143 14.8855C6.82053 12.7371 3.15283 13.6861 2.1263 16.775C1.54576 18.5234 1.87534 20.1392 3.13923 21.4673C4.41219 22.8047 5.98449 23.2056 7.71628 22.6202C9.43296 22.0403 10.4414 20.7625 10.7301 18.9389C10.8186 18.3815 10.7309 17.7945 10.7233 17.1433L10.7226 17.1448Z" fill="#202020"/>
<path d="M33.3437 12.5496C33.2416 12.4651 33.1471 12.3674 33.036 12.2992C32.5704 12.017 32.0874 11.7634 31.6338 11.4634C31.0941 11.1059 30.5982 11.1176 30.0849 11.5145C29.7644 11.7626 29.4197 11.9805 29.0743 12.1922C28.8672 12.3186 28.8596 12.4511 28.9397 12.6698C29.5671 14.384 30.1817 16.1037 30.8008 17.8219C30.8272 17.8947 30.8575 17.9653 30.8802 18.0389C30.9898 18.3995 30.8734 18.6957 30.5801 18.8081C30.2754 18.9244 29.9942 18.7933 29.8589 18.4398C29.6299 17.8397 29.419 17.2318 29.1998 16.6271C28.7931 15.5028 28.3856 14.3794 27.9555 13.1908C27.8059 13.3366 27.6789 13.4474 27.5655 13.5723C25.8216 15.4966 24.8185 17.8118 24.2024 20.3262C23.9295 21.4403 23.9416 21.4427 22.8433 21.4419C19.9708 21.4411 17.0983 21.4419 14.2259 21.4411C14.1125 21.4411 13.9968 21.4535 13.8865 21.4334C13.6098 21.383 13.4284 21.2186 13.4065 20.9201C13.383 20.6006 13.5508 20.4045 13.8396 20.3293C13.9711 20.2952 14.1148 20.3068 14.2531 20.3068C17.0371 20.3052 19.8219 20.3052 22.6059 20.3052C22.7435 20.3052 22.8818 20.3052 23.0444 20.3052C23.2394 19.647 23.4125 18.9918 23.6264 18.3499C24.442 15.9029 25.6704 13.7211 27.5776 11.9867C28.9881 10.7035 30.6043 9.82044 32.4419 9.3723C32.5485 9.34671 32.6528 9.31105 32.8312 9.2591C32.4721 8.55743 32.1645 7.88056 31.7918 7.24324C30.2762 4.65209 28.2314 2.60909 25.6636 1.12278C25.2788 0.900258 25.1458 0.586249 25.3129 0.276892C25.4792 -0.0301388 25.7974 -0.0906146 26.1988 0.139659C28.7999 1.63527 30.9164 3.67052 32.4857 6.2671C33.0791 7.24867 33.5312 8.3225 34.0089 9.37308C34.2735 9.95535 34.0527 10.2678 33.4238 10.3469C33.101 10.3872 32.782 10.4585 32.3421 10.5368C32.5364 10.6601 32.6467 10.7206 32.7473 10.7958C33.4042 11.2912 34.0762 11.7665 34.7043 12.2976C34.9462 12.5023 35.0989 12.828 35.2682 13.1133C35.4119 13.3552 35.4686 13.6227 35.2713 13.8723C35.074 14.122 34.8215 14.0987 34.5479 14.0266C33.5432 13.7614 32.5258 13.6017 31.4841 13.6847C31.2717 13.7017 31.0616 13.7506 30.8499 13.7777C30.4788 13.8258 30.246 13.6824 30.184 13.3746C30.1152 13.0357 30.2679 12.7388 30.6322 12.7016C31.3919 12.6256 32.1569 12.6124 32.9204 12.5814C33.0511 12.576 33.1834 12.6078 33.315 12.6225C33.3248 12.5985 33.3346 12.5744 33.3444 12.5496H33.3437Z" fill="#202020"/>
<path d="M29.2665 6.09793C29.6551 6.0832 29.9098 6.28401 29.934 6.60189C29.959 6.92365 29.7239 7.13222 29.3028 7.23766C27.986 7.5664 26.6488 7.83699 25.3668 8.27738C24.4 8.61 23.4951 9.14498 22.5888 9.63964C22.2653 9.81642 21.9931 10.1157 21.7422 10.401C21.139 11.0849 21.0414 11.8633 21.427 12.6968C21.6477 13.1744 21.9039 13.6365 22.1043 14.1226C22.2592 14.4994 22.387 14.8964 22.4641 15.2972C22.65 16.2602 22.3099 17.0479 21.532 17.5767C21.0573 17.8992 20.5131 18.1404 19.9688 18.321C19.0375 18.6296 18.082 18.8638 17.1364 19.1266C16.6957 19.2491 16.4039 19.1297 16.3019 18.7901C16.2028 18.4614 16.4085 18.1737 16.8325 18.052C17.8243 17.7674 18.8221 17.5023 19.8063 17.1914C20.185 17.072 20.5554 16.8859 20.891 16.668C21.3529 16.368 21.5502 15.8966 21.3574 15.3593C21.1201 14.6971 20.8358 14.0489 20.5342 13.414C20.151 12.6076 19.9756 11.7827 20.222 10.9042C20.4125 10.2266 20.8169 9.68461 21.3211 9.22019C22.421 8.20683 23.7408 7.59044 25.1272 7.15238C26.4092 6.74688 27.7275 6.46233 29.0307 6.12661C29.1154 6.1049 29.2053 6.10568 29.2658 6.0987L29.2665 6.09793Z" fill="#202020"/>
<path d="M35.9972 18.3105C36.007 21.0482 34.1656 23.3284 31.5018 23.8921C29.0232 24.4162 26.3812 22.9896 25.3698 20.5845C25.2633 20.331 25.1937 20.0627 25.4167 19.8705C25.552 19.7534 25.8068 19.6518 25.9481 19.7069C26.1288 19.7766 26.2973 19.9868 26.3896 20.1775C27.0192 21.4785 27.983 22.3717 29.3679 22.712C31.1941 23.1617 32.7559 22.6322 33.9275 21.142C35.1015 19.6479 35.2262 17.9748 34.4423 16.2326C34.3947 16.1272 34.3312 16.0302 34.2843 15.924C34.1475 15.6147 34.2382 15.3014 34.5013 15.1564C34.7674 15.0099 35.072 15.0952 35.2458 15.3952C35.6911 16.1613 35.9519 16.9901 35.9965 17.8848C36.0033 18.0267 35.9972 18.1686 35.9972 18.3113V18.3105Z" fill="#202020"/>
<path d="M17.3129 12.2186C18.5677 12.2201 19.5761 13.2466 19.5745 14.5205C19.573 15.789 18.5488 16.838 17.3129 16.838C16.0709 16.838 15.0633 15.7998 15.0625 14.5197C15.0625 13.2304 16.0535 12.2162 17.3129 12.2178V12.2186ZM16.1654 14.5073C16.1593 15.164 16.656 15.6975 17.2894 15.7145C17.9206 15.7316 18.4694 15.1733 18.4679 14.5166C18.4656 13.8692 17.9486 13.3374 17.3174 13.3343C16.6824 13.3312 16.1714 13.8514 16.1654 14.5073Z" fill="#202020"/>
<path d="M25.3197 2.4624C25.4172 2.52908 25.6153 2.60661 25.7302 2.75315C26.2291 3.38505 26.7098 4.03245 27.1853 4.68373C27.4015 4.9799 27.3599 5.31795 27.1135 5.51178C26.864 5.70794 26.5496 5.66064 26.3198 5.36602C25.9509 4.89229 25.5828 4.41546 25.2396 3.92158C25.0823 3.6944 24.9047 3.64556 24.6598 3.69208C24.4376 3.73472 24.2123 3.76806 23.987 3.78434C23.6605 3.8076 23.4602 3.63315 23.3944 3.31294C23.3377 3.0377 23.5373 2.75238 23.8396 2.695C24.297 2.60894 24.7588 2.54924 25.3189 2.4624H25.3197Z" fill="#202020"/>
</svg>
