<svg width="24" height="24" viewBox="0 0 24 24" fill="none" xmlns="http://www.w3.org/2000/svg">
<path d="M1.20209 9.60093C1.01369 9.60093 0.841324 9.60177 0.668954 9.60093C0.248011 9.59812 0.00112476 9.35579 0.000843574 8.93888C-0.000281191 7.37891 -0.000281191 5.81895 0.000843574 4.25871C0.000843574 3.84939 0.249417 3.602 0.656863 3.5989C0.833732 3.5975 1.0106 3.5989 1.20237 3.5989C1.20237 3.22557 1.19366 2.86601 1.20547 2.50701C1.21278 2.2838 1.22599 2.05553 1.27914 1.8399C1.55218 0.734237 2.51779 0.00106203 3.68529 0.000499778C6.0892 -0.000624723 8.4931 0.000499778 10.897 0.000499778C14.0365 0.000499778 17.176 -0.000343598 20.3155 0.00106203C21.4855 0.00162428 22.4472 0.733675 22.7208 1.84075C22.7731 2.05187 22.7877 2.27537 22.7945 2.4938C22.8063 2.85758 22.7976 3.22163 22.7976 3.5989C22.9851 3.5989 23.1575 3.59806 23.3296 3.5989C23.7508 3.60115 23.9985 3.84208 23.9988 4.25927C24.0005 5.81923 24.0005 7.3792 23.9988 8.93944C23.9985 9.35635 23.7505 9.59784 23.3299 9.60065C23.1575 9.60177 22.9854 9.60065 22.7973 9.60065V9.79181C22.7973 13.104 22.7965 16.416 22.7984 19.7282C22.7984 20.171 22.6767 20.5679 22.3986 20.9137C22.2164 21.1403 21.9937 21.3194 21.7237 21.4267C21.6143 21.4703 21.5921 21.5291 21.593 21.6353C21.5946 21.9114 21.6138 22.1923 21.5721 22.4627C21.4352 23.3525 20.7103 23.9782 19.8094 23.9909C18.999 24.0021 18.188 24.0041 17.3776 23.9903C16.3718 23.9732 15.6036 23.1784 15.5994 22.1737C15.5985 21.9865 15.5994 21.7995 15.5994 21.6013H8.40087C8.40087 21.7942 8.40171 21.9845 8.40087 22.1748C8.39665 23.0576 7.80727 23.7795 6.94177 23.9566C6.82339 23.9808 6.69994 23.9917 6.57903 23.9923C5.79648 23.9954 5.01392 23.9974 4.23137 23.9929C3.30737 23.9872 2.56446 23.3648 2.42724 22.4616C2.38534 22.1863 2.40643 21.9007 2.40643 21.6199C2.40643 21.5249 2.38225 21.4765 2.28805 21.4321C1.57664 21.0956 1.20434 20.5308 1.20378 19.7408C1.20069 16.4193 1.20237 13.0981 1.20237 9.77663C1.20237 9.72547 1.20237 9.67458 1.20237 9.60037L1.20209 9.60093ZM21.5955 11.4285C21.5955 11.3945 21.5955 11.3487 21.5955 11.3026C21.5955 8.36988 21.5958 5.43718 21.5949 2.5042C21.5949 2.40159 21.5935 2.29673 21.5738 2.19665C21.454 1.58942 20.9608 1.20231 20.3088 1.20231C14.7698 1.20175 9.23094 1.20175 3.69204 1.20231C2.9227 1.20231 2.40559 1.71846 2.40531 2.48986C2.4039 5.42734 2.40475 8.36482 2.40531 11.3023C2.40531 11.3518 2.41037 11.4013 2.41206 11.4277C8.81 12.1617 15.1908 12.162 21.596 11.4288L21.5955 11.4285ZM2.40447 12.6329C2.40447 12.7287 2.40447 12.7703 2.40447 12.8122C2.40447 15.1121 2.40447 17.4123 2.40475 19.7122C2.40475 20.1622 2.6387 20.3959 3.08889 20.3959C9.02061 20.3959 14.9521 20.3939 20.8838 20.4001C21.298 20.4006 21.6034 20.1606 21.6008 19.6832C21.589 17.3974 21.5955 15.1115 21.5958 12.8254C21.5958 12.7757 21.5958 12.7259 21.5958 12.6343C15.1922 13.3593 8.80775 13.3579 2.40447 12.6329ZM16.8155 21.5988C16.8102 21.6238 16.8031 21.6415 16.8029 21.659C16.8026 21.851 16.7967 22.0433 16.8054 22.2347C16.8192 22.5375 17.0655 22.7866 17.3711 22.7888C18.1908 22.7953 19.0105 22.7944 19.8302 22.7888C20.0855 22.7871 20.3304 22.6007 20.3695 22.3545C20.4083 22.1088 20.3985 21.8555 20.4105 21.5985H16.8155V21.5988ZM3.61303 21.5963C3.61303 21.8389 3.59334 22.0691 3.61809 22.2943C3.64902 22.5788 3.89253 22.7877 4.17822 22.7896C4.99311 22.7953 5.80829 22.7947 6.62318 22.7899C6.88215 22.7885 7.12285 22.6156 7.167 22.3629C7.21031 22.1147 7.19625 21.8563 7.20777 21.5963H3.61331H3.61303Z" fill="#202020"/>
<path d="M17.9979 19.194C16.6724 19.1934 15.5954 18.1142 15.5977 16.7887C15.5999 15.4724 16.6805 14.3938 17.9965 14.394C19.3189 14.3943 20.4021 15.48 20.3984 16.801C20.3948 18.1187 19.3156 19.1945 17.9982 19.194H17.9979ZM17.9917 17.9913C18.6536 17.9939 19.1924 17.4628 19.1963 16.8038C19.2003 16.1452 18.6666 15.6018 18.0097 15.5961C17.3427 15.5902 16.8017 16.1258 16.8006 16.7929C16.7995 17.4561 17.329 17.9888 17.9917 17.9913Z" fill="#202020"/>
<path d="M5.99647 19.194C4.67965 19.1917 3.59932 18.11 3.60157 16.7957C3.60382 15.4713 4.68781 14.3896 6.00884 14.3941C7.33325 14.3986 8.40684 15.4814 8.40206 16.8078C8.39728 18.1246 7.31695 19.1962 5.99647 19.1937V19.194ZM7.19885 16.8022C7.20166 16.139 6.67274 15.6006 6.01362 15.5964C5.35423 15.5919 4.80928 16.1252 4.80366 16.7802C4.79803 17.4479 5.33117 17.9882 5.99844 17.9913C6.66036 17.9944 7.19575 17.4639 7.19885 16.8022Z" fill="#202020"/>
<path d="M14.3871 15.5897H9.61328V14.4028H14.3871V15.5897Z" fill="#202020"/>
<path d="M14.3916 18.002V19.1841H9.61328V18.002H14.3916Z" fill="#202020"/>
</svg>
