<svg width="49" height="24" viewBox="0 0 49 24" fill="none" xmlns="http://www.w3.org/2000/svg">
<path d="M48.4202 14.4031C48.3549 14.7387 48.308 15.079 48.2211 15.4086C47.7001 17.389 46.007 18.8718 43.9726 19.1417C43.9496 19.145 43.9261 19.1534 43.9031 19.1525C43.6421 19.1417 43.5806 19.2708 43.5727 19.5214C43.5041 21.6272 41.8016 23.5602 39.7156 23.9211C37.0095 24.3896 34.6029 22.7214 34.0842 20.0134C34.0448 19.8073 34.0288 19.5947 34.0241 19.3844C34.0208 19.2393 33.965 19.1929 33.8288 19.1943C33.4378 19.198 33.0468 19.1943 32.6558 19.1943C26.7902 19.1943 20.925 19.1962 15.0598 19.19C14.8158 19.19 14.7538 19.2562 14.7439 19.5017C14.6538 21.6605 12.9555 23.5686 10.8263 23.9258C8.19345 24.3675 5.80608 22.7378 5.26627 20.1246C5.22402 19.9195 5.19539 19.7064 5.19914 19.4975C5.2029 19.268 5.13249 19.1915 4.89262 19.1854C2.88734 19.1365 1.18201 17.8518 0.587747 15.9413C0.479315 15.5949 0.430028 15.2297 0.353516 14.8725C0.353516 14.0276 0.353516 13.1827 0.353516 12.3377C0.417824 12.0261 0.465233 11.7097 0.549725 11.4032C1.03931 9.62694 2.56439 8.30417 4.39271 8.07182C4.67811 8.03568 4.96913 8.02816 5.25735 8.03098C5.42351 8.03286 5.50613 7.97324 5.57795 7.82726C6.15578 6.65704 6.73361 5.4873 7.32647 4.32506C8.4197 2.18365 10.125 0.791411 12.4688 0.230477C13.0635 0.088248 13.6892 0.0173685 14.3008 0.0145521C18.0091 -0.00516275 21.7169 -0.00187694 25.4247 0.00704168C27.645 0.0122051 29.5953 0.753859 31.2941 2.18647C33.1238 3.72939 34.9714 5.25072 36.8072 6.78566C37.9234 7.71883 39.2129 8.2347 40.6431 8.45673C41.9917 8.66561 43.3511 8.84962 44.6744 9.17256C46.7012 9.66637 48.1775 11.4834 48.369 13.545C48.3751 13.6131 48.4023 13.6793 48.4197 13.7464V14.4036L48.4202 14.4031ZM46.5646 12.8226C46.5618 12.7701 46.5646 12.7461 46.5581 12.725C46.544 12.6804 46.5271 12.6367 46.5069 12.5945C46.0807 11.6965 45.4155 11.0314 44.4641 10.7465C43.7581 10.5352 43.0155 10.4451 42.2874 10.3118C41.313 10.1334 40.3361 9.9682 39.3617 9.79076C39.0566 9.73538 38.7552 9.603 38.4524 9.60207C32.3432 9.5908 26.2335 9.59409 20.1242 9.59409C17.3158 9.59409 14.5074 9.59643 11.6994 9.59315C10.4541 9.59174 9.58757 8.583 9.85935 7.41466C9.94619 7.04195 10.1509 6.69366 10.3241 6.34536C11.36 4.25887 13.0452 3.21634 15.3767 3.21681C20.1486 3.21821 24.9201 3.21727 29.692 3.21681C29.7826 3.21681 29.8737 3.20836 30.0361 3.20038C29.9122 3.09899 29.8455 3.0389 29.7732 2.98633C28.5007 2.0649 27.0807 1.58141 25.5078 1.57907C21.7605 1.5739 18.0138 1.57578 14.2666 1.58C13.9629 1.58 13.6545 1.59221 13.3555 1.6429C11.2267 2.00293 9.67253 3.15015 8.70181 5.08033C8.03526 6.40592 7.37059 7.73244 6.71296 9.06273C6.53271 9.42745 6.25295 9.59737 5.85349 9.59455C5.54838 9.59221 5.24327 9.58986 4.93815 9.59784C3.25629 9.64056 1.94713 10.9821 1.94056 12.6673C1.93821 13.2695 1.93868 13.8722 1.94056 14.4744C1.94572 16.2999 3.28774 17.6354 5.11371 17.6485C5.35968 17.6504 5.47797 17.5786 5.57654 17.3453C6.32758 15.5686 8.09347 14.3796 9.98468 14.4336C12.0468 14.4928 13.515 15.5001 14.3726 17.3763C14.4661 17.5809 14.566 17.6467 14.7852 17.6467C21.1841 17.641 27.583 17.641 33.9819 17.6485C34.2152 17.6485 34.317 17.5767 34.4067 17.3622C35.2394 15.3719 37.3235 14.1604 39.4358 14.474C41.2407 14.7415 42.5034 15.7536 43.237 17.4209C43.3032 17.5716 43.3643 17.6335 43.5417 17.6194C45.0607 17.4997 46.3224 16.4483 46.7003 14.9678C46.7453 14.7908 46.7698 14.6082 46.8101 14.3932C46.6824 14.3932 46.5984 14.3932 46.5144 14.3932C45.8418 14.3932 45.1691 14.3942 44.496 14.3932C43.989 14.3928 43.6473 14.0867 43.6403 13.6305C43.6332 13.1573 43.9712 12.8278 44.4805 12.8236C45.0907 12.8184 45.7009 12.8222 46.3112 12.8222C46.3942 12.8222 46.4773 12.8222 46.5656 12.8222L46.5646 12.8226ZM24.3883 8.00469H35.8046C35.7069 7.91692 35.6525 7.86481 35.5947 7.81646C34.4475 6.85983 33.298 5.90553 32.1545 4.9442C32.0141 4.82638 31.8766 4.77052 31.6912 4.77099C29.3522 4.77615 27.0136 4.77428 24.6746 4.77475H24.3878V8.00469H24.3883ZM13.1818 19.2253C13.1827 17.4439 11.7402 15.992 9.97201 15.9934C8.19955 15.9948 6.75004 17.4392 6.73972 19.214C6.72939 20.9653 8.18922 22.4383 9.93774 22.4411C11.7402 22.4439 13.1813 21.0155 13.1818 19.2253ZM35.5919 19.229C35.598 21.0127 37.0363 22.4458 38.8162 22.4416C40.5859 22.4374 42.0405 20.9771 42.0354 19.2098C42.0302 17.4354 40.5577 15.9831 38.7745 15.993C37.0194 16.0028 35.5863 17.4603 35.5924 19.229H35.5919ZM20.3491 8.02582C21.0916 8.02582 21.8347 8.02112 22.5773 8.0291C22.7496 8.03098 22.8068 7.98169 22.8054 7.80426C22.7975 6.87391 22.7975 5.94356 22.8054 5.0132C22.8068 4.83201 22.758 4.77005 22.5698 4.77099C21.1081 4.77803 19.6459 4.77709 18.1842 4.7724C18.0147 4.77193 17.9499 4.81934 17.9514 4.99724C17.9579 5.9276 17.9584 6.85795 17.9514 7.7883C17.9499 7.97137 18.0058 8.03286 18.1926 8.03004C18.9118 8.02065 19.6309 8.02629 20.3505 8.02535L20.3491 8.02582ZM13.9441 8.02582C14.6862 8.02582 15.4288 8.02441 16.1709 8.02723C16.3009 8.02769 16.4 8.02065 16.399 7.84791C16.3953 6.88658 16.3962 5.92572 16.399 4.96439C16.399 4.82591 16.346 4.77005 16.2042 4.77287C15.8137 4.77991 15.4222 4.7602 15.0322 4.78085C13.8962 4.84093 12.9367 5.28827 12.2472 6.20032C11.9308 6.61902 11.7111 7.11236 11.46 7.57848C11.2934 7.88781 11.3849 8.02488 11.7402 8.02535C12.4749 8.02676 13.2095 8.02582 13.9441 8.02535V8.02582Z" fill="#202020"/>
<path d="M25.9852 12.7956C25.7275 12.7956 25.4698 12.7998 25.2125 12.7951C24.7502 12.7862 24.3944 12.4356 24.4005 12C24.4066 11.5719 24.7567 11.2301 25.2074 11.225C25.7303 11.2193 26.2537 11.2179 26.7766 11.225C27.2305 11.2311 27.5685 11.5714 27.5694 12.007C27.5703 12.4445 27.2361 12.7825 26.7817 12.7942C26.5165 12.8012 26.2508 12.7956 25.9856 12.7956H25.9852Z" fill="#202020"/>
<path d="M9.98041 17.644C10.8493 17.645 11.5646 18.3636 11.5557 19.2264C11.5463 20.0995 10.8408 20.797 9.96586 20.7979C9.08902 20.7989 8.38727 20.0985 8.38867 19.224C8.39008 18.3303 9.08198 17.6431 9.98041 17.6445V17.644Z" fill="#202020"/>
</svg>
