<svg width="24" height="24" viewBox="0 0 24 24" fill="none" xmlns="http://www.w3.org/2000/svg">
<path d="M19.7884 24.0002C19.7048 23.8905 19.6293 23.7733 19.5357 23.6721C18.3431 22.3868 17.2518 21.0288 16.4245 19.4838C16.2368 19.1327 16.0706 18.7671 15.935 18.3939C15.8027 18.0293 15.7224 17.6468 15.6159 17.2582C15.5481 17.2516 15.4631 17.2436 15.3633 17.2347V16.7078C15.4502 16.6975 15.5405 16.6863 15.625 16.676C15.6919 16.3727 15.7382 16.0713 15.8247 15.7816C16.3667 13.9633 18.1712 12.7253 20.0773 12.8533C22.0489 12.986 23.6565 14.4344 23.9555 16.331C24.0959 17.2225 23.8887 18.0513 23.5309 18.8571C22.9678 20.1274 22.1654 21.2505 21.2847 22.3221C20.8157 22.8925 20.3199 23.4414 19.8361 23.9997H19.7884V24.0002ZM19.8098 23.1836C19.86 23.1414 19.8858 23.1241 19.9063 23.1021C20.8764 22.0333 21.7724 20.9097 22.4983 19.6647C22.9263 18.9311 23.3227 18.1736 23.4082 17.3205C23.55 15.9086 23.0084 14.7677 21.8024 13.9919C20.5974 13.2166 19.3184 13.1913 18.0503 13.8686C16.7025 14.5882 15.7005 16.338 16.5105 18.3424C17.0383 19.6483 17.8354 20.7907 18.7109 21.8857C19.0624 22.3253 19.4383 22.7468 19.8098 23.1841V23.1836Z" fill="#667085"/>
<path d="M4.64552 0C4.84469 0.0459375 5.04433 0.0876563 5.24206 0.137813C6.87454 0.555469 8.08147 1.9125 8.28445 3.55453C8.29496 3.63938 8.30976 3.72422 8.326 3.83016H8.78451V4.35047H8.33842C8.27442 4.6425 8.22714 4.91766 8.15215 5.18578C7.91812 6.02016 7.51359 6.77953 7.05508 7.51266C6.23645 8.82047 5.25448 10.0031 4.15979 11.1483C3.65687 10.5703 3.1463 10.0153 2.67155 9.43172C1.75645 8.30719 0.928268 7.12735 0.373761 5.78203C-0.180747 4.43578 -0.146837 3.12797 0.668447 1.89047C1.35716 0.844688 2.34439 0.228281 3.60385 0.0407813C3.6497 0.03375 3.69316 0.0140625 3.73758 0C4.03991 0 4.34272 0 4.64505 0H4.64552ZM4.17412 10.3495C5.51239 8.82985 6.77138 7.305 7.49209 5.43141C7.72564 4.82438 7.80206 4.19766 7.70845 3.54563C7.4429 1.70156 5.56827 0.325781 3.68982 0.574688C1.4503 0.871875 -0.067553 3.11625 0.76397 5.28422C1.50427 7.21453 2.8029 8.77594 4.17412 10.3495Z" fill="#667085"/>
<path d="M20.5165 6.18799C20.5007 6.39799 20.4864 6.58689 20.4721 6.77393C20.0887 6.76205 19.8975 6.64752 19.8984 6.43033C19.8994 6.21705 19.9538 6.19455 20.5165 6.18846V6.18799Z" fill="#667085"/>
<path d="M17.9102 9.04762H17.3242V8.50293H17.8663C17.8806 8.67871 17.895 8.85309 17.9107 9.04762H17.9102Z" fill="#667085"/>
<path d="M14.6213 16.707V17.2311H14.084V16.707H14.6213Z" fill="#667085"/>
<path d="M7.7394 13.0903V13.6149H7.19922V13.0903H7.7394Z" fill="#667085"/>
<path d="M11.4961 16.6958H12.0267V17.233H11.4961V16.6958Z" fill="#667085"/>
<path d="M16.0762 4.37951V3.85498H16.6164V4.37951H16.0762Z" fill="#667085"/>
<path d="M10.7481 16.7046V17.2301H10.2051V16.7046H10.7481Z" fill="#667085"/>
<path d="M8.12208 16.7065V17.2259H7.57617V16.7065H8.12208Z" fill="#667085"/>
<path d="M16.0469 8.54395H16.5765V9.06848H16.0469V8.54395Z" fill="#667085"/>
<path d="M6.29688 16.6982H6.82607V17.2312H6.29688V16.6982Z" fill="#667085"/>
<path d="M12.1621 3.84912H12.7009V4.37928H12.1621V3.84912Z" fill="#667085"/>
<path d="M15.2938 4.38709H14.7637V3.85693H15.2938V4.38709Z" fill="#667085"/>
<path d="M14.7715 8.5376H15.2921V9.07385H14.7715V8.5376Z" fill="#667085"/>
<path d="M10.1081 3.85645V4.38473H9.57227V3.85645H10.1081Z" fill="#667085"/>
<path d="M11.4222 4.38914H10.8887V3.86133H11.4222V4.38914Z" fill="#667085"/>
<path d="M14.0198 3.85693V4.38475H13.4863V3.85693H14.0198Z" fill="#667085"/>
<path d="M8.52344 13.082H9.05215V13.6098H8.52344V13.082Z" fill="#667085"/>
<path d="M18.7058 8.91404C18.6346 8.71295 18.5787 8.55404 18.5176 8.38154C18.6685 8.30701 18.8013 8.24186 18.9603 8.16357C19.0597 8.30748 19.159 8.45045 19.2727 8.61498C19.0816 8.71576 18.9097 8.8067 18.7062 8.91451L18.7058 8.91404Z" fill="#667085"/>
<path d="M12.2585 10.3012C12.2222 10.4653 12.1897 10.6143 12.1534 10.7793C11.9662 10.755 11.7962 10.7329 11.5898 10.7062C11.6371 10.5028 11.6801 10.3186 11.7279 10.1123C11.918 10.1798 12.0789 10.2375 12.259 10.3012H12.2585Z" fill="#667085"/>
<path d="M3.89258 14.9463C3.94559 14.7288 3.99097 14.5436 4.04398 14.3247C4.23312 14.4021 4.39503 14.4681 4.56792 14.5385C4.53019 14.6899 4.4958 14.8296 4.45568 14.9908C4.28183 14.9767 4.11276 14.9636 3.89258 14.9458V14.9463Z" fill="#667085"/>
<path d="M18.5488 4.50398C18.6181 4.31977 18.6768 4.16227 18.7456 3.97852C18.9371 4.08023 19.1072 4.1707 19.3011 4.27336C19.1969 4.43039 19.1043 4.56914 19.003 4.72148C18.8507 4.64883 18.7112 4.5818 18.5488 4.50398Z" fill="#667085"/>
<path d="M10.4239 13.6007C10.2152 13.6129 10.0365 13.6232 9.83594 13.6349V13.0874C9.98639 13.0761 10.1335 13.0649 10.3083 13.0518C10.3436 13.2196 10.3795 13.3902 10.4239 13.6011V13.6007Z" fill="#667085"/>
<path d="M10.9062 12.8081C11.0261 12.7092 11.1403 12.615 11.274 12.5044C11.391 12.6089 11.5214 12.7256 11.6742 12.8621C11.5185 13.0022 11.3815 13.125 11.2262 13.2647C11.1121 13.1016 11.0156 12.9638 10.9067 12.8077L10.9062 12.8081Z" fill="#667085"/>
<path d="M13.3574 8.6308C13.5638 8.58955 13.7452 8.55299 13.9482 8.51221C13.9654 8.71143 13.9802 8.87971 13.9965 9.0658C13.835 9.09252 13.6822 9.11783 13.506 9.14736C13.4577 8.97955 13.4119 8.81924 13.3579 8.6308H13.3574Z" fill="#667085"/>
<path d="M5.22152 16.4814C5.36672 16.5461 5.49329 16.6024 5.63561 16.6657C5.58738 16.8307 5.54009 16.991 5.48612 17.1757C5.28314 17.0894 5.09878 17.0107 4.88672 16.9207C5.00947 16.7594 5.11406 16.6216 5.22105 16.4814H5.22152Z" fill="#667085"/>
<path d="M5.07459 13.2866C5.15531 13.4587 5.22361 13.604 5.29668 13.7596C5.16964 13.8566 5.04737 13.9504 4.91412 14.0526C4.7928 13.9208 4.6777 13.7957 4.54492 13.6513C4.72164 13.5299 4.88641 13.4165 5.07459 13.2871V13.2866Z" fill="#667085"/>
<path d="M5.91016 13.083H6.45034V13.6108H5.94645C5.93499 13.4407 5.92305 13.2738 5.91016 13.083Z" fill="#667085"/>
<path d="M17.4004 4.38365V3.85303H17.9119V4.38365H17.4004Z" fill="#667085"/>
<path d="M8.90039 16.6982H9.42433V17.227H8.90039V16.6982Z" fill="#667085"/>
<path d="M20.2133 7.53717C20.1082 7.71951 20.0208 7.87186 19.9181 8.04998C19.7548 7.93373 19.612 7.83201 19.4668 7.72889C19.5561 7.58592 19.6373 7.45607 19.7257 7.31592C19.8799 7.38623 20.0285 7.45326 20.2133 7.53764V7.53717Z" fill="#667085"/>
<path d="M12.8027 17.2268V16.7051H13.3357V17.2268H12.8027Z" fill="#667085"/>
<path d="M11.5767 11.4874C11.7505 11.4734 11.9134 11.4603 12.1173 11.4438C12.0982 11.6613 12.081 11.8549 12.0614 12.0729C11.8618 12.0195 11.7042 11.9773 11.5332 11.9313C11.5471 11.7865 11.5604 11.6501 11.5762 11.4879L11.5767 11.4874Z" fill="#667085"/>
<path d="M3.98438 15.7721C4.16061 15.7182 4.30915 15.6732 4.47154 15.624C4.54748 15.7581 4.61864 15.8837 4.6984 16.0243C4.54891 16.1228 4.40754 16.2156 4.23942 16.3262C4.15058 16.1336 4.07178 15.9615 3.98438 15.7721Z" fill="#667085"/>
<path d="M19.4668 5.16172C19.6072 5.06938 19.7448 4.97891 19.9091 4.87109C20.0113 5.03938 20.1063 5.19547 20.2176 5.37828C20.0418 5.44813 19.8909 5.50813 19.7304 5.57188C19.6416 5.43359 19.5585 5.30422 19.4668 5.16125V5.16172Z" fill="#667085"/>
<path d="M12.5838 9.73152C12.4558 9.62606 12.3293 9.52152 12.1836 9.40106C12.3398 9.26465 12.4797 9.1423 12.6349 9.00684C12.7448 9.15215 12.8374 9.27496 12.9382 9.40809C12.8183 9.51731 12.7094 9.61715 12.5843 9.73152H12.5838Z" fill="#667085"/>
<path d="M19.8197 14.6993C21.0954 14.6927 22.1165 15.6813 22.1261 16.9319C22.1356 18.1863 21.1044 19.2044 19.8283 19.2007C18.5516 19.1969 17.541 18.2041 17.5391 16.9516C17.5372 15.6953 18.5387 14.7058 19.8201 14.6993H19.8197ZM18.1036 16.9839C18.1022 17.9252 18.8706 18.6827 19.8268 18.6818C20.7868 18.6813 21.5529 17.9313 21.5572 16.9886C21.5615 16.0516 20.7892 15.288 19.8354 15.2852C18.8941 15.2828 18.1046 16.0568 18.1031 16.9839H18.1036Z" fill="#667085"/>
<path d="M4.17527 6.34671C2.901 6.34718 1.88226 5.35249 1.87891 4.10374C1.87557 2.84937 2.91438 1.83265 4.18721 1.84483C5.46817 1.85702 6.46877 2.84843 6.46638 4.10374C6.46399 5.35906 5.45623 6.34624 4.17527 6.34671ZM5.90089 4.15624C5.91378 3.21359 5.15533 2.44765 4.19963 2.4378C3.24966 2.42843 2.46542 3.16624 2.44823 4.0864C2.43008 5.0478 3.1785 5.81421 4.14805 5.82874C5.09706 5.84281 5.88799 5.08812 5.90089 4.15624Z" fill="#667085"/>
</svg>
