<svg width="36" height="24" viewBox="0 0 36 24" fill="none" xmlns="http://www.w3.org/2000/svg">
<path d="M14.5278 9.67684C14.4889 9.60694 14.4656 9.55257 14.4346 9.50209C13.0133 7.05568 11.5998 4.6015 10.1553 2.16285C9.75144 1.47941 9.94948 0.520259 10.8931 0.287267C11.3435 0.174655 11.794 0.0387428 12.2522 0.00767728C13.1182 -0.0505707 13.9065 0.225136 14.6054 0.749368C17.4712 2.88124 20.3409 5.01312 23.2028 7.14888C23.3659 7.26925 23.5018 7.30809 23.7076 7.25372C25.7269 6.72172 27.75 6.19361 29.7732 5.67714C30.6003 5.46745 31.4469 5.35096 32.3012 5.34319C33.136 5.33542 33.9593 5.42085 34.7049 5.84024C35.4854 6.28292 35.9164 6.94307 35.8582 7.86338C35.8154 8.53518 35.4854 9.08659 35.0272 9.56422C34.4097 10.2088 33.6486 10.6399 32.8448 11.001C31.8895 11.432 30.8838 11.6961 29.878 11.9679C25.956 13.028 22.0301 14.092 18.1042 15.1444C15.052 15.9637 12.0076 16.8025 8.93985 17.5636C6.72643 18.1111 4.82366 17.451 3.40629 15.6725C2.28793 14.2707 1.28218 12.7795 0.233721 11.3194C-0.247795 10.6476 0.0473275 9.7778 0.820084 9.49044C1.46858 9.24968 2.07047 9.30793 2.65684 9.68849C3.58104 10.2865 4.52465 10.8612 5.45274 11.4592C6.0158 11.8204 6.60216 11.9019 7.24677 11.7194C9.61164 11.0515 11.9804 10.3991 14.3491 9.73897C14.3996 9.72343 14.4501 9.7079 14.5278 9.6846V9.67684ZM1.18899 10.6205C1.2317 10.6826 1.26665 10.7369 1.3016 10.7874C2.25298 12.1077 3.20825 13.428 4.16352 14.7483C5.23139 16.2239 6.99825 16.8724 8.75734 16.4064C12.625 15.3851 16.4888 14.36 20.3487 13.3232C23.7154 12.4184 27.0821 11.5019 30.445 10.5894C31.4818 10.3059 32.4953 9.96031 33.4079 9.37395C33.8583 9.08659 34.2699 8.75264 34.5301 8.27112C34.8524 7.67311 34.6932 7.16052 34.0913 6.84987C33.6875 6.64018 33.2487 6.56251 32.7982 6.53533C31.7808 6.4732 30.7867 6.62464 29.8081 6.87705C27.7112 7.41682 25.6143 7.96435 23.5212 8.51188C23.296 8.57012 23.1019 8.53518 22.9155 8.39538C21.4127 7.27702 19.9099 6.15866 18.4071 5.04418C16.8888 3.91806 15.3743 2.78416 13.8521 1.66192C12.9395 0.990126 12.0037 1.08332 11.1222 1.47553C11.1533 1.53377 11.1843 1.58814 11.2193 1.64639C12.7726 4.31414 14.322 6.98578 15.8752 9.65354C16.1432 10.1156 15.9917 10.5001 15.4791 10.6438C12.8541 11.3738 10.2252 12.1 7.60403 12.8378C6.59051 13.1251 5.65466 12.9931 4.76929 12.4184C3.84121 11.8126 2.89371 11.234 1.95786 10.6399C1.70545 10.4807 1.46081 10.4768 1.1851 10.6282L1.18899 10.6205Z" fill="#202020"/>
<path d="M14.054 22.8136C14.7801 22.7087 15.3937 22.4563 15.8985 21.967C16.0499 21.8195 16.1897 21.6525 16.3218 21.4855C17.8595 19.5556 19.3973 17.6217 20.9311 15.6879C21.1059 15.4666 21.3117 15.3423 21.5951 15.4083C22.0145 15.5093 22.1737 15.9908 21.9058 16.3442C21.6223 16.7131 21.3311 17.0742 21.0398 17.4392C19.7545 19.0546 18.4614 20.6623 17.1916 22.2855C16.415 23.2757 15.4014 23.8271 14.1782 23.9902C13.4249 24.0911 12.6832 23.3883 12.9317 22.5068C13.1414 21.7651 13.4249 21.0428 13.6773 20.3089C13.9996 19.3769 14.3219 18.4411 14.6481 17.5091C14.7607 17.1907 15.0325 17.0276 15.3238 17.0936C15.7043 17.1791 15.883 17.5169 15.7509 17.9052C15.3626 19.0352 14.9704 20.1652 14.5782 21.2952C14.4073 21.7884 14.2365 22.2816 14.054 22.8136Z" fill="#202020"/>
<path d="M28.423 8.74485C28.423 9.1254 28.2366 9.35839 27.9726 9.42052C27.7124 9.48265 27.425 9.35451 27.3202 9.1021C27.2464 8.92736 27.1882 8.74485 27.1532 8.55845C27.1027 8.28663 27.2775 8.02257 27.5415 7.92937C27.7939 7.84006 28.1046 7.92937 28.225 8.17401C28.3298 8.38371 28.3803 8.6167 28.423 8.74485Z" fill="#202020"/>
<path d="M11.49 13.3349C11.49 13.6572 11.3774 13.8319 11.1677 13.9368C10.9502 14.0416 10.7366 14.0183 10.5464 13.8746C10.3406 13.7193 10.1619 13.1407 10.2357 12.8922C10.3095 12.6437 10.5114 12.4767 10.7677 12.4573C10.9929 12.4417 11.2376 12.5776 11.3269 12.799C11.4045 12.997 11.4511 13.2067 11.49 13.331V13.3349Z" fill="#202020"/>
<path d="M22.1783 9.41274C22.2482 9.45157 22.419 9.49817 22.5122 9.61078C22.7103 9.85542 22.8035 10.1583 22.7646 10.4767C22.7336 10.7408 22.5278 10.9155 22.2559 10.9466C22.0152 10.9777 21.7666 10.8495 21.6735 10.6204C21.5997 10.4418 21.5414 10.2476 21.5104 10.0573C21.456 9.71951 21.7511 9.40497 22.1783 9.41274Z" fill="#202020"/>
<path d="M25.5999 9.5292C25.5999 9.85927 25.4834 10.0418 25.2504 10.1389C25.033 10.2321 24.8 10.2204 24.6369 10.0418C24.3923 9.77772 24.2874 9.44765 24.3495 9.0904C24.3923 8.8341 24.6214 8.66713 24.8699 8.65548C25.1262 8.64383 25.3592 8.77974 25.4485 9.0205C25.5184 9.20689 25.565 9.40493 25.5999 9.5292Z" fill="#202020"/>
<path d="M15.8633 11.6303C15.8633 11.2497 16.0497 11.0089 16.3098 10.9546C16.5972 10.8924 16.8768 11.0322 16.9855 11.2963C17.0477 11.4555 17.0981 11.6225 17.1331 11.7895C17.1913 12.0613 17.0282 12.3331 16.7681 12.4341C16.5079 12.535 16.1934 12.4496 16.0691 12.2011C15.9642 11.9914 15.9099 11.7584 15.8672 11.6264L15.8633 11.6303Z" fill="#202020"/>
<path d="M13.7359 13.2302C13.7126 13.2302 13.6893 13.2302 13.666 13.2302C13.1922 13.1681 13.1573 12.7759 13.0563 12.4303C12.9864 12.1856 13.0951 11.9293 13.3048 11.7934C13.5805 11.6187 13.9688 11.6886 14.1125 11.9798C14.2135 12.1895 14.2834 12.4264 14.3028 12.6594C14.3339 12.9817 14.062 13.2341 13.7359 13.2341V13.2302Z" fill="#202020"/>
<path d="M18.6836 10.8611C18.6875 10.5155 18.7962 10.333 19.0175 10.236C19.235 10.1389 19.4486 10.1622 19.6388 10.3136C19.8485 10.4806 20.0155 11.0631 19.9262 11.3194C19.8446 11.5562 19.666 11.6922 19.4214 11.7155C19.1923 11.7387 18.9826 11.6494 18.8816 11.4397C18.7768 11.2301 18.7263 10.9971 18.6797 10.865L18.6836 10.8611Z" fill="#202020"/>
</svg>
