<svg width="23" height="24" viewBox="0 0 23 24" fill="none" xmlns="http://www.w3.org/2000/svg">
<g clip-path="url(#clip0_669_8055)">
<path d="M1.00326 23.123C1.74285 23.123 2.44946 23.1269 3.15606 23.1168C3.22818 23.1157 3.31594 23.0413 3.36682 22.9776C3.45961 22.8619 3.53005 22.7288 3.60999 22.6031C3.75198 22.3806 3.95435 22.3224 4.19082 22.4152C4.39654 22.4963 4.46921 22.7288 4.38927 22.9838C4.37865 23.0179 4.36914 23.0531 4.35405 23.1067H21.3215C21.1561 22.4672 20.9973 21.8467 20.8352 21.2273C20.2035 18.8062 19.5696 16.3856 18.9418 13.9634C18.8931 13.775 18.8356 13.6458 18.5885 13.7386C18.5331 14.0707 18.693 14.6001 18.1155 14.5855C17.5845 14.5721 17.7332 14.0729 17.6884 13.709C17.5587 13.709 17.4503 13.709 17.3413 13.709C16.2042 13.709 15.0677 13.7107 13.9307 13.7079C13.6266 13.7073 13.4343 13.5558 13.408 13.3127C13.3795 13.0494 13.5897 12.8369 13.9027 12.8347C14.62 12.8291 15.3377 12.833 16.0555 12.833C17.0618 12.833 18.0686 12.8319 19.0748 12.833C19.4499 12.833 19.5628 12.9213 19.6601 13.2925C20.535 16.64 21.4087 19.988 22.2814 23.3365C22.3949 23.7731 22.2204 23.9989 21.7693 23.9989C14.6965 24.0001 7.62378 24.0001 0.551014 23.9989C0.0976458 23.9989 -0.0795646 23.7737 0.0327991 23.3415C0.907112 19.984 1.7831 16.6271 2.65965 13.2702C2.74742 12.9342 2.87152 12.8375 3.20749 12.8336C3.45905 12.8308 3.71061 12.8269 3.96218 12.8347C4.2456 12.8436 4.44126 13.0343 4.43567 13.2802C4.43008 13.5178 4.24336 13.6906 3.97224 13.7079C3.43334 13.7431 3.43166 13.7425 3.29247 14.2758C2.54505 17.1375 1.79875 19.9997 1.05302 22.8619C1.03457 22.9329 1.02562 23.0067 1.00438 23.1224L1.00326 23.123Z" fill="#667085"/>
<path d="M8.84646 4.65587e-05C12.1279 -0.012252 14.8219 2.41335 15.1293 5.61041C15.3082 7.47084 14.8241 9.19375 13.9582 10.8183C12.8245 12.9459 11.2055 14.6509 9.292 16.0927C9.07901 16.2531 8.86546 16.3179 8.62956 16.1446C6.91 14.8813 5.40679 13.4082 4.26302 11.5936C3.26405 10.0082 2.70335 8.28198 2.67092 6.40031C2.61446 3.13505 4.94839 0.447265 8.19016 0.0369421C8.42999 0.00675484 8.67372 0.00899094 8.84646 4.65587e-05ZM14.3042 6.11688C14.2852 5.94358 14.2729 5.59699 14.2058 5.26102C13.6434 2.44913 11.2436 0.657458 8.37576 0.897838C5.72934 1.11921 3.58046 3.43692 3.543 6.0962C3.52232 7.58823 3.85773 8.9953 4.54142 10.3152C5.5594 12.2807 7.04752 13.8387 8.79111 15.1725C8.93981 15.286 9.02143 15.2088 9.12653 15.1261C10.4341 14.0897 11.589 12.9085 12.5243 11.5221C13.5914 9.94005 14.2757 8.22552 14.3042 6.11688Z" fill="#667085"/>
<path d="M5.0559 21.8495C4.93348 21.7567 4.7585 21.6885 4.70987 21.5694C4.65676 21.4392 4.65788 21.1921 4.74341 21.1149C5.22249 20.6817 5.72394 20.2702 6.23991 19.8806C6.43725 19.7319 6.65415 19.8236 6.79502 20.0243C6.92416 20.2088 6.86155 20.4642 6.67316 20.6163C6.24159 20.9657 5.81506 21.3218 5.38181 21.6695C5.29796 21.7366 5.1923 21.7757 5.0559 21.8495Z" fill="#667085"/>
<path d="M8.61125 19.1759C9.03052 19.2485 9.45314 19.3078 9.86794 19.3989C10.1754 19.4665 10.3118 19.6885 10.2509 19.9445C10.1922 20.191 9.95906 20.2855 9.64992 20.2458C9.15686 20.1821 8.65989 20.1379 8.16292 20.1122C7.87726 20.0977 7.67265 19.9641 7.65365 19.712C7.63576 19.4811 7.80346 19.2949 8.0785 19.2541C8.25236 19.2284 8.42845 19.2172 8.60399 19.1999C8.60622 19.1915 8.60902 19.1837 8.61125 19.1753V19.1759Z" fill="#667085"/>
<path d="M16.9154 18.9928C16.8326 19.146 16.8024 19.2835 16.7175 19.3444C16.2149 19.7044 15.7101 20.0633 15.1846 20.3876C14.9526 20.5307 14.691 20.4183 14.5904 20.2064C14.4836 19.9817 14.5898 19.7531 14.8263 19.601C15.2612 19.3221 15.676 19.0107 16.116 18.7401C16.2479 18.6591 16.4508 18.6115 16.5917 18.6518C16.718 18.6881 16.803 18.8665 16.9154 18.9928Z" fill="#667085"/>
<path d="M12.5596 20.9209C12.2007 20.8739 11.8401 20.8415 11.4852 20.7761C11.1866 20.7213 11.0581 20.5262 11.1022 20.264C11.1425 20.0253 11.3297 19.9102 11.6244 19.9281C12.1688 19.9616 12.7139 19.9901 13.2589 20.0175C13.5105 20.0304 13.6944 20.1908 13.7106 20.4217C13.7263 20.6464 13.558 20.8466 13.3109 20.8717C13.0622 20.8974 12.8117 20.9047 12.5596 20.9203V20.9209Z" fill="#667085"/>
<path d="M18.5102 16.0151C18.2833 16.6194 18.0681 17.2288 17.8232 17.8252C17.7388 18.0304 17.4598 18.0953 17.2692 17.9935C17.0624 17.8828 16.9802 17.6955 17.0495 17.4759C17.2267 16.9112 17.4168 16.3511 17.6091 15.7915C17.6829 15.5769 17.9132 15.4589 18.1267 15.5226C18.3526 15.5903 18.4515 15.7541 18.4387 15.9872L18.5102 16.0146V16.0151Z" fill="#667085"/>
<path d="M11.8188 6.38899C11.8138 7.97941 10.4878 9.29535 8.90521 9.2797C7.31926 9.26404 6.02568 7.96487 6.02344 6.38507C6.0212 4.7885 7.32429 3.48709 8.9231 3.48877C10.5236 3.49045 11.8239 4.79241 11.8188 6.38843V6.38899ZM10.9434 6.37613C10.9412 5.25417 10.0434 4.36197 8.91639 4.36308C7.79387 4.3642 6.89608 5.26479 6.89999 6.38619C6.9039 7.50312 7.81399 8.41209 8.92645 8.4093C10.0383 8.4065 10.9456 7.4925 10.9434 6.37613Z" fill="#667085"/>
</g>
<defs>
<clipPath id="clip0_669_8055">
<rect width="22.3145" height="24" fill="white"/>
</clipPath>
</defs>
</svg>
