<svg width="32" height="24" viewBox="0 0 32 24" fill="none" xmlns="http://www.w3.org/2000/svg">
<path d="M20.3224 8.5665V9.69775C20.2833 9.7024 20.2492 9.71026 20.2147 9.7099C15.6343 9.69133 11.0543 9.67061 6.47389 9.65418C5.79908 9.65168 5.15945 9.49522 4.53142 9.2709C4.48609 9.25482 4.44041 9.23911 4.39472 9.2241C3.99875 9.09265 3.64123 9.16683 3.32214 9.44664C2.4178 10.2432 1.94714 11.2419 1.92829 12.4354C1.91524 13.2505 1.94062 14.066 1.93663 14.8811C1.93119 15.9374 2.84676 17.1372 4.31349 17.1397C6.53734 17.1436 8.76119 17.1408 10.985 17.1408C14.4174 17.1408 17.8498 17.1408 21.2822 17.1408C21.3424 17.1408 21.4023 17.1408 21.4762 17.1408V18.276C21.4204 18.2785 21.3624 18.2835 21.304 18.2835C15.6597 18.2835 10.0158 18.2831 4.37151 18.2845C3.55203 18.2845 2.81522 18.0506 2.16217 17.5623C2.13389 17.5412 2.10343 17.523 2.03381 17.4765C2.0668 17.5744 2.08312 17.6337 2.10669 17.6901C2.48017 18.5849 3.34063 19.1404 4.36063 19.1407C9.03786 19.1415 13.7151 19.1407 18.3923 19.1407C19.359 19.1407 20.3261 19.1407 21.2928 19.1407H21.4799V20.2838H7.8554C7.8554 20.3577 7.8554 20.4206 7.8554 20.4838C7.8554 21.1982 7.85649 21.9126 7.8554 22.627C7.85359 23.4379 7.28793 23.9962 6.46663 23.9987C6.01338 24.0001 5.56013 24.0005 5.10687 23.9987C4.30044 23.9955 3.7297 23.4325 3.7268 22.6342C3.7239 21.8841 3.72463 21.1339 3.72825 20.3838C3.72862 20.2781 3.70396 20.2327 3.5872 20.2066C1.95512 19.8441 0.821986 18.5506 0.777748 16.8979C0.735686 15.3219 0.76397 13.7438 0.7821 12.1667C0.790077 11.4738 0.997124 10.8194 1.30099 10.1957C1.32383 10.1485 1.34595 10.101 1.37387 10.0421C1.24442 10.0214 1.12367 10.0146 1.0109 9.98209C0.504708 9.83599 0.158784 9.51165 0.0663205 9.00121C-0.0236051 8.50363 -0.0286816 7.9914 0.0920653 7.49453C0.307089 6.61189 1.07943 5.98536 1.99465 5.95749C2.66474 5.93678 3.33592 5.94678 4.00673 5.95106C4.12929 5.95178 4.18296 5.91249 4.23191 5.80211C5.02311 4.00788 6.36982 2.85127 8.31482 2.41155C8.71115 2.32189 9.12851 2.2876 9.53644 2.28617C12.4732 2.27581 15.4102 2.28153 18.347 2.2801C19.0548 2.2801 19.7408 2.3944 20.4044 2.63659C20.4773 2.66302 20.5483 2.6941 20.6397 2.73053C20.4889 3.08273 20.3424 3.42457 20.2111 3.7307C19.7328 3.63247 19.2767 3.53138 18.8176 3.44779C18.653 3.41779 18.4804 3.42457 18.3118 3.42422C15.387 3.42315 12.4623 3.42172 9.53752 3.42386C7.17988 3.42565 5.25046 5.08271 4.93101 7.38059C4.90164 7.59205 4.90708 7.80816 4.88532 8.02141C4.87263 8.14571 4.92593 8.19286 5.0387 8.23751C5.71133 8.50399 6.41514 8.51613 7.1244 8.51792C10.055 8.52435 12.9859 8.53649 15.9164 8.54756C17.3244 8.55292 18.7324 8.56007 20.1404 8.56614C20.1944 8.56614 20.2485 8.56614 20.3235 8.56614L20.3224 8.5665ZM4.90853 20.2888C4.89765 20.3174 4.8904 20.3281 4.8904 20.3388C4.88895 21.1121 4.88786 21.8855 4.88713 22.6588C4.88713 22.8021 4.96292 22.8578 5.10433 22.8567C5.55106 22.8535 5.99815 22.8564 6.44524 22.8553C6.66171 22.8549 6.69507 22.821 6.69544 22.6042C6.69616 21.8783 6.6958 21.1525 6.69544 20.4267C6.69544 20.3817 6.6871 20.3363 6.68238 20.2884H4.90925L4.90853 20.2888ZM3.84864 7.10733C3.19341 7.10733 2.54725 7.08161 1.90472 7.11661C1.50658 7.1384 1.20127 7.53132 1.18677 7.93961C1.17806 8.18322 1.18677 8.42754 1.18314 8.67151C1.18096 8.82332 1.2524 8.88834 1.40469 8.88191C1.66431 8.87083 1.92394 8.86726 2.1832 8.85369C2.23215 8.85119 2.2869 8.82618 2.3257 8.79582C2.67489 8.52185 3.00305 8.21715 3.37363 7.97604C3.69489 7.76672 3.87946 7.52418 3.85081 7.1409C3.85045 7.13483 3.85009 7.12912 3.84827 7.10768L3.84864 7.10733Z" fill="#667085"/>
<path d="M25.5371 13.1398C25.2148 13.1398 24.9015 13.142 24.5882 13.1395C23.8227 13.1331 23.2719 12.7959 22.9644 12.0993C22.2947 10.5833 21.6754 9.04845 21.2602 7.44211C21.0513 6.63341 20.8947 5.81685 20.9114 4.97564C20.9585 2.5831 22.8531 0.440242 25.2546 0.0673233C28.112 -0.376322 30.7129 1.41433 31.2662 4.20979C31.4385 5.07958 31.3355 5.94008 31.1527 6.79594C30.7981 8.45585 30.1835 10.0304 29.5189 11.5878C29.4347 11.785 29.3531 11.9836 29.26 12.1765C28.9583 12.8005 28.4492 13.1181 27.7515 13.1373C27.4139 13.1466 27.076 13.1388 26.725 13.1388V20.5436C26.9117 20.5854 27.1039 20.6097 27.2827 20.6714C27.9854 20.9129 28.4426 21.5434 28.4506 22.2753C28.4564 22.8229 28.4517 23.3705 28.4514 23.9184C28.4514 23.9359 28.4477 23.9534 28.4441 23.9849H23.8205C23.8173 23.9363 23.8111 23.8848 23.8107 23.8334C23.81 23.3573 23.8097 22.8811 23.8107 22.4046C23.8122 21.3512 24.4551 20.6607 25.5375 20.5625V13.1395L25.5371 13.1398ZM26.1271 11.9968C26.6347 11.9968 27.1424 12.0029 27.65 11.9943C27.9093 11.99 28.1308 11.8707 28.232 11.6364C28.9659 9.93324 29.6276 8.20474 30.0319 6.39194C30.1871 5.69575 30.2644 4.99528 30.0997 4.28695C29.5986 2.13231 27.5644 0.816019 25.3442 1.2118C23.657 1.51256 22.2846 2.97638 22.0996 4.64558C22.0206 5.35856 22.1406 6.04617 22.3074 6.72985C22.7179 8.41049 23.3318 10.0236 24.0178 11.611C24.1251 11.8593 24.3514 11.9879 24.623 11.9939C25.1245 12.0047 25.6259 11.9972 26.1278 11.9972L26.1271 11.9968ZM27.3041 22.8472C27.2874 22.5935 27.3015 22.331 27.2453 22.0838C27.1924 21.8513 26.9911 21.7227 26.7453 21.7166C26.3359 21.7066 25.9255 21.707 25.5161 21.7159C25.2387 21.722 25.0026 21.9342 24.9791 22.2028C24.9606 22.4132 24.9754 22.6264 24.9754 22.8468H27.3041V22.8472Z" fill="#667085"/>
<path d="M15.1035 11.4253C16.6199 11.4253 18.1367 11.4253 19.6531 11.4253C20.1535 11.4253 20.3939 11.7114 20.2967 12.1986C20.1154 13.1084 19.9312 14.0179 19.7459 14.9269C19.681 15.2463 19.4638 15.4249 19.1346 15.4252C16.452 15.4267 13.7691 15.4267 11.0866 15.4252C10.7468 15.4252 10.5336 15.2477 10.4662 14.9162C10.2812 14.0071 10.0974 13.0977 9.91465 12.1883C9.82001 11.7168 10.0637 11.4257 10.5532 11.4257C12.0696 11.4253 13.5864 11.4257 15.1028 11.4257L15.1035 11.4253ZM19.0385 12.5766H11.1754C11.2922 13.1506 11.4068 13.7128 11.5206 14.2725H18.6944C18.8097 13.705 18.9228 13.1463 19.0385 12.5766Z" fill="#667085"/>
<path d="M7.85649 13.4961C7.85069 14.6059 6.90067 15.5325 5.77913 15.521C4.65107 15.51 3.71773 14.5755 3.72861 13.4682C3.73949 12.3494 4.67609 11.44 5.80742 11.4493C6.94309 11.4586 7.86265 12.3769 7.85685 13.4957L7.85649 13.4961ZM5.78421 12.5927C5.28418 12.5966 4.89075 12.9853 4.88858 13.4778C4.8864 13.9747 5.29216 14.3783 5.79255 14.3773C6.29657 14.3762 6.69652 13.9783 6.69616 13.4782C6.69579 12.9788 6.29367 12.5888 5.78421 12.5923V12.5927Z" fill="#667085"/>
<path d="M26.1267 5.98943C25.577 5.98943 25.0277 5.99051 24.478 5.98943C23.6955 5.98765 23.186 5.45435 23.2335 4.68922C23.3213 3.27827 24.4588 2.13844 25.9146 2.0027C27.3103 1.87268 28.5827 2.7714 28.9362 4.14127C29.0229 4.47811 29.0671 4.82138 28.9754 5.1643C28.8339 5.69296 28.4296 5.98336 27.8299 5.98836C27.2621 5.99301 26.6946 5.98943 26.1267 5.98943ZM27.856 4.84282C27.9369 4.02375 27.0891 3.15575 26.2018 3.13861C25.1992 3.11932 24.3489 3.92374 24.4102 4.84282H25.4534V4.00411H26.6123V4.84282H27.856Z" fill="#667085"/>
<path d="M25.5513 8.56405C25.5513 8.92625 25.5528 9.28881 25.5513 9.65101C25.5495 10.0282 25.3106 10.2843 24.9664 10.2818C24.6307 10.2793 24.3924 10.0232 24.3917 9.65887C24.3903 8.93411 24.3903 8.20935 24.3917 7.48458C24.3924 7.10988 24.635 6.85019 24.9766 6.85305C25.3124 6.85591 25.5495 7.11167 25.5513 7.47673C25.5531 7.83893 25.5517 8.20149 25.5517 8.56369L25.5513 8.56405Z" fill="#667085"/>
<path d="M27.872 8.56192C27.872 8.92484 27.8735 9.28776 27.8717 9.65067C27.8699 10.0157 27.6302 10.2736 27.2951 10.2758C26.9612 10.2779 26.7135 10.0179 26.7124 9.65675C26.7103 8.92484 26.7106 8.19293 26.7124 7.46103C26.7132 7.09954 26.9579 6.84664 27.2984 6.84914C27.6305 6.85164 27.8695 7.10168 27.872 7.45495C27.8746 7.82394 27.8728 8.19293 27.8728 8.56157L27.872 8.56192Z" fill="#667085"/>
</svg>
