<svg width="19" height="24" viewBox="0 0 19 24" fill="none" xmlns="http://www.w3.org/2000/svg">
<path d="M0.00172869 9.78879C-0.0864366 4.81779 3.20779 0.850897 7.59156 0.129248C12.3688 -0.657165 16.8315 2.21419 18.0522 6.86192C18.5099 8.60563 18.4032 10.3499 18.0125 12.0854C17.4443 14.6096 16.2345 16.8235 14.6671 18.8535C13.2058 20.7458 11.5051 22.3964 9.57691 23.812C9.53283 23.8441 9.49038 23.8778 9.44466 23.9072C9.20792 24.058 8.96248 24.022 8.82261 23.8169C8.68764 23.6188 8.73499 23.394 8.95105 23.222C9.49038 22.7932 10.046 22.3839 10.5669 21.9338C12.6698 20.1156 14.4685 18.0437 15.7882 15.5805C16.9077 13.4912 17.5499 11.2762 17.4982 8.88863C17.416 5.07412 14.5191 1.67921 10.7688 0.990764C6.24241 0.159724 2.03497 2.93584 1.02597 7.42465C0.757664 8.61815 0.802835 9.82144 0.974812 11.022C1.44666 14.3113 3.03037 17.0456 5.24103 19.4505C5.9518 20.2239 6.73549 20.9297 7.48652 21.6661C7.54476 21.7232 7.61061 21.7727 7.66666 21.8321C7.84136 22.0182 7.85388 22.2451 7.70367 22.4193C7.55074 22.5967 7.29387 22.619 7.09631 22.4487C6.77413 22.17 6.45956 21.8821 6.14881 21.5899C4.13135 19.6905 2.39852 17.5778 1.25944 15.0232C0.444188 13.1951 0.0164229 11.2816 0.00172869 9.78879Z" fill="#202020"/>
<path d="M8.10684 4.60163C8.02521 4.45958 7.91854 4.34094 7.88589 4.20434C7.82657 3.95454 8.04916 3.7363 8.35012 3.73249C8.85788 3.72596 9.36565 3.73413 9.87396 3.72868C10.1145 3.72596 10.3311 3.75372 10.434 4.01277C10.5325 4.26094 10.3883 4.41931 10.1717 4.60163C10.5646 4.60163 10.9047 4.59945 11.2443 4.60217C11.585 4.60489 11.7118 4.71211 11.7809 5.05062C11.8631 5.44954 11.9306 5.85227 12.0329 6.24629C12.0639 6.36548 12.1673 6.50589 12.2756 6.55759C13.1687 6.98644 13.0789 6.82916 13.0806 7.85177C13.0817 8.6409 13.0822 9.43004 13.0806 10.2192C13.0789 11.0235 12.5733 11.5961 11.8408 11.6271C11.1007 11.6587 10.5635 11.1471 10.4835 10.3335C10.4819 10.3155 10.4759 10.2981 10.4683 10.2627H7.92235C7.82221 10.5408 7.76779 10.8146 7.63282 11.0399C7.33839 11.5308 6.75389 11.737 6.21292 11.5879C5.69427 11.4453 5.27957 10.9664 5.26923 10.4167C5.24909 9.35602 5.26161 8.29423 5.26215 7.23298C5.26215 7.01801 5.36937 6.84767 5.56964 6.79868C6.16993 6.65229 6.40993 6.255 6.44041 5.6705C6.45184 5.45552 6.51878 5.24382 6.56341 5.03103C6.62926 4.71592 6.76314 4.60489 7.08968 4.60108C7.432 4.59782 7.77378 4.60054 8.10739 4.60054L8.10684 4.60163ZM12.2278 8.07327C12.2278 7.90184 12.2365 7.75653 12.2234 7.61394C12.218 7.5519 12.181 7.45666 12.1352 7.44088C11.8756 7.3489 11.6101 7.21176 11.3445 7.20795C9.8941 7.18563 8.44318 7.18509 6.99335 7.20795C6.72831 7.2123 6.46327 7.35325 6.20258 7.44414C6.16068 7.45884 6.12149 7.53938 6.11768 7.59217C6.1068 7.75218 6.11387 7.91272 6.11387 8.07436C6.92913 8.14783 7.49513 8.5092 7.77214 9.27275C7.79282 9.3299 7.90602 9.38704 7.97732 9.38759C8.77516 9.39575 9.573 9.39575 10.3703 9.38759C10.44 9.38704 10.5499 9.32609 10.5711 9.26731C10.8487 8.5043 11.4179 8.14674 12.2278 8.07327ZM11.1676 6.32793C11.1311 6.12384 11.0849 5.93935 11.0675 5.75213C11.0457 5.52029 10.9477 5.44355 10.7055 5.44845C9.82716 5.46478 8.94822 5.45498 8.06984 5.45444C7.5169 5.45444 7.22483 5.7456 7.19363 6.32793H11.1676ZM6.12585 10.2573C6.12966 10.6001 6.32286 10.8102 6.58681 10.7895C6.85076 10.7688 7.01022 10.5501 6.96668 10.2573H6.12585ZM12.2125 10.2676H11.3515C11.3559 10.5925 11.5311 10.7944 11.7869 10.7906C12.0443 10.7868 12.2147 10.5833 12.2125 10.2676ZM6.13129 8.86676V9.25153H6.73919L6.76804 9.17207C6.5781 9.08119 6.38871 8.98975 6.13129 8.86621V8.86676ZM12.2147 8.87492C11.9671 8.98703 11.769 9.07738 11.5714 9.16717L11.6024 9.25262H12.2152V8.87492H12.2147Z" fill="#202020"/>
</svg>
