<svg width="30" height="24" viewBox="0 0 30 24" fill="none" xmlns="http://www.w3.org/2000/svg">
<path d="M0.00148396 19.1301C0.00148396 17.7478 -0.00243462 16.3659 0.0024636 14.9836C0.00801493 13.4305 0.987334 12.1452 2.45745 11.7543C2.97144 11.6175 3.49033 11.6067 4.00693 11.7318C4.14179 11.7645 4.22114 11.7331 4.31617 11.6378C7.16106 8.78797 10.0095 5.94145 12.8574 3.0946C13.7041 2.24819 14.5508 1.40178 15.3976 0.555689C15.5164 0.437152 15.6183 0.282694 15.761 0.21118C15.9589 0.111583 16.1846 0.0462732 16.405 0.0162308C17.1067 -0.0797745 17.7396 0.256244 18.0469 0.861991C18.3568 1.47329 18.2542 2.19529 17.766 2.7047C17.367 3.12105 16.9526 3.52238 16.5444 3.93024C13.2117 7.26169 9.87925 10.5931 6.54421 13.9226C6.4642 14.0026 6.45506 14.0712 6.47237 14.1799C6.5158 14.4526 6.55825 14.7295 6.5589 15.0048C6.56511 17.8128 6.56282 20.6205 6.56249 23.4284C6.56249 23.8327 6.40575 23.9898 6.00018 23.9898C4.19339 23.9898 2.38692 23.9898 0.580128 23.9898C0.157248 23.9898 0.00115741 23.8321 0.00115741 23.4072C0.00115741 21.9815 0.00115741 20.5558 0.00115741 19.1301H0.00148396ZM3.37636 12.6076C3.36428 12.59 3.3522 12.5723 3.34011 12.5547C3.26534 12.5547 3.19023 12.5501 3.1161 12.5554C1.88763 12.6409 0.914513 13.6673 0.909615 14.9019C0.902431 16.7411 0.907329 18.5802 0.907982 20.4193C0.907982 20.4608 0.915166 20.5019 0.919085 20.5444H5.64653V14.8601C5.6302 14.8497 5.6142 14.8389 5.59787 14.8285C5.44733 14.9917 5.30789 15.1678 5.14364 15.316C4.78444 15.6409 4.35372 15.7725 3.87598 15.6987C3.23431 15.5994 2.78596 15.236 2.5835 14.6201C2.37941 13.9994 2.52244 13.4387 2.98254 12.9688C3.10696 12.8417 3.24476 12.7275 3.37636 12.6073V12.6076ZM5.65273 21.4698H0.921371V23.082H5.65273V21.4698ZM5.78498 11.4542C5.72065 11.514 5.69322 11.5382 5.6671 11.564C4.99016 12.2406 4.31225 12.9165 3.63695 13.5948C3.33783 13.8949 3.32411 14.3207 3.59809 14.6018C3.87108 14.8817 4.32074 14.8735 4.62051 14.5793C4.86901 14.3354 5.11588 14.0901 5.3572 13.8394C5.40586 13.7887 5.44504 13.7146 5.45713 13.6457C5.51068 13.3407 5.55346 13.0341 5.59885 12.7278C5.65926 12.3199 5.71837 11.9117 5.78498 11.4542ZM6.522 12.655C6.55857 12.6308 6.57784 12.6223 6.59156 12.6083C7.02652 12.1743 7.46213 11.741 7.89383 11.3034C7.93171 11.2652 7.9549 11.2021 7.96371 11.1473C8.04078 10.6591 8.1136 10.1699 8.18675 9.68108C8.22136 9.44923 8.25336 9.21706 8.29255 8.94308C7.80338 9.43095 7.34556 9.88616 6.89067 10.3446C6.8639 10.3717 6.85508 10.4217 6.84855 10.4625C6.79467 10.806 6.74242 11.1496 6.69115 11.4938C6.63499 11.8732 6.58045 12.253 6.522 12.6546V12.655ZM15.4051 1.83249C15.346 1.88703 15.3062 1.92164 15.2689 1.95854C14.9881 2.23872 14.7174 2.53 14.4241 2.79646C14.2008 2.99892 14.0754 3.22098 14.0421 3.52956C13.9755 4.14935 13.8667 4.76457 13.773 5.39742C13.8044 5.37816 13.8246 5.36999 13.8386 5.35595C14.2312 4.96442 14.6233 4.57289 15.0139 4.1794C15.0426 4.15066 15.0678 4.10788 15.0737 4.0687C15.1847 3.33364 15.2921 2.59825 15.4051 1.83217V1.83249ZM10.6541 6.62067C10.643 6.61512 10.6319 6.60924 10.6208 6.60369C10.2496 6.97596 9.88186 7.35181 9.50437 7.71755C9.39987 7.8191 9.35154 7.93013 9.33228 8.06891C9.27448 8.4882 9.20917 8.90651 9.14745 9.32547C9.10859 9.589 9.07169 9.85318 9.03414 10.1167C9.37277 9.82346 9.66732 9.50442 9.98864 9.21477C10.2313 8.99599 10.3932 8.75826 10.3874 8.42191C10.3857 8.33636 10.4125 8.25047 10.4252 8.16459C10.5016 7.64995 10.5777 7.13531 10.6538 6.62067H10.6541ZM13.0301 4.22381C12.9909 4.24765 12.9756 4.2532 12.9651 4.26365C12.5759 4.65159 12.1853 5.03789 11.8013 5.43106C11.7536 5.47971 11.7304 5.56331 11.719 5.63417C11.6527 6.04725 11.593 6.46164 11.5319 6.87571C11.4898 7.16209 11.4499 7.44847 11.4059 7.75902C11.4486 7.73486 11.464 7.72963 11.4741 7.71951C11.8634 7.33157 12.2529 6.94428 12.6389 6.55308C12.6732 6.51814 12.6941 6.46099 12.7026 6.41103C12.7427 6.17526 12.7774 5.93851 12.8123 5.70209C12.8841 5.2188 12.9547 4.73518 13.0301 4.22348V4.22381ZM16.1513 3.00023C16.164 3.00774 16.1764 3.01525 16.1891 3.02309C16.5301 2.66976 16.9046 2.34224 17.2024 1.9556C17.5244 1.53762 17.1838 0.918811 16.6571 0.896279C16.5304 0.891054 16.4497 0.920443 16.4311 1.07523C16.3825 1.47917 16.3149 1.8805 16.2551 2.28313C16.2198 2.52216 16.1855 2.7612 16.1509 3.00023H16.1513Z" fill="#667085"/>
<path d="M28.2463 22.1581C28.2345 22.4076 28.2414 22.6421 28.209 22.8707C28.1196 23.5022 27.6101 23.9646 26.9724 23.9829C26.4287 23.9986 25.884 23.9992 25.3403 23.9819C24.6497 23.96 24.1089 23.3925 24.0926 22.6989C24.0886 22.5258 24.0919 22.3524 24.0919 22.1689H13.628C13.628 22.3279 13.6306 22.483 13.6277 22.6382C13.6153 23.3037 13.2214 23.8131 12.6043 23.9603C12.5256 23.9793 12.4429 23.9904 12.3623 23.9907C11.8238 23.9933 11.2844 24.0113 10.7469 23.9871C10.0134 23.9538 9.50042 23.3974 9.49063 22.6646C9.48867 22.5072 9.49063 22.3495 9.49063 22.1774C9.43577 22.1725 9.38874 22.162 9.34237 22.165C8.94627 22.1908 8.66511 22.0014 8.45612 21.6863C8.1988 21.2983 8.05708 20.8624 7.9983 20.4075C7.94703 20.0098 7.92123 19.6058 7.92189 19.2045C7.92417 18.1435 7.93691 17.0826 7.96466 16.022C7.99177 14.9852 8.81434 14.1241 9.85146 14.0205C10.1218 13.9934 10.3939 13.9794 10.6636 13.9484C10.7243 13.9415 10.7955 13.901 10.8347 13.8537C11.5903 12.9397 12.3437 12.0237 13.0928 11.1041C13.2045 10.967 13.3344 10.8821 13.5029 10.8305C15.5452 10.2042 17.6321 9.93411 19.7658 10.0415C21.3094 10.1193 22.8197 10.3952 24.2944 10.8576C24.4198 10.8968 24.5439 10.9941 24.6294 11.0966C25.3883 12.008 26.1397 12.9256 26.8888 13.8449C26.9551 13.9262 27.0237 13.9497 27.1229 13.9559C27.5618 13.9827 28.0043 13.9931 28.4239 14.1499C29.2337 14.4529 29.765 15.2033 29.7745 16.0673C29.7876 17.2478 29.8078 18.4283 29.8016 19.6088C29.798 20.2599 29.6863 20.8986 29.3794 21.4851C29.3046 21.6278 29.207 21.7627 29.0989 21.8828C28.932 22.0687 28.7162 22.1653 28.4608 22.1585C28.3916 22.1565 28.322 22.1585 28.2466 22.1585L28.2463 22.1581ZM18.8642 21.2604C21.9171 21.2604 24.9697 21.2604 28.0226 21.2604C28.5571 21.2604 28.5522 21.2588 28.7279 20.753C28.9062 20.2393 28.9199 19.7061 28.9189 19.1735C28.917 18.1396 28.9029 17.1058 28.886 16.0722C28.8765 15.4913 28.4686 15.0074 27.89 14.9352C27.406 14.8748 26.9133 14.8353 26.4271 14.8552C26.0421 14.8709 25.6603 14.9865 25.2792 15.0671C25.2169 15.0802 25.1421 15.1279 25.1111 15.1814C24.9772 15.4123 24.7773 15.4531 24.5367 15.4162C22.517 15.1053 20.4862 14.9437 18.4413 14.9571C17.1067 14.9659 15.7777 15.0459 14.4548 15.2242C14.0238 15.2823 13.594 15.3486 13.1646 15.4162C12.9491 15.4502 12.7512 15.4254 12.6395 15.22C12.5772 15.1053 12.4926 15.055 12.3803 15.024C12.2705 14.9937 12.1621 14.9561 12.0508 14.9336C11.3095 14.783 10.5663 14.817 9.82762 14.9394C9.29698 15.0276 8.8888 15.4936 8.87998 16.0193C8.85941 17.2488 8.84896 18.4786 8.84667 19.708C8.84569 20.174 8.9417 20.6256 9.14089 21.0521C9.20979 21.1997 9.29894 21.2653 9.47724 21.265C12.6062 21.2585 15.7352 21.2601 18.8642 21.2604ZM25.835 13.9833C25.8125 13.9484 25.8027 13.9291 25.7893 13.9131C25.1992 13.1937 24.6098 12.4737 24.0155 11.7582C23.9714 11.705 23.894 11.6684 23.8248 11.6482C22.5793 11.2805 21.3094 11.0454 20.0136 10.9569C17.9407 10.8155 15.9099 11.0561 13.9209 11.6521C13.8393 11.6766 13.7563 11.7357 13.7008 11.8013C13.3919 12.1671 13.0908 12.5393 12.7875 12.9099C12.4985 13.2629 12.2098 13.6159 11.9152 13.9758C11.9472 13.9898 11.9655 14.0032 11.9855 14.0062C12.4354 14.0757 12.8652 14.2008 13.2541 14.4473C13.2933 14.4722 13.3586 14.4705 13.4086 14.4624C14.5962 14.2687 15.7917 14.1469 16.9931 14.0904C19.4353 13.9758 21.8652 14.1169 24.2842 14.4653C24.3714 14.4777 24.4717 14.4444 24.5576 14.4108C24.7894 14.32 25.0128 14.2054 25.2476 14.1237C25.4304 14.0601 25.6254 14.032 25.835 13.9833ZM25.0138 22.1669C25.0138 22.3544 25.0049 22.5226 25.016 22.6897C25.0317 22.9252 25.1898 23.0832 25.4311 23.0875C25.9307 23.096 26.4303 23.095 26.9299 23.0875C27.1412 23.0842 27.3032 22.9595 27.3257 22.7678C27.3489 22.5725 27.3309 22.372 27.3309 22.1666H25.0141L25.0138 22.1669ZM10.4066 22.1682C10.4066 22.3387 10.4037 22.5007 10.4072 22.662C10.4128 22.9072 10.565 23.0809 10.8109 23.0858C11.3167 23.0963 11.8225 23.0947 12.3283 23.0865C12.536 23.0832 12.7042 22.9441 12.7212 22.7603C12.7391 22.5676 12.7251 22.372 12.7251 22.1682H10.4063H10.4066Z" fill="#667085"/>
<path d="M18.8726 18.6904C17.6706 18.6904 16.4686 18.6911 15.2662 18.6901C14.9713 18.6901 14.7741 18.5069 14.7734 18.2411C14.7728 18.0223 14.9188 17.8434 15.1349 17.8016C15.1826 17.7924 15.2319 17.7869 15.2806 17.7869C17.6683 17.7862 20.0563 17.7856 22.4441 17.7869C22.7615 17.7869 22.9701 17.9782 22.9643 18.2476C22.9587 18.4942 22.77 18.6846 22.5113 18.6888C22.1632 18.6944 21.8151 18.6904 21.467 18.6904C20.6023 18.6904 19.7373 18.6904 18.8726 18.6904Z" fill="#667085"/>
<path d="M26.6998 16.141C27.078 16.1828 27.4571 16.2154 27.8336 16.269C28.2039 16.3215 28.3558 16.6641 28.1641 16.9903C27.6302 17.8988 26.8223 18.4229 25.8103 18.6518C25.5778 18.7044 25.3394 18.7396 25.1017 18.7595C24.7271 18.7912 24.4822 18.4764 24.6292 18.1322C24.8205 17.6836 25.0328 17.2427 25.2597 16.8107C25.4906 16.3712 25.8779 16.1707 26.3713 16.17C26.4801 16.17 26.5888 16.17 26.6975 16.17C26.6982 16.1602 26.6992 16.1504 26.6998 16.1406V16.141ZM26.9206 17.115C26.9176 17.0964 26.9147 17.0778 26.9118 17.0592C26.6858 17.0693 26.4595 17.0768 26.2338 17.0919C26.195 17.0945 26.1431 17.1186 26.1228 17.1497C26.0075 17.3257 25.8998 17.5066 25.7894 17.6859C26.2342 17.5931 26.6041 17.4027 26.9209 17.1147L26.9206 17.115Z" fill="#667085"/>
<path d="M11.0449 16.156C11.2023 16.1635 11.3597 16.1674 11.5168 16.1788C11.8969 16.2066 12.1973 16.3702 12.4174 16.6892C12.7319 17.1448 12.9542 17.6447 13.1378 18.162C13.2459 18.4666 13.0241 18.7768 12.7064 18.7527C11.4038 18.6537 10.3082 18.1727 9.60418 17.0063C9.38768 16.6477 9.53136 16.3245 9.94249 16.2654C10.3076 16.2128 10.6756 16.1834 11.0426 16.1436C11.0433 16.1478 11.0443 16.152 11.0449 16.1563V16.156ZM10.8434 17.0536C10.8408 17.0742 10.8379 17.0951 10.8353 17.1157C11.154 17.4011 11.5184 17.6006 11.985 17.7192C11.8593 17.5118 11.7623 17.3443 11.6562 17.1823C11.6291 17.1412 11.5759 17.0948 11.5311 17.0909C11.3026 17.0713 11.0727 17.0644 10.8431 17.0533L10.8434 17.0536Z" fill="#667085"/>
<path d="M18.8639 17.1201C18.0811 17.1201 17.2981 17.1257 16.5153 17.1146C16.3893 17.113 16.2489 17.062 16.1424 16.9921C15.9997 16.8984 15.9651 16.7335 16.002 16.5689C16.0389 16.4044 16.1434 16.2878 16.3086 16.2401C16.3752 16.2208 16.4477 16.214 16.5176 16.214C18.0834 16.2127 19.6492 16.2127 21.215 16.2133C21.5109 16.2133 21.7074 16.358 21.7421 16.5951C21.7852 16.8906 21.5729 17.1188 21.2454 17.1198C20.4515 17.1221 19.658 17.1205 18.8642 17.1205L18.8639 17.1201Z" fill="#667085"/>
<path d="M18.8629 20.2621C18.0693 20.2621 17.2755 20.2641 16.482 20.2611C16.178 20.2602 15.9834 20.0688 15.9925 19.7942C15.9997 19.578 16.1564 19.4007 16.3719 19.3713C16.4415 19.3618 16.5127 19.3608 16.5832 19.3608C18.1053 19.3602 19.6273 19.3602 21.1493 19.3608C21.2091 19.3608 21.2692 19.3612 21.3283 19.367C21.5804 19.3919 21.7492 19.5777 21.7446 19.8223C21.7404 20.0642 21.5611 20.2543 21.3087 20.2585C20.8143 20.2664 20.3193 20.2621 19.8249 20.2628C19.5042 20.2628 19.1835 20.2628 18.8629 20.2628V20.2621Z" fill="#667085"/>
</svg>
