<svg width="17" height="24" viewBox="0 0 17 24" fill="none" xmlns="http://www.w3.org/2000/svg">
<path d="M0.864172 11.7872C0.864172 10.2207 0.861821 8.65447 0.864759 7.08799C0.867698 5.4688 1.94685 4.04929 3.51325 3.62473C3.81684 3.54245 4.13952 3.49356 4.45339 3.49239C7.2697 3.48243 10.086 3.48272 12.902 3.48799C14.7044 3.49121 16.2873 4.9195 16.4598 6.70735C16.5042 7.16704 16.4877 7.63318 16.488 8.0961C16.4901 10.8824 16.4909 13.6687 16.4886 16.455C16.4871 18.0865 15.4185 19.5133 13.8471 19.9642C13.5591 20.0468 13.2508 20.0974 12.952 20.0986C10.0916 20.1083 7.2312 20.1112 4.3711 20.1015C2.73328 20.096 1.18333 18.7541 0.925006 17.1407C0.886801 16.9012 0.86711 16.6561 0.866229 16.4134C0.861527 14.8709 0.864172 13.329 0.864172 11.7872ZM15.6181 11.7962C15.6181 10.2397 15.6187 8.68317 15.6169 7.12664C15.6169 6.99048 15.6081 6.85375 15.5902 6.71876C15.418 5.4117 14.2374 4.35908 12.9132 4.35556C10.0825 4.34824 7.25177 4.35234 4.42107 4.35674C4.2368 4.35674 4.04871 4.38192 3.86885 4.4232C2.61837 4.70956 1.7373 5.81137 1.73642 7.09179C1.73437 10.2388 1.73554 13.3861 1.73584 16.5332C1.73584 16.6064 1.73495 16.6799 1.74259 16.7525C1.89218 18.1822 3.15677 19.2501 4.50747 19.2422C7.28909 19.2258 10.0707 19.2381 12.8526 19.2354C13.0278 19.2354 13.2068 19.2258 13.3778 19.1909C14.6891 18.9242 15.6172 17.7855 15.6178 16.4509C15.6184 14.8993 15.6178 13.3478 15.6178 11.7959L15.6181 11.7962Z" fill="#202020"/>
<path d="M11.0843 0.867137V2.3531H10.2165V0.877971H7.14711V2.35047H6.27427V0.847812C5.94395 0.869187 5.62949 0.863624 5.32708 0.921013C5.19425 0.946194 5.07552 1.08996 4.9706 1.19888C4.89478 1.27764 4.85451 1.38949 4.79339 1.48348C4.66349 1.68405 4.41898 1.74613 4.21531 1.6334C4.0187 1.52448 3.93583 1.28701 4.03281 1.07766C4.34462 0.40539 4.84393 0.00103081 5.61597 0.000738007C7.56472 -0.000140397 9.51377 -0.0010188 11.4625 0.00308042C11.6474 0.00337322 11.8337 0.0294325 12.0168 0.0601767C12.6316 0.164121 13.0425 0.535979 13.3172 1.07298C13.4216 1.27706 13.3381 1.51891 13.1427 1.63047C12.9461 1.74261 12.6766 1.7025 12.5755 1.49812C12.3166 0.97401 11.8696 0.851619 11.3423 0.866552C11.2644 0.868894 11.1863 0.866844 11.0843 0.866844V0.867137Z" fill="#202020"/>
<path d="M2.75781 23.5643C2.78074 23.4911 2.7969 23.4147 2.82746 23.3447C3.09989 22.7199 3.3738 22.0956 3.64975 21.472C3.76701 21.2073 4.00741 21.1048 4.24487 21.2129C4.47351 21.3168 4.5561 21.5598 4.44324 21.8187C4.16729 22.4526 3.88986 23.0859 3.60979 23.7181C3.51604 23.9298 3.31384 24.0352 3.11283 23.9889C2.91063 23.9423 2.77339 23.7731 2.75781 23.5643Z" fill="#202020"/>
<path d="M14.5802 23.5174C14.5817 23.7678 14.45 23.9361 14.2472 23.9874C14.0518 24.0368 13.844 23.9382 13.7529 23.7382C13.5857 23.3704 13.4258 22.9989 13.2633 22.6291C13.1437 22.357 13.0232 22.0856 12.9059 21.8127C12.7969 21.5589 12.8848 21.3085 13.1137 21.2096C13.3473 21.1085 13.5866 21.2096 13.7 21.4655C13.9783 22.0932 14.254 22.7219 14.5285 23.3511C14.5573 23.4167 14.5717 23.4887 14.5802 23.5174Z" fill="#202020"/>
<path d="M9.11761 7.30918V10.5569H14.5989V11.4181H2.75V10.5684H8.22685V7.31533H2.75441V6.45215H14.5989V7.30889H9.11791L9.11761 7.30918Z" fill="#202020"/>
<path d="M12.7288 14.2466C13.6507 14.244 14.4027 14.9921 14.4021 15.9106C14.4016 16.8259 13.6422 17.5819 12.7273 17.5787C11.8089 17.5752 11.0624 16.835 11.0586 15.9238C11.0548 14.9891 11.7916 14.2495 12.7291 14.2469L12.7288 14.2466ZM13.5302 15.9194C13.5325 15.4766 13.1805 15.1162 12.7376 15.1077C12.3 15.0995 11.9326 15.4594 11.9282 15.9006C11.9238 16.3501 12.2856 16.7146 12.7332 16.7123C13.1658 16.7099 13.5278 16.3498 13.5302 15.9194Z" fill="#202020"/>
<path d="M4.63789 14.2467C5.58714 14.2599 6.30951 15.0013 6.29628 15.9491C6.28394 16.8503 5.5169 17.5946 4.61761 17.5785C3.68276 17.5615 2.93864 16.8041 2.95334 15.885C2.96803 14.9723 3.72684 14.2342 4.63789 14.2467ZM5.42727 15.9178C5.4305 15.4736 5.08077 15.1155 4.63554 15.1073C4.20029 15.0994 3.82794 15.4645 3.825 15.9017C3.82206 16.3411 4.1806 16.7069 4.61967 16.7124C5.05991 16.718 5.42433 16.3596 5.42756 15.9178H5.42727Z" fill="#202020"/>
</svg>
